solid OpenSCAD_Model
  facet normal 0 0 -1
    outer loop
      vertex -4.89074 1.03956 -5
      vertex -4.56773 2.03368 -5
      vertex -5 0 -5
    endloop
  endfacet
  facet normal 0 0 -1
    outer loop
      vertex -5 0 -5
      vertex -4.56773 2.03368 -5
      vertex -4.04508 2.93893 -5
    endloop
  endfacet
  facet normal 0 0 -1
    outer loop
      vertex -5 0 -5
      vertex -4.04508 2.93893 -5
      vertex -3.34565 3.71572 -5
    endloop
  endfacet
  facet normal 0 0 -1
    outer loop
      vertex -5 0 -5
      vertex -3.34565 3.71572 -5
      vertex -2.5 4.33013 -5
    endloop
  endfacet
  facet normal 0 0 -1
    outer loop
      vertex -5 0 -5
      vertex -2.5 4.33013 -5
      vertex -1.54508 4.75528 -5
    endloop
  endfacet
  facet normal 0 0 -1
    outer loop
      vertex -5 0 -5
      vertex -1.54508 4.75528 -5
      vertex -0.522642 4.97261 -5
    endloop
  endfacet
  facet normal 0 0 -1
    outer loop
      vertex -5 0 -5
      vertex -0.522642 4.97261 -5
      vertex 0.522642 4.97261 -5
    endloop
  endfacet
  facet normal 0 0 -1
    outer loop
      vertex -5 0 -5
      vertex 0.522642 4.97261 -5
      vertex 1.54508 4.75528 -5
    endloop
  endfacet
  facet normal 0 0 -1
    outer loop
      vertex -5 0 -5
      vertex 1.54508 4.75528 -5
      vertex 2.5 4.33013 -5
    endloop
  endfacet
  facet normal 0 0 -1
    outer loop
      vertex -5 0 -5
      vertex 2.5 4.33013 -5
      vertex 3.34565 3.71572 -5
    endloop
  endfacet
  facet normal 0 0 -1
    outer loop
      vertex -5 0 -5
      vertex 3.34565 3.71572 -5
      vertex 4.04508 2.93893 -5
    endloop
  endfacet
  facet normal 0 0 -1
    outer loop
      vertex -5 0 -5
      vertex 4.04508 2.93893 -5
      vertex 4.56773 2.03368 -5
    endloop
  endfacet
  facet normal 0 0 -1
    outer loop
      vertex -5 0 -5
      vertex 4.56773 2.03368 -5
      vertex 4.89074 1.03956 -5
    endloop
  endfacet
  facet normal 0 0 -1
    outer loop
      vertex -5 0 -5
      vertex 4.89074 1.03956 -5
      vertex 5 0 -5
    endloop
  endfacet
  facet normal 0 0 -1
    outer loop
      vertex -5 0 -5
      vertex 5 0 -5
      vertex 4.89074 -1.03956 -5
    endloop
  endfacet
  facet normal 0 0 -1
    outer loop
      vertex -5 0 -5
      vertex 4.89074 -1.03956 -5
      vertex 4.56773 -2.03368 -5
    endloop
  endfacet
  facet normal 0 0 -1
    outer loop
      vertex -5 0 -5
      vertex 4.56773 -2.03368 -5
      vertex 4.04508 -2.93893 -5
    endloop
  endfacet
  facet normal 0 0 -1
    outer loop
      vertex -5 0 -5
      vertex 4.04508 -2.93893 -5
      vertex 3.34565 -3.71572 -5
    endloop
  endfacet
  facet normal 0 0 -1
    outer loop
      vertex -5 0 -5
      vertex 3.34565 -3.71572 -5
      vertex 2.5 -4.33013 -5
    endloop
  endfacet
  facet normal 0 0 -1
    outer loop
      vertex -5 0 -5
      vertex 2.5 -4.33013 -5
      vertex 1.54508 -4.75528 -5
    endloop
  endfacet
  facet normal 0 0 -1
    outer loop
      vertex -5 0 -5
      vertex 1.54508 -4.75528 -5
      vertex 0.522642 -4.97261 -5
    endloop
  endfacet
  facet normal 0 0 -1
    outer loop
      vertex -5 0 -5
      vertex 0.522642 -4.97261 -5
      vertex -0.522642 -4.97261 -5
    endloop
  endfacet
  facet normal 0 0 -1
    outer loop
      vertex -5 0 -5
      vertex -0.522642 -4.97261 -5
      vertex -1.54508 -4.75528 -5
    endloop
  endfacet
  facet normal 0 0 -1
    outer loop
      vertex -5 0 -5
      vertex -1.54508 -4.75528 -5
      vertex -2.5 -4.33013 -5
    endloop
  endfacet
  facet normal 0 0 -1
    outer loop
      vertex -5 0 -5
      vertex -2.5 -4.33013 -5
      vertex -3.34565 -3.71572 -5
    endloop
  endfacet
  facet normal 0 0 -1
    outer loop
      vertex -5 0 -5
      vertex -3.34565 -3.71572 -5
      vertex -4.04508 -2.93893 -5
    endloop
  endfacet
  facet normal 0 0 -1
    outer loop
      vertex -5 0 -5
      vertex -4.04508 -2.93893 -5
      vertex -4.56773 -2.03368 -5
    endloop
  endfacet
  facet normal 0 0 -1
    outer loop
      vertex -5 0 -5
      vertex -4.56773 -2.03368 -5
      vertex -4.89074 -1.03956 -5
    endloop
  endfacet
  facet normal 0.994522 0.104529 0
    outer loop
      vertex 4.89074 1.03956 -5
      vertex 4.89074 1.03956 5
      vertex 5 0 5
    endloop
  endfacet
  facet normal 0.994522 0.104529 0
    outer loop
      vertex 5 0 -5
      vertex 4.89074 1.03956 -5
      vertex 5 0 5
    endloop
  endfacet
  facet normal 0.951056 0.309017 0
    outer loop
      vertex 4.56773 2.03368 -5
      vertex 4.56773 2.03368 5
      vertex 4.89074 1.03956 5
    endloop
  endfacet
  facet normal 0.951056 0.309017 0
    outer loop
      vertex 4.89074 1.03956 -5
      vertex 4.56773 2.03368 -5
      vertex 4.89074 1.03956 5
    endloop
  endfacet
  facet normal -0.994522 0.104529 0
    outer loop
      vertex -5 0 5
      vertex -4.89074 1.03956 5
      vertex -5 0 -5
    endloop
  endfacet
  facet normal -0.994522 0.104529 0
    outer loop
      vertex -5 0 -5
      vertex -4.89074 1.03956 5
      vertex -4.89074 1.03956 -5
    endloop
  endfacet
  facet normal -0.994522 -0.104529 0
    outer loop
      vertex -4.89074 -1.03956 -5
      vertex -4.89074 -1.03956 5
      vertex -5 0 -5
    endloop
  endfacet
  facet normal -0.994522 -0.104529 0
    outer loop
      vertex -5 0 -5
      vertex -4.89074 -1.03956 5
      vertex -5 0 5
    endloop
  endfacet
  facet normal -0.951056 -0.309017 0
    outer loop
      vertex -4.56773 -2.03368 -5
      vertex -4.56773 -2.03368 5
      vertex -4.89074 -1.03956 -5
    endloop
  endfacet
  facet normal -0.951056 -0.309017 0
    outer loop
      vertex -4.89074 -1.03956 -5
      vertex -4.56773 -2.03368 5
      vertex -4.89074 -1.03956 5
    endloop
  endfacet
  facet normal -0.866026 -0.5 0
    outer loop
      vertex -4.04508 -2.93893 -5
      vertex -4.04508 -2.93893 5
      vertex -4.56773 -2.03368 -5
    endloop
  endfacet
  facet normal -0.866026 -0.5 0
    outer loop
      vertex -4.56773 -2.03368 -5
      vertex -4.04508 -2.93893 5
      vertex -4.56773 -2.03368 5
    endloop
  endfacet
  facet normal -0.743145 -0.669131 0
    outer loop
      vertex -3.34565 -3.71572 -5
      vertex -3.34565 -3.71572 5
      vertex -4.04508 -2.93893 -5
    endloop
  endfacet
  facet normal -0.743145 -0.669131 0
    outer loop
      vertex -4.04508 -2.93893 -5
      vertex -3.34565 -3.71572 5
      vertex -4.04508 -2.93893 5
    endloop
  endfacet
  facet normal -0.587785 -0.809017 0
    outer loop
      vertex -3.34565 -3.71572 -5
      vertex -2.5 -4.33013 -5
      vertex -2.5 -4.33013 5
    endloop
  endfacet
  facet normal -0.587785 -0.809017 0
    outer loop
      vertex -3.34565 -3.71572 5
      vertex -3.34565 -3.71572 -5
      vertex -2.5 -4.33013 5
    endloop
  endfacet
  facet normal -0.406737 -0.913545 0
    outer loop
      vertex -2.5 -4.33013 -5
      vertex -1.54508 -4.75528 -5
      vertex -1.54508 -4.75528 5
    endloop
  endfacet
  facet normal -0.406737 -0.913545 0
    outer loop
      vertex -2.5 -4.33013 5
      vertex -2.5 -4.33013 -5
      vertex -1.54508 -4.75528 5
    endloop
  endfacet
  facet normal -0.207911 -0.978148 0
    outer loop
      vertex -1.54508 -4.75528 -5
      vertex -0.522642 -4.97261 -5
      vertex -0.522642 -4.97261 5
    endloop
  endfacet
  facet normal -0.207911 -0.978148 0
    outer loop
      vertex -1.54508 -4.75528 5
      vertex -1.54508 -4.75528 -5
      vertex -0.522642 -4.97261 5
    endloop
  endfacet
  facet normal 0 -1 0
    outer loop
      vertex -0.522642 -4.97261 -5
      vertex 0.522642 -4.97261 -5
      vertex 0.522642 -4.97261 5
    endloop
  endfacet
  facet normal 0 -1 0
    outer loop
      vertex -0.522642 -4.97261 5
      vertex -0.522642 -4.97261 -5
      vertex 0.522642 -4.97261 5
    endloop
  endfacet
  facet normal 0.207911 -0.978148 0
    outer loop
      vertex 0.522642 -4.97261 -5
      vertex 1.54508 -4.75528 -5
      vertex 1.54508 -4.75528 5
    endloop
  endfacet
  facet normal 0.207911 -0.978148 0
    outer loop
      vertex 0.522642 -4.97261 5
      vertex 0.522642 -4.97261 -5
      vertex 1.54508 -4.75528 5
    endloop
  endfacet
  facet normal 0.406737 -0.913545 0
    outer loop
      vertex 1.54508 -4.75528 -5
      vertex 2.5 -4.33013 -5
      vertex 2.5 -4.33013 5
    endloop
  endfacet
  facet normal 0.406737 -0.913545 0
    outer loop
      vertex 1.54508 -4.75528 5
      vertex 1.54508 -4.75528 -5
      vertex 2.5 -4.33013 5
    endloop
  endfacet
  facet normal 0.587785 -0.809017 0
    outer loop
      vertex 2.5 -4.33013 -5
      vertex 3.34565 -3.71572 -5
      vertex 3.34565 -3.71572 5
    endloop
  endfacet
  facet normal 0.587785 -0.809017 0
    outer loop
      vertex 2.5 -4.33013 5
      vertex 2.5 -4.33013 -5
      vertex 3.34565 -3.71572 5
    endloop
  endfacet
  facet normal 0.743145 -0.669131 0
    outer loop
      vertex 3.34565 -3.71572 -5
      vertex 4.04508 -2.93893 -5
      vertex 4.04508 -2.93893 5
    endloop
  endfacet
  facet normal 0.743145 -0.669131 0
    outer loop
      vertex 3.34565 -3.71572 5
      vertex 3.34565 -3.71572 -5
      vertex 4.04508 -2.93893 5
    endloop
  endfacet
  facet normal 0.866026 -0.5 0
    outer loop
      vertex 4.04508 -2.93893 -5
      vertex 4.56773 -2.03368 -5
      vertex 4.56773 -2.03368 5
    endloop
  endfacet
  facet normal 0.866026 -0.5 0
    outer loop
      vertex 4.04508 -2.93893 5
      vertex 4.04508 -2.93893 -5
      vertex 4.56773 -2.03368 5
    endloop
  endfacet
  facet normal 0.951056 -0.309017 0
    outer loop
      vertex 4.56773 -2.03368 -5
      vertex 4.89074 -1.03956 -5
      vertex 4.89074 -1.03956 5
    endloop
  endfacet
  facet normal 0.951056 -0.309017 0
    outer loop
      vertex 4.56773 -2.03368 5
      vertex 4.56773 -2.03368 -5
      vertex 4.89074 -1.03956 5
    endloop
  endfacet
  facet normal 0.994522 -0.104529 0
    outer loop
      vertex 4.89074 -1.03956 -5
      vertex 5 0 -5
      vertex 5 0 5
    endloop
  endfacet
  facet normal 0.994522 -0.104529 0
    outer loop
      vertex 4.89074 -1.03956 5
      vertex 4.89074 -1.03956 -5
      vertex 5 0 5
    endloop
  endfacet
  facet normal 0.866026 0.5 0
    outer loop
      vertex 4.04508 2.93893 -5
      vertex 4.04508 2.93893 5
      vertex 4.56773 2.03368 5
    endloop
  endfacet
  facet normal 0.866026 0.5 0
    outer loop
      vertex 4.56773 2.03368 -5
      vertex 4.04508 2.93893 -5
      vertex 4.56773 2.03368 5
    endloop
  endfacet
  facet normal 0.743145 0.669131 0
    outer loop
      vertex 3.34565 3.71572 -5
      vertex 3.34565 3.71572 5
      vertex 4.04508 2.93893 5
    endloop
  endfacet
  facet normal 0.743145 0.669131 0
    outer loop
      vertex 4.04508 2.93893 -5
      vertex 3.34565 3.71572 -5
      vertex 4.04508 2.93893 5
    endloop
  endfacet
  facet normal 0.587785 0.809017 0
    outer loop
      vertex 2.5 4.33013 5
      vertex 3.34565 3.71572 5
      vertex 2.5 4.33013 -5
    endloop
  endfacet
  facet normal 0.587785 0.809017 0
    outer loop
      vertex 2.5 4.33013 -5
      vertex 3.34565 3.71572 5
      vertex 3.34565 3.71572 -5
    endloop
  endfacet
  facet normal 0.406737 0.913545 0
    outer loop
      vertex 1.54508 4.75528 5
      vertex 2.5 4.33013 5
      vertex 1.54508 4.75528 -5
    endloop
  endfacet
  facet normal 0.406737 0.913545 0
    outer loop
      vertex 1.54508 4.75528 -5
      vertex 2.5 4.33013 5
      vertex 2.5 4.33013 -5
    endloop
  endfacet
  facet normal 0.207911 0.978148 0
    outer loop
      vertex 0.522642 4.97261 5
      vertex 1.54508 4.75528 5
      vertex 0.522642 4.97261 -5
    endloop
  endfacet
  facet normal 0.207911 0.978148 0
    outer loop
      vertex 0.522642 4.97261 -5
      vertex 1.54508 4.75528 5
      vertex 1.54508 4.75528 -5
    endloop
  endfacet
  facet normal 0 1 0
    outer loop
      vertex -0.522642 4.97261 5
      vertex 0.522642 4.97261 5
      vertex -0.522642 4.97261 -5
    endloop
  endfacet
  facet normal 0 1 0
    outer loop
      vertex -0.522642 4.97261 -5
      vertex 0.522642 4.97261 5
      vertex 0.522642 4.97261 -5
    endloop
  endfacet
  facet normal -0.207911 0.978148 0
    outer loop
      vertex -1.54508 4.75528 5
      vertex -0.522642 4.97261 5
      vertex -1.54508 4.75528 -5
    endloop
  endfacet
  facet normal -0.207911 0.978148 0
    outer loop
      vertex -1.54508 4.75528 -5
      vertex -0.522642 4.97261 5
      vertex -0.522642 4.97261 -5
    endloop
  endfacet
  facet normal -0.406737 0.913545 0
    outer loop
      vertex -2.5 4.33013 5
      vertex -1.54508 4.75528 5
      vertex -2.5 4.33013 -5
    endloop
  endfacet
  facet normal -0.406737 0.913545 0
    outer loop
      vertex -2.5 4.33013 -5
      vertex -1.54508 4.75528 5
      vertex -1.54508 4.75528 -5
    endloop
  endfacet
  facet normal -0.587785 0.809017 0
    outer loop
      vertex -3.34565 3.71572 5
      vertex -2.5 4.33013 5
      vertex -3.34565 3.71572 -5
    endloop
  endfacet
  facet normal -0.587785 0.809017 0
    outer loop
      vertex -3.34565 3.71572 -5
      vertex -2.5 4.33013 5
      vertex -2.5 4.33013 -5
    endloop
  endfacet
  facet normal -0.743145 0.669131 0
    outer loop
      vertex -4.04508 2.93893 5
      vertex -3.34565 3.71572 5
      vertex -4.04508 2.93893 -5
    endloop
  endfacet
  facet normal -0.743145 0.669131 0
    outer loop
      vertex -4.04508 2.93893 -5
      vertex -3.34565 3.71572 5
      vertex -3.34565 3.71572 -5
    endloop
  endfacet
  facet normal -0.866026 0.5 0
    outer loop
      vertex -4.56773 2.03368 5
      vertex -4.04508 2.93893 5
      vertex -4.56773 2.03368 -5
    endloop
  endfacet
  facet normal -0.866026 0.5 0
    outer loop
      vertex -4.56773 2.03368 -5
      vertex -4.04508 2.93893 5
      vertex -4.04508 2.93893 -5
    endloop
  endfacet
  facet normal -0.951056 0.309017 0
    outer loop
      vertex -4.89074 1.03956 5
      vertex -4.56773 2.03368 5
      vertex -4.89074 1.03956 -5
    endloop
  endfacet
  facet normal -0.951056 0.309017 0
    outer loop
      vertex -4.89074 1.03956 -5
      vertex -4.56773 2.03368 5
      vertex -4.56773 2.03368 -5
    endloop
  endfacet
  facet normal 0 0 1
    outer loop
      vertex -5 0 5
      vertex -4.89074 -1.03956 5
      vertex -4.56773 -2.03368 5
    endloop
  endfacet
  facet normal 0 0 1
    outer loop
      vertex -3.34565 -3.71572 5
      vertex -5 0 5
      vertex -4.04508 -2.93893 5
    endloop
  endfacet
  facet normal 0 0 1
    outer loop
      vertex -4.04508 -2.93893 5
      vertex -5 0 5
      vertex -4.56773 -2.03368 5
    endloop
  endfacet
  facet normal 0 0 1
    outer loop
      vertex -2.5 -4.33013 5
      vertex -5 0 5
      vertex -3.34565 -3.71572 5
    endloop
  endfacet
  facet normal 0 0 1
    outer loop
      vertex -1.54508 -4.75528 5
      vertex -5 0 5
      vertex -2.5 -4.33013 5
    endloop
  endfacet
  facet normal 0 0 1
    outer loop
      vertex -0.522642 -4.97261 5
      vertex -5 0 5
      vertex -1.54508 -4.75528 5
    endloop
  endfacet
  facet normal 0 0 1
    outer loop
      vertex 0.522642 -4.97261 5
      vertex -5 0 5
      vertex -0.522642 -4.97261 5
    endloop
  endfacet
  facet normal 0 0 1
    outer loop
      vertex 1.54508 -4.75528 5
      vertex -5 0 5
      vertex 0.522642 -4.97261 5
    endloop
  endfacet
  facet normal 0 0 1
    outer loop
      vertex 2.5 -4.33013 5
      vertex -5 0 5
      vertex 1.54508 -4.75528 5
    endloop
  endfacet
  facet normal 0 0 1
    outer loop
      vertex 3.34565 -3.71572 5
      vertex -5 0 5
      vertex 2.5 -4.33013 5
    endloop
  endfacet
  facet normal 0 0 1
    outer loop
      vertex 4.04508 -2.93893 5
      vertex -5 0 5
      vertex 3.34565 -3.71572 5
    endloop
  endfacet
  facet normal 0 0 1
    outer loop
      vertex 4.56773 -2.03368 5
      vertex -5 0 5
      vertex 4.04508 -2.93893 5
    endloop
  endfacet
  facet normal 0 0 1
    outer loop
      vertex 4.89074 -1.03956 5
      vertex -5 0 5
      vertex 4.56773 -2.03368 5
    endloop
  endfacet
  facet normal 0 0 1
    outer loop
      vertex 5 0 5
      vertex -5 0 5
      vertex 4.89074 -1.03956 5
    endloop
  endfacet
  facet normal 0 0 1
    outer loop
      vertex 4.89074 1.03956 5
      vertex -5 0 5
      vertex 5 0 5
    endloop
  endfacet
  facet normal 0 0 1
    outer loop
      vertex 4.56773 2.03368 5
      vertex -5 0 5
      vertex 4.89074 1.03956 5
    endloop
  endfacet
  facet normal 0 0 1
    outer loop
      vertex 4.04508 2.93893 5
      vertex -5 0 5
      vertex 4.56773 2.03368 5
    endloop
  endfacet
  facet normal 0 0 1
    outer loop
      vertex 3.34565 3.71572 5
      vertex -5 0 5
      vertex 4.04508 2.93893 5
    endloop
  endfacet
  facet normal 0 0 1
    outer loop
      vertex 2.5 4.33013 5
      vertex -5 0 5
      vertex 3.34565 3.71572 5
    endloop
  endfacet
  facet normal 0 0 1
    outer loop
      vertex 1.54508 4.75528 5
      vertex -5 0 5
      vertex 2.5 4.33013 5
    endloop
  endfacet
  facet normal 0 0 1
    outer loop
      vertex 0.522642 4.97261 5
      vertex -5 0 5
      vertex 1.54508 4.75528 5
    endloop
  endfacet
  facet normal 0 0 1
    outer loop
      vertex -0.522642 4.97261 5
      vertex -5 0 5
      vertex 0.522642 4.97261 5
    endloop
  endfacet
  facet normal 0 0 1
    outer loop
      vertex -1.54508 4.75528 5
      vertex -5 0 5
      vertex -0.522642 4.97261 5
    endloop
  endfacet
  facet normal 0 0 1
    outer loop
      vertex -2.5 4.33013 5
      vertex -5 0 5
      vertex -1.54508 4.75528 5
    endloop
  endfacet
  facet normal 0 0 1
    outer loop
      vertex -3.34565 3.71572 5
      vertex -5 0 5
      vertex -2.5 4.33013 5
    endloop
  endfacet
  facet normal 0 0 1
    outer loop
      vertex -4.04508 2.93893 5
      vertex -5 0 5
      vertex -3.34565 3.71572 5
    endloop
  endfacet
  facet normal 0 0 1
    outer loop
      vertex -4.56773 2.03368 5
      vertex -5 0 5
      vertex -4.04508 2.93893 5
    endloop
  endfacet
  facet normal 0 0 1
    outer loop
      vertex -4.89074 1.03956 5
      vertex -5 0 5
      vertex -4.56773 2.03368 5
    endloop
  endfacet
endsolid OpenSCAD_Model
