solid OpenSCAD_Model
  facet normal -1 0 0
    outer loop
      vertex -5 3 -5
      vertex -5 3 5
      vertex -5 13 -5
    endloop
  endfacet
  facet normal -1 0 0
    outer loop
      vertex -5 13 -5
      vertex -5 3 5
      vertex -5 13 5
    endloop
  endfacet
  facet normal 0 -1 0
    outer loop
      vertex -5 3 5
      vertex -5 3 -5
      vertex 5 3 -5
    endloop
  endfacet
  facet normal 0 -1 0
    outer loop
      vertex 5 3 5
      vertex -5 3 5
      vertex 5 3 -5
    endloop
  endfacet
  facet normal 0 0 -1
    outer loop
      vertex -5 3 -5
      vertex -5 13 -5
      vertex 5 3 -5
    endloop
  endfacet
  facet normal 0 0 -1
    outer loop
      vertex 5 3 -5
      vertex -5 13 -5
      vertex 5 13 -5
    endloop
  endfacet
  facet normal 0 1 0
    outer loop
      vertex -5 13 -5
      vertex -5 13 5
      vertex 5 13 -5
    endloop
  endfacet
  facet normal 0 1 0
    outer loop
      vertex 5 13 -5
      vertex -5 13 5
      vertex 5 13 5
    endloop
  endfacet
  facet normal 0 0 1
    outer loop
      vertex -5 13 5
      vertex -5 3 5
      vertex 5 3 5
    endloop
  endfacet
  facet normal 0 0 1
    outer loop
      vertex 5 13 5
      vertex -5 13 5
      vertex 5 3 5
    endloop
  endfacet
  facet normal 1 0 0
    outer loop
      vertex 5 3 5
      vertex 5 3 -5
      vertex 5 13 -5
    endloop
  endfacet
  facet normal 1 0 0
    outer loop
      vertex 5 13 5
      vertex 5 3 5
      vertex 5 13 -5
    endloop
  endfacet
  facet normal -1 0 0
    outer loop
      vertex -5 -13 -5
      vertex -5 -13 5
      vertex -5 -3 -5
    endloop
  endfacet
  facet normal -1 0 0
    outer loop
      vertex -5 -3 -5
      vertex -5 -13 5
      vertex -5 -3 5
    endloop
  endfacet
  facet normal 0 -1 0
    outer loop
      vertex -5 -13 5
      vertex -5 -13 -5
      vertex 5 -13 -5
    endloop
  endfacet
  facet normal 0 -1 0
    outer loop
      vertex 5 -13 5
      vertex -5 -13 5
      vertex 5 -13 -5
    endloop
  endfacet
  facet normal 0 0 -1
    outer loop
      vertex -5 -13 -5
      vertex -5 -3 -5
      vertex 5 -13 -5
    endloop
  endfacet
  facet normal 0 0 -1
    outer loop
      vertex 5 -13 -5
      vertex -5 -3 -5
      vertex 5 -3 -5
    endloop
  endfacet
  facet normal 0 1 0
    outer loop
      vertex -5 -3 -5
      vertex -5 -3 5
      vertex 5 -3 -5
    endloop
  endfacet
  facet normal 0 1 0
    outer loop
      vertex 5 -3 -5
      vertex -5 -3 5
      vertex 5 -3 5
    endloop
  endfacet
  facet normal 0 0 1
    outer loop
      vertex -5 -3 5
      vertex -5 -13 5
      vertex 5 -13 5
    endloop
  endfacet
  facet normal 0 0 1
    outer loop
      vertex 5 -3 5
      vertex -5 -3 5
      vertex 5 -13 5
    endloop
  endfacet
  facet normal 1 0 0
    outer loop
      vertex 5 -13 5
      vertex 5 -13 -5
      vertex 5 -3 -5
    endloop
  endfacet
  facet normal 1 0 0
    outer loop
      vertex 5 -3 5
      vertex 5 -13 5
      vertex 5 -3 -5
    endloop
  endfacet
  facet normal -1 0 0
    outer loop
      vertex -17 -5 -5
      vertex -17 -5 5
      vertex -17 5 -5
    endloop
  endfacet
  facet normal -1 0 0
    outer loop
      vertex -17 5 -5
      vertex -17 -5 5
      vertex -17 5 5
    endloop
  endfacet
  facet normal 0 -1 0
    outer loop
      vertex -17 -5 5
      vertex -17 -5 -5
      vertex -7 -5 -5
    endloop
  endfacet
  facet normal 0 -1 0
    outer loop
      vertex -7 -5 5
      vertex -17 -5 5
      vertex -7 -5 -5
    endloop
  endfacet
  facet normal 0 0 -1
    outer loop
      vertex -17 -5 -5
      vertex -17 5 -5
      vertex -7 -5 -5
    endloop
  endfacet
  facet normal 0 0 -1
    outer loop
      vertex -7 -5 -5
      vertex -17 5 -5
      vertex -7 5 -5
    endloop
  endfacet
  facet normal 0 1 0
    outer loop
      vertex -17 5 -5
      vertex -17 5 5
      vertex -7 5 -5
    endloop
  endfacet
  facet normal 0 1 0
    outer loop
      vertex -7 5 -5
      vertex -17 5 5
      vertex -7 5 5
    endloop
  endfacet
  facet normal 0 0 1
    outer loop
      vertex -17 5 5
      vertex -17 -5 5
      vertex -7 -5 5
    endloop
  endfacet
  facet normal 0 0 1
    outer loop
      vertex -7 5 5
      vertex -17 5 5
      vertex -7 -5 5
    endloop
  endfacet
  facet normal 1 0 0
    outer loop
      vertex -7 -5 5
      vertex -7 -5 -5
      vertex -7 5 -5
    endloop
  endfacet
  facet normal 1 0 0
    outer loop
      vertex -7 5 5
      vertex -7 -5 5
      vertex -7 5 -5
    endloop
  endfacet
endsolid OpenSCAD_Model
