solid OpenSCAD_Model
  facet normal 1 0 1.22465e-16
    outer loop
      vertex 57.5 60 31.75
      vertex 57.5 -60 31.75
      vertex 57.5 -60 28.25
    endloop
  endfacet
  facet normal 1 0 1.22465e-16
    outer loop
      vertex 57.5 60 28.25
      vertex 57.5 60 31.75
      vertex 57.5 -60 28.25
    endloop
  endfacet
  facet normal 0.998027 -0.0627898 1.22223e-16
    outer loop
      vertex 57.5 -60 28.25
      vertex 57.5 -60 31.75
      vertex 57.4606 -60.6267 31.75
    endloop
  endfacet
  facet normal 0.998027 -0.0627898 1.22223e-16
    outer loop
      vertex 57.4606 -60.6267 28.25
      vertex 57.5 -60 28.25
      vertex 57.4606 -60.6267 31.75
    endloop
  endfacet
  facet normal -1.22465e-16 0 1
    outer loop
      vertex 57.4606 -60.6267 31.75
      vertex 57.5 -60 31.75
      vertex 57.5 60 31.75
    endloop
  endfacet
  facet normal -1.22465e-16 0 1
    outer loop
      vertex 57.3429 61.2434 31.75
      vertex 57.4606 -60.6267 31.75
      vertex 57.4606 60.6267 31.75
    endloop
  endfacet
  facet normal -1.22465e-16 0 1
    outer loop
      vertex 57.4606 60.6267 31.75
      vertex 57.4606 -60.6267 31.75
      vertex 57.5 60 31.75
    endloop
  endfacet
  facet normal -1.22465e-16 0 1
    outer loop
      vertex 57.1489 61.8406 31.75
      vertex 57.4606 -60.6267 31.75
      vertex 57.3429 61.2434 31.75
    endloop
  endfacet
  facet normal -1.22465e-16 0 1
    outer loop
      vertex 56.8815 62.4088 31.75
      vertex 57.4606 -60.6267 31.75
      vertex 57.1489 61.8406 31.75
    endloop
  endfacet
  facet normal -1.22465e-16 0 1
    outer loop
      vertex 56.5451 62.9389 31.75
      vertex 57.4606 -60.6267 31.75
      vertex 56.8815 62.4088 31.75
    endloop
  endfacet
  facet normal -1.22465e-16 0 1
    outer loop
      vertex 56.1448 63.4227 31.75
      vertex 57.4606 -60.6267 31.75
      vertex 56.5451 62.9389 31.75
    endloop
  endfacet
  facet normal -1.22465e-16 0 1
    outer loop
      vertex 55.6871 63.8526 31.75
      vertex 57.4606 -60.6267 31.75
      vertex 56.1448 63.4227 31.75
    endloop
  endfacet
  facet normal -1.22465e-16 0 1
    outer loop
      vertex 55.1791 64.2216 31.75
      vertex 57.4606 -60.6267 31.75
      vertex 55.6871 63.8526 31.75
    endloop
  endfacet
  facet normal -1.22465e-16 0 1
    outer loop
      vertex 54.6289 64.5241 31.75
      vertex 57.4606 -60.6267 31.75
      vertex 55.1791 64.2216 31.75
    endloop
  endfacet
  facet normal -1.22465e-16 0 1
    outer loop
      vertex 54.0451 64.7553 31.75
      vertex 57.4606 -60.6267 31.75
      vertex 54.6289 64.5241 31.75
    endloop
  endfacet
  facet normal -1.22465e-16 0 1
    outer loop
      vertex 53.4369 64.9114 31.75
      vertex 57.4606 -60.6267 31.75
      vertex 54.0451 64.7553 31.75
    endloop
  endfacet
  facet normal -1.22465e-16 0 1
    outer loop
      vertex 52.814 64.9901 31.75
      vertex 57.4606 -60.6267 31.75
      vertex 53.4369 64.9114 31.75
    endloop
  endfacet
  facet normal -1.22465e-16 0 1
    outer loop
      vertex -38 60 31.75
      vertex 57.4606 -60.6267 31.75
      vertex 52.814 64.9901 31.75
    endloop
  endfacet
  facet normal -1.22465e-16 0 1
    outer loop
      vertex -41 -60 31.75
      vertex -52.814 64.9901 31.75
      vertex -53.4369 64.9114 31.75
    endloop
  endfacet
  facet normal -1.22465e-16 0 1
    outer loop
      vertex -41 -60 31.75
      vertex -53.4369 64.9114 31.75
      vertex -54.0451 64.7553 31.75
    endloop
  endfacet
  facet normal -1.22465e-16 0 1
    outer loop
      vertex -41 -60 31.75
      vertex -54.0451 64.7553 31.75
      vertex -54.6289 64.5241 31.75
    endloop
  endfacet
  facet normal -1.22465e-16 0 1
    outer loop
      vertex -41 -60 31.75
      vertex -54.6289 64.5241 31.75
      vertex -55.1791 64.2216 31.75
    endloop
  endfacet
  facet normal -1.22465e-16 0 1
    outer loop
      vertex -41 -60 31.75
      vertex -55.1791 64.2216 31.75
      vertex -55.6871 63.8526 31.75
    endloop
  endfacet
  facet normal -1.22465e-16 0 1
    outer loop
      vertex -41 -60 31.75
      vertex -55.6871 63.8526 31.75
      vertex -56.1448 63.4227 31.75
    endloop
  endfacet
  facet normal -1.22465e-16 0 1
    outer loop
      vertex -41 -60 31.75
      vertex -56.1448 63.4227 31.75
      vertex -56.5451 62.9389 31.75
    endloop
  endfacet
  facet normal -1.22465e-16 0 1
    outer loop
      vertex -41 -60 31.75
      vertex -56.5451 62.9389 31.75
      vertex -56.8815 62.4088 31.75
    endloop
  endfacet
  facet normal -1.22465e-16 0 1
    outer loop
      vertex -41 -60 31.75
      vertex -56.8815 62.4088 31.75
      vertex -57.1489 61.8406 31.75
    endloop
  endfacet
  facet normal -1.22465e-16 0 1
    outer loop
      vertex -41 -60 31.75
      vertex -57.1489 61.8406 31.75
      vertex -57.3429 61.2434 31.75
    endloop
  endfacet
  facet normal -1.22465e-16 0 1
    outer loop
      vertex -41 -60 31.75
      vertex -57.3429 61.2434 31.75
      vertex -57.4606 60.6267 31.75
    endloop
  endfacet
  facet normal -1.22465e-16 0 1
    outer loop
      vertex -41 -60 31.75
      vertex -57.4606 60.6267 31.75
      vertex -57.5 60 31.75
    endloop
  endfacet
  facet normal -1.22465e-16 0 1
    outer loop
      vertex -57.4606 -60.6267 31.75
      vertex 57.4606 -60.6267 31.75
      vertex -57.5 -60 31.75
    endloop
  endfacet
  facet normal -1.22465e-16 0 1
    outer loop
      vertex -57.3429 -61.2434 31.75
      vertex 57.4606 -60.6267 31.75
      vertex -57.4606 -60.6267 31.75
    endloop
  endfacet
  facet normal -1.22465e-16 0 1
    outer loop
      vertex -57.1489 -61.8406 31.75
      vertex 57.4606 -60.6267 31.75
      vertex -57.3429 -61.2434 31.75
    endloop
  endfacet
  facet normal -1.22465e-16 0 1
    outer loop
      vertex -56.8815 -62.4088 31.75
      vertex 57.4606 -60.6267 31.75
      vertex -57.1489 -61.8406 31.75
    endloop
  endfacet
  facet normal -1.22465e-16 0 1
    outer loop
      vertex -56.5451 -62.9389 31.75
      vertex 57.4606 -60.6267 31.75
      vertex -56.8815 -62.4088 31.75
    endloop
  endfacet
  facet normal -1.22465e-16 0 1
    outer loop
      vertex -56.1448 -63.4227 31.75
      vertex 57.4606 -60.6267 31.75
      vertex -56.5451 -62.9389 31.75
    endloop
  endfacet
  facet normal -1.22465e-16 0 1
    outer loop
      vertex -55.6871 -63.8526 31.75
      vertex 57.4606 -60.6267 31.75
      vertex -56.1448 -63.4227 31.75
    endloop
  endfacet
  facet normal -1.22465e-16 0 1
    outer loop
      vertex -55.1791 -64.2216 31.75
      vertex 57.4606 -60.6267 31.75
      vertex -55.6871 -63.8526 31.75
    endloop
  endfacet
  facet normal -1.22465e-16 0 1
    outer loop
      vertex -54.6289 -64.5241 31.75
      vertex 57.4606 -60.6267 31.75
      vertex -55.1791 -64.2216 31.75
    endloop
  endfacet
  facet normal -1.22465e-16 0 1
    outer loop
      vertex -54.0451 -64.7553 31.75
      vertex 57.4606 -60.6267 31.75
      vertex -54.6289 -64.5241 31.75
    endloop
  endfacet
  facet normal -1.22465e-16 0 1
    outer loop
      vertex -53.4369 -64.9114 31.75
      vertex 57.4606 -60.6267 31.75
      vertex -54.0451 -64.7553 31.75
    endloop
  endfacet
  facet normal -1.22465e-16 0 1
    outer loop
      vertex -52.814 -64.9901 31.75
      vertex 57.4606 -60.6267 31.75
      vertex -53.4369 -64.9114 31.75
    endloop
  endfacet
  facet normal -1.22465e-16 0 1
    outer loop
      vertex 52.814 -64.9901 31.75
      vertex 57.4606 -60.6267 31.75
      vertex -52.814 -64.9901 31.75
    endloop
  endfacet
  facet normal -1.22465e-16 0 1
    outer loop
      vertex 53.4369 -64.9114 31.75
      vertex 57.4606 -60.6267 31.75
      vertex 52.814 -64.9901 31.75
    endloop
  endfacet
  facet normal -1.22465e-16 0 1
    outer loop
      vertex 54.0451 -64.7553 31.75
      vertex 57.4606 -60.6267 31.75
      vertex 53.4369 -64.9114 31.75
    endloop
  endfacet
  facet normal -1.22465e-16 0 1
    outer loop
      vertex 54.6289 -64.5241 31.75
      vertex 57.4606 -60.6267 31.75
      vertex 54.0451 -64.7553 31.75
    endloop
  endfacet
  facet normal -1.22465e-16 0 1
    outer loop
      vertex 55.1791 -64.2216 31.75
      vertex 57.4606 -60.6267 31.75
      vertex 54.6289 -64.5241 31.75
    endloop
  endfacet
  facet normal -1.22465e-16 0 1
    outer loop
      vertex 55.6871 -63.8526 31.75
      vertex 57.4606 -60.6267 31.75
      vertex 55.1791 -64.2216 31.75
    endloop
  endfacet
  facet normal -1.22465e-16 0 1
    outer loop
      vertex 56.1448 -63.4227 31.75
      vertex 57.4606 -60.6267 31.75
      vertex 55.6871 -63.8526 31.75
    endloop
  endfacet
  facet normal -1.22465e-16 0 1
    outer loop
      vertex 56.5451 -62.9389 31.75
      vertex 57.4606 -60.6267 31.75
      vertex 56.1448 -63.4227 31.75
    endloop
  endfacet
  facet normal -1.22465e-16 0 1
    outer loop
      vertex 56.8815 -62.4088 31.75
      vertex 57.4606 -60.6267 31.75
      vertex 56.5451 -62.9389 31.75
    endloop
  endfacet
  facet normal -1.22465e-16 0 1
    outer loop
      vertex 57.1489 -61.8406 31.75
      vertex 57.4606 -60.6267 31.75
      vertex 56.8815 -62.4088 31.75
    endloop
  endfacet
  facet normal -1.22465e-16 0 1
    outer loop
      vertex 57.3429 -61.2434 31.75
      vertex 57.4606 -60.6267 31.75
      vertex 57.1489 -61.8406 31.75
    endloop
  endfacet
  facet normal -1.22465e-16 0 1
    outer loop
      vertex -52.814 64.9901 31.75
      vertex -38 60 31.75
      vertex 52.814 64.9901 31.75
    endloop
  endfacet
  facet normal -1.22465e-16 0 1
    outer loop
      vertex -57.5 -60 31.75
      vertex -41 -60 31.75
      vertex -57.5 60 31.75
    endloop
  endfacet
  facet normal -1.22465e-16 0 1
    outer loop
      vertex -41 -60 31.75
      vertex 57.4606 -60.6267 31.75
      vertex -38 -60 31.75
    endloop
  endfacet
  facet normal -1.22465e-16 0 1
    outer loop
      vertex -57.5 -60 31.75
      vertex 57.4606 -60.6267 31.75
      vertex -41 -60 31.75
    endloop
  endfacet
  facet normal -1.22465e-16 0 1
    outer loop
      vertex -52.814 64.9901 31.75
      vertex -41 60 31.75
      vertex -38 60 31.75
    endloop
  endfacet
  facet normal -1.22465e-16 0 1
    outer loop
      vertex -41 -60 31.75
      vertex -41 60 31.75
      vertex -52.814 64.9901 31.75
    endloop
  endfacet
  facet normal -1.22465e-16 0 1
    outer loop
      vertex -38 60 31.75
      vertex -38 -60 31.75
      vertex 57.4606 -60.6267 31.75
    endloop
  endfacet
  facet normal 0.998027 0.0627898 1.22223e-16
    outer loop
      vertex 57.4606 60.6267 31.75
      vertex 57.5 60 31.75
      vertex 57.5 60 28.25
    endloop
  endfacet
  facet normal 0.998027 0.0627898 1.22223e-16
    outer loop
      vertex 57.4606 60.6267 28.25
      vertex 57.4606 60.6267 31.75
      vertex 57.5 60 28.25
    endloop
  endfacet
  facet normal 1.22465e-16 0 -1
    outer loop
      vertex 57.5 -60 28.25
      vertex 57.4606 -60.6267 28.25
      vertex 57.5 60 28.25
    endloop
  endfacet
  facet normal 1.22465e-16 0 -1
    outer loop
      vertex 57.5 60 28.25
      vertex 57.4606 -60.6267 28.25
      vertex 57.3429 -61.2434 28.25
    endloop
  endfacet
  facet normal 1.22465e-16 0 -1
    outer loop
      vertex 57.5 60 28.25
      vertex 57.3429 -61.2434 28.25
      vertex 57.1489 -61.8406 28.25
    endloop
  endfacet
  facet normal 1.22465e-16 0 -1
    outer loop
      vertex 57.5 60 28.25
      vertex 57.1489 -61.8406 28.25
      vertex 56.8815 -62.4088 28.25
    endloop
  endfacet
  facet normal 1.22465e-16 0 -1
    outer loop
      vertex 57.5 60 28.25
      vertex 56.8815 -62.4088 28.25
      vertex 56.5451 -62.9389 28.25
    endloop
  endfacet
  facet normal 1.22465e-16 0 -1
    outer loop
      vertex 57.5 60 28.25
      vertex 56.5451 -62.9389 28.25
      vertex 56.1448 -63.4227 28.25
    endloop
  endfacet
  facet normal 1.22465e-16 0 -1
    outer loop
      vertex 57.5 60 28.25
      vertex 56.1448 -63.4227 28.25
      vertex 55.6871 -63.8526 28.25
    endloop
  endfacet
  facet normal 1.22465e-16 0 -1
    outer loop
      vertex 57.5 60 28.25
      vertex 55.6871 -63.8526 28.25
      vertex 55.1791 -64.2216 28.25
    endloop
  endfacet
  facet normal 1.22465e-16 0 -1
    outer loop
      vertex 54.8429 -58.7434 28.25
      vertex 55.1791 -64.2216 28.25
      vertex 54.6289 -64.5241 28.25
    endloop
  endfacet
  facet normal 1.22465e-16 0 -1
    outer loop
      vertex 54.3815 -59.9088 28.25
      vertex 54.6289 -64.5241 28.25
      vertex 54.0451 -64.7553 28.25
    endloop
  endfacet
  facet normal 1.22465e-16 0 -1
    outer loop
      vertex 53.6448 -60.9227 28.25
      vertex 54.0451 -64.7553 28.25
      vertex 53.4369 -64.9114 28.25
    endloop
  endfacet
  facet normal 1.22465e-16 0 -1
    outer loop
      vertex 53.1871 -61.3526 28.25
      vertex 53.4369 -64.9114 28.25
      vertex 52.814 -64.9901 28.25
    endloop
  endfacet
  facet normal 1.22465e-16 0 -1
    outer loop
      vertex 50.314 -62.4901 28.25
      vertex 52.814 -64.9901 28.25
      vertex -2.5 -64.9901 28.25
    endloop
  endfacet
  facet normal 1.22465e-16 0 -1
    outer loop
      vertex 50.9369 -62.4114 28.25
      vertex 52.814 -64.9901 28.25
      vertex 50.314 -62.4901 28.25
    endloop
  endfacet
  facet normal 1.22465e-16 0 -1
    outer loop
      vertex 53.1871 -61.3526 28.25
      vertex 52.814 -64.9901 28.25
      vertex 52.6791 -61.7216 28.25
    endloop
  endfacet
  facet normal 1.22465e-16 0 -1
    outer loop
      vertex 51.5451 -62.2553 28.25
      vertex 52.814 -64.9901 28.25
      vertex 50.9369 -62.4114 28.25
    endloop
  endfacet
  facet normal 1.22465e-16 0 -1
    outer loop
      vertex 52.1289 -62.0241 28.25
      vertex 52.814 -64.9901 28.25
      vertex 51.5451 -62.2553 28.25
    endloop
  endfacet
  facet normal 1.22465e-16 0 -1
    outer loop
      vertex 52.6791 -61.7216 28.25
      vertex 52.814 -64.9901 28.25
      vertex 52.1289 -62.0241 28.25
    endloop
  endfacet
  facet normal 1.22465e-16 0 -1
    outer loop
      vertex 53.6448 -60.9227 28.25
      vertex 53.4369 -64.9114 28.25
      vertex 53.1871 -61.3526 28.25
    endloop
  endfacet
  facet normal 1.22465e-16 0 -1
    outer loop
      vertex 54.0451 -60.4389 28.25
      vertex 54.0451 -64.7553 28.25
      vertex 53.6448 -60.9227 28.25
    endloop
  endfacet
  facet normal 1.22465e-16 0 -1
    outer loop
      vertex 54.3815 -59.9088 28.25
      vertex 54.0451 -64.7553 28.25
      vertex 54.0451 -60.4389 28.25
    endloop
  endfacet
  facet normal 1.22465e-16 0 -1
    outer loop
      vertex 54.6489 -59.3406 28.25
      vertex 54.6289 -64.5241 28.25
      vertex 54.3815 -59.9088 28.25
    endloop
  endfacet
  facet normal 1.22465e-16 0 -1
    outer loop
      vertex 54.8429 -58.7434 28.25
      vertex 54.6289 -64.5241 28.25
      vertex 54.6489 -59.3406 28.25
    endloop
  endfacet
  facet normal 1.22465e-16 0 -1
    outer loop
      vertex 54.9606 -58.1267 28.25
      vertex 55.1791 -64.2216 28.25
      vertex 54.8429 -58.7434 28.25
    endloop
  endfacet
  facet normal 1.22465e-16 0 -1
    outer loop
      vertex 55 57.5 28.25
      vertex 57.5 60 28.25
      vertex 55 -57.5 28.25
    endloop
  endfacet
  facet normal 1.22465e-16 0 -1
    outer loop
      vertex 55 -57.5 28.25
      vertex 55.1791 -64.2216 28.25
      vertex 54.9606 -58.1267 28.25
    endloop
  endfacet
  facet normal 1.22465e-16 0 -1
    outer loop
      vertex 57.5 60 28.25
      vertex 55.1791 -64.2216 28.25
      vertex 55 -57.5 28.25
    endloop
  endfacet
  facet normal 1.22465e-16 0 -1
    outer loop
      vertex 57.5 60 28.25
      vertex 55 57.5 28.25
      vertex 54.9606 58.1267 28.25
    endloop
  endfacet
  facet normal 1.22465e-16 0 -1
    outer loop
      vertex 54.9606 58.1267 28.25
      vertex 54.8429 58.7434 28.25
      vertex 57.5 60 28.25
    endloop
  endfacet
  facet normal 1.22465e-16 0 -1
    outer loop
      vertex 54.8429 58.7434 28.25
      vertex 54.6489 59.3406 28.25
      vertex 57.5 60 28.25
    endloop
  endfacet
  facet normal 1.22465e-16 0 -1
    outer loop
      vertex 54.6489 59.3406 28.25
      vertex 54.3815 59.9088 28.25
      vertex 57.5 60 28.25
    endloop
  endfacet
  facet normal 1.22465e-16 0 -1
    outer loop
      vertex 54.3815 59.9088 28.25
      vertex 54.0451 60.4389 28.25
      vertex 57.5 60 28.25
    endloop
  endfacet
  facet normal 1.22465e-16 0 -1
    outer loop
      vertex 54.0451 60.4389 28.25
      vertex 53.6448 60.9227 28.25
      vertex 57.5 60 28.25
    endloop
  endfacet
  facet normal 1.22465e-16 0 -1
    outer loop
      vertex 53.6448 60.9227 28.25
      vertex 53.1871 61.3526 28.25
      vertex 57.5 60 28.25
    endloop
  endfacet
  facet normal 1.22465e-16 0 -1
    outer loop
      vertex 53.1871 61.3526 28.25
      vertex 52.6791 61.7216 28.25
      vertex 57.5 60 28.25
    endloop
  endfacet
  facet normal 1.22465e-16 0 -1
    outer loop
      vertex 52.6791 61.7216 28.25
      vertex 52.1289 62.0241 28.25
      vertex 57.5 60 28.25
    endloop
  endfacet
  facet normal 1.22465e-16 0 -1
    outer loop
      vertex 52.1289 62.0241 28.25
      vertex 51.5451 62.2553 28.25
      vertex 57.5 60 28.25
    endloop
  endfacet
  facet normal 1.22465e-16 0 -1
    outer loop
      vertex 51.5451 62.2553 28.25
      vertex 52.814 64.9901 28.25
      vertex 57.5 60 28.25
    endloop
  endfacet
  facet normal 1.22465e-16 0 -1
    outer loop
      vertex 50.9369 62.4114 28.25
      vertex 52.814 64.9901 28.25
      vertex 51.5451 62.2553 28.25
    endloop
  endfacet
  facet normal 1.22465e-16 0 -1
    outer loop
      vertex 50.314 62.4901 28.25
      vertex -2.5 62.4901 28.25
      vertex -2.5 64.9901 28.25
    endloop
  endfacet
  facet normal 1.22465e-16 0 -1
    outer loop
      vertex 50.314 62.4901 28.25
      vertex -2.5 64.9901 28.25
      vertex 52.814 64.9901 28.25
    endloop
  endfacet
  facet normal 1.22465e-16 0 -1
    outer loop
      vertex 50.314 62.4901 28.25
      vertex 52.814 64.9901 28.25
      vertex 50.9369 62.4114 28.25
    endloop
  endfacet
  facet normal 1.22465e-16 0 -1
    outer loop
      vertex 57.5 60 28.25
      vertex 52.814 64.9901 28.25
      vertex 53.4369 64.9114 28.25
    endloop
  endfacet
  facet normal 1.22465e-16 0 -1
    outer loop
      vertex 57.5 60 28.25
      vertex 53.4369 64.9114 28.25
      vertex 54.0451 64.7553 28.25
    endloop
  endfacet
  facet normal 1.22465e-16 0 -1
    outer loop
      vertex 57.5 60 28.25
      vertex 54.0451 64.7553 28.25
      vertex 54.6289 64.5241 28.25
    endloop
  endfacet
  facet normal 1.22465e-16 0 -1
    outer loop
      vertex 57.5 60 28.25
      vertex 54.6289 64.5241 28.25
      vertex 55.1791 64.2216 28.25
    endloop
  endfacet
  facet normal 1.22465e-16 0 -1
    outer loop
      vertex 57.5 60 28.25
      vertex 55.1791 64.2216 28.25
      vertex 55.6871 63.8526 28.25
    endloop
  endfacet
  facet normal 1.22465e-16 0 -1
    outer loop
      vertex 57.5 60 28.25
      vertex 55.6871 63.8526 28.25
      vertex 56.1448 63.4227 28.25
    endloop
  endfacet
  facet normal 1.22465e-16 0 -1
    outer loop
      vertex 57.5 60 28.25
      vertex 56.1448 63.4227 28.25
      vertex 56.5451 62.9389 28.25
    endloop
  endfacet
  facet normal 1.22465e-16 0 -1
    outer loop
      vertex 57.5 60 28.25
      vertex 56.5451 62.9389 28.25
      vertex 56.8815 62.4088 28.25
    endloop
  endfacet
  facet normal 1.22465e-16 0 -1
    outer loop
      vertex 57.5 60 28.25
      vertex 56.8815 62.4088 28.25
      vertex 57.1489 61.8406 28.25
    endloop
  endfacet
  facet normal 1.22465e-16 0 -1
    outer loop
      vertex 57.5 60 28.25
      vertex 57.1489 61.8406 28.25
      vertex 57.3429 61.2434 28.25
    endloop
  endfacet
  facet normal 1.22465e-16 0 -1
    outer loop
      vertex 57.5 60 28.25
      vertex 57.3429 61.2434 28.25
      vertex 57.4606 60.6267 28.25
    endloop
  endfacet
  facet normal 1.22465e-16 0 -1
    outer loop
      vertex 50.314 -62.4901 28.25
      vertex -2.5 -64.9901 28.25
      vertex -2.5 -62.4901 28.25
    endloop
  endfacet
  facet normal 0.982287 -0.187382 1.20295e-16
    outer loop
      vertex 57.4606 -60.6267 28.25
      vertex 57.4606 -60.6267 31.75
      vertex 57.3429 -61.2434 31.75
    endloop
  endfacet
  facet normal 0.982287 -0.187382 1.20295e-16
    outer loop
      vertex 57.3429 -61.2434 28.25
      vertex 57.4606 -60.6267 28.25
      vertex 57.3429 -61.2434 31.75
    endloop
  endfacet
  facet normal 0.951056 -0.309018 1.16471e-16
    outer loop
      vertex 57.3429 -61.2434 28.25
      vertex 57.3429 -61.2434 31.75
      vertex 57.1489 -61.8406 31.75
    endloop
  endfacet
  facet normal 0.951056 -0.309018 1.16471e-16
    outer loop
      vertex 57.1489 -61.8406 28.25
      vertex 57.3429 -61.2434 28.25
      vertex 57.1489 -61.8406 31.75
    endloop
  endfacet
  facet normal 0.904827 -0.42578 1.10809e-16
    outer loop
      vertex 57.1489 -61.8406 28.25
      vertex 57.1489 -61.8406 31.75
      vertex 56.8815 -62.4088 31.75
    endloop
  endfacet
  facet normal 0.904827 -0.42578 1.10809e-16
    outer loop
      vertex 56.8815 -62.4088 28.25
      vertex 57.1489 -61.8406 28.25
      vertex 56.8815 -62.4088 31.75
    endloop
  endfacet
  facet normal 0.844328 -0.535826 1.034e-16
    outer loop
      vertex 56.8815 -62.4088 28.25
      vertex 56.8815 -62.4088 31.75
      vertex 56.5451 -62.9389 31.75
    endloop
  endfacet
  facet normal 0.844328 -0.535826 1.034e-16
    outer loop
      vertex 56.5451 -62.9389 28.25
      vertex 56.8815 -62.4088 28.25
      vertex 56.5451 -62.9389 31.75
    endloop
  endfacet
  facet normal 0.770514 -0.637424 9.43607e-17
    outer loop
      vertex 56.5451 -62.9389 28.25
      vertex 56.5451 -62.9389 31.75
      vertex 56.1448 -63.4227 31.75
    endloop
  endfacet
  facet normal 0.770514 -0.637424 9.43607e-17
    outer loop
      vertex 56.1448 -63.4227 28.25
      vertex 56.5451 -62.9389 28.25
      vertex 56.1448 -63.4227 31.75
    endloop
  endfacet
  facet normal 0.684547 -0.728969 8.38328e-17
    outer loop
      vertex 56.1448 -63.4227 28.25
      vertex 56.1448 -63.4227 31.75
      vertex 55.6871 -63.8526 31.75
    endloop
  endfacet
  facet normal 0.684547 -0.728969 8.38328e-17
    outer loop
      vertex 55.6871 -63.8526 28.25
      vertex 56.1448 -63.4227 28.25
      vertex 55.6871 -63.8526 31.75
    endloop
  endfacet
  facet normal 0.587786 -0.809017 7.1983e-17
    outer loop
      vertex 55.6871 -63.8526 28.25
      vertex 55.6871 -63.8526 31.75
      vertex 55.1791 -64.2216 31.75
    endloop
  endfacet
  facet normal 0.587786 -0.809017 7.1983e-17
    outer loop
      vertex 55.1791 -64.2216 28.25
      vertex 55.6871 -63.8526 28.25
      vertex 55.1791 -64.2216 31.75
    endloop
  endfacet
  facet normal 0.481753 -0.876307 5.89977e-17
    outer loop
      vertex 55.1791 -64.2216 28.25
      vertex 55.1791 -64.2216 31.75
      vertex 54.6289 -64.5241 31.75
    endloop
  endfacet
  facet normal 0.481753 -0.876307 5.89977e-17
    outer loop
      vertex 54.6289 -64.5241 28.25
      vertex 55.1791 -64.2216 28.25
      vertex 54.6289 -64.5241 31.75
    endloop
  endfacet
  facet normal 0.368126 -0.929776 4.50824e-17
    outer loop
      vertex 54.6289 -64.5241 28.25
      vertex 54.6289 -64.5241 31.75
      vertex 54.0451 -64.7553 31.75
    endloop
  endfacet
  facet normal 0.368126 -0.929776 4.50824e-17
    outer loop
      vertex 54.0451 -64.7553 28.25
      vertex 54.6289 -64.5241 28.25
      vertex 54.0451 -64.7553 31.75
    endloop
  endfacet
  facet normal 0.248689 -0.968583 3.04556e-17
    outer loop
      vertex 54.0451 -64.7553 28.25
      vertex 54.0451 -64.7553 31.75
      vertex 53.4369 -64.9114 31.75
    endloop
  endfacet
  facet normal 0.248689 -0.968583 3.04556e-17
    outer loop
      vertex 53.4369 -64.9114 28.25
      vertex 54.0451 -64.7553 28.25
      vertex 53.4369 -64.9114 31.75
    endloop
  endfacet
  facet normal 0.125334 -0.992115 1.5349e-17
    outer loop
      vertex 53.4369 -64.9114 28.25
      vertex 53.4369 -64.9114 31.75
      vertex 52.814 -64.9901 31.75
    endloop
  endfacet
  facet normal 0.125334 -0.992115 1.5349e-17
    outer loop
      vertex 52.814 -64.9901 28.25
      vertex 53.4369 -64.9114 28.25
      vertex 52.814 -64.9901 31.75
    endloop
  endfacet
  facet normal 0 -1 0
    outer loop
      vertex 52.814 -64.9901 28.25
      vertex 52.814 -64.9901 31.75
      vertex -52.814 -64.9901 31.75
    endloop
  endfacet
  facet normal 0 -1 0
    outer loop
      vertex -2.5 -64.9901 28.3167
      vertex 52.814 -64.9901 28.25
      vertex -52.814 -64.9901 31.75
    endloop
  endfacet
  facet normal 0 -1 0
    outer loop
      vertex -52.814 -64.9901 28.25
      vertex -52.5 -64.9901 28.25
      vertex -52.814 -64.9901 31.75
    endloop
  endfacet
  facet normal 0 -1 0
    outer loop
      vertex -52.5 -64.9901 28.25
      vertex -52.5 -64.9901 28.3167
      vertex -52.814 -64.9901 31.75
    endloop
  endfacet
  facet normal 0 -1 0
    outer loop
      vertex -52.5 -64.9901 28.3167
      vertex -2.5 -64.9901 28.3167
      vertex -52.814 -64.9901 31.75
    endloop
  endfacet
  facet normal 0 -1 0
    outer loop
      vertex -2.5 -64.9901 28.3167
      vertex -2.5 -64.9901 28.25
      vertex 52.814 -64.9901 28.25
    endloop
  endfacet
  facet normal -0.125334 -0.992115 -1.5349e-17
    outer loop
      vertex -52.814 -64.9901 28.25
      vertex -52.814 -64.9901 31.75
      vertex -53.4369 -64.9114 31.75
    endloop
  endfacet
  facet normal -0.125334 -0.992115 -1.5349e-17
    outer loop
      vertex -53.4369 -64.9114 28.25
      vertex -52.814 -64.9901 28.25
      vertex -53.4369 -64.9114 31.75
    endloop
  endfacet
  facet normal -0.248689 -0.968583 -3.04556e-17
    outer loop
      vertex -53.4369 -64.9114 28.25
      vertex -53.4369 -64.9114 31.75
      vertex -54.0451 -64.7553 31.75
    endloop
  endfacet
  facet normal -0.248689 -0.968583 -3.04556e-17
    outer loop
      vertex -54.0451 -64.7553 28.25
      vertex -53.4369 -64.9114 28.25
      vertex -54.0451 -64.7553 31.75
    endloop
  endfacet
  facet normal -0.368126 -0.929776 -4.50824e-17
    outer loop
      vertex -54.0451 -64.7553 28.25
      vertex -54.0451 -64.7553 31.75
      vertex -54.6289 -64.5241 31.75
    endloop
  endfacet
  facet normal -0.368126 -0.929776 -4.50824e-17
    outer loop
      vertex -54.6289 -64.5241 28.25
      vertex -54.0451 -64.7553 28.25
      vertex -54.6289 -64.5241 31.75
    endloop
  endfacet
  facet normal -0.481753 -0.876307 -5.89977e-17
    outer loop
      vertex -54.6289 -64.5241 28.25
      vertex -54.6289 -64.5241 31.75
      vertex -55.1791 -64.2216 31.75
    endloop
  endfacet
  facet normal -0.481753 -0.876307 -5.89977e-17
    outer loop
      vertex -55.1791 -64.2216 28.25
      vertex -54.6289 -64.5241 28.25
      vertex -55.1791 -64.2216 31.75
    endloop
  endfacet
  facet normal -0.587786 -0.809017 -7.1983e-17
    outer loop
      vertex -55.1791 -64.2216 28.25
      vertex -55.1791 -64.2216 31.75
      vertex -55.6871 -63.8526 31.75
    endloop
  endfacet
  facet normal -0.587786 -0.809017 -7.1983e-17
    outer loop
      vertex -55.6871 -63.8526 28.25
      vertex -55.1791 -64.2216 28.25
      vertex -55.6871 -63.8526 31.75
    endloop
  endfacet
  facet normal -0.684547 -0.728969 -8.38328e-17
    outer loop
      vertex -55.6871 -63.8526 28.25
      vertex -55.6871 -63.8526 31.75
      vertex -56.1448 -63.4227 31.75
    endloop
  endfacet
  facet normal -0.684547 -0.728969 -8.38328e-17
    outer loop
      vertex -56.1448 -63.4227 28.25
      vertex -55.6871 -63.8526 28.25
      vertex -56.1448 -63.4227 31.75
    endloop
  endfacet
  facet normal -0.770514 -0.637424 -9.43607e-17
    outer loop
      vertex -56.1448 -63.4227 31.75
      vertex -56.5451 -62.9389 31.75
      vertex -56.1448 -63.4227 28.25
    endloop
  endfacet
  facet normal -0.770514 -0.637424 -9.43607e-17
    outer loop
      vertex -56.1448 -63.4227 28.25
      vertex -56.5451 -62.9389 31.75
      vertex -56.5451 -62.9389 28.25
    endloop
  endfacet
  facet normal -0.844328 -0.535826 -1.034e-16
    outer loop
      vertex -56.5451 -62.9389 31.75
      vertex -56.8815 -62.4088 31.75
      vertex -56.5451 -62.9389 28.25
    endloop
  endfacet
  facet normal -0.844328 -0.535826 -1.034e-16
    outer loop
      vertex -56.5451 -62.9389 28.25
      vertex -56.8815 -62.4088 31.75
      vertex -56.8815 -62.4088 28.25
    endloop
  endfacet
  facet normal -0.904827 -0.42578 -1.10809e-16
    outer loop
      vertex -56.8815 -62.4088 31.75
      vertex -57.1489 -61.8406 31.75
      vertex -56.8815 -62.4088 28.25
    endloop
  endfacet
  facet normal -0.904827 -0.42578 -1.10809e-16
    outer loop
      vertex -56.8815 -62.4088 28.25
      vertex -57.1489 -61.8406 31.75
      vertex -57.1489 -61.8406 28.25
    endloop
  endfacet
  facet normal -0.951056 -0.309018 -1.16471e-16
    outer loop
      vertex -57.1489 -61.8406 31.75
      vertex -57.3429 -61.2434 31.75
      vertex -57.1489 -61.8406 28.25
    endloop
  endfacet
  facet normal -0.951056 -0.309018 -1.16471e-16
    outer loop
      vertex -57.1489 -61.8406 28.25
      vertex -57.3429 -61.2434 31.75
      vertex -57.3429 -61.2434 28.25
    endloop
  endfacet
  facet normal -0.982287 -0.187382 -1.20295e-16
    outer loop
      vertex -57.3429 -61.2434 31.75
      vertex -57.4606 -60.6267 31.75
      vertex -57.3429 -61.2434 28.25
    endloop
  endfacet
  facet normal -0.982287 -0.187382 -1.20295e-16
    outer loop
      vertex -57.3429 -61.2434 28.25
      vertex -57.4606 -60.6267 31.75
      vertex -57.4606 -60.6267 28.25
    endloop
  endfacet
  facet normal -0.998027 -0.0627898 -1.22223e-16
    outer loop
      vertex -57.4606 -60.6267 31.75
      vertex -57.5 -60 31.75
      vertex -57.4606 -60.6267 28.25
    endloop
  endfacet
  facet normal -0.998027 -0.0627898 -1.22223e-16
    outer loop
      vertex -57.4606 -60.6267 28.25
      vertex -57.5 -60 31.75
      vertex -57.5 -60 28.25
    endloop
  endfacet
  facet normal -1 0 -1.22465e-16
    outer loop
      vertex -57.5 -60 31.75
      vertex -57.5 60 31.75
      vertex -57.5 -60 28.25
    endloop
  endfacet
  facet normal -1 0 -1.22465e-16
    outer loop
      vertex -57.5 -60 28.25
      vertex -57.5 60 31.75
      vertex -57.5 60 28.25
    endloop
  endfacet
  facet normal -0.998027 0.0627898 -1.22223e-16
    outer loop
      vertex -57.4606 60.6267 31.75
      vertex -57.4606 60.6267 28.25
      vertex -57.5 60 31.75
    endloop
  endfacet
  facet normal -0.998027 0.0627898 -1.22223e-16
    outer loop
      vertex -57.5 60 31.75
      vertex -57.4606 60.6267 28.25
      vertex -57.5 60 28.25
    endloop
  endfacet
  facet normal -0.982287 0.187382 -1.20295e-16
    outer loop
      vertex -57.3429 61.2434 31.75
      vertex -57.3429 61.2434 28.25
      vertex -57.4606 60.6267 31.75
    endloop
  endfacet
  facet normal -0.982287 0.187382 -1.20295e-16
    outer loop
      vertex -57.4606 60.6267 31.75
      vertex -57.3429 61.2434 28.25
      vertex -57.4606 60.6267 28.25
    endloop
  endfacet
  facet normal -0.951056 0.309018 -1.16471e-16
    outer loop
      vertex -57.1489 61.8406 31.75
      vertex -57.1489 61.8406 28.25
      vertex -57.3429 61.2434 31.75
    endloop
  endfacet
  facet normal -0.951056 0.309018 -1.16471e-16
    outer loop
      vertex -57.3429 61.2434 31.75
      vertex -57.1489 61.8406 28.25
      vertex -57.3429 61.2434 28.25
    endloop
  endfacet
  facet normal -0.904827 0.42578 -1.10809e-16
    outer loop
      vertex -56.8815 62.4088 31.75
      vertex -56.8815 62.4088 28.25
      vertex -57.1489 61.8406 31.75
    endloop
  endfacet
  facet normal -0.904827 0.42578 -1.10809e-16
    outer loop
      vertex -57.1489 61.8406 31.75
      vertex -56.8815 62.4088 28.25
      vertex -57.1489 61.8406 28.25
    endloop
  endfacet
  facet normal -0.844328 0.535826 -1.034e-16
    outer loop
      vertex -56.5451 62.9389 31.75
      vertex -56.5451 62.9389 28.25
      vertex -56.8815 62.4088 31.75
    endloop
  endfacet
  facet normal -0.844328 0.535826 -1.034e-16
    outer loop
      vertex -56.8815 62.4088 31.75
      vertex -56.5451 62.9389 28.25
      vertex -56.8815 62.4088 28.25
    endloop
  endfacet
  facet normal -0.770514 0.637424 -9.43607e-17
    outer loop
      vertex -56.1448 63.4227 31.75
      vertex -56.1448 63.4227 28.25
      vertex -56.5451 62.9389 31.75
    endloop
  endfacet
  facet normal -0.770514 0.637424 -9.43607e-17
    outer loop
      vertex -56.5451 62.9389 31.75
      vertex -56.1448 63.4227 28.25
      vertex -56.5451 62.9389 28.25
    endloop
  endfacet
  facet normal -0.684547 0.728969 -8.38328e-17
    outer loop
      vertex -55.6871 63.8526 31.75
      vertex -55.6871 63.8526 28.25
      vertex -56.1448 63.4227 31.75
    endloop
  endfacet
  facet normal -0.684547 0.728969 -8.38328e-17
    outer loop
      vertex -56.1448 63.4227 31.75
      vertex -55.6871 63.8526 28.25
      vertex -56.1448 63.4227 28.25
    endloop
  endfacet
  facet normal -0.587786 0.809017 -7.1983e-17
    outer loop
      vertex -55.1791 64.2216 31.75
      vertex -55.1791 64.2216 28.25
      vertex -55.6871 63.8526 31.75
    endloop
  endfacet
  facet normal -0.587786 0.809017 -7.1983e-17
    outer loop
      vertex -55.6871 63.8526 31.75
      vertex -55.1791 64.2216 28.25
      vertex -55.6871 63.8526 28.25
    endloop
  endfacet
  facet normal -0.481753 0.876307 -5.89977e-17
    outer loop
      vertex -54.6289 64.5241 31.75
      vertex -54.6289 64.5241 28.25
      vertex -55.1791 64.2216 31.75
    endloop
  endfacet
  facet normal -0.481753 0.876307 -5.89977e-17
    outer loop
      vertex -55.1791 64.2216 31.75
      vertex -54.6289 64.5241 28.25
      vertex -55.1791 64.2216 28.25
    endloop
  endfacet
  facet normal -0.368126 0.929776 -4.50824e-17
    outer loop
      vertex -54.0451 64.7553 31.75
      vertex -54.0451 64.7553 28.25
      vertex -54.6289 64.5241 31.75
    endloop
  endfacet
  facet normal -0.368126 0.929776 -4.50824e-17
    outer loop
      vertex -54.6289 64.5241 31.75
      vertex -54.0451 64.7553 28.25
      vertex -54.6289 64.5241 28.25
    endloop
  endfacet
  facet normal -0.248689 0.968583 -3.04556e-17
    outer loop
      vertex -53.4369 64.9114 31.75
      vertex -53.4369 64.9114 28.25
      vertex -54.0451 64.7553 31.75
    endloop
  endfacet
  facet normal -0.248689 0.968583 -3.04556e-17
    outer loop
      vertex -54.0451 64.7553 31.75
      vertex -53.4369 64.9114 28.25
      vertex -54.0451 64.7553 28.25
    endloop
  endfacet
  facet normal -0.125334 0.992115 -1.5349e-17
    outer loop
      vertex -52.814 64.9901 31.75
      vertex -52.814 64.9901 28.25
      vertex -53.4369 64.9114 31.75
    endloop
  endfacet
  facet normal -0.125334 0.992115 -1.5349e-17
    outer loop
      vertex -53.4369 64.9114 31.75
      vertex -52.814 64.9901 28.25
      vertex -53.4369 64.9114 28.25
    endloop
  endfacet
  facet normal 0 1 0
    outer loop
      vertex 52.814 64.9901 31.75
      vertex 52.814 64.9901 28.25
      vertex -52.814 64.9901 31.75
    endloop
  endfacet
  facet normal 0 1 0
    outer loop
      vertex -2.5 64.9901 28.3167
      vertex 52.814 64.9901 28.25
      vertex -2.5 64.9901 28.25
    endloop
  endfacet
  facet normal 0 1 0
    outer loop
      vertex -52.814 64.9901 31.75
      vertex 52.814 64.9901 28.25
      vertex -2.5 64.9901 28.3167
    endloop
  endfacet
  facet normal 0 1 0
    outer loop
      vertex -52.814 64.9901 31.75
      vertex -52.5 64.9901 28.3167
      vertex -52.5 64.9901 28.25
    endloop
  endfacet
  facet normal 0 1 0
    outer loop
      vertex -52.814 64.9901 31.75
      vertex -52.5 64.9901 28.25
      vertex -52.814 64.9901 28.25
    endloop
  endfacet
  facet normal 0 1 0
    outer loop
      vertex -52.5 64.9901 28.3167
      vertex -52.814 64.9901 31.75
      vertex -2.5 64.9901 28.3167
    endloop
  endfacet
  facet normal 0.125334 0.992115 1.5349e-17
    outer loop
      vertex 53.4369 64.9114 31.75
      vertex 53.4369 64.9114 28.25
      vertex 52.814 64.9901 31.75
    endloop
  endfacet
  facet normal 0.125334 0.992115 1.5349e-17
    outer loop
      vertex 52.814 64.9901 31.75
      vertex 53.4369 64.9114 28.25
      vertex 52.814 64.9901 28.25
    endloop
  endfacet
  facet normal 0.248689 0.968583 3.04556e-17
    outer loop
      vertex 54.0451 64.7553 31.75
      vertex 54.0451 64.7553 28.25
      vertex 53.4369 64.9114 31.75
    endloop
  endfacet
  facet normal 0.248689 0.968583 3.04556e-17
    outer loop
      vertex 53.4369 64.9114 31.75
      vertex 54.0451 64.7553 28.25
      vertex 53.4369 64.9114 28.25
    endloop
  endfacet
  facet normal 0.368126 0.929776 4.50824e-17
    outer loop
      vertex 54.6289 64.5241 31.75
      vertex 54.6289 64.5241 28.25
      vertex 54.0451 64.7553 31.75
    endloop
  endfacet
  facet normal 0.368126 0.929776 4.50824e-17
    outer loop
      vertex 54.0451 64.7553 31.75
      vertex 54.6289 64.5241 28.25
      vertex 54.0451 64.7553 28.25
    endloop
  endfacet
  facet normal 0.481753 0.876307 5.89977e-17
    outer loop
      vertex 55.1791 64.2216 31.75
      vertex 55.1791 64.2216 28.25
      vertex 54.6289 64.5241 31.75
    endloop
  endfacet
  facet normal 0.481753 0.876307 5.89977e-17
    outer loop
      vertex 54.6289 64.5241 31.75
      vertex 55.1791 64.2216 28.25
      vertex 54.6289 64.5241 28.25
    endloop
  endfacet
  facet normal 0.587786 0.809017 7.1983e-17
    outer loop
      vertex 55.6871 63.8526 31.75
      vertex 55.6871 63.8526 28.25
      vertex 55.1791 64.2216 31.75
    endloop
  endfacet
  facet normal 0.587786 0.809017 7.1983e-17
    outer loop
      vertex 55.1791 64.2216 31.75
      vertex 55.6871 63.8526 28.25
      vertex 55.1791 64.2216 28.25
    endloop
  endfacet
  facet normal 0.684547 0.728969 8.38328e-17
    outer loop
      vertex 56.1448 63.4227 31.75
      vertex 56.1448 63.4227 28.25
      vertex 55.6871 63.8526 31.75
    endloop
  endfacet
  facet normal 0.684547 0.728969 8.38328e-17
    outer loop
      vertex 55.6871 63.8526 31.75
      vertex 56.1448 63.4227 28.25
      vertex 55.6871 63.8526 28.25
    endloop
  endfacet
  facet normal 0.770514 0.637424 9.43607e-17
    outer loop
      vertex 56.1448 63.4227 31.75
      vertex 56.5451 62.9389 31.75
      vertex 56.5451 62.9389 28.25
    endloop
  endfacet
  facet normal 0.770514 0.637424 9.43607e-17
    outer loop
      vertex 56.1448 63.4227 28.25
      vertex 56.1448 63.4227 31.75
      vertex 56.5451 62.9389 28.25
    endloop
  endfacet
  facet normal 0.844328 0.535826 1.034e-16
    outer loop
      vertex 56.5451 62.9389 31.75
      vertex 56.8815 62.4088 31.75
      vertex 56.8815 62.4088 28.25
    endloop
  endfacet
  facet normal 0.844328 0.535826 1.034e-16
    outer loop
      vertex 56.5451 62.9389 28.25
      vertex 56.5451 62.9389 31.75
      vertex 56.8815 62.4088 28.25
    endloop
  endfacet
  facet normal 0.904827 0.42578 1.10809e-16
    outer loop
      vertex 56.8815 62.4088 31.75
      vertex 57.1489 61.8406 31.75
      vertex 57.1489 61.8406 28.25
    endloop
  endfacet
  facet normal 0.904827 0.42578 1.10809e-16
    outer loop
      vertex 56.8815 62.4088 28.25
      vertex 56.8815 62.4088 31.75
      vertex 57.1489 61.8406 28.25
    endloop
  endfacet
  facet normal 0.951056 0.309018 1.16471e-16
    outer loop
      vertex 57.1489 61.8406 31.75
      vertex 57.3429 61.2434 31.75
      vertex 57.3429 61.2434 28.25
    endloop
  endfacet
  facet normal 0.951056 0.309018 1.16471e-16
    outer loop
      vertex 57.1489 61.8406 28.25
      vertex 57.1489 61.8406 31.75
      vertex 57.3429 61.2434 28.25
    endloop
  endfacet
  facet normal 0.982287 0.187382 1.20295e-16
    outer loop
      vertex 57.3429 61.2434 31.75
      vertex 57.4606 60.6267 31.75
      vertex 57.4606 60.6267 28.25
    endloop
  endfacet
  facet normal 0.982287 0.187382 1.20295e-16
    outer loop
      vertex 57.3429 61.2434 28.25
      vertex 57.3429 61.2434 31.75
      vertex 57.4606 60.6267 28.25
    endloop
  endfacet
  facet normal -1 0 -1.22465e-16
    outer loop
      vertex -38 60 28.3167
      vertex -38 -60 28.3167
      vertex -38 60 31.75
    endloop
  endfacet
  facet normal -1 0 -1.22465e-16
    outer loop
      vertex -38 60 31.75
      vertex -38 -60 28.3167
      vertex -38 -60 31.75
    endloop
  endfacet
  facet normal 0 -1 0
    outer loop
      vertex -41 60 31.75
      vertex -41 60 28.3167
      vertex -38 60 28.3167
    endloop
  endfacet
  facet normal 0 -1 0
    outer loop
      vertex -38 60 31.75
      vertex -41 60 31.75
      vertex -38 60 28.3167
    endloop
  endfacet
  facet normal 1 0 1.22465e-16
    outer loop
      vertex -41 -60 28.3167
      vertex -41 60 28.3167
      vertex -41 60 31.75
    endloop
  endfacet
  facet normal 1 0 1.22465e-16
    outer loop
      vertex -41 -60 31.75
      vertex -41 -60 28.3167
      vertex -41 60 31.75
    endloop
  endfacet
  facet normal 0 1 0
    outer loop
      vertex -41 -60 28.3167
      vertex -41 -60 31.75
      vertex -38 -60 28.3167
    endloop
  endfacet
  facet normal 0 1 0
    outer loop
      vertex -38 -60 28.3167
      vertex -41 -60 31.75
      vertex -38 -60 31.75
    endloop
  endfacet
  facet normal -1 0 -1.22465e-16
    outer loop
      vertex -2.5 64.9901 28.25
      vertex -2.5 62.4901 28.25
      vertex -2.5 64.9901 28.3167
    endloop
  endfacet
  facet normal -1 0 -1.22465e-16
    outer loop
      vertex -2.5 59.9901 22.4
      vertex -2.5 62.4901 28.25
      vertex -2.5 62.4901 22.4
    endloop
  endfacet
  facet normal -1 0 -1.22465e-16
    outer loop
      vertex -2.5 59.9901 28.25
      vertex -2.5 62.4901 28.25
      vertex -2.5 59.9901 22.4
    endloop
  endfacet
  facet normal -1 0 -1.22465e-16
    outer loop
      vertex -2.5 64.9901 28.3167
      vertex -2.5 62.4901 28.25
      vertex -2.5 59.9901 28.25
    endloop
  endfacet
  facet normal -1 0 -1.22465e-16
    outer loop
      vertex -2.5 64.9901 28.3167
      vertex -2.5 59.9901 28.25
      vertex -2.5 -59.9901 28.25
    endloop
  endfacet
  facet normal -1 0 -1.22465e-16
    outer loop
      vertex -2.5 -59.9901 28.25
      vertex -2.5 -59.9901 22.4
      vertex -2.5 -62.4901 22.4
    endloop
  endfacet
  facet normal -1 0 -1.22465e-16
    outer loop
      vertex -2.5 -59.9901 28.25
      vertex -2.5 -62.4901 22.4
      vertex -2.5 -62.4901 28.25
    endloop
  endfacet
  facet normal -1 0 -1.22465e-16
    outer loop
      vertex -2.5 -59.9901 28.25
      vertex -2.5 -62.4901 28.25
      vertex -2.5 64.9901 28.3167
    endloop
  endfacet
  facet normal -1 0 -1.22465e-16
    outer loop
      vertex -2.5 -62.4901 28.25
      vertex -2.5 -64.9901 28.25
      vertex -2.5 64.9901 28.3167
    endloop
  endfacet
  facet normal -1 0 -1.22465e-16
    outer loop
      vertex -2.5 64.9901 28.3167
      vertex -2.5 -64.9901 28.25
      vertex -2.5 -64.9901 28.3167
    endloop
  endfacet
  facet normal 0 1 0
    outer loop
      vertex 50.314 62.4901 28.25
      vertex 50.314 62.4901 22.4
      vertex -2.5 62.4901 28.25
    endloop
  endfacet
  facet normal 0 1 0
    outer loop
      vertex -2.5 62.4901 28.25
      vertex 50.314 62.4901 22.4
      vertex -2.5 62.4901 22.4
    endloop
  endfacet
  facet normal 0.125334 0.992115 1.5349e-17
    outer loop
      vertex 50.9369 62.4114 28.25
      vertex 50.9369 62.4114 22.4
      vertex 50.314 62.4901 28.25
    endloop
  endfacet
  facet normal 0.125334 0.992115 1.5349e-17
    outer loop
      vertex 50.314 62.4901 28.25
      vertex 50.9369 62.4114 22.4
      vertex 50.314 62.4901 22.4
    endloop
  endfacet
  facet normal 0.248689 0.968583 3.04556e-17
    outer loop
      vertex 51.5451 62.2553 28.25
      vertex 51.5451 62.2553 22.4
      vertex 50.9369 62.4114 28.25
    endloop
  endfacet
  facet normal 0.248689 0.968583 3.04556e-17
    outer loop
      vertex 50.9369 62.4114 28.25
      vertex 51.5451 62.2553 22.4
      vertex 50.9369 62.4114 22.4
    endloop
  endfacet
  facet normal 0.368126 0.929776 4.50824e-17
    outer loop
      vertex 52.1289 62.0241 28.25
      vertex 52.1289 62.0241 22.4
      vertex 51.5451 62.2553 28.25
    endloop
  endfacet
  facet normal 0.368126 0.929776 4.50824e-17
    outer loop
      vertex 51.5451 62.2553 28.25
      vertex 52.1289 62.0241 22.4
      vertex 51.5451 62.2553 22.4
    endloop
  endfacet
  facet normal 0.481753 0.876307 5.89977e-17
    outer loop
      vertex 52.6791 61.7216 28.25
      vertex 52.6791 61.7216 22.4
      vertex 52.1289 62.0241 28.25
    endloop
  endfacet
  facet normal 0.481753 0.876307 5.89977e-17
    outer loop
      vertex 52.1289 62.0241 28.25
      vertex 52.6791 61.7216 22.4
      vertex 52.1289 62.0241 22.4
    endloop
  endfacet
  facet normal 0.587786 0.809017 7.1983e-17
    outer loop
      vertex 53.1871 61.3526 28.25
      vertex 53.1871 61.3526 22.4
      vertex 52.6791 61.7216 28.25
    endloop
  endfacet
  facet normal 0.587786 0.809017 7.1983e-17
    outer loop
      vertex 52.6791 61.7216 28.25
      vertex 53.1871 61.3526 22.4
      vertex 52.6791 61.7216 22.4
    endloop
  endfacet
  facet normal 0.684547 0.728969 8.38328e-17
    outer loop
      vertex 53.6448 60.9227 28.25
      vertex 53.6448 60.9227 22.4
      vertex 53.1871 61.3526 28.25
    endloop
  endfacet
  facet normal 0.684547 0.728969 8.38328e-17
    outer loop
      vertex 53.1871 61.3526 28.25
      vertex 53.6448 60.9227 22.4
      vertex 53.1871 61.3526 22.4
    endloop
  endfacet
  facet normal 0.770514 0.637424 9.43607e-17
    outer loop
      vertex 53.6448 60.9227 28.25
      vertex 54.0451 60.4389 28.25
      vertex 54.0451 60.4389 22.4
    endloop
  endfacet
  facet normal 0.770514 0.637424 9.43607e-17
    outer loop
      vertex 53.6448 60.9227 22.4
      vertex 53.6448 60.9227 28.25
      vertex 54.0451 60.4389 22.4
    endloop
  endfacet
  facet normal 0.844328 0.535826 1.034e-16
    outer loop
      vertex 54.0451 60.4389 28.25
      vertex 54.3815 59.9088 28.25
      vertex 54.3815 59.9088 22.4
    endloop
  endfacet
  facet normal 0.844328 0.535826 1.034e-16
    outer loop
      vertex 54.0451 60.4389 22.4
      vertex 54.0451 60.4389 28.25
      vertex 54.3815 59.9088 22.4
    endloop
  endfacet
  facet normal 0.904827 0.42578 1.10809e-16
    outer loop
      vertex 54.3815 59.9088 28.25
      vertex 54.6489 59.3406 28.25
      vertex 54.6489 59.3406 22.4
    endloop
  endfacet
  facet normal 0.904827 0.42578 1.10809e-16
    outer loop
      vertex 54.3815 59.9088 22.4
      vertex 54.3815 59.9088 28.25
      vertex 54.6489 59.3406 22.4
    endloop
  endfacet
  facet normal 0.951056 0.309018 1.16471e-16
    outer loop
      vertex 54.6489 59.3406 28.25
      vertex 54.8429 58.7434 28.25
      vertex 54.8429 58.7434 22.4
    endloop
  endfacet
  facet normal 0.951056 0.309018 1.16471e-16
    outer loop
      vertex 54.6489 59.3406 22.4
      vertex 54.6489 59.3406 28.25
      vertex 54.8429 58.7434 22.4
    endloop
  endfacet
  facet normal 0.982287 0.187382 1.20295e-16
    outer loop
      vertex 54.8429 58.7434 28.25
      vertex 54.9606 58.1267 28.25
      vertex 54.9606 58.1267 22.4
    endloop
  endfacet
  facet normal 0.982287 0.187382 1.20295e-16
    outer loop
      vertex 54.8429 58.7434 22.4
      vertex 54.8429 58.7434 28.25
      vertex 54.9606 58.1267 22.4
    endloop
  endfacet
  facet normal 0.998027 0.0627898 1.22223e-16
    outer loop
      vertex 54.9606 58.1267 28.25
      vertex 55 57.5 28.25
      vertex 55 57.5 22.4
    endloop
  endfacet
  facet normal 0.998027 0.0627898 1.22223e-16
    outer loop
      vertex 54.9606 58.1267 22.4
      vertex 54.9606 58.1267 28.25
      vertex 55 57.5 22.4
    endloop
  endfacet
  facet normal 1 0 1.22465e-16
    outer loop
      vertex 55 57.5 28.25
      vertex 55 -57.5 28.25
      vertex 55 -57.5 22.4
    endloop
  endfacet
  facet normal 1 0 1.22465e-16
    outer loop
      vertex 55 57.5 22.4
      vertex 55 57.5 28.25
      vertex 55 -57.5 22.4
    endloop
  endfacet
  facet normal 0.998027 -0.0627898 1.22223e-16
    outer loop
      vertex 55 -57.5 22.4
      vertex 55 -57.5 28.25
      vertex 54.9606 -58.1267 28.25
    endloop
  endfacet
  facet normal 0.998027 -0.0627898 1.22223e-16
    outer loop
      vertex 54.9606 -58.1267 22.4
      vertex 55 -57.5 22.4
      vertex 54.9606 -58.1267 28.25
    endloop
  endfacet
  facet normal 0.982287 -0.187382 1.20295e-16
    outer loop
      vertex 54.9606 -58.1267 22.4
      vertex 54.9606 -58.1267 28.25
      vertex 54.8429 -58.7434 28.25
    endloop
  endfacet
  facet normal 0.982287 -0.187382 1.20295e-16
    outer loop
      vertex 54.8429 -58.7434 22.4
      vertex 54.9606 -58.1267 22.4
      vertex 54.8429 -58.7434 28.25
    endloop
  endfacet
  facet normal 0.951056 -0.309018 1.16471e-16
    outer loop
      vertex 54.8429 -58.7434 22.4
      vertex 54.8429 -58.7434 28.25
      vertex 54.6489 -59.3406 28.25
    endloop
  endfacet
  facet normal 0.951056 -0.309018 1.16471e-16
    outer loop
      vertex 54.6489 -59.3406 22.4
      vertex 54.8429 -58.7434 22.4
      vertex 54.6489 -59.3406 28.25
    endloop
  endfacet
  facet normal 0.904827 -0.42578 1.10809e-16
    outer loop
      vertex 54.6489 -59.3406 22.4
      vertex 54.6489 -59.3406 28.25
      vertex 54.3815 -59.9088 28.25
    endloop
  endfacet
  facet normal 0.904827 -0.42578 1.10809e-16
    outer loop
      vertex 54.3815 -59.9088 22.4
      vertex 54.6489 -59.3406 22.4
      vertex 54.3815 -59.9088 28.25
    endloop
  endfacet
  facet normal 0.844328 -0.535826 1.034e-16
    outer loop
      vertex 54.3815 -59.9088 22.4
      vertex 54.3815 -59.9088 28.25
      vertex 54.0451 -60.4389 28.25
    endloop
  endfacet
  facet normal 0.844328 -0.535826 1.034e-16
    outer loop
      vertex 54.0451 -60.4389 22.4
      vertex 54.3815 -59.9088 22.4
      vertex 54.0451 -60.4389 28.25
    endloop
  endfacet
  facet normal 0.770514 -0.637424 9.43607e-17
    outer loop
      vertex 54.0451 -60.4389 22.4
      vertex 54.0451 -60.4389 28.25
      vertex 53.6448 -60.9227 28.25
    endloop
  endfacet
  facet normal 0.770514 -0.637424 9.43607e-17
    outer loop
      vertex 53.6448 -60.9227 22.4
      vertex 54.0451 -60.4389 22.4
      vertex 53.6448 -60.9227 28.25
    endloop
  endfacet
  facet normal 0.684547 -0.728969 8.38328e-17
    outer loop
      vertex 53.6448 -60.9227 22.4
      vertex 53.6448 -60.9227 28.25
      vertex 53.1871 -61.3526 28.25
    endloop
  endfacet
  facet normal 0.684547 -0.728969 8.38328e-17
    outer loop
      vertex 53.1871 -61.3526 22.4
      vertex 53.6448 -60.9227 22.4
      vertex 53.1871 -61.3526 28.25
    endloop
  endfacet
  facet normal 0.587786 -0.809017 7.1983e-17
    outer loop
      vertex 53.1871 -61.3526 22.4
      vertex 53.1871 -61.3526 28.25
      vertex 52.6791 -61.7216 28.25
    endloop
  endfacet
  facet normal 0.587786 -0.809017 7.1983e-17
    outer loop
      vertex 52.6791 -61.7216 22.4
      vertex 53.1871 -61.3526 22.4
      vertex 52.6791 -61.7216 28.25
    endloop
  endfacet
  facet normal 0.481753 -0.876307 5.89977e-17
    outer loop
      vertex 52.6791 -61.7216 22.4
      vertex 52.6791 -61.7216 28.25
      vertex 52.1289 -62.0241 28.25
    endloop
  endfacet
  facet normal 0.481753 -0.876307 5.89977e-17
    outer loop
      vertex 52.1289 -62.0241 22.4
      vertex 52.6791 -61.7216 22.4
      vertex 52.1289 -62.0241 28.25
    endloop
  endfacet
  facet normal 0.368126 -0.929776 4.50824e-17
    outer loop
      vertex 52.1289 -62.0241 22.4
      vertex 52.1289 -62.0241 28.25
      vertex 51.5451 -62.2553 28.25
    endloop
  endfacet
  facet normal 0.368126 -0.929776 4.50824e-17
    outer loop
      vertex 51.5451 -62.2553 22.4
      vertex 52.1289 -62.0241 22.4
      vertex 51.5451 -62.2553 28.25
    endloop
  endfacet
  facet normal 0.248689 -0.968583 3.04556e-17
    outer loop
      vertex 51.5451 -62.2553 22.4
      vertex 51.5451 -62.2553 28.25
      vertex 50.9369 -62.4114 28.25
    endloop
  endfacet
  facet normal 0.248689 -0.968583 3.04556e-17
    outer loop
      vertex 50.9369 -62.4114 22.4
      vertex 51.5451 -62.2553 22.4
      vertex 50.9369 -62.4114 28.25
    endloop
  endfacet
  facet normal 0.125334 -0.992115 1.5349e-17
    outer loop
      vertex 50.9369 -62.4114 22.4
      vertex 50.9369 -62.4114 28.25
      vertex 50.314 -62.4901 28.25
    endloop
  endfacet
  facet normal 0.125334 -0.992115 1.5349e-17
    outer loop
      vertex 50.314 -62.4901 22.4
      vertex 50.9369 -62.4114 22.4
      vertex 50.314 -62.4901 28.25
    endloop
  endfacet
  facet normal 0 -1 0
    outer loop
      vertex 50.314 -62.4901 22.4
      vertex 50.314 -62.4901 28.25
      vertex -2.5 -62.4901 28.25
    endloop
  endfacet
  facet normal 0 -1 0
    outer loop
      vertex -2.5 -62.4901 22.4
      vertex 50.314 -62.4901 22.4
      vertex -2.5 -62.4901 28.25
    endloop
  endfacet
  facet normal 1.22465e-16 0 -1
    outer loop
      vertex -41 -60 28.3167
      vertex -52.5 -64.9901 28.3167
      vertex -41 60 28.3167
    endloop
  endfacet
  facet normal 1.22465e-16 0 -1
    outer loop
      vertex -38 -60 28.3167
      vertex -2.5 64.9901 28.3167
      vertex -2.5 -64.9901 28.3167
    endloop
  endfacet
  facet normal 1.22465e-16 0 -1
    outer loop
      vertex -52.5 64.9901 28.3167
      vertex -2.5 64.9901 28.3167
      vertex -38 60 28.3167
    endloop
  endfacet
  facet normal 1.22465e-16 0 -1
    outer loop
      vertex -52.5 64.9901 28.3167
      vertex -38 60 28.3167
      vertex -41 60 28.3167
    endloop
  endfacet
  facet normal 1.22465e-16 0 -1
    outer loop
      vertex -52.5 64.9901 28.3167
      vertex -41 60 28.3167
      vertex -52.5 -64.9901 28.3167
    endloop
  endfacet
  facet normal 1.22465e-16 0 -1
    outer loop
      vertex -52.5 -64.9901 28.3167
      vertex -41 -60 28.3167
      vertex -2.5 -64.9901 28.3167
    endloop
  endfacet
  facet normal 1.22465e-16 0 -1
    outer loop
      vertex -41 -60 28.3167
      vertex -38 -60 28.3167
      vertex -2.5 -64.9901 28.3167
    endloop
  endfacet
  facet normal 1.22465e-16 0 -1
    outer loop
      vertex -38 60 28.3167
      vertex -2.5 64.9901 28.3167
      vertex -38 -60 28.3167
    endloop
  endfacet
  facet normal 1 0 1.22465e-16
    outer loop
      vertex -52.5 61.8201 22.4
      vertex -52.5 -61.8201 28.25
      vertex -52.5 -61.8201 22.4
    endloop
  endfacet
  facet normal 1 0 1.22465e-16
    outer loop
      vertex -52.5 61.8201 28.25
      vertex -52.5 -61.8201 28.25
      vertex -52.5 61.8201 22.4
    endloop
  endfacet
  facet normal 1 0 1.22465e-16
    outer loop
      vertex -52.5 -64.9901 28.25
      vertex -52.5 -61.8201 28.25
      vertex -52.5 64.9901 28.3167
    endloop
  endfacet
  facet normal 1 0 1.22465e-16
    outer loop
      vertex -52.5 64.9901 28.3167
      vertex -52.5 -61.8201 28.25
      vertex -52.5 61.8201 28.25
    endloop
  endfacet
  facet normal 1 0 1.22465e-16
    outer loop
      vertex -52.5 64.9901 28.3167
      vertex -52.5 61.8201 28.25
      vertex -52.5 64.9901 28.25
    endloop
  endfacet
  facet normal 1 0 1.22465e-16
    outer loop
      vertex -52.5 -64.9901 28.3167
      vertex -52.5 -64.9901 28.25
      vertex -52.5 64.9901 28.3167
    endloop
  endfacet
  facet normal 1.22465e-16 0 -1
    outer loop
      vertex -52.5 -64.9901 28.25
      vertex -52.814 -64.9901 28.25
      vertex -52.5 -61.8201 28.25
    endloop
  endfacet
  facet normal 1.22465e-16 0 -1
    outer loop
      vertex -52.5 -61.8201 28.25
      vertex -52.814 -64.9901 28.25
      vertex -53.4369 -64.9114 28.25
    endloop
  endfacet
  facet normal 1.22465e-16 0 -1
    outer loop
      vertex -52.5 -61.8201 28.25
      vertex -53.4369 -64.9114 28.25
      vertex -54.0451 -64.7553 28.25
    endloop
  endfacet
  facet normal 1.22465e-16 0 -1
    outer loop
      vertex -52.5 -61.8201 28.25
      vertex -54.0451 -64.7553 28.25
      vertex -54.6289 -64.5241 28.25
    endloop
  endfacet
  facet normal 1.22465e-16 0 -1
    outer loop
      vertex -52.5 -61.8201 28.25
      vertex -54.6289 -64.5241 28.25
      vertex -55.1791 -64.2216 28.25
    endloop
  endfacet
  facet normal 1.22465e-16 0 -1
    outer loop
      vertex -52.5 -61.8201 28.25
      vertex -55.1791 -64.2216 28.25
      vertex -55.6871 -63.8526 28.25
    endloop
  endfacet
  facet normal 1.22465e-16 0 -1
    outer loop
      vertex -52.5 -61.8201 28.25
      vertex -55.6871 -63.8526 28.25
      vertex -56.1448 -63.4227 28.25
    endloop
  endfacet
  facet normal 1.22465e-16 0 -1
    outer loop
      vertex -52.5 -61.8201 28.25
      vertex -56.1448 -63.4227 28.25
      vertex -56.5451 -62.9389 28.25
    endloop
  endfacet
  facet normal 1.22465e-16 0 -1
    outer loop
      vertex -52.5 -61.8201 28.25
      vertex -56.5451 -62.9389 28.25
      vertex -56.8815 -62.4088 28.25
    endloop
  endfacet
  facet normal 1.22465e-16 0 -1
    outer loop
      vertex -52.5 -61.8201 28.25
      vertex -56.8815 -62.4088 28.25
      vertex -57.1489 -61.8406 28.25
    endloop
  endfacet
  facet normal 1.22465e-16 0 -1
    outer loop
      vertex -52.5 -61.8201 28.25
      vertex -57.1489 -61.8406 28.25
      vertex -57.3429 -61.2434 28.25
    endloop
  endfacet
  facet normal 1.22465e-16 0 -1
    outer loop
      vertex -52.5 -61.8201 28.25
      vertex -57.3429 -61.2434 28.25
      vertex -57.4606 -60.6267 28.25
    endloop
  endfacet
  facet normal 1.22465e-16 0 -1
    outer loop
      vertex -52.5 -61.8201 28.25
      vertex -57.4606 -60.6267 28.25
      vertex -57.5 -60 28.25
    endloop
  endfacet
  facet normal 1.22465e-16 0 -1
    outer loop
      vertex -55 -57.5 28.25
      vertex -57.5 -60 28.25
      vertex -57.5 60 28.25
    endloop
  endfacet
  facet normal 1.22465e-16 0 -1
    outer loop
      vertex -54.6489 59.3406 28.25
      vertex -55.1791 64.2216 28.25
      vertex -54.6289 64.5241 28.25
    endloop
  endfacet
  facet normal 1.22465e-16 0 -1
    outer loop
      vertex -54.0451 60.4389 28.25
      vertex -54.6289 64.5241 28.25
      vertex -54.0451 64.7553 28.25
    endloop
  endfacet
  facet normal 1.22465e-16 0 -1
    outer loop
      vertex -53.6448 60.9227 28.25
      vertex -54.0451 64.7553 28.25
      vertex -53.4369 64.9114 28.25
    endloop
  endfacet
  facet normal 1.22465e-16 0 -1
    outer loop
      vertex -53.1871 61.3526 28.25
      vertex -53.4369 64.9114 28.25
      vertex -52.814 64.9901 28.25
    endloop
  endfacet
  facet normal 1.22465e-16 0 -1
    outer loop
      vertex -52.5 61.8201 28.25
      vertex -52.814 64.9901 28.25
      vertex -52.5 64.9901 28.25
    endloop
  endfacet
  facet normal 1.22465e-16 0 -1
    outer loop
      vertex -52.6791 61.7216 28.25
      vertex -52.814 64.9901 28.25
      vertex -52.5 61.8201 28.25
    endloop
  endfacet
  facet normal 1.22465e-16 0 -1
    outer loop
      vertex -53.6448 60.9227 28.25
      vertex -53.4369 64.9114 28.25
      vertex -53.1871 61.3526 28.25
    endloop
  endfacet
  facet normal 1.22465e-16 0 -1
    outer loop
      vertex -54.0451 60.4389 28.25
      vertex -54.0451 64.7553 28.25
      vertex -53.6448 60.9227 28.25
    endloop
  endfacet
  facet normal 1.22465e-16 0 -1
    outer loop
      vertex -54.3815 59.9088 28.25
      vertex -54.6289 64.5241 28.25
      vertex -54.0451 60.4389 28.25
    endloop
  endfacet
  facet normal 1.22465e-16 0 -1
    outer loop
      vertex -54.6489 59.3406 28.25
      vertex -54.6289 64.5241 28.25
      vertex -54.3815 59.9088 28.25
    endloop
  endfacet
  facet normal 1.22465e-16 0 -1
    outer loop
      vertex -55 -57.5 28.25
      vertex -57.4606 60.6267 28.25
      vertex -57.3429 61.2434 28.25
    endloop
  endfacet
  facet normal 1.22465e-16 0 -1
    outer loop
      vertex -54.8429 58.7434 28.25
      vertex -55.1791 64.2216 28.25
      vertex -54.6489 59.3406 28.25
    endloop
  endfacet
  facet normal 1.22465e-16 0 -1
    outer loop
      vertex -55 -57.5 28.25
      vertex -57.5 60 28.25
      vertex -57.4606 60.6267 28.25
    endloop
  endfacet
  facet normal 1.22465e-16 0 -1
    outer loop
      vertex -54.9606 58.1267 28.25
      vertex -55.1791 64.2216 28.25
      vertex -54.8429 58.7434 28.25
    endloop
  endfacet
  facet normal 1.22465e-16 0 -1
    outer loop
      vertex -55 57.5 28.25
      vertex -55.1791 64.2216 28.25
      vertex -54.9606 58.1267 28.25
    endloop
  endfacet
  facet normal 1.22465e-16 0 -1
    outer loop
      vertex -54.9606 -58.1267 28.25
      vertex -57.5 -60 28.25
      vertex -55 -57.5 28.25
    endloop
  endfacet
  facet normal 1.22465e-16 0 -1
    outer loop
      vertex -54.8429 -58.7434 28.25
      vertex -57.5 -60 28.25
      vertex -54.9606 -58.1267 28.25
    endloop
  endfacet
  facet normal 1.22465e-16 0 -1
    outer loop
      vertex -54.6489 -59.3406 28.25
      vertex -57.5 -60 28.25
      vertex -54.8429 -58.7434 28.25
    endloop
  endfacet
  facet normal 1.22465e-16 0 -1
    outer loop
      vertex -54.3815 -59.9088 28.25
      vertex -57.5 -60 28.25
      vertex -54.6489 -59.3406 28.25
    endloop
  endfacet
  facet normal 1.22465e-16 0 -1
    outer loop
      vertex -54.0451 -60.4389 28.25
      vertex -57.5 -60 28.25
      vertex -54.3815 -59.9088 28.25
    endloop
  endfacet
  facet normal 1.22465e-16 0 -1
    outer loop
      vertex -53.6448 -60.9227 28.25
      vertex -57.5 -60 28.25
      vertex -54.0451 -60.4389 28.25
    endloop
  endfacet
  facet normal 1.22465e-16 0 -1
    outer loop
      vertex -53.1871 -61.3526 28.25
      vertex -57.5 -60 28.25
      vertex -53.6448 -60.9227 28.25
    endloop
  endfacet
  facet normal 1.22465e-16 0 -1
    outer loop
      vertex -52.6791 -61.7216 28.25
      vertex -57.5 -60 28.25
      vertex -53.1871 -61.3526 28.25
    endloop
  endfacet
  facet normal 1.22465e-16 0 -1
    outer loop
      vertex -52.5 -61.8201 28.25
      vertex -57.5 -60 28.25
      vertex -52.6791 -61.7216 28.25
    endloop
  endfacet
  facet normal 1.22465e-16 0 -1
    outer loop
      vertex -53.1871 61.3526 28.25
      vertex -52.814 64.9901 28.25
      vertex -52.6791 61.7216 28.25
    endloop
  endfacet
  facet normal 1.22465e-16 0 -1
    outer loop
      vertex -55 -57.5 28.25
      vertex -57.3429 61.2434 28.25
      vertex -57.1489 61.8406 28.25
    endloop
  endfacet
  facet normal 1.22465e-16 0 -1
    outer loop
      vertex -55 -57.5 28.25
      vertex -57.1489 61.8406 28.25
      vertex -56.8815 62.4088 28.25
    endloop
  endfacet
  facet normal 1.22465e-16 0 -1
    outer loop
      vertex -55 -57.5 28.25
      vertex -56.8815 62.4088 28.25
      vertex -56.5451 62.9389 28.25
    endloop
  endfacet
  facet normal 1.22465e-16 0 -1
    outer loop
      vertex -55 -57.5 28.25
      vertex -56.5451 62.9389 28.25
      vertex -56.1448 63.4227 28.25
    endloop
  endfacet
  facet normal 1.22465e-16 0 -1
    outer loop
      vertex -55 -57.5 28.25
      vertex -56.1448 63.4227 28.25
      vertex -55.6871 63.8526 28.25
    endloop
  endfacet
  facet normal 1.22465e-16 0 -1
    outer loop
      vertex -55 -57.5 28.25
      vertex -55.6871 63.8526 28.25
      vertex -55.1791 64.2216 28.25
    endloop
  endfacet
  facet normal 1.22465e-16 0 -1
    outer loop
      vertex -55 -57.5 28.25
      vertex -55.1791 64.2216 28.25
      vertex -55 57.5 28.25
    endloop
  endfacet
  facet normal 1.22465e-16 0 -1
    outer loop
      vertex 55 -57.5 22.4
      vertex 54.9606 -58.1267 22.4
      vertex 55 57.5 22.4
    endloop
  endfacet
  facet normal 1.22465e-16 0 -1
    outer loop
      vertex 55 57.5 22.4
      vertex 54.9606 -58.1267 22.4
      vertex 54.8429 -58.7434 22.4
    endloop
  endfacet
  facet normal 1.22465e-16 0 -1
    outer loop
      vertex 55 57.5 22.4
      vertex 54.8429 -58.7434 22.4
      vertex 54.6489 -59.3406 22.4
    endloop
  endfacet
  facet normal 1.22465e-16 0 -1
    outer loop
      vertex 55 57.5 22.4
      vertex 54.6489 -59.3406 22.4
      vertex 54.3815 -59.9088 22.4
    endloop
  endfacet
  facet normal 1.22465e-16 0 -1
    outer loop
      vertex 55 57.5 22.4
      vertex 54.3815 -59.9088 22.4
      vertex 54.0451 -60.4389 22.4
    endloop
  endfacet
  facet normal 1.22465e-16 0 -1
    outer loop
      vertex 55 57.5 22.4
      vertex 54.0451 -60.4389 22.4
      vertex 53.6448 -60.9227 22.4
    endloop
  endfacet
  facet normal 1.22465e-16 0 -1
    outer loop
      vertex 55 57.5 22.4
      vertex 53.6448 -60.9227 22.4
      vertex 53.1871 -61.3526 22.4
    endloop
  endfacet
  facet normal 1.22465e-16 0 -1
    outer loop
      vertex 55 57.5 22.4
      vertex 53.1871 -61.3526 22.4
      vertex 52.6791 -61.7216 22.4
    endloop
  endfacet
  facet normal 1.22465e-16 0 -1
    outer loop
      vertex 52.3429 -56.2434 22.4
      vertex 52.6791 -61.7216 22.4
      vertex 52.1289 -62.0241 22.4
    endloop
  endfacet
  facet normal 1.22465e-16 0 -1
    outer loop
      vertex 51.8815 -57.4088 22.4
      vertex 52.1289 -62.0241 22.4
      vertex 51.5451 -62.2553 22.4
    endloop
  endfacet
  facet normal 1.22465e-16 0 -1
    outer loop
      vertex 51.1448 -58.4227 22.4
      vertex 51.5451 -62.2553 22.4
      vertex 50.9369 -62.4114 22.4
    endloop
  endfacet
  facet normal 1.22465e-16 0 -1
    outer loop
      vertex 50.6871 -58.8526 22.4
      vertex 50.9369 -62.4114 22.4
      vertex 50.314 -62.4901 22.4
    endloop
  endfacet
  facet normal 1.22465e-16 0 -1
    outer loop
      vertex 47.814 -59.9901 22.4
      vertex 50.314 -62.4901 22.4
      vertex -2.5 -62.4901 22.4
    endloop
  endfacet
  facet normal 1.22465e-16 0 -1
    outer loop
      vertex 48.4369 -59.9114 22.4
      vertex 50.314 -62.4901 22.4
      vertex 47.814 -59.9901 22.4
    endloop
  endfacet
  facet normal 1.22465e-16 0 -1
    outer loop
      vertex 50.6871 -58.8526 22.4
      vertex 50.314 -62.4901 22.4
      vertex 50.1791 -59.2216 22.4
    endloop
  endfacet
  facet normal 1.22465e-16 0 -1
    outer loop
      vertex 49.0451 -59.7553 22.4
      vertex 50.314 -62.4901 22.4
      vertex 48.4369 -59.9114 22.4
    endloop
  endfacet
  facet normal 1.22465e-16 0 -1
    outer loop
      vertex 49.6289 -59.5241 22.4
      vertex 50.314 -62.4901 22.4
      vertex 49.0451 -59.7553 22.4
    endloop
  endfacet
  facet normal 1.22465e-16 0 -1
    outer loop
      vertex 50.1791 -59.2216 22.4
      vertex 50.314 -62.4901 22.4
      vertex 49.6289 -59.5241 22.4
    endloop
  endfacet
  facet normal 1.22465e-16 0 -1
    outer loop
      vertex 51.1448 -58.4227 22.4
      vertex 50.9369 -62.4114 22.4
      vertex 50.6871 -58.8526 22.4
    endloop
  endfacet
  facet normal 1.22465e-16 0 -1
    outer loop
      vertex 51.5451 -57.9389 22.4
      vertex 51.5451 -62.2553 22.4
      vertex 51.1448 -58.4227 22.4
    endloop
  endfacet
  facet normal 1.22465e-16 0 -1
    outer loop
      vertex 51.8815 -57.4088 22.4
      vertex 51.5451 -62.2553 22.4
      vertex 51.5451 -57.9389 22.4
    endloop
  endfacet
  facet normal 1.22465e-16 0 -1
    outer loop
      vertex 52.1489 -56.8406 22.4
      vertex 52.1289 -62.0241 22.4
      vertex 51.8815 -57.4088 22.4
    endloop
  endfacet
  facet normal 1.22465e-16 0 -1
    outer loop
      vertex 52.3429 -56.2434 22.4
      vertex 52.1289 -62.0241 22.4
      vertex 52.1489 -56.8406 22.4
    endloop
  endfacet
  facet normal 1.22465e-16 0 -1
    outer loop
      vertex 52.4606 -55.6267 22.4
      vertex 52.6791 -61.7216 22.4
      vertex 52.3429 -56.2434 22.4
    endloop
  endfacet
  facet normal 1.22465e-16 0 -1
    outer loop
      vertex 52.5 55 22.4
      vertex 55 57.5 22.4
      vertex 52.5 -55 22.4
    endloop
  endfacet
  facet normal 1.22465e-16 0 -1
    outer loop
      vertex 52.5 -55 22.4
      vertex 52.6791 -61.7216 22.4
      vertex 52.4606 -55.6267 22.4
    endloop
  endfacet
  facet normal 1.22465e-16 0 -1
    outer loop
      vertex 55 57.5 22.4
      vertex 52.6791 -61.7216 22.4
      vertex 52.5 -55 22.4
    endloop
  endfacet
  facet normal 1.22465e-16 0 -1
    outer loop
      vertex 55 57.5 22.4
      vertex 52.5 55 22.4
      vertex 52.4606 55.6267 22.4
    endloop
  endfacet
  facet normal 1.22465e-16 0 -1
    outer loop
      vertex 52.4606 55.6267 22.4
      vertex 52.3429 56.2434 22.4
      vertex 55 57.5 22.4
    endloop
  endfacet
  facet normal 1.22465e-16 0 -1
    outer loop
      vertex 52.3429 56.2434 22.4
      vertex 52.1489 56.8406 22.4
      vertex 55 57.5 22.4
    endloop
  endfacet
  facet normal 1.22465e-16 0 -1
    outer loop
      vertex 52.1489 56.8406 22.4
      vertex 51.8815 57.4088 22.4
      vertex 55 57.5 22.4
    endloop
  endfacet
  facet normal 1.22465e-16 0 -1
    outer loop
      vertex 51.8815 57.4088 22.4
      vertex 51.5451 57.9389 22.4
      vertex 55 57.5 22.4
    endloop
  endfacet
  facet normal 1.22465e-16 0 -1
    outer loop
      vertex 51.5451 57.9389 22.4
      vertex 51.1448 58.4227 22.4
      vertex 55 57.5 22.4
    endloop
  endfacet
  facet normal 1.22465e-16 0 -1
    outer loop
      vertex 51.1448 58.4227 22.4
      vertex 50.6871 58.8526 22.4
      vertex 55 57.5 22.4
    endloop
  endfacet
  facet normal 1.22465e-16 0 -1
    outer loop
      vertex 50.6871 58.8526 22.4
      vertex 50.1791 59.2216 22.4
      vertex 55 57.5 22.4
    endloop
  endfacet
  facet normal 1.22465e-16 0 -1
    outer loop
      vertex 50.1791 59.2216 22.4
      vertex 49.6289 59.5241 22.4
      vertex 55 57.5 22.4
    endloop
  endfacet
  facet normal 1.22465e-16 0 -1
    outer loop
      vertex 49.6289 59.5241 22.4
      vertex 49.0451 59.7553 22.4
      vertex 55 57.5 22.4
    endloop
  endfacet
  facet normal 1.22465e-16 0 -1
    outer loop
      vertex 49.0451 59.7553 22.4
      vertex 50.314 62.4901 22.4
      vertex 55 57.5 22.4
    endloop
  endfacet
  facet normal 1.22465e-16 0 -1
    outer loop
      vertex 48.4369 59.9114 22.4
      vertex 50.314 62.4901 22.4
      vertex 49.0451 59.7553 22.4
    endloop
  endfacet
  facet normal 1.22465e-16 0 -1
    outer loop
      vertex 47.814 59.9901 22.4
      vertex -2.5 59.9901 22.4
      vertex -2.5 62.4901 22.4
    endloop
  endfacet
  facet normal 1.22465e-16 0 -1
    outer loop
      vertex 47.814 59.9901 22.4
      vertex -2.5 62.4901 22.4
      vertex 50.314 62.4901 22.4
    endloop
  endfacet
  facet normal 1.22465e-16 0 -1
    outer loop
      vertex 47.814 59.9901 22.4
      vertex 50.314 62.4901 22.4
      vertex 48.4369 59.9114 22.4
    endloop
  endfacet
  facet normal 1.22465e-16 0 -1
    outer loop
      vertex 55 57.5 22.4
      vertex 50.314 62.4901 22.4
      vertex 50.9369 62.4114 22.4
    endloop
  endfacet
  facet normal 1.22465e-16 0 -1
    outer loop
      vertex 55 57.5 22.4
      vertex 50.9369 62.4114 22.4
      vertex 51.5451 62.2553 22.4
    endloop
  endfacet
  facet normal 1.22465e-16 0 -1
    outer loop
      vertex 55 57.5 22.4
      vertex 51.5451 62.2553 22.4
      vertex 52.1289 62.0241 22.4
    endloop
  endfacet
  facet normal 1.22465e-16 0 -1
    outer loop
      vertex 55 57.5 22.4
      vertex 52.1289 62.0241 22.4
      vertex 52.6791 61.7216 22.4
    endloop
  endfacet
  facet normal 1.22465e-16 0 -1
    outer loop
      vertex 55 57.5 22.4
      vertex 52.6791 61.7216 22.4
      vertex 53.1871 61.3526 22.4
    endloop
  endfacet
  facet normal 1.22465e-16 0 -1
    outer loop
      vertex 55 57.5 22.4
      vertex 53.1871 61.3526 22.4
      vertex 53.6448 60.9227 22.4
    endloop
  endfacet
  facet normal 1.22465e-16 0 -1
    outer loop
      vertex 55 57.5 22.4
      vertex 53.6448 60.9227 22.4
      vertex 54.0451 60.4389 22.4
    endloop
  endfacet
  facet normal 1.22465e-16 0 -1
    outer loop
      vertex 55 57.5 22.4
      vertex 54.0451 60.4389 22.4
      vertex 54.3815 59.9088 22.4
    endloop
  endfacet
  facet normal 1.22465e-16 0 -1
    outer loop
      vertex 55 57.5 22.4
      vertex 54.3815 59.9088 22.4
      vertex 54.6489 59.3406 22.4
    endloop
  endfacet
  facet normal 1.22465e-16 0 -1
    outer loop
      vertex 55 57.5 22.4
      vertex 54.6489 59.3406 22.4
      vertex 54.8429 58.7434 22.4
    endloop
  endfacet
  facet normal 1.22465e-16 0 -1
    outer loop
      vertex 55 57.5 22.4
      vertex 54.8429 58.7434 22.4
      vertex 54.9606 58.1267 22.4
    endloop
  endfacet
  facet normal 1.22465e-16 0 -1
    outer loop
      vertex 47.814 -59.9901 22.4
      vertex -2.5 -62.4901 22.4
      vertex -2.5 -59.9901 22.4
    endloop
  endfacet
  facet normal 0 1 0
    outer loop
      vertex -2.5 -59.9901 22.4
      vertex -2.5 -59.9901 28.25
      vertex 47.814 -59.9901 22.4
    endloop
  endfacet
  facet normal 0 1 0
    outer loop
      vertex 47.814 -59.9901 22.4
      vertex -2.5 -59.9901 28.25
      vertex 47.814 -59.9901 28.25
    endloop
  endfacet
  facet normal 1.22465e-16 0 -1
    outer loop
      vertex 52.5 -55 28.25
      vertex 52.4606 -55.6267 28.25
      vertex 52.5 55 28.25
    endloop
  endfacet
  facet normal 1.22465e-16 0 -1
    outer loop
      vertex 52.5 55 28.25
      vertex 52.4606 -55.6267 28.25
      vertex 52.3429 -56.2434 28.25
    endloop
  endfacet
  facet normal 1.22465e-16 0 -1
    outer loop
      vertex 52.5 55 28.25
      vertex 52.3429 -56.2434 28.25
      vertex 52.1489 -56.8406 28.25
    endloop
  endfacet
  facet normal 1.22465e-16 0 -1
    outer loop
      vertex 52.5 55 28.25
      vertex 52.1489 -56.8406 28.25
      vertex 51.8815 -57.4088 28.25
    endloop
  endfacet
  facet normal 1.22465e-16 0 -1
    outer loop
      vertex 52.5 55 28.25
      vertex 51.8815 -57.4088 28.25
      vertex 51.5451 -57.9389 28.25
    endloop
  endfacet
  facet normal 1.22465e-16 0 -1
    outer loop
      vertex 52.5 55 28.25
      vertex 51.5451 -57.9389 28.25
      vertex 51.1448 -58.4227 28.25
    endloop
  endfacet
  facet normal 1.22465e-16 0 -1
    outer loop
      vertex 52.5 55 28.25
      vertex 51.1448 -58.4227 28.25
      vertex 50.6871 -58.8526 28.25
    endloop
  endfacet
  facet normal 1.22465e-16 0 -1
    outer loop
      vertex 52.5 55 28.25
      vertex 50.6871 -58.8526 28.25
      vertex 50.1791 -59.2216 28.25
    endloop
  endfacet
  facet normal 1.22465e-16 0 -1
    outer loop
      vertex 52.5 55 28.25
      vertex 50.1791 -59.2216 28.25
      vertex 49.6289 -59.5241 28.25
    endloop
  endfacet
  facet normal 1.22465e-16 0 -1
    outer loop
      vertex 52.5 55 28.25
      vertex 49.6289 -59.5241 28.25
      vertex 49.0451 -59.7553 28.25
    endloop
  endfacet
  facet normal 1.22465e-16 0 -1
    outer loop
      vertex 52.5 55 28.25
      vertex 49.0451 -59.7553 28.25
      vertex 48.4369 -59.9114 28.25
    endloop
  endfacet
  facet normal 1.22465e-16 0 -1
    outer loop
      vertex 52.5 55 28.25
      vertex 48.4369 -59.9114 28.25
      vertex 47.814 -59.9901 28.25
    endloop
  endfacet
  facet normal 1.22465e-16 0 -1
    outer loop
      vertex 52.5 55 28.25
      vertex 47.814 -59.9901 28.25
      vertex -2.5 -59.9901 28.25
    endloop
  endfacet
  facet normal 1.22465e-16 0 -1
    outer loop
      vertex 52.5 55 28.25
      vertex -2.5 -59.9901 28.25
      vertex -2.5 59.9901 28.25
    endloop
  endfacet
  facet normal 1.22465e-16 0 -1
    outer loop
      vertex 52.5 55 28.25
      vertex -2.5 59.9901 28.25
      vertex 47.814 59.9901 28.25
    endloop
  endfacet
  facet normal 1.22465e-16 0 -1
    outer loop
      vertex 52.5 55 28.25
      vertex 47.814 59.9901 28.25
      vertex 48.4369 59.9114 28.25
    endloop
  endfacet
  facet normal 1.22465e-16 0 -1
    outer loop
      vertex 52.5 55 28.25
      vertex 48.4369 59.9114 28.25
      vertex 49.0451 59.7553 28.25
    endloop
  endfacet
  facet normal 1.22465e-16 0 -1
    outer loop
      vertex 52.5 55 28.25
      vertex 49.0451 59.7553 28.25
      vertex 49.6289 59.5241 28.25
    endloop
  endfacet
  facet normal 1.22465e-16 0 -1
    outer loop
      vertex 52.5 55 28.25
      vertex 49.6289 59.5241 28.25
      vertex 50.1791 59.2216 28.25
    endloop
  endfacet
  facet normal 1.22465e-16 0 -1
    outer loop
      vertex 52.5 55 28.25
      vertex 50.1791 59.2216 28.25
      vertex 50.6871 58.8526 28.25
    endloop
  endfacet
  facet normal 1.22465e-16 0 -1
    outer loop
      vertex 52.5 55 28.25
      vertex 50.6871 58.8526 28.25
      vertex 51.1448 58.4227 28.25
    endloop
  endfacet
  facet normal 1.22465e-16 0 -1
    outer loop
      vertex 52.5 55 28.25
      vertex 51.1448 58.4227 28.25
      vertex 51.5451 57.9389 28.25
    endloop
  endfacet
  facet normal 1.22465e-16 0 -1
    outer loop
      vertex 52.5 55 28.25
      vertex 51.5451 57.9389 28.25
      vertex 51.8815 57.4088 28.25
    endloop
  endfacet
  facet normal 1.22465e-16 0 -1
    outer loop
      vertex 52.5 55 28.25
      vertex 51.8815 57.4088 28.25
      vertex 52.1489 56.8406 28.25
    endloop
  endfacet
  facet normal 1.22465e-16 0 -1
    outer loop
      vertex 52.5 55 28.25
      vertex 52.1489 56.8406 28.25
      vertex 52.3429 56.2434 28.25
    endloop
  endfacet
  facet normal 1.22465e-16 0 -1
    outer loop
      vertex 52.5 55 28.25
      vertex 52.3429 56.2434 28.25
      vertex 52.4606 55.6267 28.25
    endloop
  endfacet
  facet normal 0 -1 0
    outer loop
      vertex -2.5 59.9901 28.25
      vertex -2.5 59.9901 22.4
      vertex 47.814 59.9901 22.4
    endloop
  endfacet
  facet normal 0 -1 0
    outer loop
      vertex 47.814 59.9901 28.25
      vertex -2.5 59.9901 28.25
      vertex 47.814 59.9901 22.4
    endloop
  endfacet
  facet normal -0.481753 0.876307 -5.89977e-17
    outer loop
      vertex -52.5 61.8201 28.25
      vertex -52.5 61.8201 22.4
      vertex -52.6791 61.7216 28.25
    endloop
  endfacet
  facet normal -0.481753 0.876307 -5.89977e-17
    outer loop
      vertex -52.6791 61.7216 28.25
      vertex -52.5 61.8201 22.4
      vertex -52.6791 61.7216 22.4
    endloop
  endfacet
  facet normal 1.22465e-16 0 -1
    outer loop
      vertex -52.5 -61.8201 22.4
      vertex -52.6791 -61.7216 22.4
      vertex -52.5 61.8201 22.4
    endloop
  endfacet
  facet normal 1.22465e-16 0 -1
    outer loop
      vertex -52.5 61.8201 22.4
      vertex -52.6791 -61.7216 22.4
      vertex -53.1871 -61.3526 22.4
    endloop
  endfacet
  facet normal 1.22465e-16 0 -1
    outer loop
      vertex -52.5 61.8201 22.4
      vertex -53.1871 -61.3526 22.4
      vertex -53.6448 -60.9227 22.4
    endloop
  endfacet
  facet normal 1.22465e-16 0 -1
    outer loop
      vertex -52.5 61.8201 22.4
      vertex -53.6448 -60.9227 22.4
      vertex -54.0451 -60.4389 22.4
    endloop
  endfacet
  facet normal 1.22465e-16 0 -1
    outer loop
      vertex -52.5 61.8201 22.4
      vertex -54.0451 -60.4389 22.4
      vertex -54.3815 -59.9088 22.4
    endloop
  endfacet
  facet normal 1.22465e-16 0 -1
    outer loop
      vertex -52.5 61.8201 22.4
      vertex -54.3815 -59.9088 22.4
      vertex -54.6489 -59.3406 22.4
    endloop
  endfacet
  facet normal 1.22465e-16 0 -1
    outer loop
      vertex -52.5 61.8201 22.4
      vertex -54.6489 -59.3406 22.4
      vertex -54.8429 -58.7434 22.4
    endloop
  endfacet
  facet normal 1.22465e-16 0 -1
    outer loop
      vertex -52.5 61.8201 22.4
      vertex -54.8429 -58.7434 22.4
      vertex -54.9606 -58.1267 22.4
    endloop
  endfacet
  facet normal 1.22465e-16 0 -1
    outer loop
      vertex -52.5 61.8201 22.4
      vertex -54.9606 -58.1267 22.4
      vertex -55 -57.5 22.4
    endloop
  endfacet
  facet normal 1.22465e-16 0 -1
    outer loop
      vertex -52.5 61.8201 22.4
      vertex -55 -57.5 22.4
      vertex -55 57.5 22.4
    endloop
  endfacet
  facet normal 1.22465e-16 0 -1
    outer loop
      vertex -52.5 61.8201 22.4
      vertex -55 57.5 22.4
      vertex -54.9606 58.1267 22.4
    endloop
  endfacet
  facet normal 1.22465e-16 0 -1
    outer loop
      vertex -52.5 61.8201 22.4
      vertex -54.9606 58.1267 22.4
      vertex -54.8429 58.7434 22.4
    endloop
  endfacet
  facet normal 1.22465e-16 0 -1
    outer loop
      vertex -52.5 61.8201 22.4
      vertex -54.8429 58.7434 22.4
      vertex -54.6489 59.3406 22.4
    endloop
  endfacet
  facet normal 1.22465e-16 0 -1
    outer loop
      vertex -52.5 61.8201 22.4
      vertex -54.6489 59.3406 22.4
      vertex -54.3815 59.9088 22.4
    endloop
  endfacet
  facet normal 1.22465e-16 0 -1
    outer loop
      vertex -52.5 61.8201 22.4
      vertex -54.3815 59.9088 22.4
      vertex -54.0451 60.4389 22.4
    endloop
  endfacet
  facet normal 1.22465e-16 0 -1
    outer loop
      vertex -52.5 61.8201 22.4
      vertex -54.0451 60.4389 22.4
      vertex -53.6448 60.9227 22.4
    endloop
  endfacet
  facet normal 1.22465e-16 0 -1
    outer loop
      vertex -52.5 61.8201 22.4
      vertex -53.6448 60.9227 22.4
      vertex -53.1871 61.3526 22.4
    endloop
  endfacet
  facet normal 1.22465e-16 0 -1
    outer loop
      vertex -52.5 61.8201 22.4
      vertex -53.1871 61.3526 22.4
      vertex -52.6791 61.7216 22.4
    endloop
  endfacet
  facet normal -0.481753 -0.876307 -5.89977e-17
    outer loop
      vertex -52.5 -61.8201 22.4
      vertex -52.5 -61.8201 28.25
      vertex -52.6791 -61.7216 28.25
    endloop
  endfacet
  facet normal -0.481753 -0.876307 -5.89977e-17
    outer loop
      vertex -52.6791 -61.7216 22.4
      vertex -52.5 -61.8201 22.4
      vertex -52.6791 -61.7216 28.25
    endloop
  endfacet
  facet normal -0.587786 -0.809017 -7.1983e-17
    outer loop
      vertex -52.6791 -61.7216 22.4
      vertex -52.6791 -61.7216 28.25
      vertex -53.1871 -61.3526 28.25
    endloop
  endfacet
  facet normal -0.587786 -0.809017 -7.1983e-17
    outer loop
      vertex -53.1871 -61.3526 22.4
      vertex -52.6791 -61.7216 22.4
      vertex -53.1871 -61.3526 28.25
    endloop
  endfacet
  facet normal -0.684547 -0.728969 -8.38328e-17
    outer loop
      vertex -53.1871 -61.3526 22.4
      vertex -53.1871 -61.3526 28.25
      vertex -53.6448 -60.9227 28.25
    endloop
  endfacet
  facet normal -0.684547 -0.728969 -8.38328e-17
    outer loop
      vertex -53.6448 -60.9227 22.4
      vertex -53.1871 -61.3526 22.4
      vertex -53.6448 -60.9227 28.25
    endloop
  endfacet
  facet normal -0.770514 -0.637424 -9.43607e-17
    outer loop
      vertex -53.6448 -60.9227 28.25
      vertex -54.0451 -60.4389 28.25
      vertex -53.6448 -60.9227 22.4
    endloop
  endfacet
  facet normal -0.770514 -0.637424 -9.43607e-17
    outer loop
      vertex -53.6448 -60.9227 22.4
      vertex -54.0451 -60.4389 28.25
      vertex -54.0451 -60.4389 22.4
    endloop
  endfacet
  facet normal -0.844328 -0.535826 -1.034e-16
    outer loop
      vertex -54.0451 -60.4389 28.25
      vertex -54.3815 -59.9088 28.25
      vertex -54.0451 -60.4389 22.4
    endloop
  endfacet
  facet normal -0.844328 -0.535826 -1.034e-16
    outer loop
      vertex -54.0451 -60.4389 22.4
      vertex -54.3815 -59.9088 28.25
      vertex -54.3815 -59.9088 22.4
    endloop
  endfacet
  facet normal -0.904827 -0.42578 -1.10809e-16
    outer loop
      vertex -54.3815 -59.9088 28.25
      vertex -54.6489 -59.3406 28.25
      vertex -54.3815 -59.9088 22.4
    endloop
  endfacet
  facet normal -0.904827 -0.42578 -1.10809e-16
    outer loop
      vertex -54.3815 -59.9088 22.4
      vertex -54.6489 -59.3406 28.25
      vertex -54.6489 -59.3406 22.4
    endloop
  endfacet
  facet normal -0.951056 -0.309018 -1.16471e-16
    outer loop
      vertex -54.6489 -59.3406 28.25
      vertex -54.8429 -58.7434 28.25
      vertex -54.6489 -59.3406 22.4
    endloop
  endfacet
  facet normal -0.951056 -0.309018 -1.16471e-16
    outer loop
      vertex -54.6489 -59.3406 22.4
      vertex -54.8429 -58.7434 28.25
      vertex -54.8429 -58.7434 22.4
    endloop
  endfacet
  facet normal -0.982287 -0.187382 -1.20295e-16
    outer loop
      vertex -54.8429 -58.7434 28.25
      vertex -54.9606 -58.1267 28.25
      vertex -54.8429 -58.7434 22.4
    endloop
  endfacet
  facet normal -0.982287 -0.187382 -1.20295e-16
    outer loop
      vertex -54.8429 -58.7434 22.4
      vertex -54.9606 -58.1267 28.25
      vertex -54.9606 -58.1267 22.4
    endloop
  endfacet
  facet normal -0.998027 -0.0627898 -1.22223e-16
    outer loop
      vertex -54.9606 -58.1267 28.25
      vertex -55 -57.5 28.25
      vertex -54.9606 -58.1267 22.4
    endloop
  endfacet
  facet normal -0.998027 -0.0627898 -1.22223e-16
    outer loop
      vertex -54.9606 -58.1267 22.4
      vertex -55 -57.5 28.25
      vertex -55 -57.5 22.4
    endloop
  endfacet
  facet normal -1 0 -1.22465e-16
    outer loop
      vertex -55 -57.5 28.25
      vertex -55 57.5 28.25
      vertex -55 -57.5 22.4
    endloop
  endfacet
  facet normal -1 0 -1.22465e-16
    outer loop
      vertex -55 -57.5 22.4
      vertex -55 57.5 28.25
      vertex -55 57.5 22.4
    endloop
  endfacet
  facet normal -0.998027 0.0627898 -1.22223e-16
    outer loop
      vertex -54.9606 58.1267 28.25
      vertex -54.9606 58.1267 22.4
      vertex -55 57.5 28.25
    endloop
  endfacet
  facet normal -0.998027 0.0627898 -1.22223e-16
    outer loop
      vertex -55 57.5 28.25
      vertex -54.9606 58.1267 22.4
      vertex -55 57.5 22.4
    endloop
  endfacet
  facet normal -0.982287 0.187382 -1.20295e-16
    outer loop
      vertex -54.8429 58.7434 28.25
      vertex -54.8429 58.7434 22.4
      vertex -54.9606 58.1267 28.25
    endloop
  endfacet
  facet normal -0.982287 0.187382 -1.20295e-16
    outer loop
      vertex -54.9606 58.1267 28.25
      vertex -54.8429 58.7434 22.4
      vertex -54.9606 58.1267 22.4
    endloop
  endfacet
  facet normal -0.951056 0.309018 -1.16471e-16
    outer loop
      vertex -54.6489 59.3406 28.25
      vertex -54.6489 59.3406 22.4
      vertex -54.8429 58.7434 28.25
    endloop
  endfacet
  facet normal -0.951056 0.309018 -1.16471e-16
    outer loop
      vertex -54.8429 58.7434 28.25
      vertex -54.6489 59.3406 22.4
      vertex -54.8429 58.7434 22.4
    endloop
  endfacet
  facet normal -0.904827 0.42578 -1.10809e-16
    outer loop
      vertex -54.3815 59.9088 28.25
      vertex -54.3815 59.9088 22.4
      vertex -54.6489 59.3406 28.25
    endloop
  endfacet
  facet normal -0.904827 0.42578 -1.10809e-16
    outer loop
      vertex -54.6489 59.3406 28.25
      vertex -54.3815 59.9088 22.4
      vertex -54.6489 59.3406 22.4
    endloop
  endfacet
  facet normal -0.844328 0.535826 -1.034e-16
    outer loop
      vertex -54.0451 60.4389 28.25
      vertex -54.0451 60.4389 22.4
      vertex -54.3815 59.9088 28.25
    endloop
  endfacet
  facet normal -0.844328 0.535826 -1.034e-16
    outer loop
      vertex -54.3815 59.9088 28.25
      vertex -54.0451 60.4389 22.4
      vertex -54.3815 59.9088 22.4
    endloop
  endfacet
  facet normal -0.770514 0.637424 -9.43607e-17
    outer loop
      vertex -53.6448 60.9227 28.25
      vertex -53.6448 60.9227 22.4
      vertex -54.0451 60.4389 28.25
    endloop
  endfacet
  facet normal -0.770514 0.637424 -9.43607e-17
    outer loop
      vertex -54.0451 60.4389 28.25
      vertex -53.6448 60.9227 22.4
      vertex -54.0451 60.4389 22.4
    endloop
  endfacet
  facet normal -0.684547 0.728969 -8.38328e-17
    outer loop
      vertex -53.1871 61.3526 28.25
      vertex -53.1871 61.3526 22.4
      vertex -53.6448 60.9227 28.25
    endloop
  endfacet
  facet normal -0.684547 0.728969 -8.38328e-17
    outer loop
      vertex -53.6448 60.9227 28.25
      vertex -53.1871 61.3526 22.4
      vertex -53.6448 60.9227 22.4
    endloop
  endfacet
  facet normal -0.587786 0.809017 -7.1983e-17
    outer loop
      vertex -52.6791 61.7216 28.25
      vertex -52.6791 61.7216 22.4
      vertex -53.1871 61.3526 28.25
    endloop
  endfacet
  facet normal -0.587786 0.809017 -7.1983e-17
    outer loop
      vertex -53.1871 61.3526 28.25
      vertex -52.6791 61.7216 22.4
      vertex -53.1871 61.3526 22.4
    endloop
  endfacet
  facet normal -0.125334 -0.992115 -1.5349e-17
    outer loop
      vertex 47.814 59.9901 28.25
      vertex 47.814 59.9901 22.4
      vertex 48.4369 59.9114 22.4
    endloop
  endfacet
  facet normal -0.125334 -0.992115 -1.5349e-17
    outer loop
      vertex 48.4369 59.9114 28.25
      vertex 47.814 59.9901 28.25
      vertex 48.4369 59.9114 22.4
    endloop
  endfacet
  facet normal -0.248689 -0.968583 -3.04556e-17
    outer loop
      vertex 48.4369 59.9114 28.25
      vertex 48.4369 59.9114 22.4
      vertex 49.0451 59.7553 22.4
    endloop
  endfacet
  facet normal -0.248689 -0.968583 -3.04556e-17
    outer loop
      vertex 49.0451 59.7553 28.25
      vertex 48.4369 59.9114 28.25
      vertex 49.0451 59.7553 22.4
    endloop
  endfacet
  facet normal -0.368126 -0.929776 -4.50824e-17
    outer loop
      vertex 49.0451 59.7553 28.25
      vertex 49.0451 59.7553 22.4
      vertex 49.6289 59.5241 22.4
    endloop
  endfacet
  facet normal -0.368126 -0.929776 -4.50824e-17
    outer loop
      vertex 49.6289 59.5241 28.25
      vertex 49.0451 59.7553 28.25
      vertex 49.6289 59.5241 22.4
    endloop
  endfacet
  facet normal -0.481753 -0.876307 -5.89977e-17
    outer loop
      vertex 49.6289 59.5241 28.25
      vertex 49.6289 59.5241 22.4
      vertex 50.1791 59.2216 22.4
    endloop
  endfacet
  facet normal -0.481753 -0.876307 -5.89977e-17
    outer loop
      vertex 50.1791 59.2216 28.25
      vertex 49.6289 59.5241 28.25
      vertex 50.1791 59.2216 22.4
    endloop
  endfacet
  facet normal -0.587786 -0.809017 -7.1983e-17
    outer loop
      vertex 50.1791 59.2216 28.25
      vertex 50.1791 59.2216 22.4
      vertex 50.6871 58.8526 22.4
    endloop
  endfacet
  facet normal -0.587786 -0.809017 -7.1983e-17
    outer loop
      vertex 50.6871 58.8526 28.25
      vertex 50.1791 59.2216 28.25
      vertex 50.6871 58.8526 22.4
    endloop
  endfacet
  facet normal -0.684547 -0.728969 -8.38328e-17
    outer loop
      vertex 50.6871 58.8526 28.25
      vertex 50.6871 58.8526 22.4
      vertex 51.1448 58.4227 22.4
    endloop
  endfacet
  facet normal -0.684547 -0.728969 -8.38328e-17
    outer loop
      vertex 51.1448 58.4227 28.25
      vertex 50.6871 58.8526 28.25
      vertex 51.1448 58.4227 22.4
    endloop
  endfacet
  facet normal -0.770514 -0.637424 -9.43607e-17
    outer loop
      vertex 51.1448 58.4227 22.4
      vertex 51.5451 57.9389 22.4
      vertex 51.1448 58.4227 28.25
    endloop
  endfacet
  facet normal -0.770514 -0.637424 -9.43607e-17
    outer loop
      vertex 51.1448 58.4227 28.25
      vertex 51.5451 57.9389 22.4
      vertex 51.5451 57.9389 28.25
    endloop
  endfacet
  facet normal -0.844328 -0.535826 -1.034e-16
    outer loop
      vertex 51.5451 57.9389 22.4
      vertex 51.8815 57.4088 22.4
      vertex 51.5451 57.9389 28.25
    endloop
  endfacet
  facet normal -0.844328 -0.535826 -1.034e-16
    outer loop
      vertex 51.5451 57.9389 28.25
      vertex 51.8815 57.4088 22.4
      vertex 51.8815 57.4088 28.25
    endloop
  endfacet
  facet normal -0.904827 -0.42578 -1.10809e-16
    outer loop
      vertex 51.8815 57.4088 22.4
      vertex 52.1489 56.8406 22.4
      vertex 51.8815 57.4088 28.25
    endloop
  endfacet
  facet normal -0.904827 -0.42578 -1.10809e-16
    outer loop
      vertex 51.8815 57.4088 28.25
      vertex 52.1489 56.8406 22.4
      vertex 52.1489 56.8406 28.25
    endloop
  endfacet
  facet normal -0.951056 -0.309018 -1.16471e-16
    outer loop
      vertex 52.1489 56.8406 22.4
      vertex 52.3429 56.2434 22.4
      vertex 52.1489 56.8406 28.25
    endloop
  endfacet
  facet normal -0.951056 -0.309018 -1.16471e-16
    outer loop
      vertex 52.1489 56.8406 28.25
      vertex 52.3429 56.2434 22.4
      vertex 52.3429 56.2434 28.25
    endloop
  endfacet
  facet normal -0.982287 -0.187382 -1.20295e-16
    outer loop
      vertex 52.3429 56.2434 22.4
      vertex 52.4606 55.6267 22.4
      vertex 52.3429 56.2434 28.25
    endloop
  endfacet
  facet normal -0.982287 -0.187382 -1.20295e-16
    outer loop
      vertex 52.3429 56.2434 28.25
      vertex 52.4606 55.6267 22.4
      vertex 52.4606 55.6267 28.25
    endloop
  endfacet
  facet normal -0.998027 -0.0627898 -1.22223e-16
    outer loop
      vertex 52.4606 55.6267 22.4
      vertex 52.5 55 22.4
      vertex 52.4606 55.6267 28.25
    endloop
  endfacet
  facet normal -0.998027 -0.0627898 -1.22223e-16
    outer loop
      vertex 52.4606 55.6267 28.25
      vertex 52.5 55 22.4
      vertex 52.5 55 28.25
    endloop
  endfacet
  facet normal -1 0 -1.22465e-16
    outer loop
      vertex 52.5 55 22.4
      vertex 52.5 -55 22.4
      vertex 52.5 55 28.25
    endloop
  endfacet
  facet normal -1 0 -1.22465e-16
    outer loop
      vertex 52.5 55 28.25
      vertex 52.5 -55 22.4
      vertex 52.5 -55 28.25
    endloop
  endfacet
  facet normal -0.998027 0.0627898 -1.22223e-16
    outer loop
      vertex 52.4606 -55.6267 22.4
      vertex 52.4606 -55.6267 28.25
      vertex 52.5 -55 22.4
    endloop
  endfacet
  facet normal -0.998027 0.0627898 -1.22223e-16
    outer loop
      vertex 52.5 -55 22.4
      vertex 52.4606 -55.6267 28.25
      vertex 52.5 -55 28.25
    endloop
  endfacet
  facet normal -0.982287 0.187382 -1.20295e-16
    outer loop
      vertex 52.3429 -56.2434 22.4
      vertex 52.3429 -56.2434 28.25
      vertex 52.4606 -55.6267 22.4
    endloop
  endfacet
  facet normal -0.982287 0.187382 -1.20295e-16
    outer loop
      vertex 52.4606 -55.6267 22.4
      vertex 52.3429 -56.2434 28.25
      vertex 52.4606 -55.6267 28.25
    endloop
  endfacet
  facet normal -0.951056 0.309018 -1.16471e-16
    outer loop
      vertex 52.1489 -56.8406 22.4
      vertex 52.1489 -56.8406 28.25
      vertex 52.3429 -56.2434 22.4
    endloop
  endfacet
  facet normal -0.951056 0.309018 -1.16471e-16
    outer loop
      vertex 52.3429 -56.2434 22.4
      vertex 52.1489 -56.8406 28.25
      vertex 52.3429 -56.2434 28.25
    endloop
  endfacet
  facet normal -0.904827 0.42578 -1.10809e-16
    outer loop
      vertex 51.8815 -57.4088 22.4
      vertex 51.8815 -57.4088 28.25
      vertex 52.1489 -56.8406 22.4
    endloop
  endfacet
  facet normal -0.904827 0.42578 -1.10809e-16
    outer loop
      vertex 52.1489 -56.8406 22.4
      vertex 51.8815 -57.4088 28.25
      vertex 52.1489 -56.8406 28.25
    endloop
  endfacet
  facet normal -0.844328 0.535826 -1.034e-16
    outer loop
      vertex 51.5451 -57.9389 22.4
      vertex 51.5451 -57.9389 28.25
      vertex 51.8815 -57.4088 22.4
    endloop
  endfacet
  facet normal -0.844328 0.535826 -1.034e-16
    outer loop
      vertex 51.8815 -57.4088 22.4
      vertex 51.5451 -57.9389 28.25
      vertex 51.8815 -57.4088 28.25
    endloop
  endfacet
  facet normal -0.770514 0.637424 -9.43607e-17
    outer loop
      vertex 51.1448 -58.4227 22.4
      vertex 51.1448 -58.4227 28.25
      vertex 51.5451 -57.9389 22.4
    endloop
  endfacet
  facet normal -0.770514 0.637424 -9.43607e-17
    outer loop
      vertex 51.5451 -57.9389 22.4
      vertex 51.1448 -58.4227 28.25
      vertex 51.5451 -57.9389 28.25
    endloop
  endfacet
  facet normal -0.684547 0.728969 -8.38328e-17
    outer loop
      vertex 50.6871 -58.8526 22.4
      vertex 50.6871 -58.8526 28.25
      vertex 51.1448 -58.4227 22.4
    endloop
  endfacet
  facet normal -0.684547 0.728969 -8.38328e-17
    outer loop
      vertex 51.1448 -58.4227 22.4
      vertex 50.6871 -58.8526 28.25
      vertex 51.1448 -58.4227 28.25
    endloop
  endfacet
  facet normal -0.587786 0.809017 -7.1983e-17
    outer loop
      vertex 50.1791 -59.2216 22.4
      vertex 50.1791 -59.2216 28.25
      vertex 50.6871 -58.8526 22.4
    endloop
  endfacet
  facet normal -0.587786 0.809017 -7.1983e-17
    outer loop
      vertex 50.6871 -58.8526 22.4
      vertex 50.1791 -59.2216 28.25
      vertex 50.6871 -58.8526 28.25
    endloop
  endfacet
  facet normal -0.481753 0.876307 -5.89977e-17
    outer loop
      vertex 49.6289 -59.5241 22.4
      vertex 49.6289 -59.5241 28.25
      vertex 50.1791 -59.2216 22.4
    endloop
  endfacet
  facet normal -0.481753 0.876307 -5.89977e-17
    outer loop
      vertex 50.1791 -59.2216 22.4
      vertex 49.6289 -59.5241 28.25
      vertex 50.1791 -59.2216 28.25
    endloop
  endfacet
  facet normal -0.368126 0.929776 -4.50824e-17
    outer loop
      vertex 49.0451 -59.7553 22.4
      vertex 49.0451 -59.7553 28.25
      vertex 49.6289 -59.5241 22.4
    endloop
  endfacet
  facet normal -0.368126 0.929776 -4.50824e-17
    outer loop
      vertex 49.6289 -59.5241 22.4
      vertex 49.0451 -59.7553 28.25
      vertex 49.6289 -59.5241 28.25
    endloop
  endfacet
  facet normal -0.248689 0.968583 -3.04556e-17
    outer loop
      vertex 48.4369 -59.9114 22.4
      vertex 48.4369 -59.9114 28.25
      vertex 49.0451 -59.7553 22.4
    endloop
  endfacet
  facet normal -0.248689 0.968583 -3.04556e-17
    outer loop
      vertex 49.0451 -59.7553 22.4
      vertex 48.4369 -59.9114 28.25
      vertex 49.0451 -59.7553 28.25
    endloop
  endfacet
  facet normal -0.125334 0.992115 -1.5349e-17
    outer loop
      vertex 47.814 -59.9901 22.4
      vertex 47.814 -59.9901 28.25
      vertex 48.4369 -59.9114 22.4
    endloop
  endfacet
  facet normal -0.125334 0.992115 -1.5349e-17
    outer loop
      vertex 48.4369 -59.9114 22.4
      vertex 47.814 -59.9901 28.25
      vertex 48.4369 -59.9114 28.25
    endloop
  endfacet
endsolid OpenSCAD_Model
