solid OpenSCAD_Model
  facet normal -1 0 0
    outer loop
      vertex -8 5.5 0
      vertex -8 5.5 8
      vertex -8 8.8 0
    endloop
  endfacet
  facet normal -1 0 0
    outer loop
      vertex -8 8.8 0
      vertex -8 5.5 8
      vertex -8 8.8 8
    endloop
  endfacet
  facet normal 0 -1 0
    outer loop
      vertex -8 5.5 8
      vertex -8 5.5 0
      vertex -2.5 5.5 0
    endloop
  endfacet
  facet normal 0 -1 0
    outer loop
      vertex -2.5 5.5 8
      vertex -8 5.5 8
      vertex -2.5 5.5 0
    endloop
  endfacet
  facet normal 0 0 -1
    outer loop
      vertex -8 5.5 0
      vertex -8 8.8 0
      vertex -2.5 5.5 0
    endloop
  endfacet
  facet normal 0 0 -1
    outer loop
      vertex -2.5 5.5 0
      vertex -8 8.8 0
      vertex -2.5 8.8 0
    endloop
  endfacet
  facet normal 0 1 0
    outer loop
      vertex -8 8.8 0
      vertex -8 8.8 8
      vertex -2.5 8.8 0
    endloop
  endfacet
  facet normal 0 1 0
    outer loop
      vertex -2.5 8.8 0
      vertex -8 8.8 8
      vertex -2.5 8.8 8
    endloop
  endfacet
  facet normal 0 0 1
    outer loop
      vertex -8 8.8 8
      vertex -8 5.5 8
      vertex -2.5 5.5 8
    endloop
  endfacet
  facet normal 0 0 1
    outer loop
      vertex -2.5 8.8 8
      vertex -8 8.8 8
      vertex -2.5 5.5 8
    endloop
  endfacet
  facet normal -1 0 0
    outer loop
      vertex -2.5 -5 -9
      vertex -2.5 1 -5
      vertex -2.5 10.5 -9
    endloop
  endfacet
  facet normal -1 0 0
    outer loop
      vertex -2.5 -5 -9
      vertex -2.5 -5 1
      vertex -2.5 1 -5
    endloop
  endfacet
  facet normal -1 0 0
    outer loop
      vertex -2.5 6.311 -6.48764
      vertex -2.5 10.5 -9
      vertex -2.5 6.12919 -6.40209
    endloop
  endfacet
  facet normal -1 0 0
    outer loop
      vertex -2.5 -1.26274 4.75807
      vertex -2.5 -5 1.02082
      vertex -2.5 -5 9
    endloop
  endfacet
  facet normal -1 0 0
    outer loop
      vertex -2.5 -1.26274 4.75807
      vertex -2.5 -5 9
      vertex -2.5 4.74767 -1.25233
    endloop
  endfacet
  facet normal -1 0 0
    outer loop
      vertex -2.5 5.5 8
      vertex -2.5 -5 9
      vertex -2.5 10.5 9
    endloop
  endfacet
  facet normal -1 0 0
    outer loop
      vertex -2.5 8.47166 -5.29981
      vertex -2.5 10.5 9
      vertex -2.5 10.5 -9
    endloop
  endfacet
  facet normal -1 0 0
    outer loop
      vertex -2.5 5.32834 -4.70019
      vertex -2.5 5.30316 -4.89954
      vertex -2.5 4.74767 -1.25233
    endloop
  endfacet
  facet normal -1 0 0
    outer loop
      vertex -2.5 1 -5
      vertex -2.5 5.54908 -5.85732
      vertex -2.5 5.66718 -6.01988
    endloop
  endfacet
  facet normal -1 0 0
    outer loop
      vertex -2.5 1 -5
      vertex -2.5 5.66718 -6.01988
      vertex -2.5 5.80473 -6.16635
    endloop
  endfacet
  facet normal -1 0 0
    outer loop
      vertex -2.5 1 -5
      vertex -2.5 5.80473 -6.16635
      vertex -2.5 5.95954 -6.29443
    endloop
  endfacet
  facet normal -1 0 0
    outer loop
      vertex -2.5 1 -5
      vertex -2.5 5.95954 -6.29443
      vertex -2.5 6.12919 -6.40209
    endloop
  endfacet
  facet normal -1 0 0
    outer loop
      vertex -2.5 1 -5
      vertex -2.5 6.12919 -6.40209
      vertex -2.5 10.5 -9
    endloop
  endfacet
  facet normal -1 0 0
    outer loop
      vertex -2.5 6.5021 -6.54973
      vertex -2.5 10.5 -9
      vertex -2.5 6.311 -6.48764
    endloop
  endfacet
  facet normal -1 0 0
    outer loop
      vertex -2.5 6.69947 -6.58738
      vertex -2.5 10.5 -9
      vertex -2.5 6.5021 -6.54973
    endloop
  endfacet
  facet normal -1 0 0
    outer loop
      vertex -2.5 6.9 -6.6
      vertex -2.5 10.5 -9
      vertex -2.5 6.69947 -6.58738
    endloop
  endfacet
  facet normal -1 0 0
    outer loop
      vertex -2.5 7.10053 -6.58738
      vertex -2.5 10.5 -9
      vertex -2.5 6.9 -6.6
    endloop
  endfacet
  facet normal -1 0 0
    outer loop
      vertex -2.5 7.2979 -6.54973
      vertex -2.5 10.5 -9
      vertex -2.5 7.10053 -6.58738
    endloop
  endfacet
  facet normal -1 0 0
    outer loop
      vertex -2.5 7.489 -6.48764
      vertex -2.5 10.5 -9
      vertex -2.5 7.2979 -6.54973
    endloop
  endfacet
  facet normal -1 0 0
    outer loop
      vertex -2.5 8.25092 -5.85732
      vertex -2.5 10.5 -9
      vertex -2.5 8.13282 -6.01988
    endloop
  endfacet
  facet normal -1 0 0
    outer loop
      vertex -2.5 10.5 -9
      vertex -2.5 7.489 -6.48764
      vertex -2.5 7.67081 -6.40209
    endloop
  endfacet
  facet normal -1 0 0
    outer loop
      vertex -2.5 10.5 -9
      vertex -2.5 7.67081 -6.40209
      vertex -2.5 7.84046 -6.29443
    endloop
  endfacet
  facet normal -1 0 0
    outer loop
      vertex -2.5 10.5 -9
      vertex -2.5 7.84046 -6.29443
      vertex -2.5 7.99528 -6.16635
    endloop
  endfacet
  facet normal -1 0 0
    outer loop
      vertex -2.5 10.5 -9
      vertex -2.5 7.99528 -6.16635
      vertex -2.5 8.13282 -6.01988
    endloop
  endfacet
  facet normal -1 0 0
    outer loop
      vertex -2.5 7.67081 -3.59791
      vertex -2.5 4.74767 -1.25233
      vertex -2.5 7.84046 -3.70557
    endloop
  endfacet
  facet normal -1 0 0
    outer loop
      vertex -2.5 8.49684 -4.89954
      vertex -2.5 10.5 9
      vertex -2.5 8.49684 -5.10046
    endloop
  endfacet
  facet normal -1 0 0
    outer loop
      vertex -2.5 8.42169 -4.50557
      vertex -2.5 10.5 9
      vertex -2.5 8.47166 -4.70019
    endloop
  endfacet
  facet normal -1 0 0
    outer loop
      vertex -2.5 8.25092 -5.85732
      vertex -2.5 8.34772 -5.68125
      vertex -2.5 10.5 -9
    endloop
  endfacet
  facet normal -1 0 0
    outer loop
      vertex -2.5 8.47166 -4.70019
      vertex -2.5 10.5 9
      vertex -2.5 8.49684 -4.89954
    endloop
  endfacet
  facet normal -1 0 0
    outer loop
      vertex -2.5 8.34772 -5.68125
      vertex -2.5 8.42169 -5.49443
      vertex -2.5 10.5 -9
    endloop
  endfacet
  facet normal -1 0 0
    outer loop
      vertex -2.5 8.49684 -5.10046
      vertex -2.5 10.5 9
      vertex -2.5 8.47166 -5.29981
    endloop
  endfacet
  facet normal -1 0 0
    outer loop
      vertex -2.5 8.42169 -5.49443
      vertex -2.5 8.47166 -5.29981
      vertex -2.5 10.5 -9
    endloop
  endfacet
  facet normal -1 0 0
    outer loop
      vertex -2.5 8.34772 -4.31875
      vertex -2.5 10.5 9
      vertex -2.5 8.42169 -4.50557
    endloop
  endfacet
  facet normal -1 0 0
    outer loop
      vertex -2.5 8.25092 -4.14268
      vertex -2.5 10.5 9
      vertex -2.5 8.34772 -4.31875
    endloop
  endfacet
  facet normal -1 0 0
    outer loop
      vertex -2.5 8.13282 -3.98012
      vertex -2.5 10.5 9
      vertex -2.5 8.25092 -4.14268
    endloop
  endfacet
  facet normal -1 0 0
    outer loop
      vertex -2.5 8.8 0
      vertex -2.5 10.5 9
      vertex -2.5 8.13282 -3.98012
    endloop
  endfacet
  facet normal -1 0 0
    outer loop
      vertex -2.5 7.489 -3.51236
      vertex -2.5 4.74767 -1.25233
      vertex -2.5 7.67081 -3.59791
    endloop
  endfacet
  facet normal -1 0 0
    outer loop
      vertex -2.5 7.2979 -3.45027
      vertex -2.5 4.74767 -1.25233
      vertex -2.5 7.489 -3.51236
    endloop
  endfacet
  facet normal -1 0 0
    outer loop
      vertex -2.5 7.10053 -3.41262
      vertex -2.5 4.74767 -1.25233
      vertex -2.5 7.2979 -3.45027
    endloop
  endfacet
  facet normal -1 0 0
    outer loop
      vertex -2.5 6.311 -3.51236
      vertex -2.5 4.74767 -1.25233
      vertex -2.5 6.5021 -3.45027
    endloop
  endfacet
  facet normal -1 0 0
    outer loop
      vertex -2.5 4.74767 -1.25233
      vertex -2.5 7.10053 -3.41262
      vertex -2.5 6.9 -3.4
    endloop
  endfacet
  facet normal -1 0 0
    outer loop
      vertex -2.5 4.74767 -1.25233
      vertex -2.5 6.9 -3.4
      vertex -2.5 6.69947 -3.41262
    endloop
  endfacet
  facet normal -1 0 0
    outer loop
      vertex -2.5 4.74767 -1.25233
      vertex -2.5 6.69947 -3.41262
      vertex -2.5 6.5021 -3.45027
    endloop
  endfacet
  facet normal -1 0 0
    outer loop
      vertex -2.5 6.12919 -3.59791
      vertex -2.5 4.74767 -1.25233
      vertex -2.5 6.311 -3.51236
    endloop
  endfacet
  facet normal -1 0 0
    outer loop
      vertex -2.5 5.95954 -3.70557
      vertex -2.5 4.74767 -1.25233
      vertex -2.5 6.12919 -3.59791
    endloop
  endfacet
  facet normal -1 0 0
    outer loop
      vertex -2.5 5.5 0
      vertex -2.5 4.74767 -1.25233
      vertex -2.5 5.5 8
    endloop
  endfacet
  facet normal -1 0 0
    outer loop
      vertex -2.5 5.95954 -3.70557
      vertex -2.5 5.80473 -3.83365
      vertex -2.5 4.74767 -1.25233
    endloop
  endfacet
  facet normal -1 0 0
    outer loop
      vertex -2.5 5.80473 -3.83365
      vertex -2.5 5.66718 -3.98012
      vertex -2.5 4.74767 -1.25233
    endloop
  endfacet
  facet normal -1 0 0
    outer loop
      vertex -2.5 5.66718 -3.98012
      vertex -2.5 5.54908 -4.14268
      vertex -2.5 4.74767 -1.25233
    endloop
  endfacet
  facet normal -1 0 0
    outer loop
      vertex -2.5 5.54908 -4.14268
      vertex -2.5 5.45228 -4.31875
      vertex -2.5 4.74767 -1.25233
    endloop
  endfacet
  facet normal -1 0 0
    outer loop
      vertex -2.5 5.45228 -4.31875
      vertex -2.5 5.37831 -4.50557
      vertex -2.5 4.74767 -1.25233
    endloop
  endfacet
  facet normal -1 0 0
    outer loop
      vertex -2.5 5.37831 -4.50557
      vertex -2.5 5.32834 -4.70019
      vertex -2.5 4.74767 -1.25233
    endloop
  endfacet
  facet normal -1 0 0
    outer loop
      vertex -2.5 4.74767 -1.25233
      vertex -2.5 -5 9
      vertex -2.5 5.5 8
    endloop
  endfacet
  facet normal -1 0 0
    outer loop
      vertex -2.5 8.8 8
      vertex -2.5 5.5 8
      vertex -2.5 10.5 9
    endloop
  endfacet
  facet normal -1 0 0
    outer loop
      vertex -2.5 8.8 0
      vertex -2.5 7.99528 -3.83365
      vertex -2.5 7.84046 -3.70557
    endloop
  endfacet
  facet normal -1 0 0
    outer loop
      vertex -2.5 4.74767 -1.25233
      vertex -2.5 5.5 0
      vertex -2.5 7.84046 -3.70557
    endloop
  endfacet
  facet normal -1 0 0
    outer loop
      vertex -2.5 8.8 8
      vertex -2.5 10.5 9
      vertex -2.5 8.8 0
    endloop
  endfacet
  facet normal -1 0 0
    outer loop
      vertex -2.5 7.99528 -3.83365
      vertex -2.5 8.8 0
      vertex -2.5 8.13282 -3.98012
    endloop
  endfacet
  facet normal -1 0 0
    outer loop
      vertex -2.5 8.8 0
      vertex -2.5 7.84046 -3.70557
      vertex -2.5 5.5 0
    endloop
  endfacet
  facet normal -1 0 0
    outer loop
      vertex -2.5 4.74767 -1.25233
      vertex -2.5 5.30316 -4.89954
      vertex -2.5 5.30316 -5.10046
    endloop
  endfacet
  facet normal -1 0 0
    outer loop
      vertex -2.5 4.74767 -1.25233
      vertex -2.5 5.30316 -5.10046
      vertex -2.5 5.32834 -5.29981
    endloop
  endfacet
  facet normal -1 0 0
    outer loop
      vertex -2.5 5.45228 -5.68125
      vertex -2.5 5.54908 -5.85732
      vertex -2.5 1 -5
    endloop
  endfacet
  facet normal -1 0 0
    outer loop
      vertex -2.5 5.37831 -5.49443
      vertex -2.5 5.45228 -5.68125
      vertex -2.5 1 -5
    endloop
  endfacet
  facet normal -1 0 0
    outer loop
      vertex -2.5 5.32834 -5.29981
      vertex -2.5 5.37831 -5.49443
      vertex -2.5 1 -5
    endloop
  endfacet
  facet normal -1 0 0
    outer loop
      vertex -2.5 4.74767 -1.25233
      vertex -2.5 5.32834 -5.29981
      vertex -2.5 1 -5
    endloop
  endfacet
  facet normal 0 0 -1
    outer loop
      vertex -2.5 -5 -9
      vertex -2.5 10.5 -9
      vertex -0.6 -5 -9
    endloop
  endfacet
  facet normal 0 0 -1
    outer loop
      vertex -0.6 -5 -9
      vertex -2.5 10.5 -9
      vertex 2.5 10.5 -9
    endloop
  endfacet
  facet normal 0 0 -1
    outer loop
      vertex -0.6 -5 -9
      vertex 2.5 10.5 -9
      vertex 2.5 -12.5 -9
    endloop
  endfacet
  facet normal 0 0 -1
    outer loop
      vertex -0.6 -5 -9
      vertex 2.5 -12.5 -9
      vertex -0.6 -12.5 -9
    endloop
  endfacet
  facet normal 0 1 0
    outer loop
      vertex -2.5 10.5 -9
      vertex -2.5 10.5 9
      vertex 2.5 10.5 -9
    endloop
  endfacet
  facet normal 0 1 0
    outer loop
      vertex 2.5 10.5 -9
      vertex -2.5 10.5 9
      vertex 2.5 10.5 9
    endloop
  endfacet
  facet normal 0 0 1
    outer loop
      vertex -2.5 10.5 9
      vertex -2.5 -5 9
      vertex -0.6 -5 9
    endloop
  endfacet
  facet normal 0 0 1
    outer loop
      vertex 2.5 -12.5 9
      vertex -2.5 10.5 9
      vertex -0.6 -5 9
    endloop
  endfacet
  facet normal 0 0 1
    outer loop
      vertex -0.6 -12.5 9
      vertex 2.5 -12.5 9
      vertex -0.6 -5 9
    endloop
  endfacet
  facet normal 0 0 1
    outer loop
      vertex 2.5 -12.5 9
      vertex 2.5 10.5 9
      vertex -2.5 10.5 9
    endloop
  endfacet
  facet normal 0 -1 0
    outer loop
      vertex -0.6 -5 1.02082
      vertex -0.6 -5 9
      vertex -2.5 -5 9
    endloop
  endfacet
  facet normal 0 -1 0
    outer loop
      vertex -2.5 -5 1.02082
      vertex -0.6 -5 1.02082
      vertex -2.5 -5 9
    endloop
  endfacet
  facet normal 0 0.707107 -0.707107
    outer loop
      vertex 2.5 -1.26274 4.75807
      vertex 2.5 -5.01041 1.01041
      vertex -2.5 -1.26274 4.75807
    endloop
  endfacet
  facet normal 0 0.707107 -0.707107
    outer loop
      vertex -0.6 -5 1.02082
      vertex 2.5 -5.01041 1.01041
      vertex -0.6 -5.01041 1.01041
    endloop
  endfacet
  facet normal 0 0.707107 -0.707107
    outer loop
      vertex -2.5 -1.26274 4.75807
      vertex 2.5 -5.01041 1.01041
      vertex -0.6 -5 1.02082
    endloop
  endfacet
  facet normal 0 0.707107 -0.707107
    outer loop
      vertex -2.5 -5 1.02082
      vertex -2.5 -1.26274 4.75807
      vertex -0.6 -5 1.02082
    endloop
  endfacet
  facet normal 0 -0.707107 -0.707107
    outer loop
      vertex 2.5 4.74767 -1.25233
      vertex 2.5 -1.26274 4.75807
      vertex -2.5 4.74767 -1.25233
    endloop
  endfacet
  facet normal 0 -0.707107 -0.707107
    outer loop
      vertex -2.5 4.74767 -1.25233
      vertex 2.5 -1.26274 4.75807
      vertex -2.5 -1.26274 4.75807
    endloop
  endfacet
  facet normal 0 -0.707107 0.707107
    outer loop
      vertex 2.5 1 -5
      vertex 2.5 4.74767 -1.25233
      vertex -2.5 4.74767 -1.25233
    endloop
  endfacet
  facet normal 0 -0.707107 0.707107
    outer loop
      vertex -2.5 1 -5
      vertex 2.5 1 -5
      vertex -2.5 4.74767 -1.25233
    endloop
  endfacet
  facet normal 0 0.707107 0.707107
    outer loop
      vertex -0.6 -5 1
      vertex -0.6 -5.01041 1.01041
      vertex 2.5 -5.01041 1.01041
    endloop
  endfacet
  facet normal 0 0.707107 0.707107
    outer loop
      vertex -2.5 1 -5
      vertex -0.6 -5 1
      vertex 2.5 1 -5
    endloop
  endfacet
  facet normal 0 0.707107 0.707107
    outer loop
      vertex 2.5 1 -5
      vertex -0.6 -5 1
      vertex 2.5 -5.01041 1.01041
    endloop
  endfacet
  facet normal 0 0.707107 0.707107
    outer loop
      vertex -2.5 -5 1
      vertex -0.6 -5 1
      vertex -2.5 1 -5
    endloop
  endfacet
  facet normal 0 -1 0
    outer loop
      vertex -0.6 -5 -9
      vertex -0.6 -5 1
      vertex -2.5 -5 1
    endloop
  endfacet
  facet normal 0 -1 0
    outer loop
      vertex -2.5 -5 -9
      vertex -0.6 -5 -9
      vertex -2.5 -5 1
    endloop
  endfacet
  facet normal 2.78294e-17 0.992115 -0.125333
    outer loop
      vertex 2.5 5.32834 -4.70019
      vertex 2.5 5.30316 -4.89953
      vertex -2.5 5.32834 -4.70019
    endloop
  endfacet
  facet normal 2.78294e-17 0.992115 -0.125333
    outer loop
      vertex -2.5 5.32834 -4.70019
      vertex 2.5 5.30316 -4.89953
      vertex -2.5 5.30316 -4.89954
    endloop
  endfacet
  facet normal 0 1 0
    outer loop
      vertex 2.5 5.30316 -4.89953
      vertex 2.5 5.30316 -5.10046
      vertex -2.5 5.30316 -4.89954
    endloop
  endfacet
  facet normal 0 1 0
    outer loop
      vertex -2.5 5.30316 -4.89954
      vertex 2.5 5.30316 -5.10046
      vertex -2.5 5.30316 -5.10046
    endloop
  endfacet
  facet normal 5.52211e-17 0.968582 -0.248694
    outer loop
      vertex 2.5 5.37831 -4.50557
      vertex 2.5 5.32834 -4.70019
      vertex -2.5 5.37831 -4.50557
    endloop
  endfacet
  facet normal 5.52211e-17 0.968582 -0.248694
    outer loop
      vertex -2.5 5.37831 -4.50557
      vertex 2.5 5.32834 -4.70019
      vertex -2.5 5.32834 -4.70019
    endloop
  endfacet
  facet normal 8.17398e-17 0.929777 -0.368123
    outer loop
      vertex 2.5 5.45228 -4.31875
      vertex 2.5 5.37831 -4.50557
      vertex -2.5 5.45228 -4.31875
    endloop
  endfacet
  facet normal 8.17398e-17 0.929777 -0.368123
    outer loop
      vertex -2.5 5.45228 -4.31875
      vertex 2.5 5.37831 -4.50557
      vertex -2.5 5.37831 -4.50557
    endloop
  endfacet
  facet normal 1.0697e-16 0.876308 -0.481751
    outer loop
      vertex 2.5 5.54908 -4.14268
      vertex 2.5 5.45228 -4.31875
      vertex -2.5 5.54908 -4.14268
    endloop
  endfacet
  facet normal 1.0697e-16 0.876308 -0.481751
    outer loop
      vertex -2.5 5.54908 -4.14268
      vertex 2.5 5.45228 -4.31875
      vertex -2.5 5.45228 -4.31875
    endloop
  endfacet
  facet normal 1.30515e-16 0.809015 -0.587788
    outer loop
      vertex 2.5 5.66718 -3.98012
      vertex 2.5 5.54908 -4.14268
      vertex -2.5 5.66718 -3.98012
    endloop
  endfacet
  facet normal 1.30515e-16 0.809015 -0.587788
    outer loop
      vertex -2.5 5.66718 -3.98012
      vertex 2.5 5.54908 -4.14268
      vertex -2.5 5.54908 -4.14268
    endloop
  endfacet
  facet normal 1.52e-16 0.72897 -0.684546
    outer loop
      vertex 2.5 5.80473 -3.83365
      vertex 2.5 5.66718 -3.98012
      vertex -2.5 5.80473 -3.83365
    endloop
  endfacet
  facet normal 1.52e-16 0.72897 -0.684546
    outer loop
      vertex -2.5 5.80473 -3.83365
      vertex 2.5 5.66718 -3.98012
      vertex -2.5 5.66718 -3.98012
    endloop
  endfacet
  facet normal 1.71089e-16 0.637423 -0.770514
    outer loop
      vertex 2.5 5.95954 -3.70557
      vertex 2.5 5.80473 -3.83365
      vertex -2.5 5.95954 -3.70557
    endloop
  endfacet
  facet normal 1.71089e-16 0.637423 -0.770514
    outer loop
      vertex -2.5 5.95954 -3.70557
      vertex 2.5 5.80473 -3.83365
      vertex -2.5 5.80473 -3.83365
    endloop
  endfacet
  facet normal 1.87478e-16 0.53583 -0.844326
    outer loop
      vertex 2.5 6.12919 -3.59791
      vertex 2.5 5.95954 -3.70557
      vertex -2.5 6.12919 -3.59791
    endloop
  endfacet
  facet normal 1.87478e-16 0.53583 -0.844326
    outer loop
      vertex -2.5 6.12919 -3.59791
      vertex 2.5 5.95954 -3.70557
      vertex -2.5 5.95954 -3.70557
    endloop
  endfacet
  facet normal 2.00912e-16 0.425776 -0.904829
    outer loop
      vertex 2.5 6.311 -3.51236
      vertex 2.5 6.12919 -3.59791
      vertex -2.5 6.311 -3.51236
    endloop
  endfacet
  facet normal 2.00912e-16 0.425776 -0.904829
    outer loop
      vertex -2.5 6.311 -3.51236
      vertex 2.5 6.12919 -3.59791
      vertex -2.5 6.12919 -3.59791
    endloop
  endfacet
  facet normal 2.11177e-16 0.309019 -0.951056
    outer loop
      vertex 2.5 6.5021 -3.45027
      vertex 2.5 6.311 -3.51236
      vertex -2.5 6.5021 -3.45027
    endloop
  endfacet
  facet normal 2.11177e-16 0.309019 -0.951056
    outer loop
      vertex -2.5 6.5021 -3.45027
      vertex 2.5 6.311 -3.51236
      vertex -2.5 6.311 -3.51236
    endloop
  endfacet
  facet normal 2.18111e-16 0.187384 -0.982287
    outer loop
      vertex 2.5 6.69947 -3.41262
      vertex 2.5 6.5021 -3.45027
      vertex -2.5 6.69947 -3.41262
    endloop
  endfacet
  facet normal 2.18111e-16 0.187384 -0.982287
    outer loop
      vertex -2.5 6.69947 -3.41262
      vertex 2.5 6.5021 -3.45027
      vertex -2.5 6.5021 -3.45027
    endloop
  endfacet
  facet normal 2.21606e-16 0.0627882 -0.998027
    outer loop
      vertex 2.5 6.9 -3.4
      vertex 2.5 6.69947 -3.41262
      vertex -2.5 6.9 -3.4
    endloop
  endfacet
  facet normal 2.21606e-16 0.0627882 -0.998027
    outer loop
      vertex -2.5 6.9 -3.4
      vertex 2.5 6.69947 -3.41262
      vertex -2.5 6.69947 -3.41262
    endloop
  endfacet
  facet normal 2.21606e-16 -0.0627882 -0.998027
    outer loop
      vertex 2.5 7.10053 -3.41262
      vertex 2.5 6.9 -3.4
      vertex -2.5 7.10053 -3.41262
    endloop
  endfacet
  facet normal 2.21606e-16 -0.0627882 -0.998027
    outer loop
      vertex -2.5 7.10053 -3.41262
      vertex 2.5 6.9 -3.4
      vertex -2.5 6.9 -3.4
    endloop
  endfacet
  facet normal 2.18111e-16 -0.187384 -0.982287
    outer loop
      vertex 2.5 7.2979 -3.45027
      vertex 2.5 7.10053 -3.41262
      vertex -2.5 7.2979 -3.45027
    endloop
  endfacet
  facet normal 2.18111e-16 -0.187384 -0.982287
    outer loop
      vertex -2.5 7.2979 -3.45027
      vertex 2.5 7.10053 -3.41262
      vertex -2.5 7.10053 -3.41262
    endloop
  endfacet
  facet normal 2.11177e-16 -0.309019 -0.951056
    outer loop
      vertex 2.5 7.489 -3.51236
      vertex 2.5 7.2979 -3.45027
      vertex -2.5 7.489 -3.51236
    endloop
  endfacet
  facet normal 2.11177e-16 -0.309019 -0.951056
    outer loop
      vertex -2.5 7.489 -3.51236
      vertex 2.5 7.2979 -3.45027
      vertex -2.5 7.2979 -3.45027
    endloop
  endfacet
  facet normal 2.00912e-16 -0.425776 -0.904829
    outer loop
      vertex 2.5 7.67081 -3.59791
      vertex 2.5 7.489 -3.51236
      vertex -2.5 7.67081 -3.59791
    endloop
  endfacet
  facet normal 2.00912e-16 -0.425776 -0.904829
    outer loop
      vertex -2.5 7.67081 -3.59791
      vertex 2.5 7.489 -3.51236
      vertex -2.5 7.489 -3.51236
    endloop
  endfacet
  facet normal 1.87478e-16 -0.53583 -0.844326
    outer loop
      vertex 2.5 7.84046 -3.70557
      vertex 2.5 7.67081 -3.59791
      vertex -2.5 7.84046 -3.70557
    endloop
  endfacet
  facet normal 1.87478e-16 -0.53583 -0.844326
    outer loop
      vertex -2.5 7.84046 -3.70557
      vertex 2.5 7.67081 -3.59791
      vertex -2.5 7.67081 -3.59791
    endloop
  endfacet
  facet normal 1.71089e-16 -0.637423 -0.770514
    outer loop
      vertex 2.5 7.99528 -3.83365
      vertex 2.5 7.84046 -3.70557
      vertex -2.5 7.99528 -3.83365
    endloop
  endfacet
  facet normal 1.71089e-16 -0.637423 -0.770514
    outer loop
      vertex -2.5 7.99528 -3.83365
      vertex 2.5 7.84046 -3.70557
      vertex -2.5 7.84046 -3.70557
    endloop
  endfacet
  facet normal 1.52e-16 -0.72897 -0.684546
    outer loop
      vertex -2.5 8.13282 -3.98012
      vertex 2.5 8.13282 -3.98012
      vertex 2.5 7.99528 -3.83365
    endloop
  endfacet
  facet normal 1.52e-16 -0.72897 -0.684546
    outer loop
      vertex -2.5 7.99528 -3.83365
      vertex -2.5 8.13282 -3.98012
      vertex 2.5 7.99528 -3.83365
    endloop
  endfacet
  facet normal 1.30515e-16 -0.809015 -0.587788
    outer loop
      vertex -2.5 8.25092 -4.14268
      vertex 2.5 8.25092 -4.14268
      vertex 2.5 8.13282 -3.98012
    endloop
  endfacet
  facet normal 1.30515e-16 -0.809015 -0.587788
    outer loop
      vertex -2.5 8.13282 -3.98012
      vertex -2.5 8.25092 -4.14268
      vertex 2.5 8.13282 -3.98012
    endloop
  endfacet
  facet normal 1.0697e-16 -0.876308 -0.481751
    outer loop
      vertex -2.5 8.34772 -4.31875
      vertex 2.5 8.34772 -4.31875
      vertex 2.5 8.25092 -4.14268
    endloop
  endfacet
  facet normal 1.0697e-16 -0.876308 -0.481751
    outer loop
      vertex -2.5 8.25092 -4.14268
      vertex -2.5 8.34772 -4.31875
      vertex 2.5 8.25092 -4.14268
    endloop
  endfacet
  facet normal 8.17398e-17 -0.929777 -0.368123
    outer loop
      vertex -2.5 8.42169 -4.50557
      vertex 2.5 8.42169 -4.50557
      vertex 2.5 8.34772 -4.31875
    endloop
  endfacet
  facet normal 8.17398e-17 -0.929777 -0.368123
    outer loop
      vertex -2.5 8.34772 -4.31875
      vertex -2.5 8.42169 -4.50557
      vertex 2.5 8.34772 -4.31875
    endloop
  endfacet
  facet normal 5.52211e-17 -0.968582 -0.248694
    outer loop
      vertex -2.5 8.47166 -4.70019
      vertex 2.5 8.47166 -4.70019
      vertex 2.5 8.42169 -4.50557
    endloop
  endfacet
  facet normal 5.52211e-17 -0.968582 -0.248694
    outer loop
      vertex -2.5 8.42169 -4.50557
      vertex -2.5 8.47166 -4.70019
      vertex 2.5 8.42169 -4.50557
    endloop
  endfacet
  facet normal 2.78294e-17 -0.992115 -0.125333
    outer loop
      vertex -2.5 8.49684 -4.89954
      vertex 2.5 8.49684 -4.89953
      vertex 2.5 8.47166 -4.70019
    endloop
  endfacet
  facet normal 2.78294e-17 -0.992115 -0.125333
    outer loop
      vertex -2.5 8.47166 -4.70019
      vertex -2.5 8.49684 -4.89954
      vertex 2.5 8.47166 -4.70019
    endloop
  endfacet
  facet normal 0 -1 0
    outer loop
      vertex 2.5 8.49684 -5.10046
      vertex 2.5 8.49684 -4.89953
      vertex -2.5 8.49684 -4.89954
    endloop
  endfacet
  facet normal 0 -1 0
    outer loop
      vertex -2.5 8.49684 -5.10046
      vertex 2.5 8.49684 -5.10046
      vertex -2.5 8.49684 -4.89954
    endloop
  endfacet
  facet normal -2.78294e-17 -0.992115 0.125333
    outer loop
      vertex 2.5 8.47166 -5.29981
      vertex 2.5 8.49684 -5.10046
      vertex -2.5 8.49684 -5.10046
    endloop
  endfacet
  facet normal -2.78294e-17 -0.992115 0.125333
    outer loop
      vertex -2.5 8.47166 -5.29981
      vertex 2.5 8.47166 -5.29981
      vertex -2.5 8.49684 -5.10046
    endloop
  endfacet
  facet normal -5.52211e-17 -0.968582 0.248694
    outer loop
      vertex 2.5 8.42169 -5.49443
      vertex 2.5 8.47166 -5.29981
      vertex -2.5 8.47166 -5.29981
    endloop
  endfacet
  facet normal -5.52211e-17 -0.968582 0.248694
    outer loop
      vertex -2.5 8.42169 -5.49443
      vertex 2.5 8.42169 -5.49443
      vertex -2.5 8.47166 -5.29981
    endloop
  endfacet
  facet normal -8.17398e-17 -0.929777 0.368123
    outer loop
      vertex 2.5 8.34772 -5.68125
      vertex 2.5 8.42169 -5.49443
      vertex -2.5 8.42169 -5.49443
    endloop
  endfacet
  facet normal -8.17398e-17 -0.929777 0.368123
    outer loop
      vertex -2.5 8.34772 -5.68125
      vertex 2.5 8.34772 -5.68125
      vertex -2.5 8.42169 -5.49443
    endloop
  endfacet
  facet normal -1.0697e-16 -0.876308 0.481751
    outer loop
      vertex 2.5 8.25092 -5.85732
      vertex 2.5 8.34772 -5.68125
      vertex -2.5 8.34772 -5.68125
    endloop
  endfacet
  facet normal -1.0697e-16 -0.876308 0.481751
    outer loop
      vertex -2.5 8.25092 -5.85732
      vertex 2.5 8.25092 -5.85732
      vertex -2.5 8.34772 -5.68125
    endloop
  endfacet
  facet normal -1.30515e-16 -0.809015 0.587788
    outer loop
      vertex 2.5 8.13282 -6.01988
      vertex 2.5 8.25092 -5.85732
      vertex -2.5 8.25092 -5.85732
    endloop
  endfacet
  facet normal -1.30515e-16 -0.809015 0.587788
    outer loop
      vertex -2.5 8.13282 -6.01988
      vertex 2.5 8.13282 -6.01988
      vertex -2.5 8.25092 -5.85732
    endloop
  endfacet
  facet normal -1.52e-16 -0.72897 0.684546
    outer loop
      vertex 2.5 7.99528 -6.16635
      vertex 2.5 8.13282 -6.01988
      vertex -2.5 8.13282 -6.01988
    endloop
  endfacet
  facet normal -1.52e-16 -0.72897 0.684546
    outer loop
      vertex -2.5 7.99528 -6.16635
      vertex 2.5 7.99528 -6.16635
      vertex -2.5 8.13282 -6.01988
    endloop
  endfacet
  facet normal -1.71089e-16 -0.637423 0.770514
    outer loop
      vertex 2.5 7.84046 -6.29443
      vertex 2.5 7.99528 -6.16635
      vertex -2.5 7.99528 -6.16635
    endloop
  endfacet
  facet normal -1.71089e-16 -0.637423 0.770514
    outer loop
      vertex -2.5 7.84046 -6.29443
      vertex 2.5 7.84046 -6.29443
      vertex -2.5 7.99528 -6.16635
    endloop
  endfacet
  facet normal -1.87478e-16 -0.53583 0.844326
    outer loop
      vertex 2.5 7.67081 -6.40209
      vertex 2.5 7.84046 -6.29443
      vertex -2.5 7.84046 -6.29443
    endloop
  endfacet
  facet normal -1.87478e-16 -0.53583 0.844326
    outer loop
      vertex -2.5 7.67081 -6.40209
      vertex 2.5 7.67081 -6.40209
      vertex -2.5 7.84046 -6.29443
    endloop
  endfacet
  facet normal -2.00912e-16 -0.425776 0.904829
    outer loop
      vertex 2.5 7.489 -6.48764
      vertex 2.5 7.67081 -6.40209
      vertex -2.5 7.67081 -6.40209
    endloop
  endfacet
  facet normal -2.00912e-16 -0.425776 0.904829
    outer loop
      vertex -2.5 7.489 -6.48764
      vertex 2.5 7.489 -6.48764
      vertex -2.5 7.67081 -6.40209
    endloop
  endfacet
  facet normal -2.11177e-16 -0.309019 0.951056
    outer loop
      vertex 2.5 7.2979 -6.54973
      vertex 2.5 7.489 -6.48764
      vertex -2.5 7.489 -6.48764
    endloop
  endfacet
  facet normal -2.11177e-16 -0.309019 0.951056
    outer loop
      vertex -2.5 7.2979 -6.54973
      vertex 2.5 7.2979 -6.54973
      vertex -2.5 7.489 -6.48764
    endloop
  endfacet
  facet normal -2.18111e-16 -0.187384 0.982287
    outer loop
      vertex 2.5 7.10053 -6.58738
      vertex 2.5 7.2979 -6.54973
      vertex -2.5 7.2979 -6.54973
    endloop
  endfacet
  facet normal -2.18111e-16 -0.187384 0.982287
    outer loop
      vertex -2.5 7.10053 -6.58738
      vertex 2.5 7.10053 -6.58738
      vertex -2.5 7.2979 -6.54973
    endloop
  endfacet
  facet normal -2.21606e-16 -0.0627882 0.998027
    outer loop
      vertex 2.5 6.9 -6.6
      vertex 2.5 7.10053 -6.58738
      vertex -2.5 7.10053 -6.58738
    endloop
  endfacet
  facet normal -2.21606e-16 -0.0627882 0.998027
    outer loop
      vertex -2.5 6.9 -6.6
      vertex 2.5 6.9 -6.6
      vertex -2.5 7.10053 -6.58738
    endloop
  endfacet
  facet normal -2.21606e-16 0.0627882 0.998027
    outer loop
      vertex 2.5 6.69947 -6.58738
      vertex 2.5 6.9 -6.6
      vertex -2.5 6.9 -6.6
    endloop
  endfacet
  facet normal -2.21606e-16 0.0627882 0.998027
    outer loop
      vertex -2.5 6.69947 -6.58738
      vertex 2.5 6.69947 -6.58738
      vertex -2.5 6.9 -6.6
    endloop
  endfacet
  facet normal -2.18111e-16 0.187384 0.982287
    outer loop
      vertex 2.5 6.5021 -6.54973
      vertex 2.5 6.69947 -6.58738
      vertex -2.5 6.69947 -6.58738
    endloop
  endfacet
  facet normal -2.18111e-16 0.187384 0.982287
    outer loop
      vertex -2.5 6.5021 -6.54973
      vertex 2.5 6.5021 -6.54973
      vertex -2.5 6.69947 -6.58738
    endloop
  endfacet
  facet normal -2.11177e-16 0.309019 0.951056
    outer loop
      vertex 2.5 6.311 -6.48764
      vertex 2.5 6.5021 -6.54973
      vertex -2.5 6.5021 -6.54973
    endloop
  endfacet
  facet normal -2.11177e-16 0.309019 0.951056
    outer loop
      vertex -2.5 6.311 -6.48764
      vertex 2.5 6.311 -6.48764
      vertex -2.5 6.5021 -6.54973
    endloop
  endfacet
  facet normal -2.00912e-16 0.425776 0.904829
    outer loop
      vertex 2.5 6.12919 -6.40209
      vertex 2.5 6.311 -6.48764
      vertex -2.5 6.311 -6.48764
    endloop
  endfacet
  facet normal -2.00912e-16 0.425776 0.904829
    outer loop
      vertex -2.5 6.12919 -6.40209
      vertex 2.5 6.12919 -6.40209
      vertex -2.5 6.311 -6.48764
    endloop
  endfacet
  facet normal -1.87478e-16 0.53583 0.844326
    outer loop
      vertex 2.5 5.95954 -6.29443
      vertex 2.5 6.12919 -6.40209
      vertex -2.5 6.12919 -6.40209
    endloop
  endfacet
  facet normal -1.87478e-16 0.53583 0.844326
    outer loop
      vertex -2.5 5.95954 -6.29443
      vertex 2.5 5.95954 -6.29443
      vertex -2.5 6.12919 -6.40209
    endloop
  endfacet
  facet normal -1.71089e-16 0.637423 0.770514
    outer loop
      vertex 2.5 5.80473 -6.16635
      vertex 2.5 5.95954 -6.29443
      vertex -2.5 5.95954 -6.29443
    endloop
  endfacet
  facet normal -1.71089e-16 0.637423 0.770514
    outer loop
      vertex -2.5 5.80473 -6.16635
      vertex 2.5 5.80473 -6.16635
      vertex -2.5 5.95954 -6.29443
    endloop
  endfacet
  facet normal -1.52e-16 0.72897 0.684546
    outer loop
      vertex 2.5 5.80473 -6.16635
      vertex -2.5 5.80473 -6.16635
      vertex 2.5 5.66718 -6.01988
    endloop
  endfacet
  facet normal -1.52e-16 0.72897 0.684546
    outer loop
      vertex 2.5 5.66718 -6.01988
      vertex -2.5 5.80473 -6.16635
      vertex -2.5 5.66718 -6.01988
    endloop
  endfacet
  facet normal -1.30515e-16 0.809015 0.587788
    outer loop
      vertex 2.5 5.66718 -6.01988
      vertex -2.5 5.66718 -6.01988
      vertex 2.5 5.54908 -5.85732
    endloop
  endfacet
  facet normal -1.30515e-16 0.809015 0.587788
    outer loop
      vertex 2.5 5.54908 -5.85732
      vertex -2.5 5.66718 -6.01988
      vertex -2.5 5.54908 -5.85732
    endloop
  endfacet
  facet normal -1.0697e-16 0.876308 0.481751
    outer loop
      vertex 2.5 5.54908 -5.85732
      vertex -2.5 5.54908 -5.85732
      vertex 2.5 5.45228 -5.68125
    endloop
  endfacet
  facet normal -1.0697e-16 0.876308 0.481751
    outer loop
      vertex 2.5 5.45228 -5.68125
      vertex -2.5 5.54908 -5.85732
      vertex -2.5 5.45228 -5.68125
    endloop
  endfacet
  facet normal -8.17398e-17 0.929777 0.368123
    outer loop
      vertex 2.5 5.45228 -5.68125
      vertex -2.5 5.45228 -5.68125
      vertex 2.5 5.37831 -5.49443
    endloop
  endfacet
  facet normal -8.17398e-17 0.929777 0.368123
    outer loop
      vertex 2.5 5.37831 -5.49443
      vertex -2.5 5.45228 -5.68125
      vertex -2.5 5.37831 -5.49443
    endloop
  endfacet
  facet normal -5.52211e-17 0.968582 0.248694
    outer loop
      vertex 2.5 5.37831 -5.49443
      vertex -2.5 5.37831 -5.49443
      vertex 2.5 5.32834 -5.29981
    endloop
  endfacet
  facet normal -5.52211e-17 0.968582 0.248694
    outer loop
      vertex 2.5 5.32834 -5.29981
      vertex -2.5 5.37831 -5.49443
      vertex -2.5 5.32834 -5.29981
    endloop
  endfacet
  facet normal -2.78294e-17 0.992115 0.125333
    outer loop
      vertex 2.5 5.32834 -5.29981
      vertex -2.5 5.32834 -5.29981
      vertex 2.5 5.30316 -5.10046
    endloop
  endfacet
  facet normal -2.78294e-17 0.992115 0.125333
    outer loop
      vertex 2.5 5.30316 -5.10046
      vertex -2.5 5.32834 -5.29981
      vertex -2.5 5.30316 -5.10046
    endloop
  endfacet
  facet normal -1 0 0
    outer loop
      vertex -0.6 -8.589 1.61236
      vertex -0.6 -6 0.5
      vertex -0.6 -12.5 0.5
    endloop
  endfacet
  facet normal -1 0 0
    outer loop
      vertex -0.6 -6 -6
      vertex -0.6 -6 0.5
      vertex -0.6 -5 9
    endloop
  endfacet
  facet normal -1 0 0
    outer loop
      vertex -0.6 -5.01041 1.01041
      vertex -0.6 -5 9
      vertex -0.6 -5 1.02082
    endloop
  endfacet
  facet normal -1 0 0
    outer loop
      vertex -0.6 -6 -6
      vertex -0.6 -5 9
      vertex -0.6 -5.01041 1.01041
    endloop
  endfacet
  facet normal -1 0 0
    outer loop
      vertex -0.6 -8.3979 1.55027
      vertex -0.6 -6 0.5
      vertex -0.6 -8.589 1.61236
    endloop
  endfacet
  facet normal -1 0 0
    outer loop
      vertex -0.6 -6 -6
      vertex -0.6 -5 1
      vertex -0.6 -5 -9
    endloop
  endfacet
  facet normal -1 0 0
    outer loop
      vertex -0.6 -6 -6
      vertex -0.6 -5 -9
      vertex -0.6 -12.5 -6
    endloop
  endfacet
  facet normal -1 0 0
    outer loop
      vertex -0.6 -5 -9
      vertex -0.6 -12.5 -9
      vertex -0.6 -12.5 -6
    endloop
  endfacet
  facet normal -1 0 0
    outer loop
      vertex -0.6 -6.90473 1.93365
      vertex -0.6 -6 0.5
      vertex -0.6 -7.05954 1.80557
    endloop
  endfacet
  facet normal -1 0 0
    outer loop
      vertex -0.6 -12.5 9
      vertex -0.6 -9.59684 2.99954
      vertex -0.6 -12.5 0.5
    endloop
  endfacet
  facet normal -1 0 0
    outer loop
      vertex -0.6 -7.411 1.61236
      vertex -0.6 -6 0.5
      vertex -0.6 -7.6021 1.55027
    endloop
  endfacet
  facet normal -1 0 0
    outer loop
      vertex -0.6 -9.59684 2.99954
      vertex -0.6 -9.57166 2.80019
      vertex -0.6 -12.5 0.5
    endloop
  endfacet
  facet normal -1 0 0
    outer loop
      vertex -0.6 -9.57166 2.80019
      vertex -0.6 -9.52169 2.60557
      vertex -0.6 -12.5 0.5
    endloop
  endfacet
  facet normal -1 0 0
    outer loop
      vertex -0.6 -7.6021 1.55027
      vertex -0.6 -6 0.5
      vertex -0.6 -7.79947 1.51262
    endloop
  endfacet
  facet normal -1 0 0
    outer loop
      vertex -0.6 -9.52169 2.60557
      vertex -0.6 -9.44772 2.41875
      vertex -0.6 -12.5 0.5
    endloop
  endfacet
  facet normal -1 0 0
    outer loop
      vertex -0.6 -9.44772 2.41875
      vertex -0.6 -9.35092 2.24268
      vertex -0.6 -12.5 0.5
    endloop
  endfacet
  facet normal -1 0 0
    outer loop
      vertex -0.6 -7.79947 1.51262
      vertex -0.6 -6 0.5
      vertex -0.6 -8 1.5
    endloop
  endfacet
  facet normal -1 0 0
    outer loop
      vertex -0.6 -9.35092 2.24268
      vertex -0.6 -9.23282 2.08012
      vertex -0.6 -12.5 0.5
    endloop
  endfacet
  facet normal -1 0 0
    outer loop
      vertex -0.6 -9.23282 2.08012
      vertex -0.6 -9.09527 1.93365
      vertex -0.6 -12.5 0.5
    endloop
  endfacet
  facet normal -1 0 0
    outer loop
      vertex -0.6 -8 1.5
      vertex -0.6 -6 0.5
      vertex -0.6 -8.20053 1.51262
    endloop
  endfacet
  facet normal -1 0 0
    outer loop
      vertex -0.6 -9.09527 1.93365
      vertex -0.6 -8.94046 1.80557
      vertex -0.6 -12.5 0.5
    endloop
  endfacet
  facet normal -1 0 0
    outer loop
      vertex -0.6 -8.20053 1.51262
      vertex -0.6 -6 0.5
      vertex -0.6 -8.3979 1.55027
    endloop
  endfacet
  facet normal -1 0 0
    outer loop
      vertex -0.6 -8.94046 1.80557
      vertex -0.6 -8.77081 1.69791
      vertex -0.6 -12.5 0.5
    endloop
  endfacet
  facet normal -1 0 0
    outer loop
      vertex -0.6 -8.77081 1.69791
      vertex -0.6 -8.589 1.61236
      vertex -0.6 -12.5 0.5
    endloop
  endfacet
  facet normal -1 0 0
    outer loop
      vertex -0.6 -7.22919 1.69791
      vertex -0.6 -6 0.5
      vertex -0.6 -7.411 1.61236
    endloop
  endfacet
  facet normal -1 0 0
    outer loop
      vertex -0.6 -7.05954 1.80557
      vertex -0.6 -6 0.5
      vertex -0.6 -7.22919 1.69791
    endloop
  endfacet
  facet normal -1 0 0
    outer loop
      vertex -0.6 -6.76718 2.08012
      vertex -0.6 -6 0.5
      vertex -0.6 -6.90473 1.93365
    endloop
  endfacet
  facet normal -1 0 0
    outer loop
      vertex -0.6 -6.64907 2.24268
      vertex -0.6 -6 0.5
      vertex -0.6 -6.76718 2.08012
    endloop
  endfacet
  facet normal -1 0 0
    outer loop
      vertex -0.6 -6.55228 2.41875
      vertex -0.6 -6 0.5
      vertex -0.6 -6.64907 2.24268
    endloop
  endfacet
  facet normal -1 0 0
    outer loop
      vertex -0.6 -6.47831 2.60557
      vertex -0.6 -6 0.5
      vertex -0.6 -6.55228 2.41875
    endloop
  endfacet
  facet normal -1 0 0
    outer loop
      vertex -0.6 -6.42834 2.80019
      vertex -0.6 -6 0.5
      vertex -0.6 -6.47831 2.60557
    endloop
  endfacet
  facet normal -1 0 0
    outer loop
      vertex -0.6 -5 9
      vertex -0.6 -6 0.5
      vertex -0.6 -6.42834 2.80019
    endloop
  endfacet
  facet normal -1 0 0
    outer loop
      vertex -0.6 -6.40316 3.20047
      vertex -0.6 -5 9
      vertex -0.6 -6.40316 2.99954
    endloop
  endfacet
  facet normal -1 0 0
    outer loop
      vertex -0.6 -6.42834 3.39981
      vertex -0.6 -5 9
      vertex -0.6 -6.40316 3.20047
    endloop
  endfacet
  facet normal -1 0 0
    outer loop
      vertex -0.6 -6.47831 3.59443
      vertex -0.6 -5 9
      vertex -0.6 -6.42834 3.39981
    endloop
  endfacet
  facet normal -1 0 0
    outer loop
      vertex -0.6 -7.22919 4.50209
      vertex -0.6 -12.5 9
      vertex -0.6 -7.05954 4.39443
    endloop
  endfacet
  facet normal -1 0 0
    outer loop
      vertex -0.6 -5 9
      vertex -0.6 -6.47831 3.59443
      vertex -0.6 -6.55228 3.78125
    endloop
  endfacet
  facet normal -1 0 0
    outer loop
      vertex -0.6 -5 9
      vertex -0.6 -6.55228 3.78125
      vertex -0.6 -6.64907 3.95732
    endloop
  endfacet
  facet normal -1 0 0
    outer loop
      vertex -0.6 -5 9
      vertex -0.6 -6.64907 3.95732
      vertex -0.6 -6.76718 4.11988
    endloop
  endfacet
  facet normal -1 0 0
    outer loop
      vertex -0.6 -5 9
      vertex -0.6 -6.76718 4.11988
      vertex -0.6 -6.90473 4.26635
    endloop
  endfacet
  facet normal -1 0 0
    outer loop
      vertex -0.6 -5 9
      vertex -0.6 -6.90473 4.26635
      vertex -0.6 -12.5 9
    endloop
  endfacet
  facet normal -1 0 0
    outer loop
      vertex -0.6 -6.90473 4.26635
      vertex -0.6 -7.05954 4.39443
      vertex -0.6 -12.5 9
    endloop
  endfacet
  facet normal -1 0 0
    outer loop
      vertex -0.6 -7.411 4.58764
      vertex -0.6 -12.5 9
      vertex -0.6 -7.22919 4.50209
    endloop
  endfacet
  facet normal -1 0 0
    outer loop
      vertex -0.6 -7.6021 4.64973
      vertex -0.6 -12.5 9
      vertex -0.6 -7.411 4.58764
    endloop
  endfacet
  facet normal -1 0 0
    outer loop
      vertex -0.6 -7.79947 4.68738
      vertex -0.6 -12.5 9
      vertex -0.6 -7.6021 4.64973
    endloop
  endfacet
  facet normal -1 0 0
    outer loop
      vertex -0.6 -8.94046 4.39443
      vertex -0.6 -12.5 9
      vertex -0.6 -8.77081 4.50209
    endloop
  endfacet
  facet normal -1 0 0
    outer loop
      vertex -0.6 -7.79947 4.68738
      vertex -0.6 -8 4.7
      vertex -0.6 -12.5 9
    endloop
  endfacet
  facet normal -1 0 0
    outer loop
      vertex -0.6 -8 4.7
      vertex -0.6 -8.20053 4.68738
      vertex -0.6 -12.5 9
    endloop
  endfacet
  facet normal -1 0 0
    outer loop
      vertex -0.6 -8.20053 4.68738
      vertex -0.6 -8.3979 4.64973
      vertex -0.6 -12.5 9
    endloop
  endfacet
  facet normal -1 0 0
    outer loop
      vertex -0.6 -8.3979 4.64973
      vertex -0.6 -8.589 4.58764
      vertex -0.6 -12.5 9
    endloop
  endfacet
  facet normal -1 0 0
    outer loop
      vertex -0.6 -8.589 4.58764
      vertex -0.6 -8.77081 4.50209
      vertex -0.6 -12.5 9
    endloop
  endfacet
  facet normal -1 0 0
    outer loop
      vertex -0.6 -6.40316 2.99954
      vertex -0.6 -5 9
      vertex -0.6 -6.42834 2.80019
    endloop
  endfacet
  facet normal -1 0 0
    outer loop
      vertex -0.6 -9.09527 4.26635
      vertex -0.6 -12.5 9
      vertex -0.6 -8.94046 4.39443
    endloop
  endfacet
  facet normal -1 0 0
    outer loop
      vertex -0.6 -9.23282 4.11988
      vertex -0.6 -12.5 9
      vertex -0.6 -9.09527 4.26635
    endloop
  endfacet
  facet normal -1 0 0
    outer loop
      vertex -0.6 -12.5 9
      vertex -0.6 -9.23282 4.11988
      vertex -0.6 -9.35092 3.95732
    endloop
  endfacet
  facet normal -1 0 0
    outer loop
      vertex -0.6 -12.5 9
      vertex -0.6 -9.35092 3.95732
      vertex -0.6 -9.44772 3.78125
    endloop
  endfacet
  facet normal -1 0 0
    outer loop
      vertex -0.6 -12.5 9
      vertex -0.6 -9.44772 3.78125
      vertex -0.6 -9.52169 3.59443
    endloop
  endfacet
  facet normal -1 0 0
    outer loop
      vertex -0.6 -12.5 9
      vertex -0.6 -9.52169 3.59443
      vertex -0.6 -9.57166 3.39981
    endloop
  endfacet
  facet normal -1 0 0
    outer loop
      vertex -0.6 -12.5 9
      vertex -0.6 -9.57166 3.39981
      vertex -0.6 -9.59684 3.20047
    endloop
  endfacet
  facet normal -1 0 0
    outer loop
      vertex -0.6 -12.5 9
      vertex -0.6 -9.59684 3.20047
      vertex -0.6 -9.59684 2.99954
    endloop
  endfacet
  facet normal -1 0 0
    outer loop
      vertex -0.6 -5 1
      vertex -0.6 -6 -6
      vertex -0.6 -5.01041 1.01041
    endloop
  endfacet
  facet normal 0 -1 0
    outer loop
      vertex -0.6 -12.5 -6
      vertex -0.6 -12.5 -9
      vertex 2.5 -12.5 -9
    endloop
  endfacet
  facet normal 0 -1 0
    outer loop
      vertex 2.5 -12.5 -6
      vertex -0.6 -12.5 -6
      vertex 2.5 -12.5 -9
    endloop
  endfacet
  facet normal 1 0 0
    outer loop
      vertex 2.5 -12.5 -6
      vertex 2.5 -12.5 -9
      vertex 2.5 10.5 -9
    endloop
  endfacet
  facet normal 1 0 0
    outer loop
      vertex 2.5 -8.20053 4.68738
      vertex 2.5 -8 4.7
      vertex 2.5 10.5 9
    endloop
  endfacet
  facet normal 1 0 0
    outer loop
      vertex 2.5 -6 -6
      vertex 2.5 -12.5 -6
      vertex 2.5 10.5 -9
    endloop
  endfacet
  facet normal 1 0 0
    outer loop
      vertex 2.5 -8.3979 1.55027
      vertex 2.5 -8.589 1.61236
      vertex 2.5 -12.5 0.5
    endloop
  endfacet
  facet normal 1 0 0
    outer loop
      vertex 2.5 6.311 -3.51236
      vertex 2.5 6.5021 -3.45027
      vertex 2.5 4.74767 -1.25233
    endloop
  endfacet
  facet normal 1 0 0
    outer loop
      vertex 2.5 1 -5
      vertex 2.5 -6 -6
      vertex 2.5 10.5 -9
    endloop
  endfacet
  facet normal 1 0 0
    outer loop
      vertex 2.5 -12.5 9
      vertex 2.5 -12.5 0.5
      vertex 2.5 -9.59684 2.99954
    endloop
  endfacet
  facet normal 1 0 0
    outer loop
      vertex 2.5 -6.64907 3.95732
      vertex 2.5 -6.55228 3.78125
      vertex 2.5 10.5 9
    endloop
  endfacet
  facet normal 1 0 0
    outer loop
      vertex 2.5 -12.5 9
      vertex 2.5 -9.59684 2.99954
      vertex 2.5 -9.59684 3.20047
    endloop
  endfacet
  facet normal 1 0 0
    outer loop
      vertex 2.5 -6.76718 4.11988
      vertex 2.5 -6.64907 3.95732
      vertex 2.5 10.5 9
    endloop
  endfacet
  facet normal 1 0 0
    outer loop
      vertex 2.5 -12.5 9
      vertex 2.5 -9.59684 3.20047
      vertex 2.5 -9.57166 3.39981
    endloop
  endfacet
  facet normal 1 0 0
    outer loop
      vertex 2.5 -6.90473 4.26635
      vertex 2.5 -6.76718 4.11988
      vertex 2.5 10.5 9
    endloop
  endfacet
  facet normal 1 0 0
    outer loop
      vertex 2.5 -12.5 9
      vertex 2.5 -9.57166 3.39981
      vertex 2.5 -9.52169 3.59443
    endloop
  endfacet
  facet normal 1 0 0
    outer loop
      vertex 2.5 -7.05954 4.39443
      vertex 2.5 -6.90473 4.26635
      vertex 2.5 10.5 9
    endloop
  endfacet
  facet normal 1 0 0
    outer loop
      vertex 2.5 -12.5 9
      vertex 2.5 -9.52169 3.59443
      vertex 2.5 -9.44772 3.78125
    endloop
  endfacet
  facet normal 1 0 0
    outer loop
      vertex 2.5 -1.26274 4.75807
      vertex 2.5 4.74767 -1.25233
      vertex 2.5 10.5 9
    endloop
  endfacet
  facet normal 1 0 0
    outer loop
      vertex 2.5 -12.5 9
      vertex 2.5 -9.44772 3.78125
      vertex 2.5 -9.35092 3.95732
    endloop
  endfacet
  facet normal 1 0 0
    outer loop
      vertex 2.5 -12.5 9
      vertex 2.5 -9.35092 3.95732
      vertex 2.5 -9.23282 4.11988
    endloop
  endfacet
  facet normal 1 0 0
    outer loop
      vertex 2.5 -7.411 4.58764
      vertex 2.5 -7.22919 4.50209
      vertex 2.5 10.5 9
    endloop
  endfacet
  facet normal 1 0 0
    outer loop
      vertex 2.5 -12.5 9
      vertex 2.5 -9.23282 4.11988
      vertex 2.5 -9.09527 4.26635
    endloop
  endfacet
  facet normal 1 0 0
    outer loop
      vertex 2.5 -7.6021 4.64973
      vertex 2.5 -7.411 4.58764
      vertex 2.5 10.5 9
    endloop
  endfacet
  facet normal 1 0 0
    outer loop
      vertex 2.5 -12.5 9
      vertex 2.5 -9.09527 4.26635
      vertex 2.5 -8.94046 4.39443
    endloop
  endfacet
  facet normal 1 0 0
    outer loop
      vertex 2.5 -7.79947 4.68738
      vertex 2.5 -7.6021 4.64973
      vertex 2.5 10.5 9
    endloop
  endfacet
  facet normal 1 0 0
    outer loop
      vertex 2.5 -12.5 9
      vertex 2.5 -8.94046 4.39443
      vertex 2.5 -8.77081 4.50209
    endloop
  endfacet
  facet normal 1 0 0
    outer loop
      vertex 2.5 -8 4.7
      vertex 2.5 -7.79947 4.68738
      vertex 2.5 10.5 9
    endloop
  endfacet
  facet normal 1 0 0
    outer loop
      vertex 2.5 -12.5 9
      vertex 2.5 -8.77081 4.50209
      vertex 2.5 -8.589 4.58764
    endloop
  endfacet
  facet normal 1 0 0
    outer loop
      vertex 2.5 -12.5 9
      vertex 2.5 -8.3979 4.64973
      vertex 2.5 10.5 9
    endloop
  endfacet
  facet normal 1 0 0
    outer loop
      vertex 2.5 -12.5 9
      vertex 2.5 -8.589 4.58764
      vertex 2.5 -8.3979 4.64973
    endloop
  endfacet
  facet normal 1 0 0
    outer loop
      vertex 2.5 -8.3979 4.64973
      vertex 2.5 -8.20053 4.68738
      vertex 2.5 10.5 9
    endloop
  endfacet
  facet normal 1 0 0
    outer loop
      vertex 2.5 -9.09527 1.93365
      vertex 2.5 -9.23282 2.08012
      vertex 2.5 -12.5 0.5
    endloop
  endfacet
  facet normal 1 0 0
    outer loop
      vertex 2.5 -6.55228 3.78125
      vertex 2.5 -6.47831 3.59443
      vertex 2.5 10.5 9
    endloop
  endfacet
  facet normal 1 0 0
    outer loop
      vertex 2.5 -6.47831 3.59443
      vertex 2.5 -6.42834 3.39981
      vertex 2.5 10.5 9
    endloop
  endfacet
  facet normal 1 0 0
    outer loop
      vertex 2.5 -6.42834 3.39981
      vertex 2.5 -6.40316 3.20047
      vertex 2.5 10.5 9
    endloop
  endfacet
  facet normal 1 0 0
    outer loop
      vertex 2.5 -6.40316 3.20047
      vertex 2.5 -6.40316 2.99954
      vertex 2.5 10.5 9
    endloop
  endfacet
  facet normal 1 0 0
    outer loop
      vertex 2.5 -6.55228 2.41875
      vertex 2.5 -6 0.5
      vertex 2.5 -6.47831 2.60557
    endloop
  endfacet
  facet normal 1 0 0
    outer loop
      vertex 2.5 -6.64907 2.24268
      vertex 2.5 -6 0.5
      vertex 2.5 -6.55228 2.41875
    endloop
  endfacet
  facet normal 1 0 0
    outer loop
      vertex 2.5 -6.76718 2.08012
      vertex 2.5 -6 0.5
      vertex 2.5 -6.64907 2.24268
    endloop
  endfacet
  facet normal 1 0 0
    outer loop
      vertex 2.5 -6.90473 1.93365
      vertex 2.5 -6 0.5
      vertex 2.5 -6.76718 2.08012
    endloop
  endfacet
  facet normal 1 0 0
    outer loop
      vertex 2.5 -8.589 1.61236
      vertex 2.5 -8.77081 1.69791
      vertex 2.5 -12.5 0.5
    endloop
  endfacet
  facet normal 1 0 0
    outer loop
      vertex 2.5 -7.05954 1.80557
      vertex 2.5 -6 0.5
      vertex 2.5 -6.90473 1.93365
    endloop
  endfacet
  facet normal 1 0 0
    outer loop
      vertex 2.5 -7.22919 1.69791
      vertex 2.5 -6 0.5
      vertex 2.5 -7.05954 1.80557
    endloop
  endfacet
  facet normal 1 0 0
    outer loop
      vertex 2.5 -7.411 1.61236
      vertex 2.5 -6 0.5
      vertex 2.5 -7.22919 1.69791
    endloop
  endfacet
  facet normal 1 0 0
    outer loop
      vertex 2.5 -7.6021 1.55027
      vertex 2.5 -6 0.5
      vertex 2.5 -7.411 1.61236
    endloop
  endfacet
  facet normal 1 0 0
    outer loop
      vertex 2.5 -12.5 0.5
      vertex 2.5 -6 0.5
      vertex 2.5 -7.6021 1.55027
    endloop
  endfacet
  facet normal 1 0 0
    outer loop
      vertex 2.5 -8 1.5
      vertex 2.5 -8.20053 1.51262
      vertex 2.5 -12.5 0.5
    endloop
  endfacet
  facet normal 1 0 0
    outer loop
      vertex 2.5 -12.5 0.5
      vertex 2.5 -7.6021 1.55027
      vertex 2.5 -7.79947 1.51262
    endloop
  endfacet
  facet normal 1 0 0
    outer loop
      vertex 2.5 -8.20053 1.51262
      vertex 2.5 -8.3979 1.55027
      vertex 2.5 -12.5 0.5
    endloop
  endfacet
  facet normal 1 0 0
    outer loop
      vertex 2.5 -8.77081 1.69791
      vertex 2.5 -8.94046 1.80557
      vertex 2.5 -12.5 0.5
    endloop
  endfacet
  facet normal 1 0 0
    outer loop
      vertex 2.5 -8.94046 1.80557
      vertex 2.5 -9.09527 1.93365
      vertex 2.5 -12.5 0.5
    endloop
  endfacet
  facet normal 1 0 0
    outer loop
      vertex 2.5 -7.79947 1.51262
      vertex 2.5 -8 1.5
      vertex 2.5 -12.5 0.5
    endloop
  endfacet
  facet normal 1 0 0
    outer loop
      vertex 2.5 -9.23282 2.08012
      vertex 2.5 -9.35092 2.24268
      vertex 2.5 -12.5 0.5
    endloop
  endfacet
  facet normal 1 0 0
    outer loop
      vertex 2.5 1 -5
      vertex 2.5 -6 0.5
      vertex 2.5 -6 -6
    endloop
  endfacet
  facet normal 1 0 0
    outer loop
      vertex 2.5 -9.44772 2.41875
      vertex 2.5 -12.5 0.5
      vertex 2.5 -9.35092 2.24268
    endloop
  endfacet
  facet normal 1 0 0
    outer loop
      vertex 2.5 -9.52169 2.60557
      vertex 2.5 -12.5 0.5
      vertex 2.5 -9.44772 2.41875
    endloop
  endfacet
  facet normal 1 0 0
    outer loop
      vertex 2.5 -9.57166 2.80019
      vertex 2.5 -12.5 0.5
      vertex 2.5 -9.52169 2.60557
    endloop
  endfacet
  facet normal 1 0 0
    outer loop
      vertex 2.5 -9.59684 2.99954
      vertex 2.5 -12.5 0.5
      vertex 2.5 -9.57166 2.80019
    endloop
  endfacet
  facet normal 1 0 0
    outer loop
      vertex 2.5 8.42169 -4.50557
      vertex 2.5 8.47166 -4.70019
      vertex 2.5 10.5 -9
    endloop
  endfacet
  facet normal 1 0 0
    outer loop
      vertex 2.5 -6.47831 2.60557
      vertex 2.5 -6 0.5
      vertex 2.5 -5.01041 1.01041
    endloop
  endfacet
  facet normal 1 0 0
    outer loop
      vertex 2.5 -6.40316 2.99954
      vertex 2.5 -1.26274 4.75807
      vertex 2.5 10.5 9
    endloop
  endfacet
  facet normal 1 0 0
    outer loop
      vertex 2.5 -6.40316 2.99954
      vertex 2.5 -6.42834 2.80019
      vertex 2.5 -1.26274 4.75807
    endloop
  endfacet
  facet normal 1 0 0
    outer loop
      vertex 2.5 -5.01041 1.01041
      vertex 2.5 -1.26274 4.75807
      vertex 2.5 -6.42834 2.80019
    endloop
  endfacet
  facet normal 1 0 0
    outer loop
      vertex 2.5 6.5021 -6.54973
      vertex 2.5 1 -5
      vertex 2.5 10.5 -9
    endloop
  endfacet
  facet normal 1 0 0
    outer loop
      vertex 2.5 6.311 -6.48764
      vertex 2.5 6.12919 -6.40209
      vertex 2.5 1 -5
    endloop
  endfacet
  facet normal 1 0 0
    outer loop
      vertex 2.5 4.74767 -1.25233
      vertex 2.5 1 -5
      vertex 2.5 5.30316 -5.10046
    endloop
  endfacet
  facet normal 1 0 0
    outer loop
      vertex 2.5 7.2979 -6.54973
      vertex 2.5 7.10053 -6.58738
      vertex 2.5 10.5 -9
    endloop
  endfacet
  facet normal 1 0 0
    outer loop
      vertex 2.5 4.74767 -1.25233
      vertex 2.5 5.30316 -5.10046
      vertex 2.5 5.30316 -4.89953
    endloop
  endfacet
  facet normal 1 0 0
    outer loop
      vertex 2.5 4.74767 -1.25233
      vertex 2.5 5.30316 -4.89953
      vertex 2.5 5.32834 -4.70019
    endloop
  endfacet
  facet normal 1 0 0
    outer loop
      vertex 2.5 4.74767 -1.25233
      vertex 2.5 5.32834 -4.70019
      vertex 2.5 5.37831 -4.50557
    endloop
  endfacet
  facet normal 1 0 0
    outer loop
      vertex 2.5 7.67081 -6.40209
      vertex 2.5 7.489 -6.48764
      vertex 2.5 10.5 -9
    endloop
  endfacet
  facet normal 1 0 0
    outer loop
      vertex 2.5 4.74767 -1.25233
      vertex 2.5 5.37831 -4.50557
      vertex 2.5 5.45228 -4.31875
    endloop
  endfacet
  facet normal 1 0 0
    outer loop
      vertex 2.5 7.489 -6.48764
      vertex 2.5 7.2979 -6.54973
      vertex 2.5 10.5 -9
    endloop
  endfacet
  facet normal 1 0 0
    outer loop
      vertex 2.5 4.74767 -1.25233
      vertex 2.5 5.45228 -4.31875
      vertex 2.5 5.54908 -4.14268
    endloop
  endfacet
  facet normal 1 0 0
    outer loop
      vertex 2.5 4.74767 -1.25233
      vertex 2.5 5.54908 -4.14268
      vertex 2.5 5.66718 -3.98012
    endloop
  endfacet
  facet normal 1 0 0
    outer loop
      vertex 2.5 7.84046 -6.29443
      vertex 2.5 7.67081 -6.40209
      vertex 2.5 10.5 -9
    endloop
  endfacet
  facet normal 1 0 0
    outer loop
      vertex 2.5 4.74767 -1.25233
      vertex 2.5 5.66718 -3.98012
      vertex 2.5 5.80473 -3.83365
    endloop
  endfacet
  facet normal 1 0 0
    outer loop
      vertex 2.5 4.74767 -1.25233
      vertex 2.5 5.80473 -3.83365
      vertex 2.5 5.95954 -3.70557
    endloop
  endfacet
  facet normal 1 0 0
    outer loop
      vertex 2.5 7.99528 -6.16635
      vertex 2.5 7.84046 -6.29443
      vertex 2.5 10.5 -9
    endloop
  endfacet
  facet normal 1 0 0
    outer loop
      vertex 2.5 4.74767 -1.25233
      vertex 2.5 5.95954 -3.70557
      vertex 2.5 6.12919 -3.59791
    endloop
  endfacet
  facet normal 1 0 0
    outer loop
      vertex 2.5 4.74767 -1.25233
      vertex 2.5 6.12919 -3.59791
      vertex 2.5 6.311 -3.51236
    endloop
  endfacet
  facet normal 1 0 0
    outer loop
      vertex 2.5 8.13282 -6.01988
      vertex 2.5 7.99528 -6.16635
      vertex 2.5 10.5 -9
    endloop
  endfacet
  facet normal 1 0 0
    outer loop
      vertex 2.5 10.5 9
      vertex 2.5 4.74767 -1.25233
      vertex 2.5 6.5021 -3.45027
    endloop
  endfacet
  facet normal 1 0 0
    outer loop
      vertex 2.5 10.5 9
      vertex 2.5 6.5021 -3.45027
      vertex 2.5 6.69947 -3.41262
    endloop
  endfacet
  facet normal 1 0 0
    outer loop
      vertex 2.5 8.34772 -5.68125
      vertex 2.5 8.25092 -5.85732
      vertex 2.5 10.5 -9
    endloop
  endfacet
  facet normal 1 0 0
    outer loop
      vertex 2.5 10.5 9
      vertex 2.5 6.69947 -3.41262
      vertex 2.5 6.9 -3.4
    endloop
  endfacet
  facet normal 1 0 0
    outer loop
      vertex 2.5 8.25092 -5.85732
      vertex 2.5 8.13282 -6.01988
      vertex 2.5 10.5 -9
    endloop
  endfacet
  facet normal 1 0 0
    outer loop
      vertex 2.5 10.5 9
      vertex 2.5 6.9 -3.4
      vertex 2.5 7.10053 -3.41262
    endloop
  endfacet
  facet normal 1 0 0
    outer loop
      vertex 2.5 10.5 9
      vertex 2.5 7.10053 -3.41262
      vertex 2.5 7.2979 -3.45027
    endloop
  endfacet
  facet normal 1 0 0
    outer loop
      vertex 2.5 8.42169 -5.49443
      vertex 2.5 8.34772 -5.68125
      vertex 2.5 10.5 -9
    endloop
  endfacet
  facet normal 1 0 0
    outer loop
      vertex 2.5 10.5 9
      vertex 2.5 7.2979 -3.45027
      vertex 2.5 7.489 -3.51236
    endloop
  endfacet
  facet normal 1 0 0
    outer loop
      vertex 2.5 10.5 9
      vertex 2.5 7.489 -3.51236
      vertex 2.5 7.67081 -3.59791
    endloop
  endfacet
  facet normal 1 0 0
    outer loop
      vertex 2.5 8.49684 -5.10046
      vertex 2.5 8.47166 -5.29981
      vertex 2.5 10.5 -9
    endloop
  endfacet
  facet normal 1 0 0
    outer loop
      vertex 2.5 10.5 9
      vertex 2.5 7.67081 -3.59791
      vertex 2.5 7.84046 -3.70557
    endloop
  endfacet
  facet normal 1 0 0
    outer loop
      vertex 2.5 8.49684 -4.89953
      vertex 2.5 8.49684 -5.10046
      vertex 2.5 10.5 -9
    endloop
  endfacet
  facet normal 1 0 0
    outer loop
      vertex 2.5 10.5 9
      vertex 2.5 7.84046 -3.70557
      vertex 2.5 7.99528 -3.83365
    endloop
  endfacet
  facet normal 1 0 0
    outer loop
      vertex 2.5 8.47166 -4.70019
      vertex 2.5 8.49684 -4.89953
      vertex 2.5 10.5 -9
    endloop
  endfacet
  facet normal 1 0 0
    outer loop
      vertex 2.5 10.5 9
      vertex 2.5 7.99528 -3.83365
      vertex 2.5 8.13282 -3.98012
    endloop
  endfacet
  facet normal 1 0 0
    outer loop
      vertex 2.5 8.47166 -5.29981
      vertex 2.5 8.42169 -5.49443
      vertex 2.5 10.5 -9
    endloop
  endfacet
  facet normal 1 0 0
    outer loop
      vertex 2.5 10.5 9
      vertex 2.5 8.13282 -3.98012
      vertex 2.5 8.25092 -4.14268
    endloop
  endfacet
  facet normal 1 0 0
    outer loop
      vertex 2.5 10.5 9
      vertex 2.5 8.34772 -4.31875
      vertex 2.5 10.5 -9
    endloop
  endfacet
  facet normal 1 0 0
    outer loop
      vertex 2.5 10.5 9
      vertex 2.5 8.25092 -4.14268
      vertex 2.5 8.34772 -4.31875
    endloop
  endfacet
  facet normal 1 0 0
    outer loop
      vertex 2.5 8.34772 -4.31875
      vertex 2.5 8.42169 -4.50557
      vertex 2.5 10.5 -9
    endloop
  endfacet
  facet normal 1 0 0
    outer loop
      vertex 2.5 7.10053 -6.58738
      vertex 2.5 6.9 -6.6
      vertex 2.5 10.5 -9
    endloop
  endfacet
  facet normal 1 0 0
    outer loop
      vertex 2.5 6.9 -6.6
      vertex 2.5 6.69947 -6.58738
      vertex 2.5 10.5 -9
    endloop
  endfacet
  facet normal 1 0 0
    outer loop
      vertex 2.5 6.69947 -6.58738
      vertex 2.5 6.5021 -6.54973
      vertex 2.5 10.5 -9
    endloop
  endfacet
  facet normal 1 0 0
    outer loop
      vertex 2.5 6.311 -6.48764
      vertex 2.5 1 -5
      vertex 2.5 6.5021 -6.54973
    endloop
  endfacet
  facet normal 1 0 0
    outer loop
      vertex 2.5 6.12919 -6.40209
      vertex 2.5 5.95954 -6.29443
      vertex 2.5 1 -5
    endloop
  endfacet
  facet normal 1 0 0
    outer loop
      vertex 2.5 5.95954 -6.29443
      vertex 2.5 5.80473 -6.16635
      vertex 2.5 1 -5
    endloop
  endfacet
  facet normal 1 0 0
    outer loop
      vertex 2.5 5.66718 -6.01988
      vertex 2.5 1 -5
      vertex 2.5 5.80473 -6.16635
    endloop
  endfacet
  facet normal 1 0 0
    outer loop
      vertex 2.5 5.54908 -5.85732
      vertex 2.5 1 -5
      vertex 2.5 5.66718 -6.01988
    endloop
  endfacet
  facet normal 1 0 0
    outer loop
      vertex 2.5 5.45228 -5.68125
      vertex 2.5 1 -5
      vertex 2.5 5.54908 -5.85732
    endloop
  endfacet
  facet normal 1 0 0
    outer loop
      vertex 2.5 5.37831 -5.49443
      vertex 2.5 1 -5
      vertex 2.5 5.45228 -5.68125
    endloop
  endfacet
  facet normal 1 0 0
    outer loop
      vertex 2.5 5.32834 -5.29981
      vertex 2.5 1 -5
      vertex 2.5 5.37831 -5.49443
    endloop
  endfacet
  facet normal 1 0 0
    outer loop
      vertex 2.5 5.30316 -5.10046
      vertex 2.5 1 -5
      vertex 2.5 5.32834 -5.29981
    endloop
  endfacet
  facet normal 1 0 0
    outer loop
      vertex 2.5 -5.01041 1.01041
      vertex 2.5 -6.42834 2.80019
      vertex 2.5 -6.47831 2.60557
    endloop
  endfacet
  facet normal 1 0 0
    outer loop
      vertex 2.5 -7.22919 4.50209
      vertex 2.5 -7.05954 4.39443
      vertex 2.5 10.5 9
    endloop
  endfacet
  facet normal 1 0 0
    outer loop
      vertex 2.5 1 -5
      vertex 2.5 -5.01041 1.01041
      vertex 2.5 -6 0.5
    endloop
  endfacet
  facet normal 0 -1 0
    outer loop
      vertex -0.6 -12.5 9
      vertex -0.6 -12.5 0.5
      vertex 2.5 -12.5 0.5
    endloop
  endfacet
  facet normal 0 -1 0
    outer loop
      vertex 2.5 -12.5 9
      vertex -0.6 -12.5 9
      vertex 2.5 -12.5 0.5
    endloop
  endfacet
  facet normal 0 0 1
    outer loop
      vertex 2.5 -12.5 -6
      vertex 2.5 -6 -6
      vertex -0.6 -6 -6
    endloop
  endfacet
  facet normal 0 0 1
    outer loop
      vertex -0.6 -12.5 -6
      vertex 2.5 -12.5 -6
      vertex -0.6 -6 -6
    endloop
  endfacet
  facet normal 0 0 -1
    outer loop
      vertex 2.5 -6 0.5
      vertex 2.5 -12.5 0.5
      vertex -0.6 -6 0.5
    endloop
  endfacet
  facet normal 0 0 -1
    outer loop
      vertex -0.6 -6 0.5
      vertex 2.5 -12.5 0.5
      vertex -0.6 -12.5 0.5
    endloop
  endfacet
  facet normal 0 -1 0
    outer loop
      vertex 2.5 -6 -6
      vertex 2.5 -6 0.5
      vertex -0.6 -6 0.5
    endloop
  endfacet
  facet normal 0 -1 0
    outer loop
      vertex -0.6 -6 -6
      vertex 2.5 -6 -6
      vertex -0.6 -6 0.5
    endloop
  endfacet
  facet normal -2.78294e-17 0.992115 0.125333
    outer loop
      vertex 2.5 -9.57166 2.80019
      vertex -0.6 -9.57166 2.80019
      vertex 2.5 -9.59684 2.99954
    endloop
  endfacet
  facet normal -2.78294e-17 0.992115 0.125333
    outer loop
      vertex 2.5 -9.59684 2.99954
      vertex -0.6 -9.57166 2.80019
      vertex -0.6 -9.59684 2.99954
    endloop
  endfacet
  facet normal 0 1 0
    outer loop
      vertex 2.5 -9.59684 3.20047
      vertex 2.5 -9.59684 2.99954
      vertex -0.6 -9.59684 3.20047
    endloop
  endfacet
  facet normal 0 1 0
    outer loop
      vertex -0.6 -9.59684 3.20047
      vertex 2.5 -9.59684 2.99954
      vertex -0.6 -9.59684 2.99954
    endloop
  endfacet
  facet normal 2.78294e-17 0.992115 -0.125333
    outer loop
      vertex 2.5 -9.57166 3.39981
      vertex 2.5 -9.59684 3.20047
      vertex -0.6 -9.57166 3.39981
    endloop
  endfacet
  facet normal 2.78294e-17 0.992115 -0.125333
    outer loop
      vertex -0.6 -9.57166 3.39981
      vertex 2.5 -9.59684 3.20047
      vertex -0.6 -9.59684 3.20047
    endloop
  endfacet
  facet normal 5.52211e-17 0.968582 -0.248694
    outer loop
      vertex 2.5 -9.52169 3.59443
      vertex 2.5 -9.57166 3.39981
      vertex -0.6 -9.52169 3.59443
    endloop
  endfacet
  facet normal 5.52211e-17 0.968582 -0.248694
    outer loop
      vertex -0.6 -9.52169 3.59443
      vertex 2.5 -9.57166 3.39981
      vertex -0.6 -9.57166 3.39981
    endloop
  endfacet
  facet normal 8.17398e-17 0.929777 -0.368123
    outer loop
      vertex 2.5 -9.44772 3.78125
      vertex 2.5 -9.52169 3.59443
      vertex -0.6 -9.44772 3.78125
    endloop
  endfacet
  facet normal 8.17398e-17 0.929777 -0.368123
    outer loop
      vertex -0.6 -9.44772 3.78125
      vertex 2.5 -9.52169 3.59443
      vertex -0.6 -9.52169 3.59443
    endloop
  endfacet
  facet normal 1.0697e-16 0.876308 -0.481751
    outer loop
      vertex 2.5 -9.35092 3.95732
      vertex 2.5 -9.44772 3.78125
      vertex -0.6 -9.35092 3.95732
    endloop
  endfacet
  facet normal 1.0697e-16 0.876308 -0.481751
    outer loop
      vertex -0.6 -9.35092 3.95732
      vertex 2.5 -9.44772 3.78125
      vertex -0.6 -9.44772 3.78125
    endloop
  endfacet
  facet normal 1.30515e-16 0.809015 -0.587788
    outer loop
      vertex 2.5 -9.23282 4.11988
      vertex 2.5 -9.35092 3.95732
      vertex -0.6 -9.23282 4.11988
    endloop
  endfacet
  facet normal 1.30515e-16 0.809015 -0.587788
    outer loop
      vertex -0.6 -9.23282 4.11988
      vertex 2.5 -9.35092 3.95732
      vertex -0.6 -9.35092 3.95732
    endloop
  endfacet
  facet normal 1.52e-16 0.72897 -0.684546
    outer loop
      vertex 2.5 -9.09527 4.26635
      vertex 2.5 -9.23282 4.11988
      vertex -0.6 -9.09527 4.26635
    endloop
  endfacet
  facet normal 1.52e-16 0.72897 -0.684546
    outer loop
      vertex -0.6 -9.09527 4.26635
      vertex 2.5 -9.23282 4.11988
      vertex -0.6 -9.23282 4.11988
    endloop
  endfacet
  facet normal 1.71089e-16 0.637423 -0.770514
    outer loop
      vertex 2.5 -8.94046 4.39443
      vertex 2.5 -9.09527 4.26635
      vertex -0.6 -8.94046 4.39443
    endloop
  endfacet
  facet normal 1.71089e-16 0.637423 -0.770514
    outer loop
      vertex -0.6 -8.94046 4.39443
      vertex 2.5 -9.09527 4.26635
      vertex -0.6 -9.09527 4.26635
    endloop
  endfacet
  facet normal 1.87478e-16 0.53583 -0.844326
    outer loop
      vertex 2.5 -8.77081 4.50209
      vertex 2.5 -8.94046 4.39443
      vertex -0.6 -8.77081 4.50209
    endloop
  endfacet
  facet normal 1.87478e-16 0.53583 -0.844326
    outer loop
      vertex -0.6 -8.77081 4.50209
      vertex 2.5 -8.94046 4.39443
      vertex -0.6 -8.94046 4.39443
    endloop
  endfacet
  facet normal 2.00912e-16 0.425776 -0.904829
    outer loop
      vertex 2.5 -8.589 4.58764
      vertex 2.5 -8.77081 4.50209
      vertex -0.6 -8.589 4.58764
    endloop
  endfacet
  facet normal 2.00912e-16 0.425776 -0.904829
    outer loop
      vertex -0.6 -8.589 4.58764
      vertex 2.5 -8.77081 4.50209
      vertex -0.6 -8.77081 4.50209
    endloop
  endfacet
  facet normal 2.11177e-16 0.309019 -0.951056
    outer loop
      vertex 2.5 -8.3979 4.64973
      vertex 2.5 -8.589 4.58764
      vertex -0.6 -8.3979 4.64973
    endloop
  endfacet
  facet normal 2.11177e-16 0.309019 -0.951056
    outer loop
      vertex -0.6 -8.3979 4.64973
      vertex 2.5 -8.589 4.58764
      vertex -0.6 -8.589 4.58764
    endloop
  endfacet
  facet normal 2.18111e-16 0.187384 -0.982287
    outer loop
      vertex 2.5 -8.20053 4.68738
      vertex 2.5 -8.3979 4.64973
      vertex -0.6 -8.20053 4.68738
    endloop
  endfacet
  facet normal 2.18111e-16 0.187384 -0.982287
    outer loop
      vertex -0.6 -8.20053 4.68738
      vertex 2.5 -8.3979 4.64973
      vertex -0.6 -8.3979 4.64973
    endloop
  endfacet
  facet normal 2.21606e-16 0.0627882 -0.998027
    outer loop
      vertex 2.5 -8 4.7
      vertex 2.5 -8.20053 4.68738
      vertex -0.6 -8 4.7
    endloop
  endfacet
  facet normal 2.21606e-16 0.0627882 -0.998027
    outer loop
      vertex -0.6 -8 4.7
      vertex 2.5 -8.20053 4.68738
      vertex -0.6 -8.20053 4.68738
    endloop
  endfacet
  facet normal 2.21606e-16 -0.0627882 -0.998027
    outer loop
      vertex 2.5 -7.79947 4.68738
      vertex 2.5 -8 4.7
      vertex -0.6 -7.79947 4.68738
    endloop
  endfacet
  facet normal 2.21606e-16 -0.0627882 -0.998027
    outer loop
      vertex -0.6 -7.79947 4.68738
      vertex 2.5 -8 4.7
      vertex -0.6 -8 4.7
    endloop
  endfacet
  facet normal 2.18111e-16 -0.187384 -0.982287
    outer loop
      vertex 2.5 -7.6021 4.64973
      vertex 2.5 -7.79947 4.68738
      vertex -0.6 -7.6021 4.64973
    endloop
  endfacet
  facet normal 2.18111e-16 -0.187384 -0.982287
    outer loop
      vertex -0.6 -7.6021 4.64973
      vertex 2.5 -7.79947 4.68738
      vertex -0.6 -7.79947 4.68738
    endloop
  endfacet
  facet normal 2.11177e-16 -0.309019 -0.951056
    outer loop
      vertex 2.5 -7.411 4.58764
      vertex 2.5 -7.6021 4.64973
      vertex -0.6 -7.411 4.58764
    endloop
  endfacet
  facet normal 2.11177e-16 -0.309019 -0.951056
    outer loop
      vertex -0.6 -7.411 4.58764
      vertex 2.5 -7.6021 4.64973
      vertex -0.6 -7.6021 4.64973
    endloop
  endfacet
  facet normal 2.00912e-16 -0.425776 -0.904829
    outer loop
      vertex 2.5 -7.22919 4.50209
      vertex 2.5 -7.411 4.58764
      vertex -0.6 -7.22919 4.50209
    endloop
  endfacet
  facet normal 2.00912e-16 -0.425776 -0.904829
    outer loop
      vertex -0.6 -7.22919 4.50209
      vertex 2.5 -7.411 4.58764
      vertex -0.6 -7.411 4.58764
    endloop
  endfacet
  facet normal 1.87478e-16 -0.53583 -0.844326
    outer loop
      vertex 2.5 -7.05954 4.39443
      vertex 2.5 -7.22919 4.50209
      vertex -0.6 -7.05954 4.39443
    endloop
  endfacet
  facet normal 1.87478e-16 -0.53583 -0.844326
    outer loop
      vertex -0.6 -7.05954 4.39443
      vertex 2.5 -7.22919 4.50209
      vertex -0.6 -7.22919 4.50209
    endloop
  endfacet
  facet normal 1.71089e-16 -0.637423 -0.770514
    outer loop
      vertex 2.5 -6.90473 4.26635
      vertex 2.5 -7.05954 4.39443
      vertex -0.6 -6.90473 4.26635
    endloop
  endfacet
  facet normal 1.71089e-16 -0.637423 -0.770514
    outer loop
      vertex -0.6 -6.90473 4.26635
      vertex 2.5 -7.05954 4.39443
      vertex -0.6 -7.05954 4.39443
    endloop
  endfacet
  facet normal 1.52e-16 -0.72897 -0.684546
    outer loop
      vertex -0.6 -6.76718 4.11988
      vertex 2.5 -6.76718 4.11988
      vertex 2.5 -6.90473 4.26635
    endloop
  endfacet
  facet normal 1.52e-16 -0.72897 -0.684546
    outer loop
      vertex -0.6 -6.90473 4.26635
      vertex -0.6 -6.76718 4.11988
      vertex 2.5 -6.90473 4.26635
    endloop
  endfacet
  facet normal 1.30515e-16 -0.809015 -0.587788
    outer loop
      vertex -0.6 -6.64907 3.95732
      vertex 2.5 -6.64907 3.95732
      vertex 2.5 -6.76718 4.11988
    endloop
  endfacet
  facet normal 1.30515e-16 -0.809015 -0.587788
    outer loop
      vertex -0.6 -6.76718 4.11988
      vertex -0.6 -6.64907 3.95732
      vertex 2.5 -6.76718 4.11988
    endloop
  endfacet
  facet normal 1.0697e-16 -0.876308 -0.481751
    outer loop
      vertex -0.6 -6.55228 3.78125
      vertex 2.5 -6.55228 3.78125
      vertex 2.5 -6.64907 3.95732
    endloop
  endfacet
  facet normal 1.0697e-16 -0.876308 -0.481751
    outer loop
      vertex -0.6 -6.64907 3.95732
      vertex -0.6 -6.55228 3.78125
      vertex 2.5 -6.64907 3.95732
    endloop
  endfacet
  facet normal 8.17398e-17 -0.929777 -0.368123
    outer loop
      vertex -0.6 -6.47831 3.59443
      vertex 2.5 -6.47831 3.59443
      vertex 2.5 -6.55228 3.78125
    endloop
  endfacet
  facet normal 8.17398e-17 -0.929777 -0.368123
    outer loop
      vertex -0.6 -6.55228 3.78125
      vertex -0.6 -6.47831 3.59443
      vertex 2.5 -6.55228 3.78125
    endloop
  endfacet
  facet normal 5.52211e-17 -0.968582 -0.248694
    outer loop
      vertex -0.6 -6.42834 3.39981
      vertex 2.5 -6.42834 3.39981
      vertex 2.5 -6.47831 3.59443
    endloop
  endfacet
  facet normal 5.52211e-17 -0.968582 -0.248694
    outer loop
      vertex -0.6 -6.47831 3.59443
      vertex -0.6 -6.42834 3.39981
      vertex 2.5 -6.47831 3.59443
    endloop
  endfacet
  facet normal 2.78294e-17 -0.992115 -0.125333
    outer loop
      vertex -0.6 -6.40316 3.20047
      vertex 2.5 -6.40316 3.20047
      vertex 2.5 -6.42834 3.39981
    endloop
  endfacet
  facet normal 2.78294e-17 -0.992115 -0.125333
    outer loop
      vertex -0.6 -6.42834 3.39981
      vertex -0.6 -6.40316 3.20047
      vertex 2.5 -6.42834 3.39981
    endloop
  endfacet
  facet normal 0 -1 0
    outer loop
      vertex 2.5 -6.40316 2.99954
      vertex 2.5 -6.40316 3.20047
      vertex -0.6 -6.40316 3.20047
    endloop
  endfacet
  facet normal 0 -1 0
    outer loop
      vertex -0.6 -6.40316 2.99954
      vertex 2.5 -6.40316 2.99954
      vertex -0.6 -6.40316 3.20047
    endloop
  endfacet
  facet normal -2.78294e-17 -0.992115 0.125333
    outer loop
      vertex 2.5 -6.42834 2.80019
      vertex 2.5 -6.40316 2.99954
      vertex -0.6 -6.40316 2.99954
    endloop
  endfacet
  facet normal -2.78294e-17 -0.992115 0.125333
    outer loop
      vertex -0.6 -6.42834 2.80019
      vertex 2.5 -6.42834 2.80019
      vertex -0.6 -6.40316 2.99954
    endloop
  endfacet
  facet normal -5.52211e-17 -0.968582 0.248694
    outer loop
      vertex 2.5 -6.47831 2.60557
      vertex 2.5 -6.42834 2.80019
      vertex -0.6 -6.42834 2.80019
    endloop
  endfacet
  facet normal -5.52211e-17 -0.968582 0.248694
    outer loop
      vertex -0.6 -6.47831 2.60557
      vertex 2.5 -6.47831 2.60557
      vertex -0.6 -6.42834 2.80019
    endloop
  endfacet
  facet normal -8.17398e-17 -0.929777 0.368123
    outer loop
      vertex 2.5 -6.55228 2.41875
      vertex 2.5 -6.47831 2.60557
      vertex -0.6 -6.47831 2.60557
    endloop
  endfacet
  facet normal -8.17398e-17 -0.929777 0.368123
    outer loop
      vertex -0.6 -6.55228 2.41875
      vertex 2.5 -6.55228 2.41875
      vertex -0.6 -6.47831 2.60557
    endloop
  endfacet
  facet normal -1.0697e-16 -0.876308 0.481751
    outer loop
      vertex 2.5 -6.64907 2.24268
      vertex 2.5 -6.55228 2.41875
      vertex -0.6 -6.55228 2.41875
    endloop
  endfacet
  facet normal -1.0697e-16 -0.876308 0.481751
    outer loop
      vertex -0.6 -6.64907 2.24268
      vertex 2.5 -6.64907 2.24268
      vertex -0.6 -6.55228 2.41875
    endloop
  endfacet
  facet normal -1.30515e-16 -0.809015 0.587788
    outer loop
      vertex 2.5 -6.76718 2.08012
      vertex 2.5 -6.64907 2.24268
      vertex -0.6 -6.64907 2.24268
    endloop
  endfacet
  facet normal -1.30515e-16 -0.809015 0.587788
    outer loop
      vertex -0.6 -6.76718 2.08012
      vertex 2.5 -6.76718 2.08012
      vertex -0.6 -6.64907 2.24268
    endloop
  endfacet
  facet normal -1.52e-16 -0.72897 0.684546
    outer loop
      vertex 2.5 -6.90473 1.93365
      vertex 2.5 -6.76718 2.08012
      vertex -0.6 -6.76718 2.08012
    endloop
  endfacet
  facet normal -1.52e-16 -0.72897 0.684546
    outer loop
      vertex -0.6 -6.90473 1.93365
      vertex 2.5 -6.90473 1.93365
      vertex -0.6 -6.76718 2.08012
    endloop
  endfacet
  facet normal -1.71089e-16 -0.637423 0.770514
    outer loop
      vertex 2.5 -7.05954 1.80557
      vertex 2.5 -6.90473 1.93365
      vertex -0.6 -6.90473 1.93365
    endloop
  endfacet
  facet normal -1.71089e-16 -0.637423 0.770514
    outer loop
      vertex -0.6 -7.05954 1.80557
      vertex 2.5 -7.05954 1.80557
      vertex -0.6 -6.90473 1.93365
    endloop
  endfacet
  facet normal -1.87478e-16 -0.53583 0.844326
    outer loop
      vertex 2.5 -7.22919 1.69791
      vertex 2.5 -7.05954 1.80557
      vertex -0.6 -7.05954 1.80557
    endloop
  endfacet
  facet normal -1.87478e-16 -0.53583 0.844326
    outer loop
      vertex -0.6 -7.22919 1.69791
      vertex 2.5 -7.22919 1.69791
      vertex -0.6 -7.05954 1.80557
    endloop
  endfacet
  facet normal -2.00912e-16 -0.425776 0.904829
    outer loop
      vertex 2.5 -7.411 1.61236
      vertex 2.5 -7.22919 1.69791
      vertex -0.6 -7.22919 1.69791
    endloop
  endfacet
  facet normal -2.00912e-16 -0.425776 0.904829
    outer loop
      vertex -0.6 -7.411 1.61236
      vertex 2.5 -7.411 1.61236
      vertex -0.6 -7.22919 1.69791
    endloop
  endfacet
  facet normal -2.11177e-16 -0.309019 0.951056
    outer loop
      vertex 2.5 -7.6021 1.55027
      vertex 2.5 -7.411 1.61236
      vertex -0.6 -7.411 1.61236
    endloop
  endfacet
  facet normal -2.11177e-16 -0.309019 0.951056
    outer loop
      vertex -0.6 -7.6021 1.55027
      vertex 2.5 -7.6021 1.55027
      vertex -0.6 -7.411 1.61236
    endloop
  endfacet
  facet normal -2.18111e-16 -0.187384 0.982287
    outer loop
      vertex 2.5 -7.79947 1.51262
      vertex 2.5 -7.6021 1.55027
      vertex -0.6 -7.6021 1.55027
    endloop
  endfacet
  facet normal -2.18111e-16 -0.187384 0.982287
    outer loop
      vertex -0.6 -7.79947 1.51262
      vertex 2.5 -7.79947 1.51262
      vertex -0.6 -7.6021 1.55027
    endloop
  endfacet
  facet normal -2.21606e-16 -0.0627882 0.998027
    outer loop
      vertex 2.5 -8 1.5
      vertex 2.5 -7.79947 1.51262
      vertex -0.6 -7.79947 1.51262
    endloop
  endfacet
  facet normal -2.21606e-16 -0.0627882 0.998027
    outer loop
      vertex -0.6 -8 1.5
      vertex 2.5 -8 1.5
      vertex -0.6 -7.79947 1.51262
    endloop
  endfacet
  facet normal -2.21606e-16 0.0627882 0.998027
    outer loop
      vertex 2.5 -8.20053 1.51262
      vertex 2.5 -8 1.5
      vertex -0.6 -8 1.5
    endloop
  endfacet
  facet normal -2.21606e-16 0.0627882 0.998027
    outer loop
      vertex -0.6 -8.20053 1.51262
      vertex 2.5 -8.20053 1.51262
      vertex -0.6 -8 1.5
    endloop
  endfacet
  facet normal -2.18111e-16 0.187384 0.982287
    outer loop
      vertex 2.5 -8.3979 1.55027
      vertex 2.5 -8.20053 1.51262
      vertex -0.6 -8.20053 1.51262
    endloop
  endfacet
  facet normal -2.18111e-16 0.187384 0.982287
    outer loop
      vertex -0.6 -8.3979 1.55027
      vertex 2.5 -8.3979 1.55027
      vertex -0.6 -8.20053 1.51262
    endloop
  endfacet
  facet normal -2.11177e-16 0.309019 0.951056
    outer loop
      vertex 2.5 -8.589 1.61236
      vertex 2.5 -8.3979 1.55027
      vertex -0.6 -8.3979 1.55027
    endloop
  endfacet
  facet normal -2.11177e-16 0.309019 0.951056
    outer loop
      vertex -0.6 -8.589 1.61236
      vertex 2.5 -8.589 1.61236
      vertex -0.6 -8.3979 1.55027
    endloop
  endfacet
  facet normal -2.00912e-16 0.425776 0.904829
    outer loop
      vertex 2.5 -8.77081 1.69791
      vertex 2.5 -8.589 1.61236
      vertex -0.6 -8.589 1.61236
    endloop
  endfacet
  facet normal -2.00912e-16 0.425776 0.904829
    outer loop
      vertex -0.6 -8.77081 1.69791
      vertex 2.5 -8.77081 1.69791
      vertex -0.6 -8.589 1.61236
    endloop
  endfacet
  facet normal -1.87478e-16 0.53583 0.844326
    outer loop
      vertex 2.5 -8.94046 1.80557
      vertex 2.5 -8.77081 1.69791
      vertex -0.6 -8.77081 1.69791
    endloop
  endfacet
  facet normal -1.87478e-16 0.53583 0.844326
    outer loop
      vertex -0.6 -8.94046 1.80557
      vertex 2.5 -8.94046 1.80557
      vertex -0.6 -8.77081 1.69791
    endloop
  endfacet
  facet normal -1.71089e-16 0.637423 0.770514
    outer loop
      vertex 2.5 -9.09527 1.93365
      vertex 2.5 -8.94046 1.80557
      vertex -0.6 -8.94046 1.80557
    endloop
  endfacet
  facet normal -1.71089e-16 0.637423 0.770514
    outer loop
      vertex -0.6 -9.09527 1.93365
      vertex 2.5 -9.09527 1.93365
      vertex -0.6 -8.94046 1.80557
    endloop
  endfacet
  facet normal -1.52e-16 0.72897 0.684546
    outer loop
      vertex 2.5 -9.09527 1.93365
      vertex -0.6 -9.09527 1.93365
      vertex 2.5 -9.23282 2.08012
    endloop
  endfacet
  facet normal -1.52e-16 0.72897 0.684546
    outer loop
      vertex 2.5 -9.23282 2.08012
      vertex -0.6 -9.09527 1.93365
      vertex -0.6 -9.23282 2.08012
    endloop
  endfacet
  facet normal -1.30515e-16 0.809015 0.587788
    outer loop
      vertex 2.5 -9.23282 2.08012
      vertex -0.6 -9.23282 2.08012
      vertex 2.5 -9.35092 2.24268
    endloop
  endfacet
  facet normal -1.30515e-16 0.809015 0.587788
    outer loop
      vertex 2.5 -9.35092 2.24268
      vertex -0.6 -9.23282 2.08012
      vertex -0.6 -9.35092 2.24268
    endloop
  endfacet
  facet normal -1.0697e-16 0.876308 0.481751
    outer loop
      vertex 2.5 -9.35092 2.24268
      vertex -0.6 -9.35092 2.24268
      vertex 2.5 -9.44772 2.41875
    endloop
  endfacet
  facet normal -1.0697e-16 0.876308 0.481751
    outer loop
      vertex 2.5 -9.44772 2.41875
      vertex -0.6 -9.35092 2.24268
      vertex -0.6 -9.44772 2.41875
    endloop
  endfacet
  facet normal -8.17398e-17 0.929777 0.368123
    outer loop
      vertex 2.5 -9.44772 2.41875
      vertex -0.6 -9.44772 2.41875
      vertex 2.5 -9.52169 2.60557
    endloop
  endfacet
  facet normal -8.17398e-17 0.929777 0.368123
    outer loop
      vertex 2.5 -9.52169 2.60557
      vertex -0.6 -9.44772 2.41875
      vertex -0.6 -9.52169 2.60557
    endloop
  endfacet
  facet normal -5.52211e-17 0.968582 0.248694
    outer loop
      vertex 2.5 -9.52169 2.60557
      vertex -0.6 -9.52169 2.60557
      vertex 2.5 -9.57166 2.80019
    endloop
  endfacet
  facet normal -5.52211e-17 0.968582 0.248694
    outer loop
      vertex 2.5 -9.57166 2.80019
      vertex -0.6 -9.52169 2.60557
      vertex -0.6 -9.57166 2.80019
    endloop
  endfacet
endsolid OpenSCAD_Model
