<?xml version="1.0" encoding="UTF-8" standalone="yes"?>
<!DOCTYPE svg PUBLIC "-//W3C//DTD SVG 1.0//EN" "http://www.w3.org/TR/2001/REC-SVG-20010904/DTD/svg10.dtd">
<svg width="20" height="19.89044" xmlns="http://www.w3.org/2000/svg" xmlns:svg="http://www.w3.org/2000/svg" xmlns:xlink="http://www.w3.org/1999/xlink" xmlns:slic3r="http://slic3r.org/namespaces/slic3r">
  <!-- 
  Generated using Slic3r 1.0.0RC2
  http://slic3r.org/
   -->
  <g id="layer0" slic3r:z="0.175">
    <polygon slic3r:type="contour" points="11.04529,0 11.081074,0.007605 13.09017,0.434659 13.123592,0.44954 15,1.28497 15.029596,1.306473 16.69131,2.513769 16.71579,2.540957 18.09017,4.06737 18.108462,4.099053 19.135459,5.877849 19.146765,5.912644 19.781478,7.8661 19.785301,7.902484 20,9.94522 19.785301,11.987955 19.781478,12.024339 19.146764,13.977795 19.13546,14.012589 18.108461,15.791387 18.090169,15.823071 16.71579,17.349482 16.691311,17.37667 15.029597,18.583963 14.999999,18.605468 13.123592,19.440898 13.09017,19.45578 11.081074,19.882833 11.04529,19.89044 8.95471,19.89044 6.945614,19.463385 6.90983,19.45578 5.033421,18.620347 5,18.605468 3.338286,17.398172 3.30869,17.37667 1.934309,15.850257 1.909829,15.82307 0.882832,14.044273 0.86454,14.012589 0.229824,12.059133 0.21852,12.02434 0.003823,9.981603 0,9.945219 0.003823,9.908835 0.21852,7.8661 0.229825,7.831305 0.86454,5.87785 0.882831,5.846166 1.90983,4.067369 1.934309,4.040182 3.30869,2.513769 3.338286,2.492266 5,1.284969 5.033421,1.270089 6.90983,0.434658 6.945614,0.427053 8.95471,0" style="fill: white" />
  </g>
  <g id="layer1" slic3r:z="0.475">
    <polygon slic3r:type="contour" points="11.045289,0 11.142421,0.020646 13.090169,0.434658 13.180885,0.475048 15,1.28497 15.080336,1.343337 16.691311,2.51377 16.757756,2.587566 18.090169,4.067369 18.13982,4.153366 19.13546,5.87785 19.166144,5.97229 19.781478,7.8661 19.791857,7.964858 20,9.945219 19.791856,11.925581 19.781477,12.02434 19.166144,13.918148 19.135459,14.01259 18.13982,15.737073 18.09017,15.823071 16.757756,17.302873 16.69131,17.37667 15.080337,18.547099 15,18.605467 13.180885,19.41539 13.090169,19.45578 11.102896,19.878194 11.04529,19.89044 8.95471,19.89044 7.006961,19.476426 6.909829,19.455779 5.020519,18.614603 5.020519,18.614604 5,18.605468 3.389026,17.435036 3.308689,17.376669 1.976275,15.896866 1.909829,15.823071 0.91419,14.098586 0.86454,14.01259 0.249205,12.11878 0.218519,12.024339 0.010379,10.043978 0,9.94522 0.010378,9.846461 0.21852,7.866099 0.249206,7.771657 0.86454,5.877849 0.91419,5.791852 1.909829,4.06737 1.976275,3.993573 3.30869,2.51377 3.389026,2.455402 4.999999,1.28497 5.090715,1.24458 6.90983,0.434659 6.946686,0.426824 6.946686,0.426825 8.954709,0" style="fill: white" />
  </g>
  <g id="layer2" slic3r:z="0.725">
    <polygon slic3r:type="contour" points="11.04529,0 11.193542,0.031511 13.09017,0.434659 13.228632,0.496307 14.999999,1.284969 15.122619,1.374057 16.691311,2.51377 16.792727,2.626405 18.090169,4.06737 18.165952,4.198628 19.13546,5.87785 19.182295,6.021997 19.781478,7.8661 19.797319,8.016835 20,9.94522 19.791527,11.928718 19.781477,12.02434 19.182296,13.86844 19.13546,14.01259 18.165952,15.691811 18.090169,15.823071 16.792727,17.264034 16.691311,17.376669 15.122619,18.51638 14.999999,18.605468 13.228631,19.394132 13.09017,19.45578 11.193543,19.858926 11.045289,19.89044 8.95471,19.89044 7.097608,19.495693 6.90983,19.45578 5.138462,18.667115 5,18.605467 3.431308,17.465756 3.308689,17.376669 2.011246,15.935705 1.90983,15.823071 0.940322,14.143848 0.864539,14.012589 0.265355,12.168487 0.21852,12.02434 0.015841,10.095955 0,9.94522 0.015842,9.794482 0.218519,7.8661 0.265355,7.721952 0.864539,5.87785 0.940323,5.746589 1.909829,4.06737 2.011246,3.954734 3.308689,2.51377 3.431309,2.424681 5,1.284969 5.138462,1.223321 6.909829,0.434659 7.058082,0.403147 8.95471,0" style="fill: white" />
  </g>
  <g id="layer3" slic3r:z="0.975">
    <polygon slic3r:type="contour" points="11.04529,0 11.244664,0.042378 13.09017,0.434659 13.276377,0.517564 15,1.28497 15.164901,1.404777 16.691311,2.51377 16.827698,2.665245 18.09017,4.06737 18.192084,4.24389 19.13546,5.87785 19.198445,6.071703 19.781478,7.8661 19.802782,8.068813 20,9.94522 19.802782,11.821625 19.781478,12.02434 19.198445,13.818735 19.135459,14.01259 18.148869,15.721398 18.14887,15.721398 18.09017,15.823071 16.827698,17.225194 16.691311,17.376669 15.244132,18.428096 15.244132,18.428095 15,18.605468 13.276378,19.372873 13.09017,19.455779 11.244664,19.84806 11.045289,19.89044 8.95471,19.89044 7.14873,19.50656 6.909829,19.45578 5.186207,18.688372 4.999999,18.605467 3.394361,17.438913 3.308689,17.376669 2.046217,15.974545 1.90983,15.823071 0.966454,14.18911 0.86454,14.01259 0.270303,12.183713 0.21852,12.02434 0.021304,10.147933 0,9.94522 0.021304,9.742505 0.21852,7.8661 0.270303,7.706726 0.864539,5.87785 0.966455,5.701327 1.909829,4.06737 2.046217,3.915894 3.30869,2.51377 3.473591,2.393962 5,1.28497 5.116011,1.233318 6.90983,0.434658 7.14873,0.383878 8.95471,0" style="fill: white" />
  </g>
  <g id="layer4" slic3r:z="1.225">
    <polygon slic3r:type="contour" points="11.04529,0 11.295786,0.053244 13.09017,0.434659 13.324123,0.538821 15,1.28497 15.207185,1.435498 16.69131,2.513769 16.862671,2.704086 18.090169,4.067369 18.218217,4.289152 19.13546,5.87785 19.193373,6.05609 19.781478,7.8661 19.808245,8.120791 20,9.94522 19.808245,11.769647 19.781478,12.024339 19.214596,13.769029 19.13546,14.012589 18.232622,15.576337 18.09017,15.823071 16.862671,17.186353 16.69131,17.37667 15.207184,18.45494 15,18.605467 13.324123,19.351616 13.09017,19.455779 11.356061,19.824381 11.04529,19.89044 8.954709,19.89044 7.160327,19.509025 6.90983,19.45578 5.233953,18.70963 5,18.605468 3.515874,17.527196 3.30869,17.37667 2.081189,16.013385 1.90983,15.823071 0.992587,14.234372 0.86454,14.01259 0.297656,12.267899 0.21852,12.024339 0.026768,10.199912 0,9.945219 0.026767,9.690527 0.21852,7.866099 0.297656,7.622539 0.86454,5.877849 0.992587,5.656066 1.90983,4.067369 2.081189,3.877054 3.30869,2.513769 3.515874,2.363242 5,1.284969 5.263557,1.167626 6.90983,0.434659 7.199852,0.373012 8.95471,0" style="fill: white" />
  </g>
  <g id="layer5" slic3r:z="1.475">
    <polygon slic3r:type="contour" points="11.045289,0 11.346909,0.064112 13.090169,0.434659 13.371869,0.56008 14.999999,1.284969 15.249467,1.466217 16.69131,2.513769 16.897641,2.742925 18.09017,4.06737 18.244349,4.334414 19.13546,5.87785 19.230746,6.171115 19.781478,7.8661 19.813708,8.172769 20,9.945219 19.813708,11.717669 19.781478,12.02434 19.230747,13.719322 19.13546,14.012589 18.258754,15.531075 18.09017,15.823071 16.897641,17.147514 16.691311,17.37667 15.249467,18.42422 14.999999,18.605468 13.371869,19.330357 13.090169,19.45578 11.307384,19.834728 11.045289,19.89044 8.95471,19.89044 7.211449,19.519892 6.909829,19.455779 5.281698,18.730888 5,18.605468 3.558157,17.557916 3.30869,17.37667 2.11616,16.052225 1.90983,15.823071 1.061935,14.354485 0.86454,14.01259 0.313807,12.317605 0.21852,12.02434 0.03223,10.251889 0,9.94522 0.03223,9.638549 0.21852,7.866099 0.335031,7.507513 0.86454,5.877849 1.018719,5.610804 1.90983,4.067369 2.11616,3.838214 3.30869,2.513769 3.558157,2.332522 5,1.284969 5.281698,1.159549 6.909829,0.434659 7.151174,0.383359 8.954709,0" style="fill: white" />
  </g>
  <g id="layer6" slic3r:z="1.725">
    <polygon slic3r:type="contour" points="11.04529,0 11.398031,0.074978 13.090169,0.434658 13.419615,0.581338 14.999999,1.284969 15.29175,1.496937 16.691311,2.51377 16.932613,2.781765 18.090169,4.067369 18.270481,4.379676 19.135459,5.877849 19.246898,6.220823 19.781478,7.8661 19.823869,8.269432 20,9.94522 19.81338,11.720806 19.781477,12.02434 19.246897,13.669616 19.13546,14.012589 18.270481,15.510763 18.09017,15.82307 16.932613,17.108674 16.691311,17.376669 15.291751,18.393499 14.999999,18.605468 13.419614,19.309101 13.090169,19.45578 11.398031,19.81546 11.045289,19.89044 8.95471,19.89044 7.26257,19.530757 6.90983,19.45578 5.329444,18.752145 4.999999,18.605467 3.600439,17.588636 3.30869,17.37667 2.151133,16.091066 1.90983,15.82307 1.044851,14.324896 0.86454,14.01259 0.329957,12.367312 0.21852,12.02434 0.037693,10.303867 0,9.945219 0.037693,9.586571 0.21852,7.8661 0.329957,7.523127 0.86454,5.87785 1.044851,5.565542 1.90983,4.067369 2.151132,3.799374 3.308689,2.51377 3.600439,2.301802 5,1.28497 5.329445,1.13829 6.909829,0.434659 7.262571,0.35968 8.954709,0" style="fill: white" />
  </g>
  <g id="layer7" slic3r:z="1.975">
    <polygon slic3r:type="contour" points="11.045289,0 11.449152,0.085844 13.09017,0.434659 13.46736,0.602595 15,1.28497 15.334032,1.527657 16.691311,2.51377 16.967584,2.820605 18.09017,4.06737 18.296613,4.424938 19.13546,5.87785 19.263047,6.270528 19.781478,7.866099 19.824635,8.276725 20,9.945219 19.824635,11.613713 19.781477,12.02434 19.263047,13.61991 19.13546,14.012589 18.296613,15.465501 18.09017,15.82307 16.967584,17.069834 16.691311,17.376669 15.334033,18.362779 15,18.605467 13.537557,19.256589 13.09017,19.455779 11.449152,19.804594 11.04529,19.89044 8.95471,19.89044 7.313692,19.541624 6.909829,19.45578 5.377191,18.773404 5,18.605468 3.642722,17.619356 3.30869,17.37667 2.186103,16.129905 1.90983,15.823071 1.070984,14.370159 0.864539,14.012589 0.334905,12.382538 0.218519,12.024339 0.043156,10.355845 0,9.94522 0.043156,9.534593 0.21852,7.8661 0.334905,7.507901 0.864539,5.87785 1.070983,5.52028 1.90983,4.06737 2.186103,3.760534 3.30869,2.51377 3.642722,2.271082 5,1.284969 5.37719,1.117033 6.909829,0.434659 7.313692,0.348814 8.95471,0" style="fill: white" />
  </g>
  <g id="layer8" slic3r:z="2.225">
    <polygon slic3r:type="contour" points="11.045289,0 11.500275,0.096711 13.090169,0.434659 13.515106,0.623852 15,1.28497 15.376315,1.558377 16.691311,2.51377 17.002556,2.859445 18.090169,4.067369 18.322746,4.4702 19.13546,5.87785 19.279198,6.320234 19.781478,7.8661 19.830098,8.328703 20,9.945219 19.834795,11.51705 19.781478,12.02434 19.257975,13.635523 19.135459,14.01259 18.322746,15.420238 18.09017,15.82307 17.002556,17.030994 16.69131,17.37667 15.376316,18.332059 15,18.605468 13.515106,19.266585 13.090169,19.45578 11.500274,19.793728 11.04529,19.89044 8.95471,19.89044 7.364814,19.55249 6.909829,19.45578 5.424937,18.794662 5,18.605468 3.685005,17.650076 3.30869,17.37667 2.221075,16.168745 1.90983,15.82307 1.097116,14.415421 0.864539,14.012589 0.362258,12.466724 0.21852,12.02434 0.048619,10.407823 0,9.94522 0.048619,9.482615 0.21852,7.8661 0.362258,7.423714 0.864539,5.87785 1.097117,5.475017 1.90983,4.067369 2.221075,3.721694 3.30869,2.51377 3.685005,2.240362 5,1.28497 5.424937,1.095775 6.909829,0.434659 7.364815,0.337947 8.954709,0" style="fill: white" />
  </g>
  <g id="layer9" slic3r:z="2.475">
    <polygon slic3r:type="contour" points="11.04529,0 11.611671,0.12039 13.09017,0.434659 13.562851,0.64511 15,1.28497 15.453078,1.614148 16.691311,2.51377 17.037527,2.898285 18.09017,4.06737 18.348878,4.515462 19.135459,5.87785 19.295348,6.36994 19.781478,7.8661 19.840258,8.425366 20,9.94522 19.835561,11.509757 19.781477,12.02434 19.295348,13.520498 19.13546,14.01259 18.348878,15.374976 18.090169,15.823071 17.037528,16.992153 16.69131,17.37667 15.418598,18.30134 15,18.605468 13.562852,19.245326 13.09017,19.45578 11.611671,19.770048 11.04529,19.89044 8.954709,19.89044 7.415936,19.563357 6.90983,19.45578 5.472681,18.815919 4.999999,18.605468 3.727288,17.680796 3.30869,17.37667 2.256046,16.207585 1.90983,15.823071 1.123248,14.460683 0.86454,14.01259 0.399633,12.58175 0.21852,12.02434 0.054082,10.459801 0,9.945219 0.054082,9.430637 0.21852,7.866099 0.399633,7.308688 0.86454,5.87785 1.123248,5.429756 1.90983,4.06737 2.256046,3.682854 3.30869,2.513769 3.727288,2.209642 5,1.284969 5.472681,1.074518 6.90983,0.434658 7.415936,0.327081 8.95471,0" style="fill: white" />
  </g>
  <g id="layer10" slic3r:z="2.725">
    <polygon slic3r:type="contour" points="11.045289,0 11.602519,0.118444 13.09017,0.434659 13.680794,0.697622 15,1.28497 15.460882,1.619818 16.69131,2.513769 17.072499,2.937125 18.09017,4.06737 18.37501,4.560724 19.13546,5.877849 19.311498,6.419647 19.781478,7.866099 19.841024,8.432659 20,9.94522 19.841024,11.457779 19.781477,12.02434 19.311498,13.470791 19.135459,14.01259 18.37501,15.329714 18.09017,15.823071 17.072499,16.953314 16.691311,17.376669 15.460881,18.27062 15,18.605468 13.610598,19.224068 13.090169,19.45578 11.602518,19.771995 11.04529,19.89044 8.95471,19.89044 7.467058,19.574223 6.909829,19.45578 5.520427,18.837177 5,18.605468 3.76957,17.711516 3.30869,17.37667 2.291018,16.246425 1.909829,15.82307 1.149381,14.505946 0.86454,14.012589 0.394559,12.566137 0.21852,12.02434 0.059545,10.511779 0,9.94522 0.059545,9.378659 0.21852,7.8661 0.394559,7.324302 0.86454,5.87785 1.14938,5.384494 1.90983,4.06737 2.291018,3.644014 3.308689,2.51377 3.769571,2.178921 5,1.284969 5.520427,1.05326 6.90983,0.434659 7.467059,0.316214 8.95471,0" style="fill: white" />
  </g>
  <g id="layer11" slic3r:z="2.975">
    <polygon slic3r:type="contour" points="11.04529,0 11.65364,0.12931 13.090169,0.434659 13.658344,0.687627 15,1.28497 15.503164,1.650537 16.69131,2.51377 17.075785,2.940775 18.090169,4.067369 18.401143,4.605987 19.135459,5.877849 19.306426,6.404034 19.781478,7.8661 19.846487,8.484637 20,9.94522 19.846487,11.405801 19.781478,12.024339 19.327649,13.421085 19.13546,14.01259 18.401142,15.284452 18.09017,15.823071 17.10747,16.914474 16.691311,17.37667 15.503164,18.2399 15,18.605467 13.658343,19.202812 13.090169,19.45578 11.65364,19.761128 11.04529,19.89044 8.95471,19.89044 7.51818,19.58509 6.90983,19.45578 5.568174,18.858435 5,18.605468 3.811853,17.742236 3.30869,17.37667 2.325989,16.285265 1.909829,15.82307 1.175513,14.551208 0.86454,14.01259 0.41071,12.615843 0.21852,12.024339 0.065009,10.563758 0,9.945219 0.065008,9.326681 0.218519,7.8661 0.41071,7.274595 0.86454,5.87785 1.175513,5.339231 1.909829,4.06737 2.325989,3.605174 3.30869,2.513769 3.811853,2.148202 4.999999,1.28497 5.568174,1.032001 6.90983,0.434659 7.51818,0.305348 8.95471,0" style="fill: white" />
  </g>
  <g id="layer12" slic3r:z="3.225">
    <polygon slic3r:type="contour" points="11.04529,0 11.704762,0.140176 13.09017,0.434659 13.706089,0.708884 14.999999,1.284969 15.524877,1.666313 16.691311,2.51377 17.142442,3.014805 18.09017,4.06737 18.427275,4.651248 19.13546,5.877849 19.355003,6.55354 19.781478,7.8661 19.85195,8.536615 20,9.945219 19.85195,11.353823 19.781478,12.02434 19.343799,13.371379 19.13546,14.01259 18.427276,15.239189 18.090169,15.823071 17.142442,16.875634 16.691311,17.37667 15.524877,18.224124 14.999999,18.605468 13.706089,19.181554 13.09017,19.45578 11.704762,19.750262 11.045289,19.89044 8.954709,19.89044 7.569303,19.595957 6.90983,19.45578 5.645523,18.892873 5,18.605468 3.854136,17.772956 3.30869,17.37667 2.360961,16.324105 1.90983,15.823071 1.244861,14.67132 0.86454,14.01259 0.42686,12.665549 0.21852,12.02434 0.070471,10.615735 0,9.945219 0.070471,9.274703 0.218519,7.8661 0.42686,7.224889 0.86454,5.877849 1.201645,5.29397 1.90983,4.067369 2.360961,3.566334 3.30869,2.51377 3.854137,2.117481 5,1.284969 5.615919,1.010745 6.909829,0.434659 7.569302,0.294482 8.95471,0" style="fill: white" />
  </g>
  <g id="layer13" slic3r:z="3.475">
    <polygon slic3r:type="contour" points="11.04529,0 11.755884,0.151043 13.09017,0.434659 13.824031,0.761395 15,1.28497 15.587729,1.711977 16.69131,2.513769 17.177413,3.053645 18.09017,4.06737 18.453407,4.69651 19.135459,5.877849 19.35995,6.568766 19.781478,7.8661 19.857413,8.588593 20,9.94522 19.857413,11.301845 19.781478,12.02434 19.35995,13.321673 19.135459,14.01259 18.453407,15.193928 18.09017,15.823071 17.177413,16.836794 16.69131,17.37667 15.587729,18.17846 15,18.605467 13.824031,19.129042 13.09017,19.455779 11.755884,19.739395 11.045289,19.89044 8.95471,19.89044 7.620424,19.606823 6.909829,19.45578 5.663664,18.90095 5,18.605468 3.896419,17.803676 3.30869,17.37667 2.395932,16.362945 1.90983,15.82307 1.227777,14.641731 0.86454,14.01259 0.443011,12.715255 0.21852,12.024339 0.075934,10.667713 0,9.94522 0.075934,9.222725 0.21852,7.8661 0.443012,7.175182 0.86454,5.877849 1.227777,5.248708 1.90983,4.06737 2.395932,3.527494 3.30869,2.513769 3.896419,2.086762 4.999999,1.28497 5.663664,0.989487 6.90983,0.434659 7.620424,0.283615 8.95471,0" style="fill: white" />
  </g>
  <g id="layer14" slic3r:z="3.725">
    <polygon slic3r:type="contour" points="11.045289,0 11.807007,0.16191 13.090169,0.434658 13.80158,0.751399 15,1.28497 15.630012,1.742697 16.69131,2.51377 17.137391,3.009196 18.09017,4.06737 18.479539,4.741772 19.135459,5.877849 19.3761,6.618472 19.781478,7.8661 19.862876,8.640571 20,9.945219 19.867573,11.205182 19.781478,12.024339 19.3761,13.271966 19.13546,14.01259 18.479539,15.148666 18.09017,15.82307 17.212384,16.797954 16.69131,17.37667 15.630012,18.14774 15,18.605467 13.80158,19.139038 13.090169,19.45578 11.807006,19.728529 11.04529,19.89044 8.95471,19.89044 7.671546,19.617689 6.909829,19.455779 5.711411,18.922209 4.999999,18.605468 3.938702,17.834397 3.308689,17.376669 2.430904,16.401785 1.90983,15.82307 1.253909,14.686993 0.864539,14.01259 0.459161,12.764962 0.21852,12.02434 0.081397,10.719691 0,9.94522 0.081398,9.170746 0.218519,7.8661 0.459161,7.125477 0.864539,5.87785 1.253909,5.203446 1.90983,4.06737 2.430904,3.488654 3.308689,2.51377 3.938702,2.056041 4.999999,1.28497 5.71141,0.968229 6.909829,0.434659 7.671547,0.272748 8.95471,0" style="fill: white" />
  </g>
  <g id="layer15" slic3r:z="3.975">
    <polygon slic3r:type="contour" points="11.04529,0 11.858128,0.172776 13.090169,0.434658 13.849326,0.772657 15,1.28497 15.625028,1.739076 16.69131,2.513769 17.247356,3.131325 18.09017,4.06737 18.505671,4.787034 19.13546,5.87785 19.392251,6.668178 19.781478,7.866099 19.868339,8.692549 20,9.94522 19.868339,11.197889 19.781478,12.024339 19.392251,13.22226 19.135459,14.01259 18.462456,15.178254 18.462457,15.178254 18.09017,15.823071 17.247356,16.759114 16.691311,17.37667 15.672295,18.11702 15,18.605468 13.849326,19.11778 13.090169,19.45578 11.858129,19.717661 11.04529,19.89044 8.95471,19.89044 7.762194,19.636958 6.90983,19.45578 5.759156,18.943466 4.999999,18.605467 3.980984,17.865116 3.308689,17.376669 2.465875,16.440625 1.90983,15.823071 1.280041,14.732255 0.86454,14.01259 0.475312,12.814668 0.21852,12.02434 0.08686,10.771669 0,9.94522 0.086861,9.118768 0.218519,7.8661 0.475312,7.07577 0.86454,5.877849 1.280041,5.158184 1.909829,4.06737 2.465875,3.449814 3.30869,2.513769 3.980985,2.025321 4.999999,1.28497 5.759156,0.946971 6.90983,0.434659 7.722668,0.261882 8.954709,0" style="fill: white" />
  </g>
  <g id="layer16" slic3r:z="4.225">
    <polygon slic3r:type="contour" points="11.04529,0 11.90925,0.183642 13.09017,0.434659 13.897073,0.793916 15,1.28497 15.714577,1.804137 16.69131,2.513769 17.282327,3.170165 18.09017,4.06737 18.531804,4.832296 19.13546,5.87785 19.408401,6.717884 19.781478,7.8661 19.873802,8.744527 20,9.945219 19.878499,11.101226 19.781478,12.024339 19.408401,13.172554 19.13546,14.012589 18.531804,15.058142 18.090169,15.823071 17.282327,16.720274 16.691311,17.37667 15.714577,18.0863 15,18.605467 13.897072,19.096523 13.09017,19.455779 11.90925,19.706796 11.045289,19.89044 8.954709,19.89044 7.773791,19.639423 6.90983,19.455779 5.806902,18.964723 5,18.605468 4.023267,17.895836 3.30869,17.37667 2.500847,16.479465 1.90983,15.823071 1.306174,14.777517 0.86454,14.012589 0.491462,12.864374 0.218519,12.024339 0.092324,10.823648 0,9.94522 0.092324,9.066791 0.21852,7.8661 0.491462,7.026064 0.864539,5.87785 1.306174,5.112922 1.90983,4.067369 2.500847,3.410974 3.30869,2.513769 4.023267,1.994602 5,1.28497 5.836506,0.912533 6.90983,0.434659 7.77379,0.251016 8.95471,0" style="fill: white" />
  </g>
  <g id="layer17" slic3r:z="4.475">
    <polygon slic3r:type="contour" points="11.045289,0 11.960373,0.19451 13.09017,0.434659 13.944817,0.815172 15,1.28497 15.75686,1.834857 16.691311,2.51377 17.317299,3.209005 18.09017,4.06737 18.557936,4.877558 19.13546,5.87785 19.403329,6.702272 19.781478,7.866099 19.879265,8.796505 20,9.945219 19.873473,11.149048 19.781478,12.02434 19.403329,13.188167 19.13546,14.012589 18.572341,14.98793 18.09017,15.82307 17.317299,16.681434 16.691311,17.37667 15.709593,18.089921 15,18.605467 14.015014,19.044011 13.09017,19.45578 11.960373,19.695928 11.04529,19.89044 8.954709,19.89044 7.764638,19.637477 6.909829,19.455779 5.854648,18.985982 4.999999,18.605467 4.065551,17.926557 3.30869,17.376669 2.535818,16.518305 1.90983,15.823071 1.332306,14.822779 0.864539,14.012589 0.49641,12.8796 0.218519,12.024339 0.097787,10.875626 0,9.94522 0.097787,9.014813 0.21852,7.8661 0.507614,6.976357 0.86454,5.87785 1.332306,5.06766 1.90983,4.067369 2.535818,3.372134 3.30869,2.513769 4.06555,1.963882 5,1.28497 5.854647,0.904456 6.90983,0.434659 7.824913,0.240148 8.95471,0" style="fill: white" />
  </g>
  <g id="layer18" slic3r:z="4.725">
    <polygon slic3r:type="contour" points="11.04529,0 12.011494,0.205375 13.090169,0.434658 13.992564,0.836431 14.999999,1.28497 15.799144,1.865578 16.69131,2.513769 17.35227,3.247845 18.09017,4.06737 18.584068,4.92282 19.13546,5.877849 19.440702,6.817297 19.781477,7.866099 19.878936,8.793368 20,9.945219 19.884728,11.041955 19.781478,12.02434 19.440703,13.07314 19.13546,14.01259 18.584068,14.967618 18.09017,15.823071 17.35227,16.642594 16.691311,17.37667 15.799143,18.02486 14.999999,18.605468 13.992564,19.054006 13.090169,19.45578 12.011495,19.685062 11.045289,19.89044 8.95471,19.89044 7.876034,19.661155 6.90983,19.45578 5.902393,19.007239 4.999999,18.605467 4.107832,17.957276 3.308689,17.376669 2.57079,16.557145 1.90983,15.823071 1.358439,14.868042 0.864539,14.012589 0.523764,12.963788 0.21852,12.02434 0.103249,10.927603 0,9.94522 0.103249,8.962836 0.21852,7.8661 0.523764,6.926651 0.864539,5.87785 1.358438,5.022398 1.90983,4.067369 2.57079,3.333294 3.30869,2.513769 4.107832,1.933162 4.999999,1.28497 5.902394,0.883197 6.909829,0.434659 7.876035,0.229282 8.95471,0" style="fill: white" />
  </g>
  <g id="layer19" slic3r:z="4.975">
    <polygon slic3r:type="contour" points="11.04529,0 12.062616,0.216242 13.09017,0.434659 14.040309,0.857688 14.999999,1.284969 15.841426,1.896297 16.69131,2.51377 17.355557,3.251495 18.090169,4.067369 18.6102,4.968082 19.135459,5.87785 19.456852,6.867003 19.781478,7.8661 19.890191,8.900461 20,9.94522 19.884399,11.045092 19.781478,12.02434 19.456853,13.023434 19.135459,14.01259 18.6102,14.922356 18.09017,15.82307 17.355557,16.638944 16.691311,17.376669 15.841427,17.994139 14.999999,18.605468 14.04031,19.032748 13.09017,19.455779 12.122891,19.661384 12.122891,19.661383 11.04529,19.89044 8.95471,19.89044 7.927156,19.672022 6.90983,19.45578 5.950139,19.028497 5,18.605468 4.150115,17.987996 3.30869,17.37667 2.605761,16.595985 1.90983,15.823071 1.38457,14.913303 0.86454,14.01259 0.539914,13.013493 0.218519,12.024339 0.108712,10.979581 0,9.94522 0.108712,8.910858 0.21852,7.8661 0.539914,6.876945 0.864539,5.87785 1.384571,4.977135 1.909829,4.06737 2.605761,3.294454 3.30869,2.513769 4.150115,1.902442 5,1.284969 5.950139,0.86194 6.909829,0.434659 7.927156,0.218416 8.95471,0" style="fill: white" />
  </g>
  <g id="layer20" slic3r:z="5.225">
    <polygon slic3r:type="contour" points="11.04529,0 12.113738,0.227108 13.09017,0.434659 14.088055,0.878946 15,1.284969 15.883708,1.927017 16.69131,2.513769 17.422213,3.325525 18.090169,4.067369 18.636333,5.013344 19.13546,5.87785 19.473003,6.916709 19.781477,7.866099 19.895654,8.952439 20,9.94522 19.895654,10.937999 19.781477,12.02434 19.473003,12.973729 19.13546,14.012589 18.636333,14.877094 18.09017,15.82307 17.422213,16.564914 16.69131,17.37667 15.883708,17.963421 14.999999,18.605468 14.058452,19.024671 13.090169,19.45578 12.113738,19.66333 11.04529,19.89044 8.954709,19.89044 7.978278,19.682888 6.90983,19.45578 5.997885,19.049755 4.999999,18.605468 4.192398,18.018715 3.30869,17.37667 2.640734,16.634826 1.909829,15.82307 1.410703,14.958565 0.864539,14.012589 0.556064,13.063199 0.21852,12.02434 0.114176,11.03156 0,9.94522 0.114176,8.858879 0.218519,7.8661 0.556064,6.827239 0.86454,5.87785 1.410703,4.931874 1.90983,4.067369 2.640733,3.255614 3.30869,2.513769 4.192398,1.871722 4.999999,1.28497 5.997886,0.840682 6.90983,0.434659 7.978278,0.20755 8.95471,0" style="fill: white" />
  </g>
  <g id="layer21" slic3r:z="5.475">
    <polygon slic3r:type="contour" points="11.04529,0 12.164861,0.237976 13.090169,0.434658 14.106197,0.887023 14.999999,1.284969 16.005222,2.015301 16.691311,2.51377 17.457185,3.364365 18.09017,4.06737 18.662465,5.058606 19.13546,5.87785 19.489153,6.966416 19.781477,7.866099 19.901117,9.004417 20,9.94522 19.901117,10.886021 19.781478,12.02434 19.489153,12.924023 19.13546,14.012589 18.662465,14.831832 18.09017,15.823071 17.457185,16.526074 16.691311,17.37667 15.925991,17.932701 15,18.605467 14.106197,19.003414 13.090169,19.45578 12.16486,19.652463 11.04529,19.89044 8.954709,19.89044 8.029401,19.693756 6.909829,19.455779 5.975434,19.039759 4.999999,18.605467 4.234682,18.049436 3.308689,17.37667 2.675705,16.673666 1.90983,15.823071 1.436835,15.003827 0.86454,14.01259 0.572215,13.112905 0.21852,12.024339 0.119638,11.083537 0,9.94522 0.119638,8.806902 0.21852,7.8661 0.561012,6.812013 0.86454,5.87785 1.436835,4.886612 1.90983,4.06737 2.675704,3.216774 3.308689,2.51377 4.234681,1.841002 4.999999,1.28497 6.045631,0.819424 6.909829,0.434659 8.029401,0.196682 8.954709,0" style="fill: white" />
  </g>
  <g id="layer22" slic3r:z="5.725">
    <polygon slic3r:type="contour" points="11.04529,0 12.215982,0.248841 13.09017,0.434659 14.183546,0.921461 14.999999,1.284969 15.968274,1.988457 16.691311,2.51377 17.492156,3.403205 18.090169,4.067369 18.645382,5.029018 19.135459,5.877849 19.505304,7.016122 19.781478,7.8661 19.90658,9.056395 20,9.94522 19.90658,10.834043 19.781478,12.02434 19.505304,12.874316 19.13546,14.012589 18.688597,14.78657 18.090169,15.823071 17.492156,16.487234 16.691311,17.37667 15.968275,17.90198 14.999999,18.605468 14.183546,18.968976 13.09017,19.45578 12.215982,19.641597 11.04529,19.89044 8.954709,19.89044 8.080523,19.704622 6.90983,19.45578 6.093376,19.09227 5,18.605468 4.276963,18.080155 3.308689,17.376669 2.710676,16.712505 1.909829,15.82307 1.462967,15.049089 0.86454,14.01259 0.588366,13.162613 0.218519,12.024339 0.125101,11.135515 0,9.94522 0.125101,8.754924 0.218519,7.8661 0.588366,6.727826 0.86454,5.877849 1.462967,4.84135 1.90983,4.06737 2.710677,3.177933 3.308689,2.51377 4.276963,1.810282 5,1.284969 6.093376,0.798167 6.90983,0.434659 8.080522,0.185817 8.95471,0" style="fill: white" />
  </g>
  <g id="layer23" slic3r:z="5.975">
    <polygon slic3r:type="contour" points="11.045289,0 12.267104,0.259708 13.09017,0.434659 14.231292,0.942719 14.999999,1.284969 16.010557,2.019177 16.691311,2.51377 17.527128,3.442045 18.090169,4.067369 18.714729,5.14913 19.13546,5.87785 19.521454,7.065828 19.781478,7.866099 19.912043,9.108373 20,9.94522 19.906251,10.83718 19.781477,12.02434 19.521454,12.82461 19.135459,14.01259 18.714729,14.741308 18.09017,15.82307 17.527128,16.448394 16.691311,17.376669 16.010557,17.871261 15,18.605468 14.231293,18.947717 13.09017,19.455779 12.327379,19.617918 12.327379,19.617917 11.04529,19.89044 8.954709,19.89044 8.07137,19.702676 6.90983,19.455779 6.141122,19.113528 5,18.605468 4.319246,18.110875 3.308689,17.376669 2.745647,16.751345 1.90983,15.823071 1.489099,15.094351 0.86454,14.01259 0.604516,13.212318 0.21852,12.02434 0.130564,11.187493 0,9.94522 0.130564,8.702946 0.21852,7.8661 0.604517,6.678119 0.86454,5.877849 1.489099,4.796088 1.90983,4.06737 2.745647,3.139094 3.30869,2.51377 4.319246,1.779562 5,1.284969 6.141122,0.776909 6.909829,0.434659 8.131644,0.17495 8.95471,0" style="fill: white" />
  </g>
  <g id="layer24" slic3r:z="6.225">
    <polygon slic3r:type="contour" points="11.045289,0 12.318227,0.270575 13.090169,0.434658 14.279038,0.963977 14.999999,1.28497 16.05284,2.049897 16.691311,2.51377 17.562099,3.480885 18.090169,4.067369 18.740862,5.194392 19.13546,5.877849 19.537605,7.115534 19.781478,7.8661 19.922203,9.205036 20,9.945219 19.922203,10.685402 19.781478,12.024339 19.548809,12.740423 19.13546,14.01259 18.697647,14.770896 18.090169,15.823071 17.5621,16.409553 16.69131,17.37667 16.05284,17.840541 15,18.605467 14.279038,18.92646 13.09017,19.45578 12.318227,19.619863 11.04529,19.89044 8.954709,19.89044 8.182767,19.726355 6.90983,19.455779 6.188868,19.134786 5,18.605468 4.361529,18.141595 3.308689,17.376669 2.78062,16.790186 1.909829,15.82307 1.515232,15.139613 0.86454,14.01259 0.620666,13.262024 0.21852,12.02434 0.136027,11.239471 0,9.94522 0.136027,8.650968 0.21852,7.866099 0.620666,6.628414 0.864539,5.87785 1.515232,4.750826 1.909829,4.06737 2.780619,3.100254 3.30869,2.513769 4.361529,1.748842 4.999999,1.28497 6.188869,0.755651 6.90983,0.434659 8.182767,0.164083 8.95471,0" style="fill: white" />
  </g>
  <g id="layer25" slic3r:z="6.475">
    <polygon slic3r:type="contour" points="11.04529,0 12.429623,0.294254 12.429623,0.294253 13.090169,0.434659 14.29718,0.972054 14.999999,1.284969 16.095123,2.080618 16.691311,2.51377 17.597071,3.519725 18.090169,4.067369 18.766994,5.239654 19.135459,5.877849 19.553755,7.165241 19.781478,7.8661 19.922969,9.212329 20,9.94522 19.922969,10.678109 19.781478,12.024339 19.553755,12.725198 19.135459,14.01259 18.766994,14.650784 18.09017,15.823071 17.597071,16.370714 16.691311,17.376669 16.095122,17.809821 14.999999,18.605468 14.29718,18.918382 13.09017,19.455779 12.369348,19.608997 11.045289,19.89044 8.95471,19.89044 8.273414,19.745623 6.909829,19.45578 6.236614,19.156045 5,18.605468 4.45108,18.206657 3.30869,17.37667 2.81559,16.829025 1.909829,15.82307 1.541364,15.184875 0.864539,14.012589 0.636817,13.31173 0.218519,12.024339 0.14149,11.291449 0,9.94522 0.14149,8.59899 0.21852,7.8661 0.636818,6.578707 0.86454,5.877849 1.541364,4.705564 1.90983,4.067369 2.81559,3.061414 3.30869,2.51377 4.403812,1.718122 5,1.284969 6.236613,0.734394 6.909829,0.434659 8.233888,0.153217 8.95471,0" style="fill: white" />
  </g>
  <g id="layer26" slic3r:z="6.725">
    <polygon slic3r:type="contour" points="11.04529,0 12.42047,0.292307 13.090169,0.434659 14.374529,1.006492 15,1.28497 16.137406,2.111338 16.69131,2.513769 17.632043,3.558566 18.09017,4.067369 18.793126,5.284916 19.13546,5.87785 19.569906,7.214947 19.781478,7.866099 19.928433,9.264307 20,9.94522 19.922641,10.681246 19.781477,12.02434 19.569906,12.675491 19.13546,14.01259 18.793126,14.605522 18.09017,15.823071 17.632043,16.331873 16.69131,17.37667 16.137405,17.779101 15,18.605467 14.374529,18.883945 13.09017,19.45578 12.480745,19.585318 11.04529,19.89044 8.95471,19.89044 8.324535,19.756489 6.90983,19.45578 6.28436,19.177302 4.999999,18.605467 4.446094,18.203035 3.308689,17.376669 2.850563,16.867866 1.909829,15.82307 1.567496,15.230137 0.86454,14.01259 0.652967,13.361437 0.21852,12.02434 0.146953,11.343427 0,9.94522 0.146953,8.547012 0.21852,7.866099 0.652967,6.529002 0.86454,5.877849 1.567496,4.660302 1.90983,4.06737 2.850563,3.022573 3.308689,2.51377 4.446095,1.687401 4.999999,1.28497 6.284359,0.713136 6.90983,0.434658 8.28501,0.142351 8.95471,0" style="fill: white" />
  </g>
  <g id="layer27" slic3r:z="6.975">
    <polygon slic3r:type="contour" points="11.04529,0 12.432067,0.294773 13.09017,0.434659 14.422275,1.02775 14.999999,1.284969 16.179688,2.142057 16.691311,2.51377 17.667015,3.597406 18.09017,4.06737 18.819258,5.330178 19.135459,5.877849 19.564833,7.199334 19.781478,7.866099 19.933896,9.316285 20,9.945219 19.933896,10.574153 19.781478,12.02434 19.586056,12.625785 19.13546,14.01259 18.819258,14.56026 18.09017,15.82307 17.667014,16.293034 16.691311,17.376669 16.179689,17.74838 14.999999,18.605468 14.392672,18.875867 13.090169,19.45578 12.432067,19.595665 11.045289,19.89044 8.95471,19.89044 8.336132,19.758954 6.909829,19.455779 6.332106,19.19856 5,18.605468 4.488377,18.233755 3.308689,17.376669 2.885533,16.906705 1.90983,15.823071 1.593629,15.2754 0.864539,14.012589 0.669119,13.411144 0.21852,12.024339 0.152416,11.395405 0,9.94522 0.152416,8.495034 0.21852,7.8661 0.669118,6.479295 0.864539,5.87785 1.593629,4.615039 1.90983,4.067369 2.885533,2.983734 3.30869,2.513769 4.488377,1.656682 5,1.284969 6.332105,0.691878 6.909829,0.434659 8.336133,0.131483 8.954709,0" style="fill: white" />
  </g>
  <g id="layer28" slic3r:z="7.225">
    <polygon slic3r:type="contour" points="11.04529,0 12.522714,0.31404 13.09017,0.434659 14.470021,1.049008 15,1.28497 16.221971,2.172777 16.69131,2.513769 17.701985,3.636245 18.09017,4.06737 18.845391,5.37544 19.135459,5.877849 19.602207,7.314359 19.781478,7.8661 19.933567,9.313148 20,9.94522 19.933567,10.57729 19.781477,12.02434 19.602207,12.576079 19.13546,14.01259 18.845391,14.514998 18.09017,15.82307 17.701985,16.254194 16.691311,17.37667 16.301202,17.660097 15,18.605468 14.470022,18.841428 13.090169,19.45578 12.522714,19.576398 11.04529,19.89044 8.954709,19.89044 8.387254,19.76982 6.90983,19.45578 6.379851,19.219817 5,18.605468 4.53066,18.264475 3.30869,17.37667 2.920505,16.945545 1.909829,15.82307 1.619761,15.320661 0.86454,14.01259 0.685268,13.460849 0.218519,12.024339 0.157879,11.447383 0,9.94522 0.157879,8.443056 0.21852,7.8661 0.685268,6.429589 0.86454,5.87785 1.619761,4.569778 1.90983,4.06737 2.920505,2.944894 3.30869,2.51377 4.530661,1.625961 5,1.28497 6.379852,0.67062 6.90983,0.434658 8.387254,0.120618 8.954709,0" style="fill: white" />
  </g>
  <g id="layer29" slic3r:z="7.475">
    <polygon slic3r:type="contour" points="11.04529,0 12.573836,0.324907 13.09017,0.434659 14.517766,1.070265 14.999999,1.284969 16.264253,2.203497 16.691311,2.51377 17.736957,3.675085 18.090169,4.067369 18.871524,5.420703 19.13546,5.87785 19.618357,7.364066 19.781477,7.866099 19.944822,9.420241 20,9.945219 19.944822,10.470197 19.781477,12.02434 19.618357,12.526373 19.13546,14.012589 18.871523,14.469736 18.09017,15.82307 17.736957,16.215354 16.69131,17.37667 16.264253,17.686941 15,18.605467 14.517766,18.820171 13.09017,19.45578 12.573836,19.565531 11.04529,19.89044 8.95471,19.89044 8.477902,19.789089 6.90983,19.45578 6.427597,19.241076 4.999999,18.605467 4.572943,18.295195 3.308689,17.376669 2.955477,16.984386 1.909829,15.82307 1.645893,15.365923 0.86454,14.01259 0.701419,13.510555 0.21852,12.02434 0.163342,11.499361 0,9.94522 0.163342,8.391078 0.21852,7.8661 0.70142,6.379882 0.86454,5.87785 1.645893,4.524516 1.90983,4.06737 2.955477,2.906053 3.308689,2.51377 4.572943,1.595242 5,1.284969 6.427597,0.649362 6.90983,0.434659 8.438376,0.109751 8.95471,0" style="fill: white" />
  </g>
  <g id="layer30" slic3r:z="7.725">
    <polygon slic3r:type="contour" points="11.045289,0 12.624959,0.335774 13.090169,0.434658 14.565513,1.091524 14.999999,1.284969 16.306537,2.234218 16.691311,2.51377 17.771928,3.713925 18.09017,4.06737 18.897655,5.465964 19.135459,5.877849 19.634507,7.413772 19.781478,7.8661 19.950285,9.472219 20,9.94522 19.950285,10.418219 19.781477,12.02434 19.634507,12.476666 19.13546,14.01259 18.897655,14.424474 18.09017,15.823071 17.771928,16.176514 16.691311,17.37667 16.385767,17.598657 15,18.605467 14.565512,18.798913 13.090169,19.45578 12.624958,19.554665 11.04529,19.89044 8.95471,19.89044 8.489498,19.791553 6.909829,19.455779 6.475342,19.262333 5,18.605468 4.615225,18.325915 3.30869,17.37667 2.990448,17.023225 1.90983,15.823071 1.672025,15.411185 0.86454,14.01259 0.717569,13.560262 0.21852,12.024339 0.168805,11.551339 0,9.94522 0.168805,8.3391 0.21852,7.866099 0.717569,6.330176 0.86454,5.877849 1.672025,4.479254 1.909829,4.06737 2.990448,2.867214 3.30869,2.513769 4.615225,1.564522 5,1.284969 6.475342,0.628105 6.909829,0.434659 8.489499,0.098884 8.954709,0" style="fill: white" />
  </g>
  <g id="layer31" slic3r:z="7.975">
    <polygon slic3r:type="contour" points="11.04529,0 12.676081,0.346641 13.090169,0.434658 14.683455,1.144035 15,1.28497 16.383299,2.289988 16.691311,2.51377 17.806901,3.752766 18.090169,4.067369 18.923787,5.511226 19.13546,5.877849 19.650658,7.463478 19.781478,7.8661 19.955748,9.524197 20,9.94522 19.949956,10.421356 19.781478,12.024339 19.650658,12.42696 19.135459,14.01259 18.923787,14.379212 18.09017,15.82307 17.8069,16.137674 16.691311,17.376669 16.348819,17.625501 15,18.605467 14.613258,18.777656 13.090169,19.45578 12.67608,19.543798 11.04529,19.89044 8.954709,19.89044 8.54062,19.80242 6.90983,19.45578 6.523088,19.28359 5,18.605468 4.657508,18.356635 3.30869,17.37667 3.025419,17.062065 1.90983,15.823071 1.698157,15.456447 0.86454,14.01259 0.73372,13.609968 0.218519,12.024339 0.174268,11.603317 0,9.94522 0.174268,8.287122 0.218519,7.8661 0.73372,6.28047 0.86454,5.877849 1.698157,4.433992 1.90983,4.06737 3.025419,2.828374 3.30869,2.513769 4.657508,1.533802 5,1.284969 6.523088,0.606847 6.90983,0.434658 8.540621,0.088017 8.954709,0" style="fill: white" />
  </g>
  <g id="layer32" slic3r:z="8.225">
    <polygon slic3r:type="contour" points="11.045289,0 12.727202,0.357506 13.09017,0.434659 14.661004,1.134039 14.999999,1.284969 16.391103,2.295658 16.691311,2.51377 17.841871,3.791605 18.09017,4.06737 18.94992,5.556488 19.13546,5.87785 19.666808,7.513185 19.781478,7.866099 19.961211,9.576175 20,9.94522 19.961211,10.314263 19.781478,12.024339 19.666808,12.377254 19.13546,14.012589 18.94992,14.33395 18.09017,15.82307 17.841871,16.098834 16.691311,17.376669 16.470333,17.537217 15,18.605468 14.661004,18.756398 13.090169,19.45578 12.727202,19.532932 11.045289,19.89044 8.95471,19.89044 8.591743,19.813287 6.909829,19.455779 6.570834,19.304848 5,18.605468 4.699791,18.387355 3.308689,17.376669 3.060392,17.100906 1.90983,15.823071 1.72429,15.501709 0.864539,14.012589 0.74987,13.659674 0.21852,12.02434 0.179731,11.655295 0,9.94522 0.179731,8.235144 0.21852,7.8661 0.74987,6.230764 0.864539,5.87785 1.72429,4.38873 1.90983,4.06737 3.060391,2.789534 3.30869,2.51377 4.699791,1.503082 5,1.284969 6.570834,0.58559 6.909829,0.434659 8.591742,0.077152 8.95471,0" style="fill: white" />
  </g>
  <g id="layer33" slic3r:z="8.475">
    <polygon slic3r:type="contour" points="11.045289,0 12.778325,0.368374 13.090169,0.434659 14.70875,1.155297 15,1.28497 16.512616,2.383941 16.691311,2.51377 17.876843,3.830445 18.090169,4.067369 18.976052,5.60175 19.135459,5.877849 19.68296,7.562892 19.781478,7.8661 19.966674,9.628153 20,9.94522 19.966674,10.262285 19.781478,12.02434 19.68296,12.327547 19.13546,14.01259 18.990457,14.263738 18.090169,15.823071 17.876843,16.059994 16.691311,17.376669 16.433386,17.56406 14.999999,18.605468 14.70875,18.735139 13.090169,19.45578 12.778324,19.522065 11.045289,19.89044 8.95471,19.89044 8.642865,19.824154 6.909829,19.455779 6.618579,19.326106 5,18.605468 4.742074,18.418075 3.308689,17.376669 3.095362,17.139745 1.90983,15.823071 1.750422,15.546971 0.86454,14.01259 0.787245,13.7747 0.218519,12.024339 0.185194,11.707273 0,9.94522 0.185194,8.183166 0.218519,7.8661 0.766022,6.181057 0.86454,5.877849 1.750422,4.343468 1.90983,4.067369 3.095362,2.750694 3.308689,2.51377 4.742074,1.472362 5,1.28497 6.548383,0.595585 6.909829,0.434659 8.642865,0.066284 8.95471,0" style="fill: white" />
  </g>
  <g id="layer34" slic3r:z="8.725">
    <polygon slic3r:type="contour" points="11.045289,0 12.829447,0.37924 13.09017,0.434659 14.756495,1.176554 15,1.28497 16.475668,2.357098 16.691311,2.51377 17.947,3.908363 18.090169,4.067369 18.958969,5.572162 19.13546,5.877849 19.699109,7.612597 19.781477,7.8661 19.972137,9.680131 20,9.94522 19.972137,10.210307 19.781478,12.024339 19.699109,12.277841 19.13546,14.012589 19.002184,14.243426 18.09017,15.82307 17.947,15.982076 16.691311,17.376669 16.475668,17.53334 15,18.605467 14.756495,18.713882 13.09017,19.45578 12.829446,19.511199 11.04529,19.89044 8.95471,19.89044 8.693986,19.835019 6.909829,19.45578 6.666326,19.347365 4.999999,18.605467 4.784356,18.448795 3.30869,17.37667 3.130334,17.178585 1.909829,15.82307 1.776555,15.592234 0.86454,14.01259 0.782171,13.759087 0.21852,12.02434 0.190657,11.759251 0,9.94522 0.190657,8.131188 0.21852,7.866099 0.782171,6.131351 0.86454,5.87785 1.776554,4.298206 1.90983,4.067369 3.130334,2.711854 3.30869,2.51377 4.784357,1.441641 5,1.28497 6.666325,0.543074 6.909829,0.434659 8.693987,0.055418 8.95471,0" style="fill: white" />
  </g>
  <g id="layer35" slic3r:z="8.975">
    <polygon slic3r:type="contour" points="11.045289,0 12.880569,0.390107 13.09017,0.434659 14.874438,1.229066 14.999999,1.28497 16.517951,2.387818 16.691311,2.51377 17.9151,3.872935 18.090169,4.067369 19.028316,5.692274 19.13546,5.87785 19.71526,7.662303 19.781478,7.8661 19.9776,9.732109 20,9.94522 19.9776,10.158329 19.781478,12.02434 19.71526,12.228135 19.13546,14.01259 19.028316,14.198164 18.09017,15.82307 17.946786,15.982313 16.69131,17.37667 16.51795,17.502621 14.999999,18.605468 14.774638,18.705804 13.090169,19.45578 12.880568,19.500332 11.04529,19.89044 8.954709,19.89044 8.745109,19.845887 6.90983,19.45578 6.714071,19.368622 5,18.605468 4.826639,18.479515 3.308689,17.376669 3.165305,17.217425 1.90983,15.823071 1.802686,15.637495 0.86454,14.01259 0.798322,13.808793 0.21852,12.02434 0.19612,11.811229 0,9.94522 0.19612,8.07921 0.21852,7.866099 0.798323,6.081644 0.86454,5.87785 1.802686,4.252944 1.90983,4.067369 3.165305,2.673014 3.308689,2.51377 4.826639,1.410922 5,1.284969 6.714071,0.521816 6.90983,0.434659 8.745109,0.044551 8.95471,0" style="fill: white" />
  </g>
  <g id="layer36" slic3r:z="9.225">
    <polygon slic3r:type="contour" points="11.04529,0 12.93169,0.400972 13.09017,0.434659 14.851987,1.21907 15,1.28497 16.560233,2.418537 16.69131,2.51377 17.981757,3.946965 18.090169,4.067369 19.05445,5.737537 19.135459,5.877849 19.73141,7.71201 19.781478,7.8661 19.983063,9.784087 20,9.945219 19.983063,10.106351 19.781478,12.024339 19.73141,12.178429 19.135459,14.01259 19.068854,14.127952 18.09017,15.823071 17.981757,15.943474 16.69131,17.37667 16.560234,17.4719 14.999999,18.605468 14.822384,18.684547 13.090169,19.45578 12.93169,19.489466 11.04529,19.89044 8.95471,19.89044 8.835755,19.865154 6.90983,19.45578 6.761817,19.389879 4.999999,18.605468 4.868922,18.510235 3.30869,17.37667 3.200277,17.256265 1.90983,15.823071 1.828819,15.682757 0.86454,14.01259 0.814472,13.858499 0.21852,12.024339 0.201584,11.863208 0,9.94522 0.201584,8.027231 0.218519,7.8661 0.814472,6.031939 0.86454,5.877849 1.828819,4.207682 1.90983,4.067369 3.200277,2.634174 3.308689,2.51377 4.868923,1.380201 5,1.28497 6.761817,0.500559 6.90983,0.434658 8.79623,0.033686 8.95471,0" style="fill: white" />
  </g>
  <g id="layer37" slic3r:z="9.475">
    <polygon slic3r:type="contour" points="11.045289,0 12.982813,0.41184 13.09017,0.434659 14.899732,1.240327 14.999999,1.284969 16.602517,2.449258 16.691311,2.51377 18.016728,3.985805 18.09017,4.067369 19.080581,5.782798 19.135459,5.877849 19.726338,7.696397 19.781478,7.8661 19.988526,9.836065 20,9.94522 19.988527,10.054372 19.781478,12.02434 19.726338,12.194042 19.13546,14.01259 19.080581,14.10764 18.090169,15.823071 18.016728,15.904634 16.691311,17.37667 16.602517,17.44118 14.999999,18.605468 14.899732,18.650109 13.09017,19.455779 12.982812,19.478599 11.04529,19.89044 8.95471,19.89044 8.847352,19.867619 6.90983,19.45578 6.809562,19.411137 5,18.605468 4.911205,18.540955 3.30869,17.37667 3.235249,17.295106 1.90983,15.82307 1.854951,15.728019 0.86454,14.01259 0.851847,13.973525 0.21852,12.02434 0.207046,11.915185 0,9.94522 0.207046,7.975254 0.21852,7.8661 0.830624,5.982232 0.864539,5.87785 1.854951,4.16242 1.90983,4.067369 3.235249,2.595333 3.308689,2.51377 4.911205,1.349482 5,1.28497 6.809562,0.479301 6.90983,0.434659 8.847353,0.022818 8.95471,0" style="fill: white" />
  </g>
  <g id="layer38" slic3r:z="9.725">
    <polygon slic3r:type="contour" points="11.04529,0 13.033934,0.422705 13.09017,0.434659 14.947478,1.261585 15,1.28497 16.644798,2.479977 16.69131,2.513769 18.0517,4.024645 18.09017,4.06737 19.106713,5.82806 19.135459,5.877849 19.763711,7.811422 19.781478,7.8661 19.993989,9.888043 20,9.94522 19.993989,10.002395 19.781477,12.02434 19.763711,12.079016 19.13546,14.012589 19.106713,14.062378 18.09017,15.82307 18.051701,15.865793 16.691311,17.37667 16.644799,17.41046 15,18.605467 14.947478,18.628851 13.09017,19.455779 13.033934,19.467733 11.045289,19.89044 8.95471,19.89044 8.898474,19.878485 6.909829,19.455779 6.857308,19.432395 5,18.605468 4.953487,18.571675 3.30869,17.37667 3.27022,17.333945 1.90983,15.823071 1.881083,15.773281 0.864539,14.012589 0.846773,13.957912 0.21852,12.02434 0.212509,11.967163 0,9.94522 0.212509,7.923276 0.21852,7.8661 0.846774,5.932525 0.864539,5.87785 1.881084,4.117157 1.909829,4.06737 3.27022,2.556494 3.30869,2.513769 4.953487,1.318762 5,1.284969 6.857309,0.458042 6.909829,0.434659 8.898474,0.011953 8.95471,0" style="fill: white" />
  </g>
  <g id="layer39" slic3r:z="9.975">
    <polygon slic3r:type="contour" points="11.04529,0 13.085056,0.433572 13.09017,0.434659 14.995225,1.282844 15,1.28497 16.687081,2.510697 16.691311,2.51377 18.086671,4.063485 18.09017,4.06737 19.132845,5.873322 19.135459,5.877849 19.779861,7.861128 19.781478,7.866099 19.999453,9.940022 20,9.94522 19.999453,9.950416 19.781478,12.02434 19.779861,12.02931 19.13546,14.012589 19.132846,14.017115 18.090169,15.823071 18.086671,15.826954 16.691311,17.376669 16.687081,17.379741 15,18.605467 14.995224,18.607593 13.090169,19.45578 13.085056,19.456866 11.04529,19.89044 8.95471,19.89044 8.949596,19.889352 6.90983,19.45578 6.905054,19.453653 5,18.605468 4.995771,18.602396 3.308689,17.376669 3.305192,17.372786 1.90983,15.823071 1.907215,15.818543 0.864539,14.012589 0.862924,14.007618 0.218519,12.024339 0.217973,12.019142 0,9.94522 0.217972,7.871298 0.21852,7.8661 0.862925,5.882819 0.86454,5.87785 1.907215,4.071896 1.90983,4.06737 3.305191,2.517654 3.30869,2.51377 4.995771,1.288041 4.999999,1.28497 6.905054,0.436785 6.90983,0.434658 8.949597,0.001085 8.954709,0" style="fill: white" />
  </g>
</svg>
