<?xml version="1.0" encoding="UTF-8" standalone="yes"?>
<!DOCTYPE svg PUBLIC "-//W3C//DTD SVG 1.0//EN" "http://www.w3.org/TR/2001/REC-SVG-20010904/DTD/svg10.dtd">
<svg width="20" height="19.89044" xmlns="http://www.w3.org/2000/svg" xmlns:svg="http://www.w3.org/2000/svg" xmlns:xlink="http://www.w3.org/1999/xlink" xmlns:slic3r="http://slic3r.org/namespaces/slic3r">
  <!-- 
  Generated using Slic3r 1.0.0RC2
  http://slic3r.org/
   -->
  <g id="layer0" slic3r:z="0.175">
    <polygon slic3r:type="contour" points="11.04529,0 13.054383,0.427052 13.090169,0.434658 14.966577,1.270089 14.999999,1.284969 16.641143,2.477321 16.69131,2.513769 18.065689,4.040182 18.090169,4.067369 19.117166,5.846165 19.13546,5.87785 19.770172,7.831306 19.781477,7.866099 19.996175,9.908835 20,9.94522 19.996175,9.981603 19.781478,12.024339 19.770172,12.059133 19.13546,14.01259 19.117166,14.044273 18.09017,15.82307 18.065689,15.850257 16.69131,17.37667 16.661712,17.398173 14.999999,18.605468 14.966576,18.620348 13.09017,19.455779 13.054383,19.463386 11.045289,19.89044 8.95471,19.89044 8.918923,19.882832 6.909829,19.455779 6.876407,19.440899 5,18.605468 4.970402,18.583964 3.308689,17.376669 3.284208,17.349481 1.90983,15.823071 1.891536,15.791386 0.86454,14.01259 0.853233,13.977794 0.218519,12.024339 0.214695,11.987954 0,9.94522 0.214696,7.902484 0.21852,7.8661 0.853234,5.912643 0.86454,5.87785 1.891537,4.099052 1.909829,4.06737 3.284208,2.540958 3.30869,2.513769 4.970401,1.306474 4.999999,1.28497 6.876407,0.449539 6.909829,0.434659 8.918923,0.007606 8.95471,0" style="fill: white" />
    <polygon slic3r:type="hole" points="9.035707,2.00355 9.002937,2.011625 7.163159,2.465089 7.133275,2.480774 5.45548,3.361349 5.430217,3.383729 4.01191,4.64024 3.992736,4.668016 2.916349,6.22744 2.904381,6.258997 2.23247,8.030698 2.228401,8.064202 2,9.94522 2.2284,11.826234 2.23247,11.85974 2.904381,13.631441 2.91635,13.663 3.992736,15.222423 4.01191,15.2502 5.430216,16.506709 5.455479,16.52909 7.133276,17.409665 7.163159,17.425349 9.002936,17.878812 9.035707,17.88689 10.964292,17.88689 12.80407,17.433425 12.83684,17.42535 14.514634,16.544774 14.544518,16.529091 15.962828,15.272579 15.98809,15.2502 17.064477,13.690775 17.083649,13.663 17.755561,11.891297 17.767529,11.85974 17.995931,9.978723 18,9.94522 17.995931,9.911715 17.767529,8.030698 17.755561,7.999141 17.08365,6.22744 17.064476,6.199663 15.988091,4.64024 15.962827,4.617858 14.544519,3.36135 14.514633,3.345664 12.83684,2.465089 12.804069,2.457011 10.964293,2.00355" style="fill: black" />
  </g>
  <g id="layer1" slic3r:z="0.475">
    <polygon slic3r:type="contour" points="11.04529,0 12.993037,0.414012 13.09017,0.434659 14.909282,1.244579 15,1.28497 16.610972,2.455401 16.691311,2.51377 18.023723,3.993573 18.09017,4.06737 19.085807,5.791851 19.13546,5.877849 19.729568,7.706338 19.781478,7.8661 19.989619,9.84646 20,9.94522 19.989619,10.043978 19.781478,12.02434 19.750791,12.118781 19.135459,14.01259 19.085807,14.098587 18.09017,15.82307 18.023723,15.896866 16.691311,17.37667 16.610973,17.435036 14.999999,18.605468 14.909282,18.645857 13.09017,19.45578 13.053312,19.463614 13.053312,19.463613 11.04529,19.89044 8.954709,19.89044 8.857577,19.869792 6.90983,19.45578 6.819112,19.415389 5,18.605468 4.919661,18.547099 3.30869,17.37667 3.242243,17.302873 1.90983,15.823071 1.860177,15.737072 0.864539,14.012589 0.833853,13.918147 0.218519,12.024339 0.208139,11.92558 0,9.94522 0.208139,7.964858 0.21852,7.8661 0.833853,5.972291 0.86454,5.877849 1.860177,4.153367 1.90983,4.06737 3.242243,2.587566 3.30869,2.513769 4.919661,1.343338 5,1.28497 6.819113,0.475048 6.90983,0.434659 8.857577,0.020646 8.95471,0" style="fill: white" />
    <polygon slic3r:type="hole" points="9.035707,2.00355 9.008602,2.01023 7.16316,2.465089 7.082045,2.507661 5.45548,3.361349 5.386909,3.422097 4.01191,4.64024 3.959869,4.715632 2.916349,6.22744 2.883865,6.313093 2.23247,8.030699 2.221427,8.121638 2,9.94522 2.221426,11.768799 2.23247,11.859739 2.883864,13.577344 2.91635,13.663 3.959869,15.174807 4.01191,15.2502 5.386909,16.468342 5.45548,16.529091 7.082045,17.382777 7.16316,17.42535 8.946761,17.864966 9.035706,17.88689 10.964293,17.88689 12.747894,17.447272 12.83684,17.425349 14.463403,16.571663 14.544519,16.529091 15.919521,15.310946 15.988091,15.250199 17.031609,13.738392 17.083649,13.663 17.735045,11.945393 17.767529,11.85974 17.988956,10.036159 18,9.945219 17.988957,9.85428 17.767529,8.030699 17.735044,7.945043 17.08365,6.22744 17.031609,6.152047 15.988091,4.64024 15.91952,4.579491 14.544518,3.36135 14.463404,3.318777 12.836839,2.465089 12.747893,2.443165 10.964293,2.00355" style="fill: black" />
  </g>
  <g id="layer2" slic3r:z="0.725">
    <polygon slic3r:type="contour" points="11.045289,0 12.941916,0.403147 13.090169,0.434658 14.861537,1.223322 15,1.28497 16.568689,2.424681 16.691311,2.51377 17.988751,3.954733 18.09017,4.067369 19.059675,5.746589 19.13546,5.87785 19.73464,7.721951 19.781478,7.8661 19.984156,9.794482 20,9.945219 19.988853,10.051271 19.781478,12.02434 19.73464,12.168488 19.13546,14.012589 19.07408,14.118899 18.09017,15.82307 17.988751,15.935706 16.691311,17.37667 16.56869,17.465756 14.999999,18.605468 14.861536,18.667115 13.09017,19.45578 12.941915,19.487292 11.04529,19.89044 8.95471,19.89044 8.806456,19.858927 6.90983,19.45578 6.80097,19.407312 5,18.605468 4.877379,18.516379 3.30869,17.37667 3.207272,17.264034 1.90983,15.823071 1.834045,15.69181 0.86454,14.012589 0.817702,13.86844 0.21852,12.024339 0.202676,11.873602 0,9.945219 0.202676,8.016836 0.21852,7.8661 0.817703,6.021997 0.864539,5.87785 1.834045,4.198629 1.90983,4.067369 3.207271,2.626406 3.30869,2.51377 4.87738,1.374057 4.999999,1.28497 6.771367,0.496306 6.90983,0.434659 8.806456,0.031511 8.954709,0" style="fill: white" />
    <polygon slic3r:type="hole" points="9.035707,2.00355 8.899946,2.037011 7.16316,2.465089 7.039352,2.530068 5.45548,3.36135 5.35082,3.454069 4.01191,4.64024 3.93248,4.755312 2.916349,6.22744 2.866767,6.358176 2.23247,8.030698 2.215614,8.169502 2,9.94522 2.215614,11.720936 2.23247,11.85974 2.866767,13.532262 2.91635,13.663 3.93248,15.135127 4.01191,15.2502 5.35082,16.43637 5.45548,16.529091 7.039352,17.36037 7.16316,17.42535 8.899947,17.853428 9.035707,17.88689 10.964293,17.88689 12.70108,17.45881 12.83684,17.425349 14.420711,16.594069 14.544518,16.529091 15.883431,15.342919 15.988091,15.250199 17.00422,13.778072 17.08365,13.663 17.717947,11.990476 17.767529,11.85974 17.983145,10.084021 18,9.94522 17.983144,9.806416 17.767529,8.030698 17.717947,7.899962 17.08365,6.22744 17.00422,6.112367 15.988091,4.64024 15.883431,4.547519 14.544519,3.36135 14.420712,3.296371 12.83684,2.465089 12.701079,2.431627 10.964292,2.00355" style="fill: black" />
  </g>
  <g id="layer3" slic3r:z="0.975">
    <polygon slic3r:type="contour" points="11.04529,0 12.951068,0.405092 12.951068,0.405091 13.09017,0.434659 14.81379,1.202064 14.999999,1.284969 16.505838,2.379017 16.691311,2.51377 17.95378,3.915893 18.09017,4.06737 19.033543,5.701327 19.13546,5.87785 19.729694,7.706726 19.781478,7.8661 19.978693,9.742504 20,9.94522 19.972901,10.203049 19.781478,12.024339 19.729694,12.183713 19.13546,14.012589 19.033543,14.189111 18.090169,15.823071 17.95378,15.974546 16.691311,17.376669 16.526407,17.496477 15,18.605467 14.81379,18.688373 13.09017,19.455779 12.951068,19.485347 12.951068,19.485346 11.04529,19.89044 8.95471,19.89044 8.755333,19.848059 6.90983,19.45578 6.653424,19.34162 4.999999,18.605467 4.835096,18.485659 3.30869,17.37667 3.1723,17.225193 1.90983,15.823071 1.807914,15.646549 0.864539,14.012589 0.801552,13.818734 0.21852,12.02434 0.197213,11.821624 0,9.945219 0.197213,8.068814 0.21852,7.866099 0.801552,6.071704 0.86454,5.87785 1.807914,4.24389 1.909829,4.06737 3.1723,2.665246 3.30869,2.513769 4.835096,1.404778 4.999999,1.28497 6.653424,0.548818 6.90983,0.434658 8.755333,0.042379 8.95471,0" style="fill: white" />
    <polygon slic3r:type="hole" points="9.035707,2.00355 8.853132,2.04855 7.16316,2.465089 6.996661,2.552474 5.455479,3.36135 5.31473,3.486041 4.011909,4.64024 3.905091,4.794992 2.91635,6.227439 2.84967,6.403257 2.23247,8.030698 2.209803,8.217365 2,9.94522 2.215132,11.716959 2.23247,11.85974 2.84967,13.487181 2.91635,13.663 3.905091,15.095447 4.011909,15.250199 5.314731,16.404399 5.455479,16.52909 6.99666,17.337963 7.16316,17.42535 8.853132,17.841888 9.035707,17.88689 10.964293,17.88689 12.654265,17.47035 12.836839,17.42535 14.37802,16.616475 14.544519,16.52909 15.847341,15.374891 15.98809,15.2502 16.976832,13.817751 17.083649,13.663 17.700851,12.035556 17.767529,11.85974 17.977333,10.131885 18,9.94522 17.977333,9.758553 17.76753,8.030698 17.700851,7.854881 17.083649,6.227439 16.976832,6.072688 15.98809,4.640239 15.847341,4.515547 14.544518,3.36135 14.378019,3.273963 12.83684,2.465089 12.654265,2.420088 10.964293,2.00355" style="fill: black" />
  </g>
  <g id="layer4" slic3r:z="1.225">
    <polygon slic3r:type="contour" points="11.045289,0 12.839672,0.381414 13.090169,0.434658 14.766044,1.180806 14.999999,1.28497 16.463555,2.348297 16.691311,2.513769 17.918808,3.877053 18.09017,4.06737 19.00741,5.656065 19.13546,5.87785 19.702339,7.622538 19.781478,7.866099 19.97323,9.690526 20,9.94522 19.97323,10.199912 19.781478,12.02434 19.681116,12.333219 19.135459,14.012589 19.00741,14.234373 18.09017,15.82307 17.918808,16.013386 16.691311,17.376669 16.484124,17.527197 15,18.605468 14.766044,18.709631 13.090169,19.45578 12.839672,19.509024 11.045289,19.89044 8.95471,19.89044 8.704211,19.837193 6.90983,19.45578 6.675874,19.351615 4.999999,18.605467 4.792814,18.45494 3.30869,17.376669 3.137328,17.186353 1.90983,15.823071 1.767377,15.576337 0.86454,14.012589 0.785401,13.769028 0.21852,12.02434 0.19175,11.769646 0,9.94522 0.19175,8.120792 0.21852,7.8661 0.785402,6.121409 0.864539,5.87785 1.781781,4.289153 1.90983,4.067369 3.137328,2.704086 3.30869,2.513769 4.792813,1.435498 4.999999,1.28497 6.675874,0.538822 6.90983,0.434659 8.704212,0.053244 8.954709,0" style="fill: white" />
    <polygon slic3r:type="hole" points="9.035706,2.00355 8.806319,2.060088 7.16316,2.465088 6.953969,2.57488 5.45548,3.361349 5.278641,3.518014 4.01191,4.640239 3.877703,4.834671 2.916349,6.22744 2.832573,6.448339 2.23247,8.030699 2.203991,8.265228 1.999999,9.945219 2.197202,11.569296 2.23247,11.859739 2.832573,13.442099 2.916349,13.662999 3.877703,15.055768 4.01191,15.2502 5.278642,16.372426 5.455479,16.52909 6.953969,17.315558 7.16316,17.42535 8.806319,17.83035 9.035707,17.88689 10.964293,17.88689 12.607451,17.481888 12.836839,17.42535 14.335327,16.638882 14.544519,16.529091 15.811252,15.406864 15.98809,15.2502 16.949444,13.857431 17.083649,13.663 17.683753,12.080639 17.76753,11.859739 17.971521,10.179748 18,9.945219 17.971521,9.71069 17.76753,8.030699 17.683753,7.809799 17.08365,6.227439 16.949444,6.033008 15.98809,4.640239 15.811253,4.483575 14.544518,3.361349 14.335327,3.251557 12.83684,2.465089 12.607452,2.408551 10.964292,2.00355" style="fill: black" />
  </g>
  <g id="layer5" slic3r:z="1.475">
    <polygon slic3r:type="contour" points="11.04529,0 12.788549,0.370546 13.090169,0.434659 14.718299,1.159548 15,1.28497 16.441841,2.332521 16.691311,2.51377 17.883838,3.838214 18.090169,4.067369 18.981278,5.610803 19.13546,5.87785 19.686189,7.572832 19.781477,7.866099 19.967767,9.638548 20,9.94522 19.961975,10.307005 19.781477,12.02434 19.686189,12.317606 19.135459,14.01259 18.981278,14.279635 18.090169,15.823071 17.808843,16.135515 17.808844,16.135515 16.69131,17.37667 16.441841,17.557917 15,18.605468 14.788496,18.699635 13.090169,19.45578 12.78855,19.519891 11.04529,19.89044 8.954709,19.89044 8.653089,19.826326 6.90983,19.45578 6.657733,19.343538 5,18.605468 4.75053,18.424219 3.30869,17.37667 3.102357,17.147513 1.90983,15.823071 1.755648,15.556024 0.864539,14.012589 0.769252,13.719323 0.218519,12.024339 0.186287,11.717668 0,9.94522 0.186288,8.172769 0.21852,7.8661 0.769251,6.171116 0.86454,5.87785 1.755648,4.334415 1.909829,4.06737 3.102357,2.742926 3.30869,2.513769 4.75053,1.466218 5,1.284969 6.657733,0.546899 6.90983,0.434658 8.653089,0.064112 8.954709,0" style="fill: white" />
    <polygon slic3r:type="hole" points="9.035707,2.00355 8.759505,2.071627 7.16316,2.465089 6.911277,2.597287 5.455479,3.36135 5.242552,3.549986 4.01191,4.64024 3.850313,4.874352 2.91635,6.227439 2.815476,6.49342 2.232469,8.030699 2.19139,8.369005 2,9.94522 2.198179,11.577347 2.232469,11.859739 2.815477,13.397019 2.916349,13.662999 3.850313,15.016087 4.01191,15.2502 5.242552,16.340453 5.45548,16.529091 6.911276,17.29315 7.16316,17.42535 8.759505,17.818811 9.035707,17.88689 10.964293,17.88689 12.560638,17.493427 12.83684,17.425349 14.292635,16.661289 14.544519,16.52909 15.775163,15.438836 15.98809,15.2502 16.922054,13.897112 17.083649,13.663 17.666656,12.12572 17.767529,11.85974 17.96571,10.22761 18,9.94522 17.96571,9.662828 17.76753,8.030698 17.666656,7.764717 17.08365,6.22744 16.922054,5.993327 15.988091,4.64024 15.791974,4.466495 14.544519,3.36135 14.319346,3.243169 12.83684,2.465089 12.560638,2.397011 10.964292,2.00355" style="fill: black" />
  </g>
  <g id="layer6" slic3r:z="1.725">
    <polygon slic3r:type="contour" points="11.045289,0 12.737428,0.359681 13.09017,0.434659 14.670553,1.13829 14.999999,1.28497 16.399558,2.301801 16.691311,2.51377 17.848865,3.799373 18.09017,4.06737 18.955146,5.565541 19.13546,5.87785 19.670038,7.523126 19.781478,7.8661 19.962303,9.58657 20,9.945219 19.962303,10.303868 19.781477,12.02434 19.670038,12.367313 19.135459,14.01259 18.955146,14.324897 18.09017,15.82307 17.848865,16.091066 16.691311,17.37667 16.399559,17.588636 14.999999,18.605468 14.64095,18.765326 13.090169,19.45578 12.737428,19.530757 11.045289,19.89044 8.95471,19.89044 8.601968,19.815461 6.909829,19.455779 6.580383,19.3091 5,18.605468 4.708248,18.393499 3.308689,17.376669 3.067385,17.108673 1.90983,15.82307 1.729516,15.510762 0.864539,14.01259 0.7531,13.669615 0.21852,12.02434 0.180824,11.66569 0,9.945219 0.180824,8.224748 0.218519,7.8661 0.753101,6.220822 0.86454,5.877849 1.729516,4.379677 1.90983,4.067369 3.067385,2.781766 3.308689,2.51377 4.708248,1.496938 5,1.284969 6.580384,0.581337 6.909829,0.434659 8.601968,0.074977 8.95471,0" style="fill: white" />
    <polygon slic3r:type="hole" points="9.035707,2.00355 8.712692,2.083164 7.163159,2.465089 6.868584,2.619694 5.45548,3.361349 5.206463,3.581958 4.01191,4.640239 3.822924,4.914032 2.916349,6.22744 2.772744,6.606096 2.23247,8.030698 2.197696,8.317069 2,9.945219 2.192367,11.529484 2.23247,11.85974 2.772744,13.284342 2.916349,13.662999 3.822924,14.976407 4.01191,15.2502 5.206463,16.308481 5.45548,16.529091 6.868584,17.270744 7.163159,17.425349 8.712691,17.807273 9.035707,17.88689 10.964293,17.88689 12.513824,17.504965 12.83684,17.425349 14.249943,16.683695 14.544519,16.52909 15.739073,15.470808 15.98809,15.2502 16.894666,13.936791 17.08365,13.663 17.649559,12.170802 17.76753,11.85974 17.959897,10.275474 17.999999,9.94522 17.959897,9.614964 17.76753,8.030699 17.64956,7.719637 17.083649,6.227439 16.894666,5.953648 15.98809,4.640239 15.739073,4.41963 14.544518,3.36135 14.249944,3.206745 12.836839,2.465089 12.513825,2.385474 10.964292,2.00355" style="fill: black" />
  </g>
  <g id="layer7" slic3r:z="1.975">
    <polygon slic3r:type="contour" points="11.04529,0 12.686306,0.348814 13.090169,0.434658 14.622808,1.117033 15,1.28497 16.357276,2.271081 16.69131,2.513769 17.813895,3.760534 18.09017,4.06737 18.929014,5.520279 19.13546,5.87785 19.665092,7.507901 19.781477,7.8661 19.95684,9.534592 19.999999,9.94522 19.961537,10.311162 19.781478,12.024339 19.665092,12.382538 19.13546,14.01259 18.929014,14.370159 18.09017,15.823071 17.813894,16.129906 16.69131,17.37667 16.357277,17.619356 14.999999,18.605468 14.622807,18.773404 13.09017,19.45578 12.686306,19.541624 11.04529,19.89044 8.954709,19.89044 8.550846,19.804594 6.90983,19.45578 6.532638,19.287843 5,18.605468 4.665965,18.362779 3.308689,17.376669 3.032415,17.069834 1.90983,15.82307 1.703384,15.4655 0.86454,14.012589 0.73695,13.619909 0.21852,12.02434 0.175361,11.613712 0,9.945219 0.175361,8.276726 0.21852,7.866099 0.73695,6.270529 0.86454,5.87785 1.703385,4.424938 1.909829,4.06737 3.032415,2.820605 3.308689,2.51377 4.665966,1.527657 4.999999,1.28497 6.532638,0.602595 6.90983,0.434659 8.550846,0.085844 8.954709,0" style="fill: white" />
    <polygon slic3r:type="hole" points="9.035707,2.00355 8.665878,2.094704 7.16316,2.465089 6.825892,2.642101 5.45548,3.361349 5.170373,3.61393 4.01191,4.640239 3.795535,4.953712 2.916349,6.22744 2.781282,6.583583 2.23247,8.030699 2.186556,8.408817 2,9.94522 2.186556,11.481621 2.23247,11.859739 2.781282,13.306855 2.916349,13.662999 3.795535,14.936727 4.01191,15.2502 5.170373,16.276509 5.455479,16.529091 6.825892,17.248337 7.16316,17.42535 8.665878,17.795734 9.035707,17.88689 10.964293,17.88689 12.46701,17.516504 12.836839,17.42535 14.207251,16.706102 14.544518,16.529091 15.702984,15.50278 15.98809,15.2502 16.867277,13.976471 17.083649,13.663 17.632462,12.215883 17.76753,11.85974 17.954086,10.323337 18,9.945219 17.954086,9.567101 17.76753,8.030698 17.632463,7.674555 17.083649,6.227439 16.867277,5.913968 15.98809,4.640239 15.702984,4.387658 14.544519,3.36135 14.207251,3.184337 12.836839,2.465089 12.467011,2.373935 10.964292,2.00355" style="fill: black" />
  </g>
  <g id="layer8" slic3r:z="2.225">
    <polygon slic3r:type="contour" points="11.045289,0 12.635183,0.337947 13.09017,0.434659 14.575061,1.095775 15,1.28497 16.314993,2.240361 16.691311,2.51377 17.778922,3.721693 18.09017,4.06737 18.902881,5.475017 19.135459,5.877849 19.637737,7.423713 19.781478,7.866099 19.951377,9.482614 20,9.945219 19.951377,10.407824 19.781477,12.02434 19.637737,12.466725 19.135459,14.01259 18.902881,14.415422 18.090169,15.823071 17.778923,16.168745 16.691311,17.37667 16.314994,17.650076 14.999999,18.605468 14.575061,18.794662 13.09017,19.455779 12.695458,19.539679 12.695458,19.539678 11.04529,19.89044 8.95471,19.89044 8.499724,19.793728 6.90983,19.45578 6.484891,19.266584 5,18.605468 4.623682,18.332059 3.308689,17.376669 2.997442,17.030993 1.90983,15.823071 1.677252,15.420237 0.86454,14.01259 0.720799,13.570203 0.21852,12.024339 0.169898,11.561734 0,9.94522 0.169899,8.328703 0.21852,7.8661 0.720799,6.320235 0.86454,5.877849 1.677252,4.470201 1.90983,4.067369 2.997442,2.859446 3.30869,2.513769 4.623682,1.558378 5,1.28497 6.484891,0.623853 6.909829,0.434659 8.499723,0.096711 8.95471,0" style="fill: white" />
    <polygon slic3r:type="hole" points="9.035707,2.00355 8.680906,2.090999 7.163159,2.465089 6.75649,2.678525 5.45548,3.36135 5.134284,3.645903 4.011909,4.64024 3.768146,4.993392 2.91635,6.227439 2.764185,6.628665 2.23247,8.030698 2.180744,8.45668 2,9.94522 2.180744,11.433758 2.23247,11.85974 2.764185,13.261773 2.91635,13.663 3.768146,14.897047 4.011909,15.250199 5.134285,16.244537 5.45548,16.529091 6.7832,17.225931 7.163159,17.42535 8.619064,17.784196 9.035707,17.88689 10.964293,17.88689 12.420197,17.528042 12.83684,17.42535 14.16456,16.728507 14.544518,16.529091 15.666895,15.534753 15.988091,15.250199 16.839887,14.016152 17.083649,13.663 17.615366,12.260964 17.767529,11.85974 17.948274,10.3712 18,9.94522 17.948274,9.519238 17.767529,8.030698 17.615365,7.629473 17.08365,6.22744 16.839887,5.874287 15.988091,4.64024 15.666895,4.355685 14.544518,3.361349 14.164559,3.161931 12.83684,2.465089 12.420197,2.362396 10.964293,2.00355" style="fill: black" />
  </g>
  <g id="layer9" slic3r:z="2.475">
    <polygon slic3r:type="contour" points="11.04529,0 12.584061,0.32708 13.09017,0.434659 14.527316,1.074517 15,1.28497 16.252141,2.194697 16.69131,2.513769 17.743951,3.682853 18.09017,4.06737 18.891154,5.454705 19.13546,5.87785 19.621587,7.374007 19.781477,7.866099 19.945914,9.430636 20,9.945219 19.945914,10.459802 19.781478,12.02434 19.621587,12.516431 19.13546,14.012589 18.876749,14.460684 18.09017,15.823071 17.743951,16.207586 16.691311,17.37667 16.272711,17.680796 14.999999,18.605468 14.527317,18.815919 13.090169,19.45578 12.584061,19.563358 11.04529,19.89044 8.95471,19.89044 8.448601,19.78286 6.90983,19.45578 6.437146,19.245326 5,18.605468 4.5814,18.30134 3.30869,17.37667 2.994157,17.027344 1.90983,15.823071 1.651119,15.374975 0.86454,14.01259 0.70465,13.520498 0.21852,12.024339 0.164435,11.509756 0,9.94522 0.164435,8.380682 0.21852,7.8661 0.70465,6.36994 0.864539,5.87785 1.651119,4.515463 1.90983,4.067369 2.962471,2.898286 3.30869,2.513769 4.5814,1.589097 5,1.284969 6.437146,0.645111 6.909829,0.434659 8.448601,0.107578 8.954709,0" style="fill: white" />
    <polygon slic3r:type="hole" points="9.035706,2.00355 8.534292,2.127136 7.163159,2.465089 6.740509,2.686913 5.45548,3.36135 5.098196,3.677874 4.011909,4.64024 3.686748,5.111318 2.916349,6.22744 2.747088,6.673746 2.23247,8.030698 2.180261,8.460657 2,9.94522 2.174932,11.385895 2.23247,11.85974 2.747088,13.216692 2.91635,13.663 3.686748,14.779121 4.011909,15.250199 5.098196,16.212565 5.455479,16.52909 6.740509,17.203525 7.163159,17.425349 8.572251,17.772658 9.035706,17.88689 10.964293,17.88689 12.373383,17.539581 12.83684,17.42535 14.121867,16.750915 14.544519,16.529091 15.630806,15.566724 15.98809,15.2502 16.812498,14.055832 17.08365,13.662999 17.598268,12.306046 17.76753,11.85974 17.942462,10.419063 18,9.94522 17.942462,9.471375 17.76753,8.030699 17.598268,7.584391 17.08365,6.22744 16.812498,5.834607 15.98809,4.640239 15.630805,4.323713 14.544519,3.36135 14.048778,3.101164 12.836839,2.465088 12.373384,2.350858 10.964293,2.00355" style="fill: black" />
  </g>
  <g id="layer10" slic3r:z="2.725">
    <polygon slic3r:type="contour" points="11.04529,0 12.532939,0.316214 13.090169,0.434658 14.47957,1.053259 15,1.28497 16.230427,2.178921 16.691311,2.51377 17.708979,3.644013 18.09017,4.06737 18.850617,5.384493 19.135459,5.877849 19.605437,7.324301 19.781478,7.8661 19.940451,9.378658 20,9.94522 19.934659,10.566895 19.781477,12.02434 19.605437,12.566138 19.135459,14.01259 18.850617,14.505946 18.09017,15.823071 17.708979,16.246426 16.691311,17.37667 16.230427,17.711517 15,18.605467 14.47957,18.837178 13.090169,19.45578 12.53294,19.574223 11.04529,19.89044 8.954709,19.89044 8.397479,19.771994 6.90983,19.45578 6.3894,19.224068 5,18.605468 4.539117,18.270619 3.30869,17.37667 2.927499,16.953313 1.909829,15.82307 1.624987,15.329713 0.86454,14.01259 0.688498,13.47079 0.21852,12.02434 0.158972,11.457778 0,9.94522 0.158972,8.43266 0.21852,7.866099 0.688498,6.419648 0.864539,5.87785 1.624988,4.560724 1.90983,4.067369 2.927499,2.937126 3.30869,2.51377 4.539117,1.619818 5,1.28497 6.419004,0.653188 6.90983,0.434658 8.397479,0.118444 8.954709,0" style="fill: white" />
    <polygon slic3r:type="hole" points="9.035707,2.00355 8.525437,2.129319 7.16316,2.465088 6.697816,2.70932 5.45548,3.36135 5.062106,3.709847 4.01191,4.640239 3.713368,5.072752 2.91635,6.227439 2.729992,6.718827 2.23247,8.030699 2.16912,8.552406 2,9.945219 2.16912,11.338032 2.23247,11.859739 2.729991,13.17161 2.91635,13.663 3.713368,14.817687 4.01191,15.2502 5.062106,16.180592 5.45548,16.529091 6.697816,17.181118 7.16316,17.42535 8.525437,17.761119 9.035707,17.88689 10.964293,17.88689 12.326569,17.551119 12.836839,17.42535 14.079176,16.77332 14.544519,16.52909 15.594716,15.598697 15.988091,15.2502 16.785109,14.095512 17.083649,13.663 17.581171,12.351128 17.76753,11.859739 17.93665,10.466926 18,9.94522 17.93665,9.423512 17.76753,8.030699 17.581172,7.539311 17.08365,6.227439 16.785109,5.794927 15.988091,4.64024 15.594716,4.291741 14.544519,3.36135 14.079175,3.117118 12.83684,2.465089 12.32657,2.33932 10.964292,2.00355" style="fill: black" />
  </g>
  <g id="layer11" slic3r:z="2.975">
    <polygon slic3r:type="contour" points="11.04529,0 12.481817,0.305347 13.09017,0.434659 14.431824,1.032001 15,1.28497 16.188144,2.148201 16.69131,2.51377 17.674008,3.605173 18.09017,4.06737 18.824485,5.339231 19.13546,5.877849 19.589286,7.274594 19.781478,7.8661 19.934988,9.32668 20,9.94522 19.934988,10.563758 19.781478,12.024339 19.589286,12.615844 19.135459,14.01259 18.78127,14.626058 18.090169,15.823071 17.674008,16.285266 16.691311,17.376669 16.188144,17.742237 14.999999,18.605468 14.431825,18.858434 13.09017,19.45578 12.481817,19.585091 11.04529,19.89044 8.954709,19.89044 8.346357,19.761127 6.90983,19.45578 6.341655,19.202812 4.999999,18.605467 4.417604,18.182336 3.308689,17.376669 2.892528,16.914473 1.909829,15.82307 1.598855,15.284451 0.86454,14.01259 0.672348,13.421084 0.21852,12.02434 0.153509,11.4058 0,9.94522 0.15351,8.484637 0.218519,7.8661 0.672348,6.469354 0.86454,5.87785 1.598855,4.605987 1.90983,4.067369 2.892528,2.975966 3.30869,2.513769 4.496835,1.650537 4.999999,1.28497 6.341655,0.687626 6.90983,0.434658 8.346357,0.129311 8.954709,0" style="fill: white" />
    <polygon slic3r:type="hole" points="9.035707,2.00355 8.478623,2.140858 7.16316,2.465089 6.655125,2.731726 5.45548,3.361349 5.026016,3.741819 4.01191,4.64024 3.685979,5.112432 2.91635,6.22744 2.712894,6.763909 2.232469,8.030699 2.163309,8.600269 2,9.945219 2.15652,11.234255 2.232469,11.859739 2.712894,13.126529 2.916349,13.662999 3.685979,14.778007 4.011909,15.250199 5.026017,16.14862 5.45548,16.529091 6.655124,17.158711 7.16316,17.42535 8.478623,17.74958 9.035707,17.88689 10.964292,17.88689 12.279756,17.562658 12.83684,17.42535 14.036483,16.795728 14.544519,16.52909 15.558627,15.63067 15.98809,15.2502 16.75772,14.135192 17.08365,13.662999 17.564074,12.396209 17.76753,11.859739 17.930839,10.514789 18,9.945219 17.930839,9.375649 17.76753,8.030698 17.564075,7.494229 17.08365,6.22744 16.75772,5.755247 15.98809,4.640239 15.558627,4.259769 14.544519,3.36135 14.036484,3.094712 12.83684,2.465089 12.317715,2.337136 10.964293,2.00355" style="fill: black" />
  </g>
  <g id="layer12" slic3r:z="3.225">
    <polygon slic3r:type="contour" points="11.045289,0 12.430696,0.294482 13.09017,0.434659 14.384078,1.010744 15,1.28497 16.145862,2.117481 16.691311,2.51377 17.639036,3.566333 18.09017,4.06737 18.798352,5.293969 19.135459,5.877849 19.573136,7.224888 19.781478,7.8661 19.929525,9.274702 20,9.94522 19.929525,10.615736 19.781477,12.02434 19.573136,12.66555 19.13546,14.01259 18.798352,14.59647 18.09017,15.82307 17.639037,16.324105 16.69131,17.37667 16.125293,17.787901 14.999999,18.605468 14.384078,18.879693 13.090169,19.45578 12.430695,19.595957 11.04529,19.89044 8.95471,19.89044 8.295235,19.750261 6.90983,19.455779 6.323512,19.194734 5,18.605468 4.454551,18.209179 3.30869,17.37667 2.857556,16.875633 1.90983,15.823071 1.572723,15.239189 0.86454,14.01259 0.656197,13.371378 0.21852,12.02434 0.148046,11.353822 0,9.94522 0.148046,8.536616 0.21852,7.8661 0.656197,6.51906 0.86454,5.87785 1.572724,4.651248 1.90983,4.06737 2.857556,3.014806 3.30869,2.513769 4.454551,1.681258 5,1.284969 6.323512,0.695704 6.90983,0.434659 8.295236,0.140176 8.95471,0" style="fill: white" />
    <polygon slic3r:type="hole" points="9.035706,2.00355 8.431809,2.152396 7.16316,2.465089 6.612432,2.754133 5.45548,3.361349 4.989927,3.773792 4.011909,4.64024 3.604581,5.230358 2.91635,6.227439 2.695797,6.808991 2.23247,8.030698 2.157497,8.648132 2,9.94522 2.162826,11.286192 2.23247,11.85974 2.695797,13.081447 2.916349,13.662999 3.604581,14.660081 4.011909,15.250199 4.989927,16.116647 5.45548,16.529091 6.612432,17.136305 7.16316,17.42535 8.431809,17.738042 9.035706,17.88689 10.964293,17.88689 12.232943,17.574195 12.836839,17.42535 13.993791,16.818134 14.544519,16.529091 15.522538,15.662642 15.988091,15.250199 16.730331,14.174872 17.08365,13.662999 17.546977,12.441291 17.76753,11.85974 17.925027,10.562652 18,9.94522 17.925027,9.327786 17.76753,8.030699 17.546977,7.449147 17.08365,6.22744 16.730331,5.715567 15.988091,4.64024 15.522538,4.227796 14.544519,3.36135 13.993791,3.072305 12.836839,2.465089 12.232942,2.316242 10.964293,2.00355" style="fill: black" />
  </g>
  <g id="layer13" slic3r:z="3.475">
    <polygon slic3r:type="contour" points="11.04529,0 12.439848,0.296427 13.09017,0.434659 14.40653,1.02074 15,1.28497 16.103579,2.086761 16.69131,2.513769 17.604065,3.527493 18.090169,4.06737 18.729005,5.173857 19.13546,5.87785 19.556985,7.175182 19.781478,7.8661 19.924062,9.222724 20,9.94522 19.924062,10.667714 19.781478,12.024339 19.556985,12.715256 19.13546,14.012589 18.77222,14.641732 18.09017,15.82307 17.604065,16.362946 16.69131,17.37667 16.103579,17.803677 15,18.605467 14.40653,18.869697 13.09017,19.455779 12.379574,19.606823 11.045289,19.89044 8.95471,19.89044 8.283638,19.747796 6.90983,19.45578 6.246163,19.160295 5,18.605468 4.412269,18.17846 3.30869,17.376669 2.822585,16.836793 1.909829,15.82307 1.546591,15.193928 0.864539,14.012589 0.640047,13.321672 0.21852,12.024339 0.142583,11.301844 0,9.94522 0.142583,8.588594 0.21852,7.8661 0.640047,6.568767 0.86454,5.87785 1.54659,4.696511 1.909829,4.06737 2.822585,3.053646 3.30869,2.513769 4.412268,1.711978 5,1.284969 6.246163,0.730142 6.90983,0.434658 8.244113,0.151044 8.95471,0" style="fill: white" />
    <polygon slic3r:type="hole" points="9.035707,2.00355 8.384996,2.163935 7.16316,2.465088 6.56974,2.77654 5.45548,3.361349 4.988998,3.774615 4.01191,4.640239 3.631201,5.191792 2.91635,6.227439 2.6787,6.854072 2.23247,8.030698 2.151685,8.695995 2,9.945219 2.151685,11.194443 2.23247,11.85974 2.6787,13.036366 2.91635,13.663 3.631201,14.698647 4.01191,15.2502 4.953838,16.084675 5.45548,16.529091 6.56974,17.113898 7.16316,17.42535 8.384996,17.726503 9.035707,17.88689 10.964292,17.88689 12.186129,17.585734 12.836839,17.42535 13.951099,16.840541 14.544519,16.529091 15.486448,15.694614 15.988091,15.250199 16.702942,14.214552 17.08365,13.663 17.52988,12.486372 17.76753,11.85974 17.919215,10.610515 18,9.94522 17.919215,9.279923 17.76753,8.030699 17.52988,7.404065 17.083649,6.227439 16.702942,5.675887 15.988091,4.64024 15.486448,4.195824 14.544519,3.36135 13.951099,3.049898 12.836839,2.465089 12.186128,2.304703 10.964293,2.00355" style="fill: black" />
  </g>
  <g id="layer14" slic3r:z="3.725">
    <polygon slic3r:type="contour" points="11.045289,0 12.328451,0.272748 13.09017,0.434659 14.288587,0.968228 15,1.28497 16.061297,2.056042 16.691311,2.51377 17.569094,3.488653 18.09017,4.06737 18.746088,5.203445 19.13546,5.877849 19.540835,7.125476 19.781478,7.8661 19.918599,9.170746 20,9.94522 19.912807,10.774807 19.781478,12.02434 19.540835,12.764963 19.13546,14.01259 18.746088,14.686994 18.09017,15.82307 17.583961,16.385275 17.58396,16.385275 16.691311,17.376669 16.061297,17.834396 15,18.605468 14.288587,18.922209 13.09017,19.455779 12.328451,19.61769 11.04529,19.89044 8.954709,19.89044 8.132717,19.715716 6.90983,19.45578 6.198417,19.139037 4.999999,18.605468 4.369987,18.14774 3.30869,17.37667 2.787613,16.797953 1.909829,15.82307 1.520458,15.148665 0.86454,14.01259 0.623896,13.271965 0.218519,12.024339 0.137121,11.249867 0,9.945219 0.13712,8.640572 0.21852,7.8661 0.623896,6.618473 0.86454,5.877849 1.520458,4.741773 1.90983,4.067369 2.787613,3.092486 3.30869,2.51377 4.369987,1.742697 4.999999,1.28497 6.198417,0.7514 6.909829,0.434659 8.192991,0.16191 8.95471,0" style="fill: white" />
    <polygon slic3r:type="hole" points="9.035707,2.00355 8.400024,2.16023 7.16316,2.465088 6.527049,2.798945 5.45548,3.36135 4.917749,3.837736 4.011909,4.64024 3.603812,5.231472 2.91635,6.227439 2.661603,6.899154 2.23247,8.030699 2.145873,8.743858 2,9.94522 2.145873,11.14658 2.23247,11.859739 2.635969,12.92369 2.635968,12.92369 2.91635,13.662999 3.603812,14.658967 4.011909,15.250199 4.917749,16.052703 5.45548,16.529091 6.527049,17.091493 7.16316,17.42535 8.338182,17.714965 9.035707,17.88689 10.964293,17.88689 12.139315,17.597273 12.836839,17.42535 13.908408,16.862946 14.544518,16.529091 15.450359,15.726586 15.988091,15.250199 16.675553,14.254232 17.08365,13.663 17.512783,12.531454 17.76753,11.85974 17.913403,10.658378 18,9.94522 17.913403,9.23206 17.76753,8.030698 17.512783,7.358984 17.083649,6.227439 16.675553,5.636207 15.988091,4.64024 15.450359,4.163852 14.544518,3.361349 13.908407,3.027492 12.83684,2.465089 12.139315,2.293165 10.964293,2.00355" style="fill: black" />
  </g>
  <g id="layer15" slic3r:z="3.975">
    <polygon slic3r:type="contour" points="11.04529,0 12.277329,0.261881 13.09017,0.434659 14.240842,0.946971 14.999999,1.284969 16.019013,2.025321 16.691311,2.51377 17.534122,3.449813 18.090169,4.067369 18.676741,5.083333 19.13546,5.87785 19.524684,7.075769 19.781478,7.8661 19.913136,9.118768 20,9.945219 19.913136,10.77167 19.781477,12.02434 19.524684,12.814669 19.135459,14.01259 18.719956,14.732256 18.09017,15.823071 17.534123,16.440625 16.691311,17.376669 16.019013,17.865117 14.999999,18.605468 14.240842,18.943466 13.09017,19.455779 12.337604,19.615744 11.04529,19.89044 8.95471,19.89044 8.141869,19.717661 6.909829,19.45578 6.150671,19.117779 5,18.605468 4.327703,18.117019 3.308689,17.376669 2.737776,16.742603 1.909829,15.82307 1.479922,15.078454 0.864539,14.012589 0.607746,13.222259 0.218519,12.024339 0.131657,11.197888 0,9.945219 0.131657,8.69255 0.21852,7.866099 0.607746,6.668179 0.86454,5.877849 1.494326,4.787035 1.90983,4.067369 2.752642,3.131326 3.308689,2.51377 4.327703,1.773418 5,1.284969 6.150672,0.772657 6.909829,0.434659 8.141869,0.172777 8.95471,0" style="fill: white" />
    <polygon slic3r:type="hole" points="9.035707,2.00355 8.291368,2.187012 7.16316,2.465088 6.484357,2.821352 5.455479,3.36135 4.881659,3.869708 4.01191,4.64024 3.576423,5.271152 2.916349,6.22744 2.644506,6.944235 2.23247,8.030698 2.145391,8.747835 2,9.945219 2.140062,11.098717 2.23247,11.85974 2.644506,12.946203 2.91635,13.663 3.576423,14.619287 4.011909,15.250199 4.881659,16.02073 5.45548,16.529091 6.484357,17.069087 7.163159,17.425349 8.291369,17.703427 9.035706,17.88689 10.964293,17.88689 12.092501,17.608812 12.83684,17.425349 13.865715,16.885353 14.544519,16.52909 15.41427,15.758559 15.98809,15.2502 16.648164,14.293912 17.08365,13.663 17.495686,12.576535 17.76753,11.85974 17.907592,10.706241 18,9.94522 17.907592,9.184197 17.76753,8.030699 17.495686,7.313902 17.08365,6.22744 16.648164,5.596527 15.98809,4.640239 15.41427,4.13188 14.544519,3.36135 13.865715,3.005085 12.83684,2.465089 12.092501,2.281626 10.964293,2.00355" style="fill: black" />
  </g>
  <g id="layer16" slic3r:z="4.225">
    <polygon slic3r:type="contour" points="11.045289,0 12.226208,0.251016 13.090169,0.434659 14.193095,0.925713 15,1.28497 15.976731,1.994601 16.691311,2.51377 17.499151,3.410973 18.09017,4.06737 18.693823,5.112921 19.135459,5.877849 19.487311,6.960744 19.781478,7.8661 19.907673,9.066791 20,9.94522 19.907673,10.823648 19.781478,12.024339 19.508534,12.864375 19.13546,14.01259 18.650608,14.852368 18.650609,14.852368 18.090169,15.823071 17.499151,16.479466 16.69131,17.37667 15.956162,17.910781 15,18.605467 14.193095,18.964724 13.09017,19.45578 12.226207,19.639423 11.04529,19.89044 8.95471,19.89044 8.090748,19.706796 6.90983,19.455779 6.102925,19.096522 5,18.605468 4.28542,18.086299 3.30869,17.37667 2.71767,16.720273 1.90983,15.823071 1.468194,15.058141 0.864539,14.012589 0.591595,13.172553 0.218519,12.024339 0.126194,11.14591 0,9.945219 0.126194,8.744528 0.21852,7.8661 0.591595,6.717885 0.86454,5.877849 1.468195,4.832296 1.909829,4.06737 2.71767,3.170166 3.30869,2.513769 4.28542,1.804138 5,1.28497 6.102926,0.793915 6.90983,0.434659 8.090748,0.183642 8.95471,0" style="fill: white" />
    <polygon slic3r:type="hole" points="9.035707,2.00355 8.306397,2.183307 7.16316,2.465089 6.441664,2.843759 5.455479,3.36135 4.845571,3.90168 4.01191,4.64024 3.549034,5.310832 2.91635,6.22744 2.639623,6.957111 2.23247,8.030698 2.13425,8.839584 2,9.94522 2.13425,11.050854 2.23247,11.85974 2.627409,12.901121 2.91635,13.662999 3.549034,14.579607 4.01191,15.2502 4.84557,15.988758 5.45548,16.529091 6.441664,17.046679 7.16316,17.42535 8.244555,17.691888 9.035707,17.88689 10.964292,17.88689 12.045688,17.620349 12.83684,17.42535 13.823023,16.90776 14.544518,16.529091 15.37818,15.790531 15.988091,15.2502 16.620775,14.333592 17.083649,13.663 17.478589,12.621617 17.76753,11.85974 17.90178,10.754104 18,9.94522 17.90178,9.136334 17.76753,8.030699 17.478589,7.268821 17.08365,6.22744 16.620775,5.556847 15.988091,4.64024 15.37818,4.099907 14.544518,3.361349 13.823024,2.98268 12.836839,2.465088 12.045688,2.270089 10.964293,2.00355" style="fill: black" />
  </g>
  <g id="layer17" slic3r:z="4.475">
    <polygon slic3r:type="contour" points="11.04529,0 12.175086,0.240149 13.090169,0.434658 14.115747,0.891275 14.999999,1.284969 15.934448,1.963881 16.691311,2.51377 17.464179,3.372133 18.09017,4.06737 18.667691,5.067659 19.13546,5.877849 19.492383,6.976357 19.781478,7.8661 19.906907,9.059498 19.999999,9.94522 19.906907,10.830941 19.781478,12.024339 19.492383,12.914081 19.135459,14.01259 18.667691,14.82278 18.09017,15.82307 17.464179,16.518306 16.691311,17.376669 15.968928,17.901506 15,18.605468 14.115747,18.999162 13.090169,19.45578 12.13556,19.658691 11.045289,19.89044 8.95471,19.89044 8.079151,19.70433 6.90983,19.45578 6.05518,19.075264 4.999999,18.605468 4.243137,18.055579 3.30869,17.37667 2.682699,16.681433 1.90983,15.823071 1.442061,15.012879 0.86454,14.01259 0.575445,13.122847 0.218519,12.024339 0.120731,11.093932 0,9.945219 0.120731,8.796506 0.21852,7.8661 0.575445,6.767592 0.86454,5.877849 1.442061,4.877559 1.90983,4.067369 2.682699,3.209006 3.30869,2.513769 4.243137,1.834858 4.999999,1.28497 6.055181,0.815172 6.909829,0.434659 8.039626,0.194509 8.954709,0" style="fill: white" />
    <polygon slic3r:type="hole" points="9.035707,2.00355 8.197741,2.210089 7.16316,2.465088 6.398972,2.866166 5.455479,3.36135 4.809481,3.933653 4.01191,4.640239 3.521645,5.350512 2.91635,6.227439 2.610312,7.034398 2.23247,8.030698 2.133767,8.843561 1.999999,9.94522 2.133767,11.046877 2.23247,11.85974 2.610312,12.85604 2.91635,13.663 3.521645,14.539927 4.01191,15.2502 4.844641,15.987935 5.45548,16.529091 6.398973,17.024274 7.163159,17.425349 8.197742,17.68035 9.035706,17.88689 10.964293,17.88689 11.998874,17.631889 12.83684,17.42535 13.780332,16.930165 14.544518,16.529091 15.342091,15.822503 15.988091,15.250199 16.593386,14.373272 17.08365,13.663 17.461492,12.666698 17.76753,11.859739 17.895968,10.801967 17.999999,9.94522 17.895968,9.088471 17.76753,8.030699 17.461492,7.223739 17.08365,6.22744 16.593386,5.517167 15.988091,4.64024 15.342091,4.067935 14.544519,3.36135 13.780331,2.960272 12.83684,2.465089 11.998874,2.258549 10.964293,2.00355" style="fill: black" />
  </g>
  <g id="layer18" slic3r:z="4.725">
    <polygon slic3r:type="contour" points="11.04529,0 12.123963,0.229282 13.09017,0.434659 14.097604,0.883197 14.999999,1.284969 15.892165,1.933161 16.691311,2.51377 17.429208,3.333293 18.09017,4.06737 18.655964,5.047347 19.13546,5.87785 19.476233,6.926651 19.781478,7.8661 19.890955,8.90772 20,9.945219 19.890955,10.982719 19.781478,12.02434 19.476233,12.963788 19.13546,14.012589 18.641559,14.868042 18.090169,15.823071 17.429209,16.557145 16.69131,17.37667 15.892165,17.957277 14.999999,18.605468 14.097605,19.007239 13.090169,19.45578 12.123964,19.661155 11.04529,19.89044 8.954709,19.89044 7.988503,19.685062 6.90983,19.45578 6.007434,19.054006 5,18.605468 4.200856,18.02486 3.308689,17.376669 2.647728,16.642594 1.90983,15.82307 1.415929,14.967617 0.86454,14.01259 0.559294,13.07314 0.21852,12.02434 0.115268,11.041954 0,9.945219 0.115268,8.848484 0.21852,7.866099 0.559294,6.817298 0.864539,5.87785 1.415929,4.922821 1.90983,4.067369 2.647727,3.247846 3.308689,2.51377 4.200855,1.865578 5,1.284969 6.007434,0.836431 6.90983,0.434658 7.988503,0.205376 8.954709,0" style="fill: white" />
    <polygon slic3r:type="hole" points="9.035707,2.00355 8.150927,2.221627 7.163159,2.465089 6.35628,2.888572 5.45548,3.361349 4.773392,3.965625 4.01191,4.64024 3.494256,5.390192 2.91635,6.22744 2.593215,7.07948 2.232469,8.030699 2.122626,8.93531 2,9.945219 2.122626,10.955128 2.232469,11.859739 2.593215,12.810958 2.916349,13.662999 3.494256,14.500247 4.01191,15.2502 4.773392,15.924814 5.45548,16.529091 6.356281,17.001867 7.163159,17.425349 8.150928,17.668812 9.035706,17.88689 10.964293,17.88689 11.95206,17.643427 12.83684,17.425349 13.737639,16.952573 14.544519,16.52909 15.306002,15.854475 15.988091,15.2502 16.565997,14.412952 17.08365,13.663 17.444395,12.71178 17.76753,11.859739 17.890156,10.84983 18,9.945219 17.890156,9.040608 17.76753,8.030699 17.444395,7.178658 17.08365,6.22744 16.565997,5.477487 15.988091,4.64024 15.306002,4.035963 14.544518,3.361349 13.73764,2.937867 12.83684,2.465089 11.95206,2.247011 10.964293,2.00355" style="fill: black" />
  </g>
  <g id="layer19" slic3r:z="4.975">
    <polygon slic3r:type="contour" points="11.04529,0 12.072841,0.218415 13.09017,0.434659 14.049858,0.861939 15,1.28497 15.849882,1.902441 16.691311,2.51377 17.394236,3.294453 18.090169,4.06737 18.615427,4.977135 19.13546,5.877849 19.460083,6.876944 19.781478,7.8661 19.891284,8.910857 20,9.94522 19.891284,10.979582 19.781478,12.024339 19.460083,13.013494 19.135459,14.01259 18.572212,14.988154 18.090169,15.823071 17.394236,16.595986 16.691311,17.37667 15.849882,17.987997 14.999999,18.605468 14.049858,19.028498 13.09017,19.455779 12.133116,19.65921 11.04529,19.89044 8.95471,19.89044 7.937381,19.674195 6.90983,19.45578 5.959688,19.032748 5,18.605468 4.158572,17.994139 3.308689,17.376669 2.612756,16.603753 1.90983,15.823071 1.389797,14.922355 0.86454,14.01259 0.543144,13.023434 0.21852,12.02434 0.109805,10.989976 0,9.945219 0.109805,8.900462 0.21852,7.8661 0.543144,6.867004 0.86454,5.877849 1.389797,4.968083 1.90983,4.067369 2.612756,3.286686 3.308689,2.51377 4.158572,1.896298 5,1.284969 5.959688,0.857689 6.90983,0.434658 7.976907,0.207841 8.95471,0" style="fill: white" />
    <polygon slic3r:type="hole" points="9.035706,2.00355 8.104114,2.233166 7.163159,2.465088 6.313589,2.910978 5.45548,3.36135 4.737302,3.997597 4.01191,4.64024 3.481745,5.408318 2.91635,6.227439 2.576118,7.124561 2.23247,8.030699 2.110026,9.039087 2,9.94522 2.116815,10.907265 2.23247,11.859739 2.576118,12.765877 2.91635,13.663 3.481745,14.482121 4.01191,15.2502 4.737302,15.892841 5.45548,16.52909 6.313589,16.979461 7.16316,17.42535 8.104114,17.657272 9.035707,17.88689 10.964293,17.88689 11.905246,17.654966 12.83684,17.42535 13.694947,16.974979 14.544519,16.529091 15.269913,15.886447 15.988091,15.2502 16.538608,14.452632 17.08365,13.662999 17.427298,12.756861 17.76753,11.85974 17.884345,10.897693 18,9.945219 17.884346,8.992746 17.76753,8.030699 17.427298,7.133576 17.08365,6.22744 16.538608,5.437807 15.988091,4.64024 15.269913,4.003992 14.544518,3.361349 13.694948,2.91546 12.83684,2.465089 11.905247,2.235473 10.964292,2.00355" style="fill: black" />
  </g>
  <g id="layer20" slic3r:z="5.225">
    <polygon slic3r:type="contour" points="11.045289,0 12.021719,0.207549 13.09017,0.434659 14.002112,0.840682 15,1.28497 15.886831,1.929285 16.69131,2.51377 17.359266,3.255614 18.09017,4.06737 18.589294,4.931873 19.13546,5.87785 19.443932,6.827238 19.781478,7.8661 19.885821,8.858879 20,9.94522 19.885821,11.03156 19.781478,12.02434 19.443932,13.0632 19.13546,14.012589 18.589294,14.958566 18.09017,15.82307 17.359265,16.634826 16.69131,17.37667 15.8076,18.018716 15,18.605467 14.002112,19.049756 13.09017,19.455779 12.081994,19.670077 12.081994,19.670076 11.04529,19.89044 8.95471,19.89044 7.886259,19.663329 6.909829,19.45578 5.911942,19.01149 5,18.605468 4.11629,17.963421 3.308689,17.376669 2.577785,16.564914 1.90983,15.823071 1.363665,14.877093 0.864539,14.012589 0.526993,12.973728 0.21852,12.02434 0.104342,10.937998 0,9.94522 0.104342,8.95244 0.21852,7.866099 0.526993,6.91671 0.86454,5.87785 1.363665,5.013345 1.90983,4.067369 2.577784,3.325526 3.30869,2.513769 4.116289,1.927018 5,1.284969 5.911942,0.878947 6.909829,0.434659 7.886259,0.227109 8.95471,0" style="fill: white" />
    <polygon slic3r:type="hole" points="9.035707,2.00355 8.0573,2.244704 7.16316,2.465088 6.270897,2.933384 5.45548,3.36135 4.701213,4.02957 4.01191,4.640239 3.439478,5.469552 2.91635,6.227439 2.571235,7.137437 2.232469,8.030698 2.111003,9.031036 1.999999,9.94522 2.111003,10.859402 2.232469,11.85974 2.559021,12.720795 2.916349,13.662999 3.439478,14.420887 4.01191,15.2502 4.701213,15.860869 5.45548,16.529091 6.270896,16.957053 7.16316,17.42535 8.0573,17.645734 9.035706,17.88689 10.964293,17.88689 11.858433,17.666504 12.83684,17.42535 13.652255,16.997386 14.544519,16.529091 15.233823,15.91842 15.98809,15.2502 16.511219,14.492312 17.083649,13.663 17.410201,12.801943 17.76753,11.859739 17.878533,10.945556 18,9.94522 17.878533,8.944882 17.76753,8.030699 17.410201,7.088495 17.08365,6.22744 16.511219,5.398127 15.988091,4.64024 15.233823,3.972018 14.544519,3.36135 13.652255,2.893053 12.83684,2.465089 11.858433,2.223934 10.964293,2.00355" style="fill: black" />
  </g>
  <g id="layer21" slic3r:z="5.475">
    <polygon slic3r:type="contour" points="11.04529,0 11.970597,0.196682 13.09017,0.434659 13.954367,0.819424 15,1.28497 15.765317,1.841001 16.691311,2.51377 17.324293,3.216773 18.09017,4.06737 18.563162,4.886611 19.135459,5.877849 19.406559,6.712213 19.781478,7.866099 19.880358,8.806901 19.999999,9.94522 19.880358,11.083538 19.781478,12.024339 19.438986,13.078425 19.13546,14.012589 18.563163,15.003827 18.09017,15.823071 17.324293,16.673666 16.691311,17.376669 15.765317,18.049436 15,18.605467 13.954367,19.071013 13.09017,19.455779 12.030872,19.680943 11.04529,19.89044 8.95471,19.89044 7.835137,19.652462 6.90983,19.45578 5.864197,18.990233 5,18.605468 4.074006,17.9327 3.30869,17.37667 2.542813,16.526073 1.909829,15.82307 1.337532,14.831831 0.86454,14.01259 0.510843,12.924022 0.21852,12.02434 0.09888,10.886021 0,9.945219 0.098879,9.004418 0.21852,7.866099 0.510843,6.966417 0.86454,5.87785 1.337533,5.058606 1.90983,4.06737 2.542813,3.364366 3.30869,2.51377 4.074006,1.957738 4.999999,1.28497 5.864197,0.900204 6.90983,0.434659 7.874663,0.229574 8.95471,0" style="fill: white" />
    <polygon slic3r:type="hole" points="9.035707,2.00355 8.010486,2.256243 7.16316,2.465088 6.228204,2.955792 5.45548,3.361349 4.665124,4.061542 4.01191,4.640239 3.426967,5.487678 2.91635,6.22744 2.541924,7.214724 2.232469,8.030699 2.098402,9.134813 2,9.94522 2.105191,10.811539 2.232469,11.859739 2.541924,12.675714 2.916349,13.663 3.426967,14.402761 4.01191,15.2502 4.665124,15.828897 5.45548,16.529091 6.228204,16.934647 7.16316,17.42535 8.010486,17.634195 9.035707,17.88689 10.964292,17.88689 11.81162,17.678042 12.83684,17.42535 13.609563,17.019792 14.544518,16.529091 15.197735,15.950391 15.988091,15.2502 16.48383,14.531992 17.08365,13.662999 17.393104,12.847024 17.76753,11.85974 17.872721,10.993419 18,9.945219 17.872722,8.89702 17.767529,8.030698 17.393104,7.043413 17.08365,6.22744 16.48383,5.358447 15.98809,4.640239 15.197734,3.940046 14.544519,3.36135 13.609563,2.870646 12.83684,2.465089 11.811619,2.212395 10.964293,2.00355" style="fill: black" />
  </g>
  <g id="layer22" slic3r:z="5.725">
    <polygon slic3r:type="contour" points="11.045289,0 11.87995,0.177415 13.090169,0.434658 13.906622,0.798167 14.999999,1.284969 15.723034,1.810281 16.69131,2.513769 17.289322,3.177933 18.09017,4.06737 18.53703,4.841349 19.135459,5.877849 19.411631,6.727826 19.781478,7.8661 19.874895,8.754923 20,9.945219 19.874895,11.135516 19.781478,12.024339 19.411631,13.162613 19.135459,14.01259 18.53703,15.04909 18.09017,15.823071 17.289323,16.712505 16.69131,17.37667 15.723035,18.080155 14.999999,18.605468 13.906621,19.092271 13.090169,19.45578 11.919476,19.704621 11.04529,19.89044 8.954709,19.89044 7.723741,19.628784 6.909829,19.455779 5.816452,18.968976 5,18.605467 4.031724,17.90198 3.30869,17.37667 2.507841,16.487233 1.909829,15.82307 1.3114,14.786569 0.86454,14.012589 0.494692,12.874315 0.21852,12.02434 0.093416,10.834042 0,9.945219 0.093417,9.056395 0.21852,7.8661 0.494692,7.016123 0.864539,5.87785 1.3114,5.103869 1.90983,4.06737 2.507842,3.403205 3.308689,2.51377 4.031724,1.988458 4.999999,1.28497 5.816452,0.921461 6.909829,0.434659 7.784016,0.248841 8.954709,0" style="fill: white" />
    <polygon slic3r:type="hole" points="9.035706,2.00355 7.963674,2.26778 7.16316,2.465089 6.185512,2.978198 5.45548,3.361349 4.629036,4.093513 4.011909,4.64024 3.330691,5.627158 2.91635,6.22744 2.524827,7.259806 2.23247,8.030699 2.099379,9.126762 2,9.945219 2.099379,10.763676 2.23247,11.859739 2.499193,12.563038 2.499192,12.563038 2.916349,13.662999 3.330691,14.263281 4.011909,15.250199 4.629035,15.796924 5.45548,16.529091 6.185512,16.91224 7.16316,17.42535 7.963673,17.622657 9.035707,17.88689 10.964293,17.88689 11.764805,17.689581 12.836839,17.42535 13.566871,17.042199 14.544519,16.529091 15.161645,15.982365 15.98809,15.2502 16.456442,14.571671 17.08365,13.663 17.376007,12.892106 17.76753,11.859739 17.866909,11.041282 18,9.94522 17.866909,8.849156 17.76753,8.030699 17.376007,6.998332 17.083649,6.227439 16.456442,5.318768 15.98809,4.640239 15.161645,3.908074 14.544519,3.361349 13.566871,2.84824 12.83684,2.465089 11.764806,2.200858 10.964292,2.00355" style="fill: black" />
  </g>
  <g id="layer23" slic3r:z="5.975">
    <polygon slic3r:type="contour" points="11.04529,0 11.868354,0.17495 13.09017,0.434659 13.929072,0.808162 14.999999,1.284969 15.680752,1.779562 16.691311,2.51377 17.25435,3.139093 18.09017,4.06737 18.510898,4.796087 19.13546,5.87785 19.395481,6.678119 19.781478,7.8661 19.869432,8.702945 20,9.94522 19.869432,11.187494 19.781478,12.02434 19.395481,13.212319 19.13546,14.012589 18.510898,15.094352 18.090169,15.823071 17.254351,16.751345 16.69131,17.37667 15.680752,18.110875 14.999999,18.605468 13.858875,19.113529 13.090169,19.45578 11.868354,19.715488 11.04529,19.89044 8.95471,19.89044 7.732893,19.630729 6.90983,19.45578 5.798309,18.960898 4.999999,18.605468 3.989442,17.871261 3.30869,17.37667 2.47287,16.448393 1.909829,15.82307 1.285268,14.741307 0.86454,14.01259 0.499766,12.889929 0.21852,12.02434 0.087953,10.782064 0,9.94522 0.087953,9.108374 0.21852,7.866099 0.478542,7.065829 0.86454,5.87785 1.285268,5.149131 1.90983,4.06737 2.47287,3.442046 3.308689,2.51377 3.989441,2.019178 5,1.284969 5.768705,0.94272 6.90983,0.434659 7.732894,0.259708 8.954709,0" style="fill: white" />
    <polygon slic3r:type="hole" points="9.035707,2.00355 7.916859,2.27932 7.16316,2.465088 6.14282,3.000605 5.45548,3.361349 4.592945,4.125486 4.01191,4.64024 3.357311,5.588592 2.91635,6.227439 2.519944,7.272681 2.23247,8.030698 2.093568,9.174625 2,9.94522 2.093568,10.715813 2.23247,11.85974 2.50773,12.585551 2.916349,13.662999 3.357311,14.301847 4.01191,15.2502 4.592945,15.764952 5.455479,16.52909 6.14282,16.889834 7.16316,17.42535 7.916859,17.611118 9.035707,17.88689 10.964292,17.88689 11.717993,17.701119 12.83684,17.425349 13.52418,17.064604 14.544518,16.529091 15.125555,16.014337 15.988091,15.2502 16.429052,14.611352 17.083649,13.663 17.35891,12.937187 17.767529,11.85974 17.861098,11.089145 18,9.94522 17.861098,8.801293 17.767529,8.030698 17.35891,6.95325 17.08365,6.22744 16.429052,5.279087 15.988091,4.64024 15.125555,3.876102 14.544519,3.36135 13.524179,2.825833 12.83684,2.465089 11.755951,2.198674 10.964293,2.00355" style="fill: black" />
  </g>
  <g id="layer24" slic3r:z="6.225">
    <polygon slic3r:type="contour" points="11.045289,0 11.817231,0.164083 13.09017,0.434659 13.81113,0.755652 15,1.28497 15.638468,1.748841 16.69131,2.513769 17.219379,3.100253 18.09017,4.06737 18.484765,4.750825 19.13546,5.87785 19.358107,6.563094 19.781477,7.866099 19.863969,8.650967 19.999999,9.94522 19.863969,11.239472 19.781478,12.02434 19.358107,13.327344 19.135459,14.01259 18.484765,15.139614 18.090169,15.823071 17.187694,16.825376 16.69131,17.37667 15.638468,18.141596 14.999999,18.605468 13.781526,19.147967 13.09017,19.45578 11.817231,19.726355 11.04529,19.89044 8.95471,19.89044 7.681771,19.619863 6.909829,19.455779 5.72096,18.92646 4.999999,18.605468 3.947158,17.84054 3.30869,17.37667 2.437898,16.409553 1.90983,15.823071 1.302352,14.770896 0.86454,14.01259 0.462392,12.774904 0.218519,12.024339 0.08249,10.730086 0,9.945219 0.08249,9.160352 0.21852,7.8661 0.462391,7.115535 0.86454,5.877849 1.259136,5.194393 1.909829,4.06737 2.437898,3.480886 3.30869,2.513769 3.947158,2.049898 5,1.28497 5.72096,0.963977 6.909829,0.434659 7.681771,0.270575 8.95471,0" style="fill: white" />
    <polygon slic3r:type="hole" points="9.035706,2.00355 7.832087,2.300213 7.16316,2.465089 6.173218,2.98465 5.45548,3.36135 4.556856,4.157459 4.01191,4.640239 3.329922,5.628272 2.916349,6.22744 2.490633,7.349969 2.23247,8.030699 2.087757,9.222487 2,9.94522 2.087756,10.66795 2.23247,11.85974 2.490633,12.540469 2.91635,13.663 3.329922,14.262167 4.01191,15.2502 4.556856,15.73298 5.45548,16.529091 6.100128,16.867427 7.16316,17.425349 7.870045,17.59958 9.035707,17.88689 10.964292,17.88689 11.671179,17.712657 12.836839,17.42535 13.481488,17.087011 14.544519,16.52909 15.089466,16.046309 15.988091,15.2502 16.401664,14.651031 17.08365,13.663 17.341813,12.982269 17.767529,11.85974 17.855286,11.137008 18,9.94522 17.855286,8.753429 17.76753,8.030698 17.341813,6.908169 17.08365,6.22744 16.401664,5.239408 15.988091,4.64024 15.106277,3.859022 14.544519,3.361349 13.408398,2.765066 12.836839,2.465088 11.671179,2.177781 10.964292,2.00355" style="fill: black" />
  </g>
  <g id="layer25" slic3r:z="6.475">
    <polygon slic3r:type="contour" points="11.04529,0 11.766109,0.153216 13.09017,0.434659 13.763384,0.734393 14.999999,1.284969 15.596187,1.718122 16.691311,2.51377 17.184407,3.061413 18.090169,4.067369 18.458633,4.705563 19.135459,5.877849 19.36318,6.578707 19.781478,7.8661 19.858506,8.598989 20,9.945219 19.858506,11.29145 19.781478,12.02434 19.36318,13.311731 19.13546,14.01259 18.458633,15.184876 18.090169,15.823071 17.184407,16.829026 16.691311,17.376669 15.575617,18.18726 14.999999,18.605468 13.763384,19.156045 13.09017,19.45578 11.766109,19.737222 11.045289,19.89044 8.95471,19.89044 7.630649,19.608996 6.90983,19.45578 5.673214,18.905201 5,18.605468 3.904875,17.80982 3.308689,17.37667 2.402927,16.370713 1.90983,15.823071 1.233003,14.650783 0.86454,14.01259 0.446241,12.725197 0.218519,12.024339 0.077027,10.678108 0,9.94522 0.077027,9.21233 0.21852,7.8661 0.446241,7.165242 0.86454,5.87785 1.233003,5.239655 1.90983,4.06737 2.402927,3.519726 3.308689,2.51377 3.904875,2.080618 5,1.284969 5.673214,0.985235 6.909829,0.434659 7.630649,0.281442 8.95471,0" style="fill: white" />
    <polygon slic3r:type="hole" points="9.035706,2.00355 7.823232,2.302396 7.16316,2.465088 6.057436,3.045418 5.455479,3.36135 4.520767,4.189431 4.01191,4.640239 3.302533,5.667952 2.91635,6.22744 2.473536,7.39505 2.23247,8.030699 2.081944,9.270351 2,9.94522 2.081944,10.620087 2.23247,11.85974 2.473536,12.495388 2.91635,13.663 3.302533,14.222487 4.01191,15.2502 4.520767,15.701008 5.45548,16.529091 6.057436,16.845021 7.16316,17.42535 7.823233,17.588042 9.035706,17.88689 10.964292,17.88689 11.624364,17.724197 12.83684,17.425349 13.438795,17.109418 14.544519,16.52909 15.053377,16.078281 15.988091,15.2502 16.374274,14.690712 17.083649,13.663 17.324716,13.02735 17.76753,11.85974 17.849474,11.184871 18,9.945219 17.849474,8.705566 17.76753,8.030699 17.324716,6.863087 17.08365,6.22744 16.374274,5.199727 15.988091,4.64024 15.053377,3.812157 14.544518,3.36135 13.438795,2.78102 12.83684,2.465089 11.662323,2.175597 10.964293,2.00355" style="fill: black" />
  </g>
  <g id="layer26" slic3r:z="6.725">
    <polygon slic3r:type="contour" points="11.04529,0 11.714987,0.14235 13.09017,0.434659 13.715638,0.713135 15,1.28497 15.553903,1.687401 16.69131,2.513769 17.149436,3.022573 18.090169,4.06737 18.389286,4.585451 19.135459,5.877849 19.347029,6.529001 19.781478,7.8661 19.857739,8.591696 20,9.945219 19.857739,11.298743 19.781478,12.024339 19.347029,13.361438 19.135459,14.01259 18.389286,15.304988 18.389287,15.304988 18.09017,15.82307 17.149436,16.867866 16.69131,17.37667 15.553903,18.203036 15,18.605467 13.715638,19.177302 13.09017,19.455779 11.714987,19.748088 11.045289,19.89044 8.95471,19.89044 7.579527,19.59813 6.909829,19.45578 5.625468,18.883944 5,18.605468 3.862593,17.7791 3.30869,17.37667 2.367955,16.331873 1.90983,15.823071 1.206871,14.605521 0.86454,14.01259 0.43009,12.67549 0.21852,12.02434 0.071564,10.62613 0,9.945219 0.071564,9.264308 0.21852,7.866099 0.43009,7.214948 0.86454,5.87785 1.206871,5.284917 1.909829,4.06737 2.367955,3.558566 3.30869,2.513769 3.862593,2.111338 5,1.28497 5.625468,1.006493 6.90983,0.434659 7.579527,0.292308 8.95471,0" style="fill: white" />
    <polygon slic3r:type="hole" points="9.035707,2.00355 7.776418,2.313935 7.16316,2.465088 6.087834,3.029463 5.45548,3.36135 4.484678,4.221403 4.011909,4.64024 3.275144,5.707632 2.916349,6.22744 2.430804,7.507726 2.430805,7.507726 2.232469,8.030699 2.076132,9.318214 2,9.945219 2.069343,10.51631 2.232469,11.859739 2.456439,12.450306 2.91635,13.663 3.275144,14.182807 4.01191,15.2502 4.484678,15.669035 5.45548,16.529091 6.014744,16.822614 7.16316,17.42535 7.776418,17.576503 9.035707,17.88689 10.964292,17.88689 11.577552,17.735734 12.83684,17.42535 13.396103,17.131825 14.544519,16.529091 15.017288,16.110253 15.98809,15.2502 16.346885,14.730392 17.08365,13.663 17.30762,13.072431 17.76753,11.85974 17.843662,11.232734 18,9.945219 17.843663,8.657704 17.767529,8.030698 17.30762,6.818007 17.083649,6.227439 16.346885,5.160047 15.98809,4.640239 15.017288,3.780186 14.544518,3.361349 13.396104,2.758614 12.83684,2.465089 11.577551,2.154703 10.964293,2.00355" style="fill: black" />
  </g>
  <g id="layer27" slic3r:z="6.975">
    <polygon slic3r:type="contour" points="11.04529,0 11.663865,0.131483 13.09017,0.434659 13.667892,0.691877 15,1.28497 15.5461,1.681732 16.691311,2.51377 17.114464,2.983733 18.09017,4.06737 18.406369,4.615039 19.13546,5.87785 19.330879,6.479294 19.781478,7.8661 19.847579,8.495033 20,9.94522 19.847579,11.395406 19.781477,12.02434 19.330879,13.411144 19.13546,14.012589 18.406369,15.2754 18.090169,15.823071 17.114464,16.906706 16.69131,17.37667 15.51162,18.233756 15,18.605468 13.667892,19.19856 13.09017,19.45578 11.663866,19.758954 11.045289,19.89044 8.95471,19.89044 7.567931,19.595665 6.90983,19.45578 5.577722,18.862686 5,18.605468 3.82031,17.74838 3.308689,17.376669 2.332984,16.293033 1.909829,15.82307 1.180739,14.560259 0.86454,14.01259 0.41394,12.625784 0.218519,12.024339 0.066101,10.574152 0,9.94522 0.066101,9.316286 0.21852,7.866099 0.41394,7.264654 0.86454,5.87785 1.180739,5.330179 1.909829,4.06737 2.332984,3.597406 3.30869,2.513769 3.82031,2.142058 5,1.28497 5.577722,1.027751 6.90983,0.434659 7.567931,0.294773 8.95471,0" style="fill: white" />
    <polygon slic3r:type="hole" points="9.035707,2.00355 7.729604,2.325473 7.16316,2.465088 5.972053,3.09023 5.45548,3.36135 4.448588,4.253375 4.01191,4.64024 3.247755,5.747312 2.916349,6.22744 2.413707,7.552807 2.413708,7.552807 2.23247,8.030699 2.070321,9.366077 2,9.94522 2.070321,10.524361 2.23247,11.859739 2.439342,12.405225 2.91635,13.663 3.247755,14.143127 4.011909,15.250199 4.448588,15.637063 5.45548,16.529091 5.972052,16.800208 7.163159,17.425349 7.729605,17.564965 9.035707,17.88689 10.964293,17.88689 11.530737,17.747274 12.83684,17.42535 13.353411,17.154231 14.544518,16.529091 14.981199,16.142225 15.98809,15.2502 16.319496,14.770072 17.08365,13.662999 17.290522,13.117513 17.767529,11.85974 17.837851,11.280597 18,9.94522 17.837851,8.60984 17.76753,8.030699 17.290522,6.772924 17.08365,6.22744 16.319496,5.120367 15.98809,4.640239 14.981198,3.748213 14.544519,3.36135 13.353411,2.736207 12.83684,2.465089 11.530738,2.143165 10.964292,2.00355" style="fill: black" />
  </g>
  <g id="layer28" slic3r:z="7.225">
    <polygon slic3r:type="contour" points="11.045289,0 11.573218,0.112216 13.09017,0.434659 13.690343,0.701874 14.999999,1.284969 15.469337,1.625961 16.691311,2.51377 17.079493,2.944893 18.09017,4.06737 18.380236,4.569777 19.13546,5.87785 19.314728,6.429588 19.781478,7.8661 19.842116,8.443055 20,9.94522 19.842116,11.447384 19.781478,12.024339 19.325932,13.426369 19.135459,14.01259 18.337021,15.395512 18.337022,15.395512 18.090169,15.823071 17.079493,16.945546 16.691311,17.376669 15.469337,18.264476 14.999999,18.605468 13.620146,19.219818 13.09017,19.45578 11.612744,19.76982 11.04529,19.89044 8.954709,19.89044 7.417009,19.563585 6.909829,19.455779 5.529977,18.841429 4.999999,18.605467 3.778028,17.717661 3.30869,17.37667 2.298012,16.254193 1.90983,15.823071 1.154607,14.514997 0.86454,14.012589 0.397789,12.576078 0.21852,12.02434 0.060638,10.522174 0,9.94522 0.060638,9.368264 0.21852,7.8661 0.397789,7.31436 0.86454,5.877849 1.154607,5.375441 1.90983,4.067369 2.298012,3.636246 3.308689,2.51377 3.778027,2.172778 5,1.284969 5.529976,1.049009 6.909829,0.434659 7.477284,0.31404 8.95471,0" style="fill: white" />
    <polygon slic3r:type="hole" points="9.035707,2.00355 7.682791,2.337012 7.163159,2.465089 5.90265,3.126655 5.455479,3.36135 4.412499,4.285348 4.01191,4.640239 3.220366,5.786992 2.91635,6.227439 2.422245,7.530294 2.23247,8.030698 2.064509,9.41394 2,9.94522 2.064509,10.476498 2.23247,11.859739 2.396611,12.292549 2.39661,12.292549 2.916349,13.663 3.220366,14.103447 4.01191,15.2502 4.495489,15.678614 5.45548,16.529091 5.92936,16.777801 7.163159,17.425349 7.682791,17.553426 9.035707,17.88689 10.964292,17.88689 11.483923,17.758812 12.83684,17.425349 13.310719,17.176638 14.544519,16.529091 14.945109,16.174198 15.988091,15.2502 16.292107,14.809752 17.083649,13.663 17.273425,13.162595 17.767529,11.85974 17.832039,11.32846 18,9.94522 17.832039,8.561977 17.76753,8.030699 17.273425,6.727843 17.083649,6.227439 16.292107,5.080687 15.988091,4.64024 14.945109,3.71624 14.544519,3.36135 13.310719,2.7138 12.83684,2.465089 11.483924,2.131627 10.964292,2.00355" style="fill: black" />
  </g>
  <g id="layer29" slic3r:z="7.475">
    <polygon slic3r:type="contour" points="11.04529,0 11.561621,0.10975 13.090169,0.434659 13.572401,0.649362 15,1.28497 15.427055,1.595241 16.691311,2.51377 17.044521,2.906053 18.090169,4.067369 18.354104,4.524515 19.13546,5.87785 19.309782,6.414363 19.781478,7.8661 19.836653,8.391077 20,9.945219 19.836653,11.499362 19.781477,12.02434 19.298578,13.510556 19.13546,14.01259 18.354104,15.365924 18.09017,15.82307 17.044521,16.984386 16.691311,17.376669 15.427055,18.295196 14.999999,18.605468 13.572401,19.241076 13.090169,19.45578 11.522096,19.789089 11.04529,19.89044 8.95471,19.89044 7.426161,19.56553 6.90983,19.45578 5.482231,18.82017 5,18.605468 3.735744,17.68694 3.30869,17.37667 2.263041,16.215353 1.909829,15.82307 1.128474,14.469735 0.86454,14.012589 0.381639,12.526372 0.21852,12.02434 0.055175,10.470196 0,9.94522 0.055175,9.420242 0.21852,7.866099 0.381639,7.364067 0.86454,5.877849 1.128474,5.420703 1.90983,4.06737 2.263041,3.675086 3.308689,2.51377 3.735745,2.203497 5,1.28497 5.482231,1.070266 6.90983,0.434658 7.426162,0.324907 8.954709,0" style="fill: white" />
    <polygon slic3r:type="hole" points="9.035707,2.00355 7.697819,2.333307 7.16316,2.465088 5.959758,3.096683 5.45548,3.361349 4.37641,4.31732 4.01191,4.640239 3.192977,5.826672 2.916349,6.22744 2.379513,7.64297 2.379514,7.64297 2.23247,8.030699 2.058697,9.461803 2,9.945219 2.058697,10.428635 2.23247,11.859739 2.405148,12.315062 2.91635,13.663 3.192977,14.063767 4.01191,15.2502 4.37641,15.573118 5.45548,16.529091 5.886668,16.755395 7.16316,17.42535 7.635977,17.541887 9.035707,17.88689 10.964293,17.88689 11.43711,17.770351 12.836839,17.42535 13.268027,17.199044 14.544519,16.529091 14.909019,16.206171 15.988091,15.250199 16.264718,14.849432 17.08365,13.662999 17.256328,13.207676 17.76753,11.85974 17.826227,11.376323 18,9.945219 17.826228,8.514115 17.767529,8.030698 17.256329,6.682763 17.08365,6.22744 16.264718,5.041007 15.988091,4.64024 14.909019,3.684268 14.544519,3.36135 13.268027,2.691394 12.836839,2.465088 11.437111,2.120088 10.964293,2.00355" style="fill: black" />
  </g>
  <g id="layer30" slic3r:z="7.725">
    <polygon slic3r:type="contour" points="11.045289,0 11.470974,0.090483 13.09017,0.434659 13.524655,0.628104 14.999999,1.28497 15.364203,1.549577 16.69131,2.513769 17.00955,2.867213 18.09017,4.06737 18.327972,4.479253 19.13546,5.87785 19.282428,6.330175 19.781478,7.8661 19.835887,8.383784 20,9.945219 19.835887,11.506655 19.781478,12.024339 19.282428,13.560263 19.13546,14.01259 18.327972,15.411186 18.09017,15.823071 17.009551,17.023225 16.691311,17.376669 15.384772,18.325916 15,18.605467 13.594852,19.23108 13.09017,19.45578 11.5105,19.791553 11.04529,19.89044 8.95471,19.89044 7.37504,19.554665 6.909829,19.455779 5.434486,18.798913 4.999999,18.605467 3.693463,17.656221 3.308689,17.376669 2.213203,16.160003 1.909829,15.82307 1.102342,14.424473 0.86454,14.01259 0.365488,12.476665 0.21852,12.02434 0.049712,10.418218 0,9.945219 0.049712,9.47222 0.21852,7.8661 0.365488,7.413773 0.86454,5.877849 1.102342,5.465965 1.90983,4.067369 2.22807,3.713925 3.308689,2.51377 3.693462,2.234218 5,1.284969 5.434485,1.091524 6.90983,0.434659 7.37504,0.335773 8.954709,0" style="fill: white" />
    <polygon slic3r:type="hole" points="9.035707,2.00355 7.589164,2.360088 7.16316,2.465088 5.843976,3.15745 5.455479,3.36135 4.340321,4.349292 4.01191,4.640239 3.180466,5.844798 2.91635,6.227439 2.388051,7.620457 2.232469,8.030699 2.052885,9.509666 2,9.945219 2.046096,10.324858 2.232469,11.859739 2.388051,12.26998 2.91635,13.663 3.180466,14.045641 4.01191,15.2502 4.340321,15.541146 5.455479,16.52909 5.843976,16.732988 7.16316,17.42535 7.589163,17.530349 9.035707,17.88689 10.964293,17.88689 11.390296,17.781889 12.83684,17.42535 13.225335,17.221451 14.544519,16.529091 14.872931,16.238142 15.988091,15.2502 16.237329,14.889112 17.08365,13.662999 17.239231,13.252758 17.76753,11.859739 17.820415,11.424186 18,9.945219 17.820415,8.466251 17.76753,8.030699 17.239231,6.63768 17.08365,6.22744 16.237329,5.001327 15.988091,4.640239 14.872931,3.652297 14.544519,3.36135 13.225335,2.668987 12.83684,2.465089 11.390296,2.108549 10.964293,2.00355" style="fill: black" />
  </g>
  <g id="layer31" slic3r:z="7.975">
    <polygon slic3r:type="contour" points="11.045289,0 11.459378,0.088018 13.090169,0.434658 13.47691,0.606847 15,1.28497 15.342489,1.533801 16.691311,2.51377 16.974578,2.828373 18.09017,4.06737 18.30184,4.433991 19.135459,5.877849 19.266277,6.280469 19.781477,7.866099 19.819935,8.232006 20,9.945219 19.819935,11.658433 19.781478,12.02434 19.266277,13.609969 19.13546,14.012589 18.30184,15.456448 18.09017,15.823071 16.974578,17.062066 16.691311,17.376669 15.342489,18.356636 15,18.605468 13.47691,19.28359 13.090169,19.45578 11.419853,19.810822 11.045289,19.89044 8.95471,19.89044 7.323918,19.543798 6.909829,19.455779 5.386739,18.777655 5,18.605468 3.651179,17.6255 3.30869,17.37667 2.193098,16.137673 1.909829,15.82307 1.07621,14.379211 0.86454,14.01259 0.349338,12.426959 0.21852,12.024339 0.044249,10.36624 0,9.94522 0.04425,9.524197 0.218519,7.8661 0.349338,7.463479 0.86454,5.87785 1.07621,5.511227 1.90983,4.067369 2.193098,3.752766 3.30869,2.513769 3.65118,2.264937 4.999999,1.28497 5.38674,1.112781 6.909829,0.434659 7.263643,0.359452 7.263643,0.359453 8.954709,0" style="fill: white" />
    <polygon slic3r:type="hole" points="9.035706,2.00355 7.54235,2.371627 7.163159,2.465088 5.774574,3.193875 5.455479,3.36135 4.304231,4.381264 4.01191,4.640239 3.138199,5.906032 2.91635,6.227439 2.370954,7.665539 2.23247,8.030698 2.047074,9.557529 2,9.94522 2.052403,10.376795 2.23247,11.85974 2.383168,12.257105 2.91635,13.663 3.138199,13.984407 4.01191,15.2502 4.304231,15.509174 5.45548,16.529091 5.801284,16.710582 7.16316,17.42535 7.542351,17.518811 9.035706,17.88689 10.964293,17.88689 11.343482,17.793428 12.83684,17.42535 13.182643,17.243857 14.544519,16.529091 14.836841,16.270115 15.988091,15.250199 16.20994,14.928792 17.08365,13.663 17.222134,13.297839 17.76753,11.85974 17.814604,11.472049 18,9.945219 17.814604,8.418388 17.76753,8.030699 17.222134,6.592599 17.08365,6.22744 16.20994,4.961647 15.988091,4.64024 14.836841,3.620324 14.544518,3.361349 13.182643,2.646581 12.83684,2.465089 11.343482,2.09701 10.964293,2.00355" style="fill: black" />
  </g>
  <g id="layer32" slic3r:z="8.225">
    <polygon slic3r:type="contour" points="11.04529,0 11.408255,0.077151 13.090169,0.434659 13.429163,0.585589 15,1.28497 15.300206,1.503081 16.691311,2.51377 16.939607,2.789533 18.09017,4.06737 18.275707,4.388729 19.13546,5.87785 19.261331,6.265244 19.781478,7.8661 19.820264,8.235143 20,9.945219 19.820264,11.655296 19.781478,12.02434 19.250127,13.659675 19.13546,14.012589 18.275707,15.50171 18.09017,15.82307 16.939607,17.100906 16.691311,17.37667 15.300206,18.387356 15,18.605468 13.429163,19.304849 13.090169,19.45578 11.368731,19.821688 11.045289,19.89044 8.95471,19.89044 7.272795,19.532931 6.90983,19.45578 5.338993,18.756397 4.999999,18.605467 3.574417,17.56973 3.30869,17.37667 2.158127,16.098834 1.90983,15.823071 1.050078,14.333949 0.86454,14.01259 0.333187,12.377253 0.21852,12.024339 0.038786,10.314262 0,9.94522 0.038786,9.576176 0.218519,7.8661 0.333187,7.513186 0.86454,5.877849 1.050078,5.556489 1.90983,4.06737 2.158126,3.791606 3.30869,2.51377 3.608896,2.295658 5,1.284969 5.338994,1.134039 6.90983,0.434659 7.272795,0.357507 8.954709,0" style="fill: white" />
    <polygon slic3r:type="hole" points="9.035706,2.00355 7.495537,2.383165 7.16316,2.465089 5.758592,3.202263 5.455479,3.36135 4.268142,4.413237 4.01191,4.64024 3.11081,5.945712 2.91635,6.227439 2.366071,7.678414 2.232469,8.030698 2.041262,9.605392 2,9.94522 2.041262,10.285046 2.23247,11.859739 2.353857,12.179817 2.91635,13.663 3.11081,13.944727 4.01191,15.2502 4.268142,15.477202 5.455479,16.52909 5.758592,16.688175 7.16316,17.425349 7.495537,17.507273 9.035706,17.88689 10.964292,17.88689 11.29667,17.804965 12.836839,17.42535 13.139952,17.266264 14.544519,16.529091 14.800752,16.302087 15.988091,15.250199 16.182551,14.968472 17.08365,13.662999 17.205037,13.342921 17.76753,11.85974 17.808792,11.519912 18,9.945219 17.808792,8.370525 17.76753,8.030699 17.205037,6.547517 17.083649,6.227439 16.182551,4.921967 15.988091,4.64024 14.800752,3.588351 14.544519,3.36135 13.139952,2.624174 12.836839,2.465089 11.234828,2.07023 10.964292,2.00355" style="fill: black" />
  </g>
  <g id="layer33" slic3r:z="8.475">
    <polygon slic3r:type="contour" points="11.04529,0 11.357133,0.066284 13.090169,0.434658 13.351815,0.551151 14.999999,1.284969 15.257924,1.472362 16.691311,2.51377 16.904635,2.750693 18.09017,4.06737 18.249575,4.343467 19.13546,5.87785 19.233976,6.181057 19.781477,7.866099 19.814801,8.183165 20,9.945219 19.814801,11.707274 19.781477,12.02434 19.233976,13.709381 19.135459,14.01259 18.26398,15.522022 18.09017,15.82307 16.939821,17.100668 16.69131,17.37667 15.257923,18.418076 15,18.605468 13.381419,19.326106 13.090169,19.45578 11.357134,19.824153 11.04529,19.89044 8.95471,19.89044 7.261199,19.530466 6.909829,19.45578 5.291249,18.73514 5,18.605468 3.587183,17.579005 3.30869,17.37667 2.123155,16.059993 1.90983,15.823071 1.023945,14.288687 0.86454,14.01259 0.317037,12.327547 0.21852,12.02434 0.033323,10.262284 0,9.94522 0.033324,9.628153 0.21852,7.8661 0.317037,7.562892 0.864539,5.87785 1.023945,5.601751 1.90983,4.067369 2.123155,3.830446 3.30869,2.51377 3.566614,2.326377 4.999999,1.28497 5.291249,1.155296 6.909829,0.434659 7.221674,0.368373 8.954709,0" style="fill: white" />
    <polygon slic3r:type="hole" points="9.035706,2.00355 7.448722,2.394704 7.16316,2.465088 5.7159,3.22467 5.45548,3.361349 4.232053,4.445209 4.011909,4.64024 3.029412,6.063638 3.029413,6.063638 2.916349,6.22744 2.33676,7.755702 2.23247,8.030699 2.03545,9.653255 2,9.945219 2.03545,10.237183 2.23247,11.859739 2.33676,12.134736 2.916349,13.662999 3.029413,13.826801 3.029412,13.826801 4.01191,15.2502 4.232053,15.445229 5.455479,16.52909 5.715901,16.66577 7.163159,17.425349 7.448723,17.495734 9.035706,17.88689 10.964293,17.88689 11.249855,17.816505 12.83684,17.425349 13.09726,17.28867 14.544519,16.529091 14.764662,16.33406 15.98809,15.2502 16.155162,15.008152 17.083649,13.663 17.18794,13.388002 17.76753,11.859739 17.80298,11.567775 18,9.94522 17.80298,8.322662 17.76753,8.030699 17.18794,6.502436 17.083649,6.227439 16.155162,4.882287 15.98809,4.640239 14.764662,3.556379 14.544519,3.36135 13.09726,2.601768 12.83684,2.465089 11.249855,2.073933 10.964292,2.00355" style="fill: black" />
  </g>
  <g id="layer34" slic3r:z="8.725">
    <polygon slic3r:type="contour" points="11.045289,0 11.306012,0.055419 13.090169,0.434658 13.333673,0.543074 14.999999,1.28497 15.215641,1.441641 16.69131,2.513769 16.869665,2.711854 18.090169,4.067369 18.223443,4.298205 19.13546,5.877849 19.196603,6.066031 19.781478,7.866099 19.809338,8.131187 20,9.945219 19.809338,11.759252 19.781478,12.02434 19.217826,13.759088 19.13546,14.012589 18.223443,15.592234 18.090169,15.823071 16.869664,17.178586 16.691311,17.376669 15.294872,18.391232 15,18.605468 13.304069,19.360545 13.090169,19.45578 11.306011,19.83502 11.04529,19.89044 8.95471,19.89044 7.170551,19.511198 6.90983,19.45578 5.243502,18.713881 4.999999,18.605467 3.524331,17.53334 3.30869,17.37667 2.088183,16.021153 1.909829,15.82307 0.997813,14.243425 0.86454,14.01259 0.300887,12.277841 0.21852,12.02434 0.02786,10.210306 0,9.94522 0.02786,9.680132 0.21852,7.866099 0.300886,7.612598 0.86454,5.87785 0.997814,5.647012 1.909829,4.06737 2.088183,3.869286 3.30869,2.513769 3.524331,2.357098 4.999999,1.28497 5.243503,1.176554 6.90983,0.434659 7.170552,0.379239 8.95471,0" style="fill: white" />
    <polygon slic3r:type="hole" points="9.035707,2.00355 7.401909,2.406243 7.16316,2.465089 5.673208,3.247076 5.45548,3.361349 4.195964,4.477181 4.01191,4.64024 3.056032,6.025072 2.91635,6.227439 2.319663,7.800783 2.23247,8.030699 2.029638,9.701118 2,9.94522 2.029638,10.18932 2.23247,11.859739 2.319663,12.089654 2.91635,13.663 3.056032,13.865367 4.011909,15.2502 4.195964,15.413257 5.45548,16.529091 5.673208,16.643363 7.16316,17.42535 7.401909,17.484195 9.035707,17.88689 10.964293,17.88689 11.203041,17.828043 12.83684,17.42535 13.054568,17.311076 14.544518,16.529091 14.728573,16.366032 15.988091,15.250199 16.127773,15.047832 17.08365,13.663 17.170843,13.433084 17.76753,11.85974 17.797168,11.615638 18,9.945219 17.797168,8.274799 17.76753,8.030699 17.170843,6.457354 17.08365,6.22744 16.127773,4.842607 15.988091,4.64024 14.728573,3.524407 14.544518,3.36135 13.054568,2.579361 12.836839,2.465088 11.1412,2.047153 10.964292,2.00355" style="fill: black" />
  </g>
  <g id="layer35" slic3r:z="8.975">
    <polygon slic3r:type="contour" points="11.045289,0 11.25489,0.044552 13.09017,0.434659 13.285926,0.521815 14.999999,1.284969 15.173358,1.410921 16.691311,2.51377 16.834694,2.673014 18.090169,4.067369 18.211716,4.277893 19.13546,5.87785 19.201675,6.081644 19.781478,7.8661 19.808572,8.123894 20,9.94522 19.808572,11.766545 19.781478,12.024339 19.201675,13.808794 19.13546,14.01259 18.197311,15.637496 18.09017,15.823071 16.834694,17.217425 16.69131,17.37667 15.152789,18.49446 14.999999,18.605468 13.285926,19.368623 13.09017,19.455779 11.25489,19.845886 11.045289,19.89044 8.95471,19.89044 7.059155,19.487519 7.059155,19.48752 6.90983,19.45578 5.195756,18.692623 4.999999,18.605468 3.482048,17.50262 3.30869,17.37667 2.053213,15.982314 1.90983,15.823071 0.971681,14.198163 0.86454,14.01259 0.30596,12.293454 0.21852,12.02434 0.022397,10.158328 0,9.945219 0.022397,9.73211 0.218519,7.8661 0.284736,7.662304 0.86454,5.877849 0.971681,5.692275 1.90983,4.06737 2.053212,3.908126 3.308689,2.51377 3.482048,2.387818 5,1.284969 5.195756,1.197813 6.90983,0.434659 7.11943,0.390106 8.95471,0" style="fill: white" />
    <polygon slic3r:type="hole" points="9.035707,2.00355 7.355095,2.417781 7.16316,2.465089 5.630516,3.269483 5.45548,3.36135 4.159874,4.509153 4.01191,4.64024 3.028644,6.064751 2.91635,6.22744 2.302566,7.845865 2.23247,8.030698 2.023827,9.748981 2,9.94522 2.023827,10.141457 2.23247,11.85974 2.302566,12.044573 2.916349,13.662999 3.028644,13.825688 4.01191,15.250199 4.159875,15.381286 5.45548,16.529091 5.630516,16.620956 7.16316,17.42535 7.355095,17.472656 9.035706,17.88689 10.964293,17.88689 11.156228,17.839582 12.83684,17.42535 13.011876,17.333483 14.544519,16.529091 14.692484,16.398004 15.988091,15.2502 16.100384,15.087512 17.08365,13.662999 17.153746,13.478165 17.76753,11.859739 17.791357,11.663501 18,9.94522 17.791357,8.226936 17.76753,8.030699 17.153746,6.412273 17.08365,6.22744 16.100384,4.802927 15.988091,4.640239 14.692484,3.492435 14.544519,3.36135 13.011876,2.556955 12.83684,2.465089 11.156228,2.050856 10.964293,2.00355" style="fill: black" />
  </g>
  <g id="layer36" slic3r:z="9.225">
    <polygon slic3r:type="contour" points="11.045289,0 11.203768,0.033686 13.090169,0.434658 13.208577,0.487378 14.999999,1.284969 15.131075,1.380201 16.69131,2.513769 16.799721,2.634173 18.090169,4.067369 18.171178,4.207681 19.13546,5.87785 19.185525,6.031938 19.781478,7.8661 19.798412,8.027231 20,9.94522 19.798412,11.863208 19.781478,12.02434 19.185525,13.8585 19.13546,14.012589 18.171178,15.682758 18.09017,15.823071 16.799722,17.256265 16.69131,17.37667 15.131075,18.510236 15,18.605467 13.238181,19.389879 13.090169,19.45578 11.203768,19.856752 11.04529,19.89044 8.95471,19.89044 7.068307,19.489465 6.90983,19.45578 5.14801,18.671366 5,18.605468 3.439765,17.4719 3.30869,17.37667 2.01824,15.943473 1.909829,15.82307 0.931145,14.127952 0.864539,14.012589 0.268585,12.178428 0.21852,12.02434 0.016935,10.106351 0,9.945219 0.016934,9.784088 0.21852,7.866099 0.268585,7.712011 0.86454,5.87785 0.945549,5.737537 1.90983,4.06737 2.01824,3.946966 3.30869,2.513769 3.439766,2.418537 4.999999,1.28497 5.14801,1.219071 6.90983,0.434659 7.068308,0.400972 8.954709,0" style="fill: white" />
    <polygon slic3r:type="hole" points="9.035706,2.00355 7.308282,2.429319 7.16316,2.465088 5.587825,3.291888 5.455479,3.36135 4.123785,4.541126 4.01191,4.64024 3.001254,6.104432 2.91635,6.227439 2.285469,7.890946 2.232469,8.030699 2.018015,9.796844 2,9.94522 2.018015,10.093594 2.232469,11.859739 2.28547,11.999492 2.91635,13.663 3.001254,13.786007 4.01191,15.2502 4.123785,15.349313 5.45548,16.529091 5.587824,16.59855 7.16316,17.42535 7.308282,17.461119 9.035706,17.88689 10.964293,17.88689 11.109414,17.85112 12.836839,17.42535 12.969185,17.355888 14.544518,16.529091 14.656394,16.429976 15.988091,15.250199 16.072995,15.127192 17.083649,13.663 17.136649,13.523247 17.76753,11.85974 17.785545,11.711364 18,9.94522 17.785545,8.179073 17.767529,8.030698 17.13665,6.367192 17.083649,6.227439 16.072995,4.763247 15.988091,4.64024 14.656394,3.460462 14.544519,3.36135 12.969184,2.534548 12.83684,2.465089 11.109414,2.039318 10.964293,2.00355" style="fill: black" />
  </g>
  <g id="layer37" slic3r:z="9.475">
    <polygon slic3r:type="contour" points="11.045289,0 11.152646,0.022819 13.09017,0.434659 13.190435,0.4793 14.999999,1.284969 15.088793,1.349482 16.69131,2.513769 16.76475,2.595333 18.09017,4.067369 18.145046,4.162419 19.13546,5.87785 19.169375,5.982233 19.781478,7.866099 19.792949,7.975253 20,9.94522 19.792949,11.915186 19.781478,12.024339 19.169374,13.908206 19.13546,14.01259 18.145046,15.72802 18.09017,15.823071 16.76475,17.295106 16.69131,17.37667 15.088793,18.540955 14.999999,18.605468 13.190435,19.411138 13.09017,19.455779 11.21292,19.854807 11.04529,19.89044 8.954709,19.89044 7.017185,19.478598 6.90983,19.45578 5.100266,18.650109 5,18.605468 3.397482,17.44118 3.30869,17.37667 1.983269,15.904633 1.909829,15.82307 0.919416,14.107639 0.86454,14.012589 0.252435,12.128722 0.21852,12.02434 0.011471,10.054372 0,9.945219 0.011471,9.836066 0.21852,7.8661 0.252435,7.761717 0.86454,5.87785 0.919416,5.782799 1.90983,4.067369 1.983269,3.985806 3.30869,2.513769 3.397482,2.449258 5,1.284969 5.100265,1.240328 6.909829,0.434659 7.056711,0.403438 8.95471,0" style="fill: white" />
    <polygon slic3r:type="hole" points="9.035707,2.00355 7.261468,2.440858 7.16316,2.465089 5.545133,3.314295 5.45548,3.36135 4.087696,4.573098 4.01191,4.64024 2.973865,6.144112 2.91635,6.22744 2.268372,7.936028 2.23247,8.030698 2.012203,9.844707 2,9.94522 2.012203,10.045731 2.23247,11.85974 2.268372,11.95441 2.916349,13.663 2.973865,13.746327 4.01191,15.2502 4.087696,15.31734 5.45548,16.529091 5.545132,16.576143 7.16316,17.42535 7.261469,17.44958 9.035707,17.88689 10.964293,17.88689 11.0626,17.862659 12.83684,17.425349 12.926492,17.378296 14.544519,16.529091 14.620305,16.461949 15.98809,15.2502 16.045606,15.166872 17.08365,13.662999 17.119552,13.568328 17.76753,11.859739 17.779733,11.759227 18,9.94522 17.779733,8.13121 17.76753,8.030699 17.119553,6.322111 17.08365,6.22744 16.045606,4.723567 15.98809,4.64024 14.620305,3.42849 14.544519,3.36135 12.926492,2.512142 12.83684,2.465089 11.0626,2.027779 10.964293,2.00355" style="fill: black" />
  </g>
  <g id="layer38" slic3r:z="9.725">
    <polygon slic3r:type="contour" points="11.04529,0 11.101523,0.011952 13.09017,0.434659 13.14269,0.458043 15,1.28497 15.04651,1.318761 16.69131,2.513769 16.729778,2.556493 18.09017,4.06737 18.118915,4.117158 19.13546,5.87785 19.153224,5.932525 19.781478,7.866099 19.787487,7.923276 20,9.94522 19.787487,11.967163 19.781478,12.024339 19.153224,13.957913 19.135459,14.01259 18.118914,15.773282 18.090169,15.823071 16.729778,17.333946 16.69131,17.37667 15.125741,18.514112 14.999999,18.605468 13.14269,19.432395 13.09017,19.45578 11.101523,19.878486 11.04529,19.89044 8.95471,19.89044 6.966063,19.467732 6.909829,19.455779 5.052519,18.62885 4.999999,18.605467 3.355201,17.410461 3.30869,17.37667 1.948297,15.865793 1.90983,15.823071 0.893284,14.062377 0.864539,14.012589 0.236285,12.079016 0.218519,12.024339 0.006008,10.002394 0,9.94522 0.006009,9.888043 0.218519,7.8661 0.236284,7.811423 0.86454,5.877849 0.893284,5.828061 1.909829,4.06737 1.948298,4.024645 3.30869,2.51377 3.355201,2.479977 4.999999,1.28497 5.05252,1.261585 6.909829,0.434659 6.966064,0.422705 8.95471,0" style="fill: white" />
    <polygon slic3r:type="hole" points="9.035707,2.00355 7.214654,2.452397 7.16316,2.465089 5.50244,3.336702 5.45548,3.36135 4.051608,4.605069 4.01191,4.640239 2.946476,6.183792 2.91635,6.22744 2.251276,7.981108 2.23247,8.030699 2.006392,9.892569 2,9.94522 2.006391,9.997868 2.23247,11.85974 2.251275,11.909328 2.91635,13.662999 2.946476,13.706647 4.01191,15.2502 4.051607,15.285368 5.45548,16.529091 5.50244,16.553737 7.16316,17.42535 7.214654,17.438041 9.035707,17.88689 10.964292,17.88689 11.015787,17.874197 12.83684,17.425349 12.8838,17.400702 14.544519,16.52909 14.584216,16.493921 15.988091,15.2502 16.018218,15.206551 17.083649,13.663 17.102456,13.613409 17.767529,11.85974 17.773921,11.80709 18,9.945219 17.773922,8.083348 17.76753,8.030698 17.102456,6.277029 17.08365,6.227439 16.018218,4.683888 15.988091,4.64024 14.584216,3.396518 14.544519,3.36135 12.8838,2.489735 12.83684,2.465089 11.015787,2.016241 10.964293,2.00355" style="fill: black" />
  </g>
  <g id="layer39" slic3r:z="9.975">
    <polygon slic3r:type="contour" points="11.04529,0 11.050401,0.001085 13.09017,0.434659 13.094943,0.436784 15,1.28497 15.004228,1.288042 16.691311,2.51377 16.694807,2.517653 18.09017,4.06737 18.092782,4.071895 19.13546,5.87785 19.137074,5.882819 19.781478,7.866099 19.782024,7.871298 20,9.945219 19.782024,12.019141 19.781478,12.024339 19.137074,14.007619 19.13546,14.012589 18.092782,15.818544 18.09017,15.82307 16.694807,17.372786 16.691311,17.37667 15.004228,18.602395 15,18.605467 13.094943,19.453654 13.09017,19.455779 11.050401,19.889353 11.04529,19.89044 8.95471,19.89044 6.914942,19.456866 6.90983,19.45578 5.004773,18.607592 4.999999,18.605468 3.312918,17.379741 3.308689,17.376669 1.913327,15.826954 1.90983,15.823071 0.867152,14.017115 0.86454,14.01259 0.220134,12.029309 0.21852,12.02434 0.000545,9.950416 0,9.94522 0.000546,9.940021 0.218519,7.8661 0.220134,7.861129 0.86454,5.877849 0.867153,5.873322 1.90983,4.067369 1.913327,4.063485 3.308689,2.51377 3.312918,2.510697 4.999999,1.28497 5.004773,1.282844 6.90983,0.434658 6.914941,0.433573 8.95471,0" style="fill: white" />
    <polygon slic3r:type="hole" points="9.035707,2.00355 7.16316,2.465088 5.455481,3.361348 4.011912,4.640235 2.916351,6.227437 2.23247,8.030696 1.999999,9.945219 2.23247,11.859742 2.916351,13.663002 4.011911,15.250201 5.455478,16.529089 7.163157,17.425348 9.035707,17.88689 10.964292,17.88689 12.836838,17.42535 14.544514,16.529093 15.988088,15.250202 17.083647,13.663003 17.767529,11.859741 18,9.945219 17.767529,8.030698 17.083648,6.227437 15.988088,4.640237 14.544517,3.361349 12.836838,2.465088 10.964296,2.00355" style="fill: black" />
  </g>
</svg>
